<svg width="202" height="184" viewBox="0 0 202 184" fill="none" xmlns="http://www.w3.org/2000/svg">
<g clip-path="url(#clip0)">
<path d="M106.535 81.0681L158.967 77.7842" stroke="#002FA7" stroke-width="1.2" stroke-miterlimit="10"/>
<path d="M106.535 81.0681L158.657 74.5143" stroke="#002FA7" stroke-width="1.2" stroke-miterlimit="10"/>
<path d="M106.535 81.0681L158.14 71.2693" stroke="#002FA7" stroke-width="1.2" stroke-miterlimit="10"/>
<path d="M106.535 81.0681L157.42 68.0632" stroke="#002FA7" stroke-width="1.2" stroke-miterlimit="10"/>
<path d="M106.535 81.0681L156.5 64.9072" stroke="#002FA7" stroke-width="1.2" stroke-miterlimit="10"/>
<path d="M106.535 81.0681L155.38 61.815" stroke="#002FA7" stroke-width="1.2" stroke-miterlimit="10"/>
<path d="M106.535 81.0681L154.069 58.8006" stroke="#002FA7" stroke-width="1.2" stroke-miterlimit="10"/>
<path d="M106.535 81.0681L152.57 55.8724" stroke="#002FA7" stroke-width="1.2" stroke-miterlimit="10"/>
<path d="M106.535 81.0681L150.89 53.0442" stroke="#002FA7" stroke-width="1.2" stroke-miterlimit="10"/>
<path d="M106.535 81.0681L149.037 50.3271" stroke="#002FA7" stroke-width="1.2" stroke-miterlimit="10"/>
<path d="M106.535 81.0681L147.014 47.7322" stroke="#002FA7" stroke-width="1.2" stroke-miterlimit="10"/>
<path d="M106.535 81.0681L144.832 45.2679" stroke="#002FA7" stroke-width="1.2" stroke-miterlimit="10"/>
<path d="M106.535 81.0681L142.499 42.9426" stroke="#002FA7" stroke-width="1.2" stroke-miterlimit="10"/>
<path d="M106.535 81.0681L140.023 40.77" stroke="#002FA7" stroke-width="1.2" stroke-miterlimit="10"/>
<path d="M106.535 81.0681L137.414 38.7585" stroke="#002FA7" stroke-width="1.2" stroke-miterlimit="10"/>
<path d="M106.535 81.0681L134.685 36.911" stroke="#002FA7" stroke-width="1.2" stroke-miterlimit="10"/>
<path d="M106.535 81.068L131.844 35.2385" stroke="#002FA7" stroke-width="1.2" stroke-miterlimit="10"/>
<path d="M106.535 81.0681L128.902 33.7466" stroke="#002FA7" stroke-width="1.2" stroke-miterlimit="10"/>
<path d="M106.535 81.0681L125.874 32.4409" stroke="#002FA7" stroke-width="1.2" stroke-miterlimit="10"/>
<path d="M106.535 81.0681L122.768 31.3296" stroke="#002FA7" stroke-width="1.2" stroke-miterlimit="10"/>
<path d="M106.535 81.0681L119.601 30.4128" stroke="#002FA7" stroke-width="1.2" stroke-miterlimit="10"/>
<path d="M106.535 81.0681L116.378 29.696" stroke="#002FA7" stroke-width="1.2" stroke-miterlimit="10"/>
<path d="M106.535 81.0681L113.118 29.182" stroke="#002FA7" stroke-width="1.2" stroke-miterlimit="10"/>
<path d="M106.535 81.0682L110.394 20.0168" stroke="#002FA7" stroke-width="1.2" stroke-miterlimit="10"/>
<path d="M106.535 81.0681V28.7681" stroke="#F3DB8D" stroke-width="1.2" stroke-miterlimit="10"/>
<path d="M106.535 81.0681L103.267 29.3515" stroke="#F3DB8D" stroke-width="1.2" stroke-miterlimit="10"/>
<path d="M106.535 81.0681L100.01 29.6571" stroke="#F3DB8D" stroke-width="1.2" stroke-miterlimit="10"/>
<path d="M106.535 81.0681L95.0484 21.128" stroke="#F3DB8D" stroke-width="1.2" stroke-miterlimit="10"/>
<path opacity="0.61" d="M106.535 81.0681L93.4688 30.4128" stroke="#FF8C3E" stroke-width="1.2" stroke-miterlimit="10"/>
<path opacity="0.61" d="M106.535 81.0681L90.3014 31.3296" stroke="#FF8C3E" stroke-width="1.2" stroke-miterlimit="10"/>
<path opacity="0.61" d="M106.535 81.0681L87.1954 32.4409" stroke="#FF8C3E" stroke-width="1.2" stroke-miterlimit="10"/>
<path opacity="0.61" d="M106.535 81.0681L84.1674 33.7466" stroke="#FF8C3E" stroke-width="1.2" stroke-miterlimit="10"/>
<path opacity="0.61" d="M106.535 81.0681L81.226 35.2385" stroke="#FF8C3E" stroke-width="1.2" stroke-miterlimit="10"/>
<path opacity="0.61" d="M106.535 81.0681L78.3851 36.911" stroke="#FF8C3E" stroke-width="1.2" stroke-miterlimit="10"/>
<path opacity="0.61" d="M106.535 81.0681L75.6558 38.7585" stroke="#FF8C3E" stroke-width="1.2" stroke-miterlimit="10"/>
<path opacity="0.61" d="M106.535 81.0681L67.3451 33.9078" stroke="#FF8C3E" stroke-width="1.2" stroke-miterlimit="10"/>
<path opacity="0.61" d="M106.535 81.0681L70.5712 42.9425" stroke="#FF1D25" stroke-width="1.2" stroke-miterlimit="10"/>
<path opacity="0.61" d="M106.535 81.0681L68.2381 45.2679" stroke="#FF1D25" stroke-width="1.2" stroke-miterlimit="10"/>
<path opacity="0.61" d="M106.535 81.0681L66.0558 47.7322" stroke="#FF1D25" stroke-width="1.2" stroke-miterlimit="10"/>
<path opacity="0.61" d="M106.535 81.0681L64.0326 50.327" stroke="#FF1D25" stroke-width="1.2" stroke-miterlimit="10"/>
<path opacity="0.61" d="M106.535 81.0681L62.1795 53.0442" stroke="#FF1D25" stroke-width="1.2" stroke-miterlimit="10"/>
<path opacity="0.61" d="M106.535 81.0681L60.4995 55.8724" stroke="#FF1D25" stroke-width="1.2" stroke-miterlimit="10"/>
<path opacity="0.61" d="M106.535 81.0681L59.0009 58.8006" stroke="#FF1D25" stroke-width="1.2" stroke-miterlimit="10"/>
<path opacity="0.61" d="M106.535 81.0681L57.6893 61.815" stroke="#FF1D25" stroke-width="1.2" stroke-miterlimit="10"/>
<path opacity="0.61" d="M106.535 81.0681L56.5702 64.9072" stroke="#FF1D25" stroke-width="1.2" stroke-miterlimit="10"/>
<path opacity="0.61" d="M106.535 81.0681L55.6493 68.0632" stroke="#FF1D25" stroke-width="1.2" stroke-miterlimit="10"/>
<path opacity="0.61" d="M106.535 81.0681L54.9293 71.2693" stroke="#FF1D25" stroke-width="1.2" stroke-miterlimit="10"/>
<path opacity="0.61" d="M106.535 81.0681L54.413 74.5142" stroke="#FF1D25" stroke-width="1.2" stroke-miterlimit="10"/>
<path opacity="0.61" d="M106.535 81.0681L54.1033 77.7842" stroke="#FF1D25" stroke-width="1.2" stroke-miterlimit="10"/>
<path opacity="0.61" d="M106.535 81.0681H54" stroke="#FF1D25" stroke-width="1.2" stroke-miterlimit="10"/>
<path opacity="0.61" d="M106.535 81.0681L54.1033 84.3519" stroke="#FF1D25" stroke-width="1.2" stroke-miterlimit="10"/>
<path opacity="0.61" d="M106.535 81.0681L54.413 87.6246" stroke="#FF1D25" stroke-width="1.2" stroke-miterlimit="10"/>
<path opacity="0.61" d="M106.535 81.0681L54.9293 90.8696" stroke="#FF1D25" stroke-width="1.2" stroke-miterlimit="10"/>
<path opacity="0.61" d="M106.535 81.0681L55.6493 94.0757" stroke="#FF1D25" stroke-width="1.2" stroke-miterlimit="10"/>
<path opacity="0.61" d="M106.535 81.0681L56.5702 97.2317" stroke="#FF1D25" stroke-width="1.2" stroke-miterlimit="10"/>
<path opacity="0.61" d="M106.535 81.0681L57.6893 100.321" stroke="#FF1D25" stroke-width="1.2" stroke-miterlimit="10"/>
<path opacity="0.61" d="M106.535 81.0681L59.0009 103.338" stroke="#FF1D25" stroke-width="1.2" stroke-miterlimit="10"/>
<path opacity="0.61" d="M106.535 81.0681L60.4995 106.264" stroke="#FF1D25" stroke-width="1.2" stroke-miterlimit="10"/>
<path opacity="0.61" d="M106.535 81.0681L62.1795 109.092" stroke="#FF1D25" stroke-width="1.2" stroke-miterlimit="10"/>
<path opacity="0.61" d="M106.535 81.0681L64.0326 111.809" stroke="#FF1D25" stroke-width="1.2" stroke-miterlimit="10"/>
<path opacity="0.61" d="M106.535 81.0681L66.0558 114.407" stroke="#FF1D25" stroke-width="1.2" stroke-miterlimit="10"/>
<path opacity="0.61" d="M106.535 81.0681L68.2381 116.871" stroke="#FF1D25" stroke-width="1.2" stroke-miterlimit="10"/>
<path opacity="0.61" d="M106.535 81.0681L70.5712 119.194" stroke="#FF1D25" stroke-width="1.2" stroke-miterlimit="10"/>
<path opacity="0.61" d="M106.535 81.0681L73.0465 121.366" stroke="#FF1D25" stroke-width="1.2" stroke-miterlimit="10"/>
<path opacity="0.61" d="M106.535 81.0681L75.6558 123.38" stroke="#FF1D25" stroke-width="1.2" stroke-miterlimit="10"/>
<path opacity="0.61" d="M106.535 81.0681L78.3851 125.228" stroke="#FF1D25" stroke-width="1.2" stroke-miterlimit="10"/>
<path opacity="0.61" d="M106.535 81.0681L81.2261 126.9" stroke="#FF1D25" stroke-width="1.2" stroke-miterlimit="10"/>
<path opacity="0.61" d="M106.535 81.0681L84.1674 128.392" stroke="#FF1D25" stroke-width="1.2" stroke-miterlimit="10"/>
<path opacity="0.61" d="M106.535 81.0681L87.1953 129.695" stroke="#FF1D25" stroke-width="1.2" stroke-miterlimit="10"/>
<path opacity="0.61" d="M106.535 81.0681L90.3014 130.809" stroke="#FF1D25" stroke-width="1.2" stroke-miterlimit="10"/>
<path opacity="0.61" d="M106.535 81.0681L93.4688 131.726" stroke="#FF1D25" stroke-width="1.2" stroke-miterlimit="10"/>
<path opacity="0.61" d="M106.535 81.0681L96.6921 132.443" stroke="#FF1D25" stroke-width="1.2" stroke-miterlimit="10"/>
<path opacity="0.61" d="M106.535 81.0681L99.9516 132.957" stroke="#FF1D25" stroke-width="1.2" stroke-miterlimit="10"/>
<path opacity="0.61" d="M106.535 81.0681L102.687 141.981" stroke="#FF1D25" stroke-width="1.2" stroke-miterlimit="10"/>
<path opacity="0.61" d="M106.535 81.0681V133.368" stroke="#02A1FF" stroke-width="1.2" stroke-miterlimit="10"/>
<path d="M106.535 81.0681L109.833 133.265" stroke="#02A1FF" stroke-width="1.2" stroke-miterlimit="10"/>
<path d="M106.535 81.0681L113.118 132.957" stroke="#02A1FF" stroke-width="1.2" stroke-miterlimit="10"/>
<path d="M106.535 81.0681L116.378 132.443" stroke="#02A1FF" stroke-width="1.2" stroke-miterlimit="10"/>
<path d="M106.535 81.0681L119.601 131.726" stroke="#02A1FF" stroke-width="1.2" stroke-miterlimit="10"/>
<path d="M106.535 81.0681L122.768 130.809" stroke="#02A1FF" stroke-width="1.2" stroke-miterlimit="10"/>
<path d="M106.535 81.0681L125.874 129.695" stroke="#02A1FF" stroke-width="1.2" stroke-miterlimit="10"/>
<path d="M106.535 81.0681L128.902 128.392" stroke="#02A1FF" stroke-width="1.2" stroke-miterlimit="10"/>
<path d="M106.535 81.0681L131.844 126.9" stroke="#02A1FF" stroke-width="1.2" stroke-miterlimit="10"/>
<path d="M106.535 81.0681L134.685 125.228" stroke="#02A1FF" stroke-width="1.2" stroke-miterlimit="10"/>
<path d="M106.535 81.0681L137.414 123.38" stroke="#02A1FF" stroke-width="1.2" stroke-miterlimit="10"/>
<path d="M106.535 81.0681L140.023 121.366" stroke="#02A1FF" stroke-width="1.2" stroke-miterlimit="10"/>
<path d="M106.535 81.0681L142.499 119.194" stroke="#02A1FF" stroke-width="1.2" stroke-miterlimit="10"/>
<path d="M106.535 81.0681L144.832 116.871" stroke="#02A1FF" stroke-width="1.2" stroke-miterlimit="10"/>
<path d="M106.535 81.0681L147.014 114.407" stroke="#02A1FF" stroke-width="1.2" stroke-miterlimit="10"/>
<path d="M106.535 81.0681L149.037 111.809" stroke="#02A1FF" stroke-width="1.2" stroke-miterlimit="10"/>
<path d="M106.535 81.0681L150.89 109.092" stroke="#02A1FF" stroke-width="1.2" stroke-miterlimit="10"/>
<path d="M106.535 81.0681L152.57 106.264" stroke="#02A1FF" stroke-width="1.2" stroke-miterlimit="10"/>
<path d="M106.535 81.0681L154.069 103.338" stroke="#02A1FF" stroke-width="1.2" stroke-miterlimit="10"/>
<path d="M106.535 81.0681L155.38 100.321" stroke="#02A1FF" stroke-width="1.2" stroke-miterlimit="10"/>
<path d="M106.535 81.0681L156.5 97.2318" stroke="#02A1FF" stroke-width="1.2" stroke-miterlimit="10"/>
<path d="M106.535 81.0681L157.42 94.0757" stroke="#02A1FF" stroke-width="1.2" stroke-miterlimit="10"/>
<path d="M106.535 81.0681L158.14 90.8696" stroke="#02A1FF" stroke-width="1.2" stroke-miterlimit="10"/>
<path d="M106.535 81.0681L158.657 87.6247" stroke="#02A1FF" stroke-width="1.2" stroke-miterlimit="10"/>
<path d="M106.535 81.0681L158.967 84.3519" stroke="#02A1FF" stroke-width="1.2" stroke-miterlimit="10"/>
<path d="M106.535 81.0681H168" stroke="#02A1FF" stroke-width="1.2" stroke-miterlimit="10"/>
<path d="M106.535 121.422C128.922 121.422 147.07 103.355 147.07 81.0681C147.07 58.7814 128.922 40.7144 106.535 40.7144C84.1481 40.7144 66 58.7814 66 81.0681C66 103.355 84.1481 121.422 106.535 121.422Z" fill="white"/>
<g opacity="0.51">
<path opacity="0.61" d="M84.3376 54.3582C88.2279 51.1522 92.8297 48.774 97.8753 47.4905" stroke="#FF8C3E" stroke-width="2" stroke-miterlimit="10"/>
<path opacity="0.61" d="M104.23 115.651C86.0623 114.473 71.7209 99.4543 71.7209 81.0681C71.7209 71.097 75.9377 62.1178 82.6967 55.7974" stroke="#FF1D25" stroke-width="2" stroke-miterlimit="10"/>
<path opacity="0.61" d="M141.349 81.0681C141.349 100.224 125.777 115.726 106.535 115.726" stroke="#02A1FF" stroke-width="2" stroke-miterlimit="10"/>
<path opacity="0.61" d="M108.555 46.4686C126.131 47.4659 140.196 61.4182 141.282 78.8932" stroke="#002FA7" stroke-width="2" stroke-miterlimit="10"/>
<path opacity="0.61" d="M100.01 47.0182C102.123 46.6209 104.305 46.4125 106.535 46.4125" stroke="#F3DB8D" stroke-width="2" stroke-miterlimit="10"/>
</g>
<path d="M110.584 96.2288C110.414 96.2288 110.249 96.2983 110.129 96.4177C110.009 96.5372 109.94 96.7011 109.94 96.8734C109.94 97.0428 110.009 97.2068 110.129 97.329C110.249 97.4485 110.417 97.5179 110.584 97.5179C110.752 97.5179 110.919 97.4485 111.039 97.329C111.159 97.2095 111.229 97.0428 111.229 96.8734C111.229 96.7039 111.159 96.54 111.039 96.4177C110.919 96.2955 110.754 96.2288 110.584 96.2288Z" fill="#009BE2"/>
<path d="M107.034 89.5472C106.68 89.5472 106.39 89.8361 106.39 90.1889V96.8872C106.39 97.2429 106.677 97.529 107.034 97.529C107.389 97.529 107.679 97.2401 107.679 96.8872V90.1889C107.679 89.8333 107.389 89.5472 107.034 89.5472Z" fill="#009BE2"/>
<path d="M113.392 69.6801C112.842 69.6801 112.323 69.8941 111.935 70.283C111.547 70.672 111.332 71.1859 111.332 71.736C111.332 72.8918 110.913 73.9836 110.149 74.8449C110.199 74.6087 110.224 74.3642 110.224 74.1142C110.224 72.1305 108.606 70.5192 106.616 70.5192C104.626 70.5192 103.007 72.1333 103.007 74.1142C103.007 74.3642 103.033 74.6087 103.083 74.8449C102.349 74.0169 101.9 72.9279 101.9 71.736C101.9 70.6025 100.976 69.6829 99.8372 69.6829C98.6986 69.6829 97.7749 70.6053 97.7749 71.7388C97.7749 75.1588 99.7423 78.2343 102.82 79.6956V86.2939C102.82 86.2967 102.82 86.2995 102.82 86.305V96.8789C102.82 97.2345 103.108 97.5207 103.465 97.5207C103.822 97.5207 104.11 97.2345 104.11 96.8789V86.9468H109.937V94.3091C109.937 94.6647 110.224 94.9508 110.581 94.9508C110.939 94.9508 111.226 94.6619 111.226 94.3091V79.2539C111.818 78.8899 112.367 78.4593 112.861 77.9676C114.533 76.3006 115.454 74.092 115.454 71.7416C115.454 70.6025 114.53 69.6801 113.392 69.6801ZM106.616 71.8027C107.894 71.8027 108.935 72.839 108.935 74.1142C108.935 75.3894 107.894 76.4257 106.616 76.4257C105.338 76.4257 104.297 75.3894 104.297 74.1142C104.297 72.839 105.338 71.8027 106.616 71.8027ZM111.952 77.0535C111.452 77.5508 110.886 77.9759 110.272 78.3176C110.068 78.4315 109.94 78.6455 109.94 78.8788V85.6549H104.113V79.2733C104.113 79.015 103.956 78.7816 103.716 78.6816C100.892 77.5064 99.067 74.7782 99.067 71.736C99.067 71.311 99.413 70.9665 99.84 70.9665C100.267 70.9665 100.613 71.311 100.613 71.736C100.613 75.0366 103.306 77.7203 106.616 77.7203C108.218 77.7203 109.725 77.098 110.858 75.9673C111.993 74.8365 112.619 73.3335 112.619 71.7388C112.619 71.5332 112.7 71.3387 112.845 71.1943C112.99 71.0498 113.185 70.9692 113.392 70.9692C113.819 70.9692 114.165 71.3137 114.165 71.7388C114.167 73.7419 113.38 75.6311 111.952 77.0535Z" fill="#009BE2"/>
<path d="M119.908 66.7686C120.265 66.7686 120.553 66.4824 120.553 66.1268V65.2405C120.553 64.8849 120.265 64.5988 119.908 64.5988C119.553 64.5988 119.263 64.8877 119.263 65.2405V66.1268C119.263 66.4824 119.553 66.7686 119.908 66.7686Z" fill="#009BE2"/>
<path d="M119.908 71.0192C120.265 71.0192 120.553 70.7303 120.553 70.3775V69.4912C120.553 69.1356 120.265 68.8495 119.908 68.8495C119.553 68.8495 119.263 69.1384 119.263 69.4912V70.3775C119.263 70.7303 119.553 71.0192 119.908 71.0192Z" fill="#009BE2"/>
<path d="M121.596 68.4494H122.487C122.844 68.4494 123.131 68.1632 123.131 67.8076C123.131 67.452 122.844 67.1659 122.487 67.1659H121.596C121.239 67.1659 120.952 67.4548 120.952 67.8076C120.952 68.1605 121.239 68.4494 121.596 68.4494Z" fill="#009BE2"/>
<path d="M117.332 68.4494H118.222C118.577 68.4494 118.867 68.1632 118.867 67.8076C118.867 67.452 118.58 67.1659 118.222 67.1659H117.332C116.978 67.1659 116.687 67.4548 116.687 67.8076C116.687 68.1605 116.975 68.4494 117.332 68.4494Z" fill="#009BE2"/>
<path d="M112.074 60.9704C112.429 60.9704 112.719 60.6815 112.719 60.3287V59.4424C112.719 59.0868 112.432 58.8006 112.074 58.8006C111.72 58.8006 111.43 59.0896 111.43 59.4424V60.3287C111.433 60.6815 111.72 60.9704 112.074 60.9704Z" fill="#009BE2"/>
<path d="M112.074 65.2183C112.429 65.2183 112.719 64.9294 112.719 64.5766V63.6903C112.719 63.3347 112.432 63.0485 112.074 63.0485C111.72 63.0485 111.43 63.3375 111.43 63.6903V64.5766C111.433 64.9322 111.72 65.2183 112.074 65.2183Z" fill="#009BE2"/>
<path d="M113.763 62.6512H114.653C115.007 62.6512 115.298 62.3623 115.298 62.0095C115.298 61.6566 115.01 61.3677 114.653 61.3677H113.763C113.408 61.3677 113.118 61.6539 113.118 62.0095C113.118 62.3651 113.406 62.6512 113.763 62.6512Z" fill="#009BE2"/>
<path d="M109.499 62.6512H110.389C110.743 62.6512 111.033 62.3623 111.033 62.0095C111.033 61.6566 110.746 61.3677 110.389 61.3677H109.499C109.144 61.3677 108.854 61.6539 108.854 62.0095C108.854 62.3651 109.144 62.6512 109.499 62.6512Z" fill="#009BE2"/>
<path d="M95.4391 84.1686C95.7935 84.1686 96.0837 83.8796 96.0837 83.5268V82.6405C96.0837 82.2849 95.7963 81.9988 95.4391 81.9988C95.0818 81.9988 94.7944 82.2877 94.7944 82.6405V83.5268C94.7944 83.8824 95.0846 84.1686 95.4391 84.1686Z" fill="#009BE2"/>
<path d="M95.4391 88.4192C95.7935 88.4192 96.0837 88.1303 96.0837 87.7775V86.8912C96.0837 86.5356 95.7963 86.2495 95.4391 86.2495C95.0818 86.2495 94.7944 86.5384 94.7944 86.8912V87.7775C94.7944 88.1303 95.0846 88.4192 95.4391 88.4192Z" fill="#009BE2"/>
<path d="M97.1274 85.8494H98.0177C98.3721 85.8494 98.6623 85.5605 98.6623 85.2076C98.6623 84.852 98.3749 84.5659 98.0177 84.5659H97.1274C96.773 84.5659 96.4828 84.852 96.4828 85.2076C96.4828 85.5633 96.7702 85.8494 97.1274 85.8494Z" fill="#009BE2"/>
<path d="M92.8632 85.8494H93.7535C94.1079 85.8494 94.3981 85.5605 94.3981 85.2076C94.3981 84.852 94.1107 84.5659 93.7535 84.5659H92.8632C92.5088 84.5659 92.2186 84.852 92.2186 85.2076C92.2186 85.5633 92.506 85.8494 92.8632 85.8494Z" fill="#009BE2"/>
<ellipse opacity="0.2" cx="106.943" cy="86.8576" rx="8.72242" ry="8.68543" fill="#009BE2"/>
</g>
<path d="M156.5 123C160.642 123 164 126.358 164 130.5C164 134.642 160.642 138 156.5 138C152.358 138 149 134.642 149 130.5C149 126.358 152.358 123 156.5 123ZM156.5 124.172C153.005 124.172 150.172 127.005 150.172 130.5C150.172 133.995 153.005 136.828 156.5 136.828C159.995 136.828 162.828 133.995 162.828 130.5C162.828 127.005 159.995 124.172 156.5 124.172ZM159.387 131.084C159.708 131.125 159.935 131.419 159.894 131.74C159.675 133.437 158.22 134.712 156.498 134.712C154.793 134.712 153.341 133.432 153.107 131.746C153.063 131.425 153.286 131.129 153.607 131.085C153.924 131.041 154.218 131.26 154.266 131.575L154.268 131.585C154.422 132.695 155.381 133.54 156.498 133.54C157.62 133.54 158.569 132.719 158.727 131.624L158.731 131.59C158.773 131.269 159.066 131.043 159.387 131.084ZM153.893 128.083C154.297 128.083 154.625 128.411 154.625 128.815C154.625 129.22 154.297 129.548 153.893 129.548C153.488 129.548 153.16 129.22 153.16 128.815C153.16 128.411 153.488 128.083 153.893 128.083ZM159.107 128.083C159.512 128.083 159.84 128.411 159.84 128.815C159.84 129.22 159.512 129.548 159.107 129.548C158.703 129.548 158.375 129.22 158.375 128.815C158.375 128.411 158.703 128.083 159.107 128.083Z" fill="#02A1FF"/>
<path d="M160.5 25C164.642 25 168 28.358 168 32.5C168 36.642 164.642 40 160.5 40C156.358 40 153 36.642 153 32.5C153 28.358 156.358 25 160.5 25ZM160.5 26C156.91 26 154 28.91 154 32.5C154 36.09 156.91 39 160.5 39C164.09 39 167 36.09 167 32.5C167 28.91 164.09 26 160.5 26ZM164 32.5C164.066 32.5 164.131 32.5129 164.191 32.5381C164.252 32.5632 164.307 32.6 164.354 32.6464C164.4 32.6929 164.437 32.748 164.462 32.8087C164.487 32.8693 164.5 32.9343 164.5 33C164.5 34.0609 164.079 35.0783 163.328 35.8284C162.578 36.5786 161.561 37 160.5 37C159.439 37 158.422 36.5786 157.672 35.8284C156.921 35.0783 156.5 34.0609 156.5 33C156.5 32.9343 156.513 32.8693 156.538 32.8087C156.563 32.748 156.6 32.6929 156.646 32.6464C156.693 32.6 156.748 32.5632 156.809 32.5381C156.869 32.5129 156.934 32.5 157 32.5H164ZM163.458 33.5H157.542L157.551 33.551C157.676 34.2202 158.025 34.8269 158.54 35.2716C159.056 35.7163 159.707 35.9724 160.388 35.998L160.5 36C161.2 35.9999 161.878 35.7551 162.417 35.3079C162.955 34.8606 163.321 34.2392 163.45 33.551L163.458 33.5ZM158.25 29.5C158.449 29.5 158.64 29.579 158.78 29.7197C158.921 29.8603 159 30.0511 159 30.25C159 30.4489 158.921 30.6397 158.78 30.7803C158.64 30.921 158.449 31 158.25 31C158.051 31 157.86 30.921 157.72 30.7803C157.579 30.6397 157.5 30.4489 157.5 30.25C157.5 30.0511 157.579 29.8603 157.72 29.7197C157.86 29.579 158.051 29.5 158.25 29.5ZM162.75 29.5C162.949 29.5 163.14 29.579 163.28 29.7197C163.421 29.8603 163.5 30.0511 163.5 30.25C163.5 30.4489 163.421 30.6397 163.28 30.7803C163.14 30.921 162.949 31 162.75 31C162.551 31 162.36 30.921 162.22 30.7803C162.079 30.6397 162 30.4489 162 30.25C162 30.0511 162.079 29.8603 162.22 29.7197C162.36 29.579 162.551 29.5 162.75 29.5Z" fill="#002FA7" stroke="#002FA7" stroke-width="0.2"/>
<path d="M102.5 1.75361C103.411 1.75361 104.295 1.9318 105.126 2.28348C105.929 2.62327 106.65 3.10977 107.27 3.72957C107.89 4.34937 108.377 5.071 108.716 5.87418C109.068 6.70549 109.246 7.58889 109.246 8.49992C109.246 9.41095 109.068 10.2945 108.716 11.1257C108.377 11.9288 107.89 12.6505 107.27 13.2703C106.65 13.8901 105.929 14.3766 105.126 14.7164C104.295 15.0682 103.411 15.2464 102.5 15.2464C101.589 15.2464 100.705 15.0682 99.8742 14.7165C99.071 14.3767 98.3494 13.8902 97.7296 13.2704C97.1098 12.6506 96.6233 11.929 96.2835 11.1258C95.932 10.2945 95.7536 9.41111 95.7536 8.50008C95.7536 7.58905 95.9318 6.70549 96.2835 5.87434C96.6233 5.07116 97.1098 4.34954 97.7296 3.72974C98.3494 3.10994 99.071 2.62344 99.8742 2.28365C100.705 1.93196 101.589 1.75361 102.5 1.75361ZM102.5 1C98.3577 1 95 4.35791 95 8.49992C95 12.6421 98.3579 16 102.5 16C106.642 16 110 12.6421 110 8.49992C110 4.35791 106.642 1 102.5 1Z" fill="#F3DB8D" stroke="#F3DB8D" stroke-width="0.5"/>
<path d="M98.8004 7.8834C98.8004 8.08327 98.8798 8.27496 99.0211 8.41629C99.1625 8.55762 99.3542 8.63701 99.554 8.63701C99.7539 8.63701 99.9456 8.55762 100.087 8.41629C100.228 8.27496 100.308 8.08327 100.308 7.8834C100.308 7.68353 100.228 7.49185 100.087 7.35052C99.9456 7.20919 99.7539 7.1298 99.554 7.1298C99.3542 7.1298 99.1625 7.20919 99.0211 7.35052C98.8798 7.49185 98.8004 7.68353 98.8004 7.8834Z" fill="#F3DB8D"/>
<path d="M104.65 7.8834C104.65 8.08327 104.729 8.27496 104.87 8.41629C105.012 8.55762 105.203 8.63701 105.403 8.63701C105.603 8.63701 105.795 8.55762 105.936 8.41629C106.078 8.27496 106.157 8.08327 106.157 7.8834C106.157 7.68353 106.078 7.49185 105.936 7.35052C105.795 7.20919 105.603 7.1298 105.403 7.1298C105.203 7.1298 105.012 7.20919 104.87 7.35052C104.729 7.49185 104.65 7.68353 104.65 7.8834Z" fill="#F3DB8D"/>
<path d="M104.316 6.96216C104.201 6.96216 104.09 6.90355 104.027 6.79821C103.933 6.63912 103.985 6.43363 104.144 6.33918L106.32 5.04716C106.48 4.95271 106.685 5.00512 106.779 5.16422C106.874 5.32331 106.822 5.5288 106.662 5.62325L104.486 6.91527C104.433 6.94709 104.374 6.96216 104.316 6.96216ZM100.642 6.96216C100.584 6.96216 100.525 6.94709 100.471 6.9151L98.295 5.62308C98.1359 5.52863 98.0835 5.32315 98.178 5.16405C98.2724 5.00496 98.4779 4.95254 98.637 5.04699L100.813 6.33901C100.972 6.43346 101.025 6.63895 100.93 6.79804C100.868 6.90372 100.756 6.96216 100.642 6.96216ZM103.944 12.6742H100.919C100.711 12.6742 100.541 12.5019 100.541 12.2902V12.2734L100.866 9.04447C100.877 8.85523 101.024 8.7025 101.209 8.68609L103.497 8.38163H103.519C103.718 8.38163 103.881 8.53855 103.895 8.73683L104.321 12.2703V12.2903C104.321 12.502 104.152 12.6742 103.944 12.6742ZM101.241 12.0043H103.614L103.263 9.08835L101.511 9.32146L101.241 12.0043Z" fill="#F3DB8D" stroke="#F3DB8D" stroke-width="0.5"/>
<path d="M101.119 11.1034C100.939 11.1034 100.791 10.9607 100.785 10.7795C100.779 10.5946 100.923 10.4397 101.108 10.4337L103.641 10.3499C103.645 10.3498 103.648 10.3498 103.652 10.3498C103.832 10.3498 103.981 10.4925 103.987 10.6737C103.993 10.8585 103.848 11.0135 103.663 11.0195L101.13 11.1032C101.127 11.1034 101.123 11.1034 101.119 11.1034Z" fill="#F3DB8D" stroke="#F3DB8D" stroke-width="0.5"/>
<path d="M81.9746 13.8838C81.6799 10.2671 78.7597 7.32009 75.1162 7.02539C70.4814 6.65032 66.6503 10.4814 67.0254 15.1162C67.3201 18.7597 70.2671 21.7067 73.8838 21.9746C78.5186 22.3497 82.3497 18.5186 81.9746 13.8838ZM80.903 15.0358C80.6619 18.1435 78.1435 20.6619 75.009 20.9298C70.9636 21.2245 67.6148 17.7685 68.1238 13.6695C68.4989 10.8029 70.8029 8.49888 73.6695 8.12381C77.7685 7.61479 81.2245 10.9636 80.903 15.0358Z" fill="#FF8C3E" stroke="#FF8C3E" stroke-width="0.1"/>
<path d="M71.2583 12.7317C71.2583 12.9306 71.3373 13.1214 71.478 13.262C71.6187 13.4027 71.8094 13.4817 72.0083 13.4817C72.2072 13.4817 72.398 13.4027 72.5387 13.262C72.6793 13.1214 72.7583 12.9306 72.7583 12.7317C72.7583 12.5328 72.6793 12.342 72.5387 12.2013C72.398 12.0607 72.2072 11.9817 72.0083 11.9817C71.8094 11.9817 71.6187 12.0607 71.478 12.2013C71.3373 12.342 71.2583 12.5328 71.2583 12.7317Z" fill="#FF8C3E" stroke="#FF8C3E" stroke-width="0.1"/>
<path d="M75.92 12.7317C75.92 12.8302 75.9394 12.9277 75.977 13.0187C76.0147 13.1097 76.07 13.1924 76.1396 13.262C76.2093 13.3316 76.2919 13.3869 76.3829 13.4246C76.4739 13.4623 76.5715 13.4817 76.67 13.4817C76.7684 13.4817 76.866 13.4623 76.957 13.4246C77.048 13.3869 77.1306 13.3316 77.2003 13.262C77.2699 13.1924 77.3252 13.1097 77.3629 13.0187C77.4006 12.9277 77.42 12.8302 77.42 12.7317C77.42 12.6332 77.4006 12.5357 77.3629 12.4447C77.3252 12.3537 77.2699 12.271 77.2003 12.2013C77.1306 12.1317 77.048 12.0765 76.957 12.0388C76.866 12.0011 76.7684 11.9817 76.67 11.9817C76.5715 11.9817 76.4739 12.0011 76.3829 12.0388C76.2919 12.0765 76.2093 12.1317 76.1396 12.2013C76.07 12.271 76.0147 12.3537 75.977 12.4447C75.9394 12.5357 75.92 12.6332 75.92 12.7317Z" fill="#FF8C3E" stroke="#FF8C3E" stroke-width="0.1"/>
<path d="M76.9379 18.09C76.7504 18.09 76.5897 18.0096 76.4825 17.8221C76.1074 17.2059 75.3573 16.804 74.5 16.804C73.6695 16.804 72.9193 17.1791 72.5175 17.8221C72.3567 18.0632 72.0352 18.1435 71.7941 18.0096C71.553 17.8488 71.4726 17.5274 71.6066 17.2862C72.1692 16.3486 73.2944 15.7592 74.5 15.7592C75.7056 15.7592 76.8308 16.3486 77.3934 17.2862C77.5541 17.5274 77.4737 17.8756 77.2058 18.0096C77.1255 18.0632 77.0183 18.09 76.9379 18.09Z" fill="#FF8C3E" stroke="#FF8C3E" stroke-width="0.1"/>
<path d="M40.5 97C36.36 97 33 100.36 33 104.5C33 108.64 36.36 112 40.5 112C44.64 112 48 108.64 48 104.5C48 100.36 44.64 97 40.5 97ZM40.5 111.01C36.93 111.01 33.99 108.07 33.99 104.5C33.99 100.93 36.93 97.99 40.5 97.99C44.07 97.99 47.01 100.93 47.01 104.5C47.01 108.07 44.07 111.01 40.5 111.01Z" fill="#FF1D25" stroke="#FF1D25" stroke-width="0.1"/>
<path d="M37.5 102.75C37.5 102.949 37.579 103.14 37.7197 103.28C37.8603 103.421 38.0511 103.5 38.25 103.5C38.4489 103.5 38.6397 103.421 38.7803 103.28C38.921 103.14 39 102.949 39 102.75C39 102.551 38.921 102.36 38.7803 102.22C38.6397 102.079 38.4489 102 38.25 102C38.0511 102 37.8603 102.079 37.7197 102.22C37.579 102.36 37.5 102.551 37.5 102.75Z" fill="#FF1D25"/>
<path d="M42 102.75C42 102.949 42.079 103.14 42.2197 103.28C42.3603 103.421 42.5511 103.5 42.75 103.5C42.9489 103.5 43.1397 103.421 43.2803 103.28C43.421 103.14 43.5 102.949 43.5 102.75C43.5 102.551 43.421 102.36 43.2803 102.22C43.1397 102.079 42.9489 102 42.75 102C42.5511 102 42.3603 102.079 42.2197 102.22C42.079 102.36 42 102.551 42 102.75Z" fill="#FF1D25"/>
<path d="M42.99 106.51H38.01C37.74 106.51 37.5 106.72 37.5 107.02C37.5 107.32 37.71 107.53 38.01 107.53H43.02C43.29 107.53 43.53 107.32 43.53 107.02C43.53 106.72 43.29 106.51 42.99 106.51Z" fill="#FF1D25" stroke="#FF1D25" stroke-width="0.1"/>
<path d="M176.14 36V35.343H173.521V35.325L173.98 34.893C175.213 33.705 175.996 32.832 175.996 31.752C175.996 30.915 175.465 30.051 174.205 30.051C173.539 30.051 172.954 30.312 172.558 30.645L172.81 31.203C173.08 30.978 173.521 30.708 174.052 30.708C174.925 30.708 175.204 31.257 175.204 31.851C175.204 32.733 174.52 33.489 173.026 34.911L172.405 35.514V36H176.14ZM180.214 36V34.398H181.033V33.786H180.214V30.15H179.359L176.749 33.885V34.398H179.467V36H180.214ZM177.55 33.786V33.768L178.981 31.779C179.143 31.509 179.287 31.257 179.467 30.915H179.494C179.476 31.221 179.467 31.527 179.467 31.833V33.786H177.55ZM182.219 36.099C182.552 36.099 182.768 35.856 182.768 35.532C182.768 35.199 182.552 34.965 182.237 34.965C181.922 34.965 181.697 35.208 181.697 35.532C181.697 35.856 181.913 36.099 182.219 36.099ZM186.836 30.06C186.692 30.06 186.494 30.069 186.26 30.105C185.522 30.195 184.874 30.492 184.388 30.969C183.803 31.545 183.398 32.454 183.398 33.606C183.398 35.127 184.217 36.099 185.459 36.099C186.683 36.099 187.412 35.109 187.412 34.029C187.412 32.895 186.683 32.139 185.648 32.139C185 32.139 184.505 32.445 184.226 32.823H184.208C184.343 31.851 184.991 30.951 186.242 30.753C186.467 30.717 186.674 30.699 186.836 30.708V30.06ZM185.477 35.487C184.64 35.487 184.19 34.767 184.181 33.804C184.181 33.66 184.217 33.552 184.262 33.462C184.478 33.03 184.928 32.742 185.405 32.742C186.134 32.742 186.611 33.246 186.611 34.083C186.611 34.92 186.152 35.487 185.477 35.487ZM188.219 30.15V30.807H191.081V30.825L188.543 36H189.362L191.909 30.672V30.15H188.219ZM195.92 30.051C195.128 30.051 194.498 30.708 194.498 31.878C194.507 33.048 195.128 33.633 195.866 33.633C196.622 33.633 197.261 33.021 197.261 31.788C197.261 30.681 196.73 30.051 195.92 30.051ZM195.875 30.528C196.433 30.528 196.64 31.113 196.64 31.833C196.64 32.598 196.406 33.156 195.884 33.156C195.389 33.156 195.101 32.589 195.119 31.842C195.119 31.113 195.389 30.528 195.875 30.528ZM196.307 36.108L199.754 30.042H199.25L195.803 36.108H196.307ZM199.736 32.472C198.944 32.472 198.314 33.129 198.314 34.299C198.323 35.478 198.944 36.063 199.682 36.063C200.438 36.063 201.077 35.451 201.077 34.218C201.077 33.102 200.546 32.472 199.736 32.472ZM199.691 32.949C200.249 32.949 200.456 33.543 200.456 34.254C200.456 35.028 200.222 35.586 199.7 35.586C199.205 35.586 198.917 35.019 198.935 34.272C198.935 33.534 199.205 32.949 199.691 32.949Z" fill="#002FA7"/>
<path d="M172.14 134V133.343H169.521V133.325L169.98 132.893C171.213 131.705 171.996 130.832 171.996 129.752C171.996 128.915 171.465 128.051 170.205 128.051C169.539 128.051 168.954 128.312 168.558 128.645L168.81 129.203C169.08 128.978 169.521 128.708 170.052 128.708C170.925 128.708 171.204 129.257 171.204 129.851C171.204 130.733 170.52 131.489 169.026 132.911L168.405 133.514V134H172.14ZM176.511 128.15H173.712L173.334 130.958C173.55 130.931 173.811 130.904 174.153 130.904C175.314 130.904 175.827 131.435 175.827 132.191C175.836 132.974 175.188 133.46 174.45 133.46C173.91 133.46 173.433 133.28 173.19 133.136L172.992 133.739C173.28 133.919 173.811 134.099 174.45 134.099C175.719 134.099 176.628 133.244 176.628 132.101C176.628 131.372 176.25 130.859 175.791 130.607C175.431 130.382 174.99 130.292 174.531 130.292C174.315 130.292 174.189 130.301 174.054 130.319L174.279 128.816H176.511V128.15ZM178.219 134.099C178.552 134.099 178.768 133.856 178.768 133.532C178.768 133.199 178.552 132.965 178.237 132.965C177.922 132.965 177.697 133.208 177.697 133.532C177.697 133.856 177.913 134.099 178.219 134.099ZM182.692 134V132.398H183.511V131.786H182.692V128.15H181.837L179.227 131.885V132.398H181.945V134H182.692ZM180.028 131.786V131.768L181.459 129.779C181.621 129.509 181.765 129.257 181.945 128.915H181.972C181.954 129.221 181.945 129.527 181.945 129.833V131.786H180.028ZM184.084 133.703C184.372 133.892 184.948 134.099 185.605 134.099C187 134.099 187.738 133.28 187.738 132.344C187.729 131.525 187.153 130.985 186.433 130.85V130.832C187.144 130.571 187.513 130.058 187.513 129.446C187.513 128.735 186.991 128.051 185.839 128.051C185.209 128.051 184.615 128.276 184.3 128.501L184.516 129.077C184.768 128.897 185.218 128.69 185.686 128.69C186.415 128.69 186.712 129.104 186.712 129.572C186.712 130.265 185.983 130.562 185.407 130.562H184.966V131.156H185.407C186.172 131.156 186.91 131.507 186.919 132.326C186.928 132.821 186.604 133.46 185.596 133.46C185.038 133.46 184.525 133.235 184.3 133.1L184.084 133.703ZM191.92 128.051C191.128 128.051 190.498 128.708 190.498 129.878C190.507 131.048 191.128 131.633 191.866 131.633C192.622 131.633 193.261 131.021 193.261 129.788C193.261 128.681 192.73 128.051 191.92 128.051ZM191.875 128.528C192.433 128.528 192.64 129.113 192.64 129.833C192.64 130.598 192.406 131.156 191.884 131.156C191.389 131.156 191.101 130.589 191.119 129.842C191.119 129.113 191.389 128.528 191.875 128.528ZM192.307 134.108L195.754 128.042H195.25L191.803 134.108H192.307ZM195.736 130.472C194.944 130.472 194.314 131.129 194.314 132.299C194.323 133.478 194.944 134.063 195.682 134.063C196.438 134.063 197.077 133.451 197.077 132.218C197.077 131.102 196.546 130.472 195.736 130.472ZM195.691 130.949C196.249 130.949 196.456 131.543 196.456 132.254C196.456 133.028 196.222 133.586 195.7 133.586C195.205 133.586 194.917 133.019 194.935 132.272C194.935 131.534 195.205 130.949 195.691 130.949Z" fill="#02A1FF"/>
<path d="M0.378 108.703C0.666 108.892 1.242 109.099 1.899 109.099C3.294 109.099 4.032 108.28 4.032 107.344C4.023 106.525 3.447 105.985 2.727 105.85V105.832C3.438 105.571 3.807 105.058 3.807 104.446C3.807 103.735 3.285 103.051 2.133 103.051C1.503 103.051 0.909 103.276 0.594 103.501L0.81 104.077C1.062 103.897 1.512 103.69 1.98 103.69C2.709 103.69 3.006 104.104 3.006 104.572C3.006 105.265 2.277 105.562 1.701 105.562H1.26V106.156H1.701C2.466 106.156 3.204 106.507 3.213 107.326C3.222 107.821 2.898 108.46 1.89 108.46C1.332 108.46 0.819 108.235 0.594 108.1L0.378 108.703ZM6.10826 105.949C5.38826 106.255 4.94726 106.786 4.94726 107.524C4.94726 108.379 5.68526 109.099 6.90926 109.099C8.02526 109.099 8.89826 108.424 8.89826 107.398C8.89826 106.696 8.44826 106.174 7.71926 105.886V105.859C8.43926 105.526 8.69126 104.986 8.69126 104.491C8.69126 103.753 8.11526 103.051 6.98126 103.051C5.94626 103.051 5.16326 103.681 5.16326 104.608C5.16326 105.112 5.44226 105.616 6.09926 105.922L6.10826 105.949ZM6.92726 108.523C6.18026 108.523 5.73026 108.001 5.75726 107.416C5.75726 106.858 6.12626 106.399 6.81026 106.201C7.60226 106.426 8.09726 106.777 8.09726 107.479C8.09726 108.082 7.63826 108.523 6.92726 108.523ZM6.93626 103.618C7.64726 103.618 7.92626 104.104 7.92626 104.572C7.92626 105.103 7.53926 105.463 7.03526 105.634C6.36026 105.454 5.91026 105.139 5.91926 104.554C5.91926 104.05 6.27926 103.618 6.93626 103.618ZM10.2185 109.099C10.5515 109.099 10.7675 108.856 10.7675 108.532C10.7675 108.199 10.5515 107.965 10.2365 107.965C9.92152 107.965 9.69652 108.208 9.69652 108.532C9.69652 108.856 9.91252 109.099 10.2185 109.099ZM15.2318 109V108.343H12.6128V108.325L13.0718 107.893C14.3048 106.705 15.0878 105.832 15.0878 104.752C15.0878 103.915 14.5568 103.051 13.2968 103.051C12.6308 103.051 12.0458 103.312 11.6498 103.645L11.9018 104.203C12.1718 103.978 12.6128 103.708 13.1438 103.708C14.0168 103.708 14.2958 104.257 14.2958 104.851C14.2958 105.733 13.6118 106.489 12.1178 107.911L11.4968 108.514V109H15.2318ZM19.3061 109V107.398H20.1251V106.786H19.3061V103.15H18.4511L15.8411 106.885V107.398H18.5591V109H19.3061ZM16.6421 106.786V106.768L18.0731 104.779C18.2351 104.509 18.3791 104.257 18.5591 103.915H18.5861C18.5681 104.221 18.5591 104.527 18.5591 104.833V106.786H16.6421ZM23.9195 103.051C23.1275 103.051 22.4975 103.708 22.4975 104.878C22.5065 106.048 23.1275 106.633 23.8655 106.633C24.6215 106.633 25.2605 106.021 25.2605 104.788C25.2605 103.681 24.7295 103.051 23.9195 103.051ZM23.8745 103.528C24.4325 103.528 24.6395 104.113 24.6395 104.833C24.6395 105.598 24.4055 106.156 23.8835 106.156C23.3885 106.156 23.1005 105.589 23.1185 104.842C23.1185 104.113 23.3885 103.528 23.8745 103.528ZM24.3065 109.108L27.7535 103.042H27.2495L23.8025 109.108H24.3065ZM27.7355 105.472C26.9435 105.472 26.3135 106.129 26.3135 107.299C26.3225 108.478 26.9435 109.063 27.6815 109.063C28.4375 109.063 29.0765 108.451 29.0765 107.218C29.0765 106.102 28.5455 105.472 27.7355 105.472ZM27.6905 105.949C28.2485 105.949 28.4555 106.543 28.4555 107.254C28.4555 108.028 28.2215 108.586 27.6995 108.586C27.2045 108.586 26.9165 108.019 26.9345 107.272C26.9345 106.534 27.2045 105.949 27.6905 105.949Z" fill="#FF1D25"/>
<path d="M39.494 14.949C38.774 15.255 38.333 15.786 38.333 16.524C38.333 17.379 39.071 18.099 40.295 18.099C41.411 18.099 42.284 17.424 42.284 16.398C42.284 15.696 41.834 15.174 41.105 14.886V14.859C41.825 14.526 42.077 13.986 42.077 13.491C42.077 12.753 41.501 12.051 40.367 12.051C39.332 12.051 38.549 12.681 38.549 13.608C38.549 14.112 38.828 14.616 39.485 14.922L39.494 14.949ZM40.313 17.523C39.566 17.523 39.116 17.001 39.143 16.416C39.143 15.858 39.512 15.399 40.196 15.201C40.988 15.426 41.483 15.777 41.483 16.479C41.483 17.082 41.024 17.523 40.313 17.523ZM40.322 12.618C41.033 12.618 41.312 13.104 41.312 13.572C41.312 14.103 40.925 14.463 40.421 14.634C39.746 14.454 39.296 14.139 39.305 13.554C39.305 13.05 39.665 12.618 40.322 12.618ZM43.6043 18.099C43.9373 18.099 44.1533 17.856 44.1533 17.532C44.1533 17.199 43.9373 16.965 43.6223 16.965C43.3073 16.965 43.0823 17.208 43.0823 17.532C43.0823 17.856 43.2983 18.099 43.6043 18.099ZM46.6015 18H47.3665V12.15H46.6915L45.4135 12.834L45.5665 13.437L46.5835 12.888H46.6015V18ZM49.4698 17.703C49.7578 17.892 50.3338 18.099 50.9908 18.099C52.3858 18.099 53.1238 17.28 53.1238 16.344C53.1148 15.525 52.5388 14.985 51.8188 14.85V14.832C52.5298 14.571 52.8988 14.058 52.8988 13.446C52.8988 12.735 52.3768 12.051 51.2248 12.051C50.5948 12.051 50.0008 12.276 49.6858 12.501L49.9018 13.077C50.1538 12.897 50.6038 12.69 51.0718 12.69C51.8008 12.69 52.0978 13.104 52.0978 13.572C52.0978 14.265 51.3688 14.562 50.7928 14.562H50.3518V15.156H50.7928C51.5578 15.156 52.2958 15.507 52.3048 16.326C52.3138 16.821 51.9898 17.46 50.9818 17.46C50.4238 17.46 49.9108 17.235 49.6858 17.1L49.4698 17.703ZM57.3053 12.051C56.5133 12.051 55.8833 12.708 55.8833 13.878C55.8923 15.048 56.5133 15.633 57.2513 15.633C58.0073 15.633 58.6463 15.021 58.6463 13.788C58.6463 12.681 58.1153 12.051 57.3053 12.051ZM57.2603 12.528C57.8183 12.528 58.0253 13.113 58.0253 13.833C58.0253 14.598 57.7913 15.156 57.2693 15.156C56.7743 15.156 56.4863 14.589 56.5043 13.842C56.5043 13.113 56.7743 12.528 57.2603 12.528ZM57.6923 18.108L61.1393 12.042H60.6353L57.1883 18.108H57.6923ZM61.1213 14.472C60.3293 14.472 59.6993 15.129 59.6993 16.299C59.7083 17.478 60.3293 18.063 61.0673 18.063C61.8233 18.063 62.4623 17.451 62.4623 16.218C62.4623 15.102 61.9313 14.472 61.1213 14.472ZM61.0763 14.949C61.6343 14.949 61.8413 15.543 61.8413 16.254C61.8413 17.028 61.6073 17.586 61.0853 17.586C60.5903 17.586 60.3023 17.019 60.3203 16.272C60.3203 15.534 60.5903 14.949 61.0763 14.949Z" fill="#FF8C3E"/>
<path d="M114.378 11.703C114.666 11.892 115.242 12.099 115.899 12.099C117.294 12.099 118.032 11.28 118.032 10.344C118.023 9.525 117.447 8.985 116.727 8.85V8.832C117.438 8.571 117.807 8.058 117.807 7.446C117.807 6.735 117.285 6.051 116.133 6.051C115.503 6.051 114.909 6.276 114.594 6.501L114.81 7.077C115.062 6.897 115.512 6.69 115.98 6.69C116.709 6.69 117.006 7.104 117.006 7.572C117.006 8.265 116.277 8.562 115.701 8.562H115.26V9.156H115.701C116.466 9.156 117.204 9.507 117.213 10.326C117.222 10.821 116.898 11.46 115.89 11.46C115.332 11.46 114.819 11.235 114.594 11.1L114.378 11.703ZM119.604 12.099C119.937 12.099 120.153 11.856 120.153 11.532C120.153 11.199 119.937 10.965 119.622 10.965C119.307 10.965 119.082 11.208 119.082 11.532C119.082 11.856 119.298 12.099 119.604 12.099ZM124.375 6.15H121.576L121.198 8.958C121.414 8.931 121.675 8.904 122.017 8.904C123.178 8.904 123.691 9.435 123.691 10.191C123.7 10.974 123.052 11.46 122.314 11.46C121.774 11.46 121.297 11.28 121.054 11.136L120.856 11.739C121.144 11.919 121.675 12.099 122.314 12.099C123.583 12.099 124.492 11.244 124.492 10.101C124.492 9.372 124.114 8.859 123.655 8.607C123.295 8.382 122.854 8.292 122.395 8.292C122.179 8.292 122.053 8.301 121.918 8.319L122.143 6.816H124.375V6.15ZM128.692 12V10.398H129.511V9.786H128.692V6.15H127.837L125.227 9.885V10.398H127.945V12H128.692ZM126.028 9.786V9.768L127.459 7.779C127.621 7.509 127.765 7.257 127.945 6.915H127.972C127.954 7.221 127.945 7.527 127.945 7.833V9.786H126.028ZM131.398 6.051C130.606 6.051 129.976 6.708 129.976 7.878C129.985 9.048 130.606 9.633 131.344 9.633C132.1 9.633 132.739 9.021 132.739 7.788C132.739 6.681 132.208 6.051 131.398 6.051ZM131.353 6.528C131.911 6.528 132.118 7.113 132.118 7.833C132.118 8.598 131.884 9.156 131.362 9.156C130.867 9.156 130.579 8.589 130.597 7.842C130.597 7.113 130.867 6.528 131.353 6.528ZM131.785 12.108L135.232 6.042H134.728L131.281 12.108H131.785ZM135.214 8.472C134.422 8.472 133.792 9.129 133.792 10.299C133.801 11.478 134.422 12.063 135.16 12.063C135.916 12.063 136.555 11.451 136.555 10.218C136.555 9.102 136.024 8.472 135.214 8.472ZM135.169 8.949C135.727 8.949 135.934 9.543 135.934 10.254C135.934 11.028 135.7 11.586 135.178 11.586C134.683 11.586 134.395 11.019 134.413 10.272C134.413 9.534 134.683 8.949 135.169 8.949Z" fill="#F3DB8D"/>
<path d="M60.8355 170H61.6275V164.6H63.4815V163.934H58.9905V164.6H60.8355V170ZM64.0686 170H64.8606V167.372C64.8606 167.228 64.8696 167.111 64.9146 166.994C65.0676 166.571 65.4636 166.211 65.9766 166.211C66.7236 166.211 66.9846 166.796 66.9846 167.498V170H67.7766V167.408C67.7766 165.914 66.8406 165.554 66.2556 165.554C65.9586 165.554 65.6796 165.635 65.4456 165.77C65.2026 165.905 65.0046 166.112 64.8786 166.337H64.8606V163.61H64.0686V170ZM72.5618 167.966C72.5798 167.876 72.5888 167.759 72.5888 167.597C72.5888 166.796 72.2198 165.554 70.7888 165.554C69.5198 165.554 68.7458 166.58 68.7458 167.894C68.7458 169.208 69.5468 170.099 70.8878 170.099C71.5808 170.099 72.0668 169.946 72.3458 169.82L72.2018 169.253C71.9138 169.379 71.5628 169.478 70.9958 169.478C70.1948 169.478 69.5198 169.037 69.5018 167.966H72.5618ZM69.5108 167.399C69.5738 166.85 69.9158 166.121 70.7258 166.121C71.6168 166.121 71.8328 166.904 71.8238 167.399H69.5108ZM77.3218 165.554C76.1248 165.554 75.1618 166.409 75.1618 167.858C75.1618 169.235 76.0798 170.099 77.2498 170.099C78.2938 170.099 79.4188 169.397 79.4188 167.786C79.4188 166.463 78.5728 165.554 77.3218 165.554ZM77.3038 166.148C78.2398 166.148 78.6088 167.075 78.6088 167.813C78.6088 168.794 78.0418 169.505 77.2858 169.505C76.5118 169.505 75.9718 168.785 75.9718 167.831C75.9718 167.012 76.3768 166.148 77.3038 166.148ZM79.8148 165.644L81.4708 170H82.2268L83.9368 165.644H83.1088L82.2628 168.083C82.1188 168.488 81.9928 168.848 81.8938 169.208H81.8668C81.7768 168.848 81.6598 168.488 81.5158 168.083L80.6608 165.644H79.8148ZM88.1009 167.966C88.1189 167.876 88.1279 167.759 88.1279 167.597C88.1279 166.796 87.7589 165.554 86.3279 165.554C85.0589 165.554 84.2849 166.58 84.2849 167.894C84.2849 169.208 85.0859 170.099 86.4269 170.099C87.1199 170.099 87.6059 169.946 87.8849 169.82L87.7409 169.253C87.4529 169.379 87.1019 169.478 86.5349 169.478C85.7339 169.478 85.0589 169.037 85.0409 167.966H88.1009ZM85.0499 167.399C85.1129 166.85 85.4549 166.121 86.2649 166.121C87.1559 166.121 87.3719 166.904 87.3629 167.399H85.0499ZM89.1087 170H89.9007V167.678C89.9007 167.552 89.9097 167.417 89.9277 167.309C90.0357 166.715 90.4317 166.301 90.9897 166.301C91.0977 166.301 91.1787 166.301 91.2597 166.319V165.572C91.1877 165.563 91.1247 165.554 91.0437 165.554C90.5127 165.554 90.0267 165.923 89.8287 166.508H89.8017L89.7657 165.644H89.0727C89.0997 166.049 89.1087 166.49 89.1087 167.003V170ZM95.0691 167.327C95.0691 166.463 94.7451 165.554 93.4131 165.554C92.8641 165.554 92.3331 165.707 91.9731 165.932L92.1531 166.463C92.4591 166.256 92.8821 166.139 93.2961 166.139C94.1871 166.13 94.2861 166.787 94.2861 167.138V167.228C92.6031 167.219 91.6671 167.795 91.6671 168.848C91.6671 169.478 92.1171 170.099 92.9991 170.099C93.6201 170.099 94.0881 169.793 94.3311 169.451H94.3581L94.4211 170H95.1321C95.0871 169.703 95.0691 169.334 95.0691 168.956V167.327ZM94.3041 168.533C94.3041 168.605 94.2951 168.695 94.2681 168.785C94.1421 169.154 93.7731 169.514 93.1971 169.514C92.8011 169.514 92.4591 169.28 92.4591 168.758C92.4591 167.912 93.4401 167.759 94.3041 167.777V168.533ZM96.3508 170H97.1428V163.61H96.3508V170ZM98.4778 170H99.2698V163.61H98.4778V170ZM102.215 169.793C102.521 169.973 102.962 170.099 103.439 170.099C104.456 170.099 105.059 169.559 105.059 168.785C105.059 168.137 104.663 167.759 103.916 167.48C103.349 167.255 103.097 167.093 103.097 166.733C103.097 166.409 103.349 166.139 103.817 166.139C104.222 166.139 104.537 166.292 104.708 166.4L104.897 165.824C104.663 165.671 104.276 165.554 103.835 165.554C102.908 165.554 102.332 166.13 102.332 166.832C102.332 167.354 102.701 167.777 103.493 168.065C104.069 168.281 104.294 168.479 104.294 168.857C104.294 169.226 104.024 169.505 103.457 169.505C103.061 169.505 102.647 169.343 102.404 169.199L102.215 169.793ZM109.14 167.327C109.14 166.463 108.816 165.554 107.484 165.554C106.935 165.554 106.404 165.707 106.044 165.932L106.224 166.463C106.53 166.256 106.953 166.139 107.367 166.139C108.258 166.13 108.357 166.787 108.357 167.138V167.228C106.674 167.219 105.738 167.795 105.738 168.848C105.738 169.478 106.188 170.099 107.07 170.099C107.691 170.099 108.159 169.793 108.402 169.451H108.429L108.492 170H109.203C109.158 169.703 109.14 169.334 109.14 168.956V167.327ZM108.375 168.533C108.375 168.605 108.366 168.695 108.339 168.785C108.213 169.154 107.844 169.514 107.268 169.514C106.872 169.514 106.53 169.28 106.53 168.758C106.53 167.912 107.511 167.759 108.375 167.777V168.533ZM110.567 164.834V165.644H109.892V166.247H110.567V168.623C110.567 169.136 110.657 169.523 110.873 169.766C111.062 169.973 111.359 170.099 111.728 170.099C112.034 170.099 112.277 170.045 112.43 169.991L112.394 169.388C112.277 169.424 112.151 169.442 111.935 169.442C111.494 169.442 111.341 169.136 111.341 168.596V166.247H112.475V165.644H111.341V164.6L110.567 164.834ZM114.158 170V165.644H113.366V170H114.158ZM113.762 163.925C113.465 163.925 113.267 164.15 113.267 164.42C113.267 164.69 113.456 164.906 113.744 164.906C114.059 164.906 114.248 164.69 114.248 164.42C114.248 164.141 114.05 163.925 113.762 163.925ZM115.179 169.793C115.485 169.973 115.926 170.099 116.403 170.099C117.42 170.099 118.023 169.559 118.023 168.785C118.023 168.137 117.627 167.759 116.88 167.48C116.313 167.255 116.061 167.093 116.061 166.733C116.061 166.409 116.313 166.139 116.781 166.139C117.186 166.139 117.501 166.292 117.672 166.4L117.861 165.824C117.627 165.671 117.24 165.554 116.799 165.554C115.872 165.554 115.296 166.13 115.296 166.832C115.296 167.354 115.665 167.777 116.457 168.065C117.033 168.281 117.258 168.479 117.258 168.857C117.258 169.226 116.988 169.505 116.421 169.505C116.025 169.505 115.611 169.343 115.368 169.199L115.179 169.793ZM119.908 170V166.247H120.961V165.644H119.908V165.41C119.908 164.735 120.079 164.15 120.754 164.15C120.988 164.15 121.141 164.195 121.258 164.249L121.366 163.637C121.213 163.574 120.979 163.511 120.691 163.511C120.322 163.511 119.926 163.628 119.629 163.916C119.269 164.267 119.125 164.825 119.125 165.437V165.644H118.522V166.247H119.125V170H119.908ZM124.732 167.327C124.732 166.463 124.408 165.554 123.076 165.554C122.527 165.554 121.996 165.707 121.636 165.932L121.816 166.463C122.122 166.256 122.545 166.139 122.959 166.139C123.85 166.13 123.949 166.787 123.949 167.138V167.228C122.266 167.219 121.33 167.795 121.33 168.848C121.33 169.478 121.78 170.099 122.662 170.099C123.283 170.099 123.751 169.793 123.994 169.451H124.021L124.084 170H124.795C124.75 169.703 124.732 169.334 124.732 168.956V167.327ZM123.967 168.533C123.967 168.605 123.958 168.695 123.931 168.785C123.805 169.154 123.436 169.514 122.86 169.514C122.464 169.514 122.122 169.28 122.122 168.758C122.122 167.912 123.103 167.759 123.967 167.777V168.533ZM128.984 169.253C128.759 169.352 128.462 169.46 128.012 169.46C127.148 169.46 126.5 168.839 126.5 167.831C126.5 166.931 127.04 166.184 128.039 166.184C128.471 166.184 128.768 166.292 128.957 166.391L129.137 165.788C128.921 165.671 128.507 165.554 128.039 165.554C126.617 165.554 125.699 166.535 125.699 167.876C125.699 169.208 126.554 170.099 127.868 170.099C128.453 170.099 128.912 169.946 129.119 169.847L128.984 169.253ZM130.342 164.834V165.644H129.667V166.247H130.342V168.623C130.342 169.136 130.432 169.523 130.648 169.766C130.837 169.973 131.134 170.099 131.503 170.099C131.809 170.099 132.052 170.045 132.205 169.991L132.169 169.388C132.052 169.424 131.926 169.442 131.71 169.442C131.269 169.442 131.116 169.136 131.116 168.596V166.247H132.25V165.644H131.116V164.6L130.342 164.834ZM133.934 170V165.644H133.142V170H133.934ZM133.538 163.925C133.241 163.925 133.043 164.15 133.043 164.42C133.043 164.69 133.232 164.906 133.52 164.906C133.835 164.906 134.024 164.69 134.024 164.42C134.024 164.141 133.826 163.925 133.538 163.925ZM137.096 165.554C135.899 165.554 134.936 166.409 134.936 167.858C134.936 169.235 135.854 170.099 137.024 170.099C138.068 170.099 139.193 169.397 139.193 167.786C139.193 166.463 138.347 165.554 137.096 165.554ZM137.078 166.148C138.014 166.148 138.383 167.075 138.383 167.813C138.383 168.794 137.816 169.505 137.06 169.505C136.286 169.505 135.746 168.785 135.746 167.831C135.746 167.012 136.151 166.148 137.078 166.148ZM140.191 170H140.983V167.381C140.983 167.246 141.001 167.111 141.037 167.012C141.181 166.571 141.586 166.202 142.099 166.202C142.846 166.202 143.107 166.787 143.107 167.489V170H143.899V167.408C143.899 165.914 142.963 165.554 142.36 165.554C141.64 165.554 141.136 165.959 140.92 166.364H140.902L140.857 165.644H140.155C140.182 166.004 140.191 166.364 140.191 166.823V170ZM148.935 165.554C147.738 165.554 146.775 166.409 146.775 167.858C146.775 169.235 147.693 170.099 148.863 170.099C149.907 170.099 151.032 169.397 151.032 167.786C151.032 166.463 150.186 165.554 148.935 165.554ZM148.917 166.148C149.853 166.148 150.222 167.075 150.222 167.813C150.222 168.794 149.655 169.505 148.899 169.505C148.125 169.505 147.585 168.785 147.585 167.831C147.585 167.012 147.99 166.148 148.917 166.148ZM152.894 170V166.247H153.947V165.644H152.894V165.41C152.894 164.735 153.065 164.15 153.74 164.15C153.974 164.15 154.127 164.195 154.244 164.249L154.352 163.637C154.199 163.574 153.965 163.511 153.677 163.511C153.308 163.511 152.912 163.628 152.615 163.916C152.255 164.267 152.111 164.825 152.111 165.437V165.644H151.508V166.247H152.111V170H152.894ZM63.1588 175.834V176.644H62.4838V177.247H63.1588V179.623C63.1588 180.136 63.2488 180.523 63.4648 180.766C63.6538 180.973 63.9508 181.099 64.3198 181.099C64.6258 181.099 64.8688 181.045 65.0218 180.991L64.9858 180.388C64.8688 180.424 64.7428 180.442 64.5268 180.442C64.0858 180.442 63.9328 180.136 63.9328 179.596V177.247H65.0668V176.644H63.9328V175.6L63.1588 175.834ZM65.9583 181H66.7503V178.372C66.7503 178.228 66.7593 178.111 66.8043 177.994C66.9573 177.571 67.3533 177.211 67.8663 177.211C68.6133 177.211 68.8743 177.796 68.8743 178.498V181H69.6663V178.408C69.6663 176.914 68.7303 176.554 68.1453 176.554C67.8483 176.554 67.5693 176.635 67.3353 176.77C67.0923 176.905 66.8943 177.112 66.7683 177.337H66.7503V174.61H65.9583V181ZM74.4515 178.966C74.4695 178.876 74.4785 178.759 74.4785 178.597C74.4785 177.796 74.1095 176.554 72.6785 176.554C71.4095 176.554 70.6355 177.58 70.6355 178.894C70.6355 180.208 71.4365 181.099 72.7775 181.099C73.4705 181.099 73.9565 180.946 74.2355 180.82L74.0915 180.253C73.8035 180.379 73.4525 180.478 72.8855 180.478C72.0845 180.478 71.4095 180.037 71.3915 178.966H74.4515ZM71.4005 178.399C71.4635 177.85 71.8055 177.121 72.6155 177.121C73.5065 177.121 73.7225 177.904 73.7135 178.399H71.4005ZM80.3365 174.61V177.211H80.3185C80.1205 176.869 79.6795 176.554 79.0045 176.554C77.9515 176.554 77.0425 177.436 77.0515 178.885C77.0515 180.208 77.8705 181.099 78.9235 181.099C79.6345 181.099 80.1565 180.73 80.3905 180.244H80.4175L80.4535 181H81.1555C81.1375 180.703 81.1195 180.262 81.1195 179.875V174.61H80.3365ZM80.3365 179.173C80.3365 179.299 80.3275 179.407 80.3005 179.515C80.1565 180.1 79.6705 180.46 79.1395 180.46C78.2935 180.46 77.8525 179.731 77.8525 178.849C77.8525 177.895 78.3385 177.175 79.1575 177.175C79.7515 177.175 80.1835 177.589 80.3005 178.084C80.3275 178.183 80.3365 178.318 80.3365 178.417V179.173ZM85.9476 178.966C85.9656 178.876 85.9746 178.759 85.9746 178.597C85.9746 177.796 85.6056 176.554 84.1746 176.554C82.9056 176.554 82.1316 177.58 82.1316 178.894C82.1316 180.208 82.9326 181.099 84.2736 181.099C84.9666 181.099 85.4526 180.946 85.7316 180.82L85.5876 180.253C85.2996 180.379 84.9486 180.478 84.3816 180.478C83.5806 180.478 82.9056 180.037 82.8876 178.966H85.9476ZM82.8966 178.399C82.9596 177.85 83.3016 177.121 84.1116 177.121C85.0026 177.121 85.2186 177.904 85.2096 178.399H82.8966ZM86.9553 181H87.7473V174.61H86.9553V181ZM89.8743 181V176.644H89.0823V181H89.8743ZM89.4783 174.925C89.1813 174.925 88.9833 175.15 88.9833 175.42C88.9833 175.69 89.1723 175.906 89.4603 175.906C89.7753 175.906 89.9643 175.69 89.9643 175.42C89.9643 175.141 89.7663 174.925 89.4783 174.925ZM90.6517 176.644L92.3077 181H93.0637L94.7737 176.644H93.9457L93.0997 179.083C92.9557 179.488 92.8297 179.848 92.7307 180.208H92.7037C92.6137 179.848 92.4967 179.488 92.3527 179.083L91.4977 176.644H90.6517ZM98.9378 178.966C98.9558 178.876 98.9648 178.759 98.9648 178.597C98.9648 177.796 98.5958 176.554 97.1648 176.554C95.8958 176.554 95.1218 177.58 95.1218 178.894C95.1218 180.208 95.9228 181.099 97.2638 181.099C97.9568 181.099 98.4428 180.946 98.7218 180.82L98.5778 180.253C98.2898 180.379 97.9388 180.478 97.3718 180.478C96.5708 180.478 95.8958 180.037 95.8778 178.966H98.9378ZM95.8868 178.399C95.9498 177.85 96.2918 177.121 97.1018 177.121C97.9928 177.121 98.2088 177.904 98.1998 178.399H95.8868ZM99.9456 181H100.738V178.678C100.738 178.552 100.747 178.417 100.765 178.309C100.873 177.715 101.269 177.301 101.827 177.301C101.935 177.301 102.016 177.301 102.097 177.319V176.572C102.025 176.563 101.962 176.554 101.881 176.554C101.35 176.554 100.864 176.923 100.666 177.508H100.639L100.603 176.644H99.9096C99.9366 177.049 99.9456 177.49 99.9456 178.003V181ZM102.542 176.644L104.144 180.658C104.189 180.757 104.207 180.82 104.207 180.865C104.207 180.91 104.18 180.973 104.144 181.054C103.955 181.459 103.694 181.765 103.478 181.936C103.244 182.134 102.983 182.26 102.785 182.323L102.983 182.98C103.181 182.944 103.559 182.809 103.955 182.476C104.495 181.999 104.882 181.243 105.449 179.749L106.637 176.644H105.8L104.936 179.2C104.828 179.515 104.738 179.848 104.657 180.109H104.639C104.567 179.848 104.459 179.506 104.351 179.218L103.406 176.644H102.542ZM109.262 181H110.036V178.381C110.036 178.246 110.054 178.102 110.099 177.994C110.225 177.598 110.594 177.202 111.08 177.202C111.683 177.202 111.989 177.697 111.989 178.39V181H112.763V178.309C112.763 178.165 112.79 178.03 112.826 177.913C112.97 177.535 113.312 177.202 113.771 177.202C114.401 177.202 114.716 177.697 114.716 178.543V181H115.49V178.444C115.49 176.932 114.635 176.554 114.05 176.554C113.636 176.554 113.357 176.662 113.096 176.86C112.916 176.995 112.736 177.175 112.601 177.427H112.583C112.394 176.914 111.944 176.554 111.359 176.554C110.63 176.554 110.225 176.941 109.982 177.355H109.955L109.919 176.644H109.226C109.244 177.004 109.262 177.364 109.262 177.823V181ZM120.269 178.966C120.287 178.876 120.296 178.759 120.296 178.597C120.296 177.796 119.927 176.554 118.496 176.554C117.227 176.554 116.453 177.58 116.453 178.894C116.453 180.208 117.254 181.099 118.595 181.099C119.288 181.099 119.774 180.946 120.053 180.82L119.909 180.253C119.621 180.379 119.27 180.478 118.703 180.478C117.902 180.478 117.227 180.037 117.209 178.966H120.269ZM117.218 178.399C117.281 177.85 117.623 177.121 118.433 177.121C119.324 177.121 119.54 177.904 119.531 178.399H117.218ZM121.277 181H122.069V178.381C122.069 178.246 122.087 178.111 122.123 178.012C122.267 177.571 122.672 177.202 123.185 177.202C123.932 177.202 124.193 177.787 124.193 178.489V181H124.985V178.408C124.985 176.914 124.049 176.554 123.446 176.554C122.726 176.554 122.222 176.959 122.006 177.364H121.988L121.943 176.644H121.241C121.268 177.004 121.277 177.364 121.277 177.823V181ZM126.15 174.862C126.051 175.51 125.808 176.437 125.619 176.968L126.123 176.914C126.366 176.5 126.753 175.528 126.96 174.772L126.15 174.862ZM126.886 180.793C127.192 180.973 127.633 181.099 128.11 181.099C129.127 181.099 129.73 180.559 129.73 179.785C129.73 179.137 129.334 178.759 128.587 178.48C128.02 178.255 127.768 178.093 127.768 177.733C127.768 177.409 128.02 177.139 128.488 177.139C128.893 177.139 129.208 177.292 129.379 177.4L129.568 176.824C129.334 176.671 128.947 176.554 128.506 176.554C127.579 176.554 127.003 177.13 127.003 177.832C127.003 178.354 127.372 178.777 128.164 179.065C128.74 179.281 128.965 179.479 128.965 179.857C128.965 180.226 128.695 180.505 128.128 180.505C127.732 180.505 127.318 180.343 127.075 180.199L126.886 180.793ZM132.163 176.644L133.477 181H134.197L134.899 178.93C135.052 178.462 135.187 178.012 135.295 177.49H135.313C135.421 178.003 135.547 178.435 135.7 178.921L136.366 181H137.086L138.49 176.644H137.707L137.086 178.831C136.942 179.344 136.825 179.803 136.753 180.244H136.726C136.627 179.803 136.501 179.344 136.339 178.822L135.664 176.644H134.998L134.287 178.867C134.143 179.335 133.999 179.803 133.9 180.244H133.873C133.792 179.794 133.675 179.344 133.558 178.858L132.973 176.644H132.163ZM141.043 176.554C139.846 176.554 138.883 177.409 138.883 178.858C138.883 180.235 139.801 181.099 140.971 181.099C142.015 181.099 143.14 180.397 143.14 178.786C143.14 177.463 142.294 176.554 141.043 176.554ZM141.025 177.148C141.961 177.148 142.33 178.075 142.33 178.813C142.33 179.794 141.763 180.505 141.007 180.505C140.233 180.505 139.693 179.785 139.693 178.831C139.693 178.012 140.098 177.148 141.025 177.148ZM144.137 181H144.929V178.678C144.929 178.552 144.938 178.417 144.956 178.309C145.064 177.715 145.46 177.301 146.018 177.301C146.126 177.301 146.207 177.301 146.288 177.319V176.572C146.216 176.563 146.153 176.554 146.072 176.554C145.541 176.554 145.055 176.923 144.857 177.508H144.83L144.794 176.644H144.101C144.128 177.049 144.137 177.49 144.137 178.003V181ZM147.899 174.61H147.116V181H147.899V179.362L148.304 178.912L149.798 181H150.77L148.853 178.435L150.527 176.644H149.582L148.295 178.147C148.169 178.3 148.025 178.489 147.917 178.642H147.899V174.61Z" fill="black"/>
<defs>
<clipPath id="clip0">
<rect width="114" height="122" fill="white" transform="translate(54 20)"/>
</clipPath>
</defs>
</svg>
