<svg id="图层_3" data-name="图层 3" xmlns="http://www.w3.org/2000/svg" viewBox="0 0 1753.128 145.893"><defs><style>.cls-1{fill:#ffb26b;opacity:0.5;}.cls-2{stroke:#000;stroke-miterlimit:10;stroke-width:0.25px;}.cls-3{fill:#ff7b54;}.cls-4{fill:none;opacity:0.6;}</style></defs><rect class="cls-1" x="87.128" y="91.92" width="655" height="10"/><rect class="cls-1" x="87.128" y="130.92" width="1064" height="10"/><path class="cls-2" d="M116.294,2360.791a10.7,10.7,0,0,1-4.2.72c-5.136,0-8.257-3.216-8.257-8.161,0-5.329,3.721-8.545,8.665-8.545a9.157,9.157,0,0,1,3.912.72l-.624,2.352a7.952,7.952,0,0,0-3.168-.623c-3.289,0-5.664,2.063-5.664,5.952,0,3.576,2.063,5.833,5.64,5.833a8.958,8.958,0,0,0,3.216-.576Z" transform="translate(-102.872 -2344.08)"/><path class="cls-2" d="M129.374,2357.742c0,1.393.048,2.545.1,3.5H126.9l-.144-1.752h-.072a4.277,4.277,0,0,1-3.769,2.017c-2.111,0-4.056-1.273-4.056-5.089v-6.864h2.952v6.36c0,1.944.625,3.192,2.185,3.192a2.4,2.4,0,0,0,2.256-1.584,2.135,2.135,0,0,0,.168-.912v-7.056h2.952Z" transform="translate(-102.872 -2344.08)"/><path class="cls-2" d="M133.165,2353.326c0-1.584-.024-2.736-.1-3.768h2.544l.12,2.208h.073a3.5,3.5,0,0,1,3.215-2.473,3.1,3.1,0,0,1,.7.072v2.761a4.741,4.741,0,0,0-.888-.072,2.6,2.6,0,0,0-2.641,2.232,5.214,5.214,0,0,0-.071.888v6.072h-2.953Z" transform="translate(-102.872 -2344.08)"/><path class="cls-2" d="M142.309,2353.326c0-1.584-.024-2.736-.1-3.768h2.544l.12,2.208h.072a3.5,3.5,0,0,1,3.216-2.473,3.1,3.1,0,0,1,.7.072v2.761a4.741,4.741,0,0,0-.888-.072,2.6,2.6,0,0,0-2.64,2.232,5.11,5.11,0,0,0-.072.888v6.072h-2.952Z" transform="translate(-102.872 -2344.08)"/><path class="cls-2" d="M153.325,2356.23c.071,2.112,1.7,3.024,3.6,3.024a9.417,9.417,0,0,0,3.24-.527l.432,2.015a10.478,10.478,0,0,1-4.08.744c-3.792,0-6.025-2.328-6.025-5.9,0-3.24,1.968-6.289,5.713-6.289,3.792,0,5.04,3.121,5.04,5.689a7.255,7.255,0,0,1-.1,1.248Zm5.136-2.064c.024-1.08-.456-2.856-2.424-2.856a2.888,2.888,0,0,0-2.712,2.856Z" transform="translate(-102.872 -2344.08)"/><path class="cls-2" d="M164.22,2353.038c0-1.345-.048-2.473-.095-3.48h2.567l.144,1.752h.073a4.29,4.29,0,0,1,3.744-2.017c2.04,0,4.152,1.32,4.152,5.018v6.935h-2.952v-6.6c0-1.68-.624-2.953-2.232-2.953a2.479,2.479,0,0,0-2.305,1.729,2.76,2.76,0,0,0-.143.935v6.889H164.22Z" transform="translate(-102.872 -2344.08)"/><path class="cls-2" d="M181.813,2346.557v3h2.808v2.208h-2.808v5.16c0,1.44.384,2.16,1.512,2.16a3.849,3.849,0,0,0,1.152-.119l.048,2.232a6.477,6.477,0,0,1-2.136.312,3.382,3.382,0,0,1-2.544-.96,4.6,4.6,0,0,1-.937-3.289v-5.5h-1.656v-2.208h1.656v-2.185Z" transform="translate(-102.872 -2344.08)"/><path class="cls-2" d="M193.14,2345.285a26.115,26.115,0,0,1,4.512-.336,7.242,7.242,0,0,1,4.753,1.321,4.569,4.569,0,0,1,1.584,3.576,4.924,4.924,0,0,1-1.368,3.648,7.187,7.187,0,0,1-5.112,1.752,6.411,6.411,0,0,1-1.441-.12v6.12H193.14Zm2.928,7.513a4.942,4.942,0,0,0,1.441.143c2.208,0,3.552-1.1,3.552-2.975,0-1.8-1.248-2.737-3.289-2.737a8.164,8.164,0,0,0-1.7.144Z" transform="translate(-102.872 -2344.08)"/><path class="cls-2" d="M206.748,2353.326c0-1.584-.024-2.736-.1-3.768H209.2l.12,2.208h.073a3.5,3.5,0,0,1,3.215-2.473,3.1,3.1,0,0,1,.7.072v2.761a4.741,4.741,0,0,0-.888-.072,2.6,2.6,0,0,0-2.641,2.232,5.214,5.214,0,0,0-.071.888v6.072h-2.953Z" transform="translate(-102.872 -2344.08)"/><path class="cls-2" d="M226.789,2355.294a5.791,5.791,0,0,1-6,6.217,5.652,5.652,0,0,1-5.857-6.025c0-3.84,2.52-6.193,6.048-6.193C224.461,2349.293,226.789,2351.742,226.789,2355.294Zm-8.809.12c0,2.256,1.128,3.961,2.9,3.961,1.68,0,2.857-1.633,2.857-4.009,0-1.824-.816-3.936-2.833-3.936C218.82,2351.43,217.98,2353.47,217.98,2355.414Z" transform="translate(-102.872 -2344.08)"/><path class="cls-2" d="M229.812,2344.205h2.953v6.961h.048a4.227,4.227,0,0,1,3.744-1.873c2.856,0,4.9,2.377,4.872,5.93,0,4.2-2.664,6.288-5.3,6.288a4.023,4.023,0,0,1-3.7-2.017h-.048l-.144,1.752h-2.52c.048-.791.1-2.088.1-3.287Zm2.953,12.217a3.324,3.324,0,0,0,.071.7,2.7,2.7,0,0,0,2.617,2.065c1.848,0,2.976-1.464,2.976-3.841,0-2.065-.984-3.744-2.952-3.744a2.743,2.743,0,0,0-2.617,2.16,3.6,3.6,0,0,0-.1.767Z" transform="translate(-102.872 -2344.08)"/><path class="cls-2" d="M244.452,2344.205H247.4v17.041h-2.952Z" transform="translate(-102.872 -2344.08)"/><path class="cls-2" d="M253.308,2356.23c.071,2.112,1.7,3.024,3.6,3.024a9.417,9.417,0,0,0,3.24-.527l.432,2.015a10.478,10.478,0,0,1-4.08.744c-3.792,0-6.025-2.328-6.025-5.9,0-3.24,1.968-6.289,5.713-6.289,3.792,0,5.04,3.121,5.04,5.689a7.255,7.255,0,0,1-.1,1.248Zm5.136-2.064c.024-1.08-.456-2.856-2.424-2.856a2.888,2.888,0,0,0-2.712,2.856Z" transform="translate(-102.872 -2344.08)"/><path class="cls-2" d="M264.2,2353.038c0-1.345-.048-2.473-.1-3.48h2.52l.144,1.727h.073a3.982,3.982,0,0,1,3.6-1.992,3.371,3.371,0,0,1,3.24,2.16h.048a4.613,4.613,0,0,1,1.416-1.463,4.047,4.047,0,0,1,2.4-.7c1.921,0,3.889,1.32,3.889,5.064v6.889h-2.88v-6.456c0-1.944-.673-3.1-2.089-3.1a2.252,2.252,0,0,0-2.064,1.561,3.141,3.141,0,0,0-.144.984v7.008h-2.88v-6.767c0-1.633-.648-2.786-2.016-2.786a2.371,2.371,0,0,0-2.136,1.657,3.334,3.334,0,0,0-.145.984v6.912H264.2Z" transform="translate(-102.872 -2344.08)"/><path class="cls-2" d="M285.035,2358.51a6.4,6.4,0,0,0,2.976.865c1.3,0,1.872-.553,1.872-1.32,0-.793-.48-1.176-1.92-1.7-2.28-.768-3.216-2.016-3.216-3.409,0-2.063,1.7-3.648,4.416-3.648a6.738,6.738,0,0,1,3.121.7l-.6,2.064a5.169,5.169,0,0,0-2.473-.672c-1.056,0-1.632.528-1.632,1.248,0,.744.552,1.08,2.04,1.632,2.136.744,3.1,1.824,3.121,3.552,0,2.137-1.657,3.672-4.753,3.672a7.54,7.54,0,0,1-3.552-.816Z" transform="translate(-102.872 -2344.08)"/><path class="cls-2" d="M198.025,2432.941h-4.619v-.839h10.246v.839h-4.619v13.312h-1.008Z" transform="translate(-102.872 -2344.08)"/><path class="cls-2" d="M205.544,2431.346h1.008v6.634h.042a3.62,3.62,0,0,1,1.364-1.449,3.74,3.74,0,0,1,2.037-.588c.944,0,3.506.484,3.506,4.243v6.067h-1.008v-5.963c0-1.827-.714-3.464-2.771-3.464a3.328,3.328,0,0,0-3.044,2.268,2.916,2.916,0,0,0-.126,1.008v6.151h-1.008Z" transform="translate(-102.872 -2344.08)"/><path class="cls-2" d="M217.472,2441.109c0,3.212,1.742,4.493,3.841,4.493a5.845,5.845,0,0,0,2.793-.567l.252.778a6.678,6.678,0,0,1-3.17.65c-2.9,0-4.7-2.1-4.7-5.061,0-3.359,1.932-5.459,4.536-5.459,3.3,0,3.926,3.108,3.926,4.557a2.589,2.589,0,0,1-.042.609Zm6.424-.8c.021-1.407-.567-3.528-3-3.528-2.226,0-3.192,1.975-3.38,3.528Z" transform="translate(-102.872 -2344.08)"/><path class="cls-2" d="M241.2,2431.346V2443.9c0,.756.022,1.638.084,2.352h-.9l-.084-1.911h-.042a3.821,3.821,0,0,1-3.591,2.142c-2.5,0-4.346-2.079-4.346-5.082-.021-3.359,2.058-5.459,4.536-5.459a3.556,3.556,0,0,1,3.295,1.786h.042v-6.383Zm-1.008,8.818a3.473,3.473,0,0,0-.1-.924,3.229,3.229,0,0,0-3.171-2.457c-2.2,0-3.59,1.911-3.59,4.515,0,2.267,1.134,4.347,3.528,4.347a3.346,3.346,0,0,0,3.233-2.625,2.72,2.72,0,0,0,.1-.84Z" transform="translate(-102.872 -2344.08)"/><path class="cls-2" d="M245.254,2441.109c0,3.212,1.742,4.493,3.842,4.493a5.851,5.851,0,0,0,2.793-.567l.252.778a6.684,6.684,0,0,1-3.171.65c-2.9,0-4.7-2.1-4.7-5.061,0-3.359,1.931-5.459,4.535-5.459,3.3,0,3.927,3.108,3.927,4.557a2.589,2.589,0,0,1-.042.609Zm6.425-.8c.02-1.407-.568-3.528-3-3.528-2.226,0-3.192,1.975-3.38,3.528Z" transform="translate(-102.872 -2344.08)"/><path class="cls-2" d="M255.586,2436.175l2.352,6.257c.4.986.713,1.847.986,2.687h.042c.273-.84.651-1.722,1.029-2.687l2.394-6.257h1.049l-4.094,10.078h-.882l-3.947-10.078Z" transform="translate(-102.872 -2344.08)"/><path class="cls-2" d="M265.918,2441.109c0,3.212,1.742,4.493,3.842,4.493a5.851,5.851,0,0,0,2.793-.567l.252.778a6.684,6.684,0,0,1-3.171.65c-2.9,0-4.7-2.1-4.7-5.061,0-3.359,1.931-5.459,4.535-5.459,3.3,0,3.927,3.108,3.927,4.557a2.589,2.589,0,0,1-.042.609Zm6.425-.8c.02-1.407-.568-3.528-3-3.528-2.226,0-3.192,1.975-3.38,3.528Z" transform="translate(-102.872 -2344.08)"/><path class="cls-2" d="M276.48,2431.346h1.008v14.907H276.48Z" transform="translate(-102.872 -2344.08)"/><path class="cls-2" d="M290.065,2441.109c0,3.758-2.582,5.375-4.829,5.375-2.6,0-4.619-2.037-4.619-5.186,0-3.444,2.268-5.355,4.767-5.355C288.176,2435.943,290.065,2438.043,290.065,2441.109Zm-8.44.125c0,2.52,1.617,4.411,3.675,4.411,2.1,0,3.758-1.891,3.758-4.473,0-1.848-1.029-4.389-3.7-4.389C282.78,2436.783,281.625,2439.072,281.625,2441.234Z" transform="translate(-102.872 -2344.08)"/><path class="cls-2" d="M293.133,2439.387c0-1.26-.021-2.246-.084-3.212h.966l.063,1.911h.042a4.023,4.023,0,0,1,3.716-2.143c2.6,0,4.347,2.143,4.347,5.1,0,3.591-2.142,5.438-4.578,5.438a3.808,3.808,0,0,1-3.422-1.869h-.042v5.8h-1.008Zm1.008,2.9a3.313,3.313,0,0,0,.084.8,3.405,3.405,0,0,0,3.317,2.563c2.31,0,3.633-1.87,3.633-4.557,0-2.268-1.26-4.305-3.549-4.305a3.5,3.5,0,0,0-3.338,2.667,4.106,4.106,0,0,0-.147.861Z" transform="translate(-102.872 -2344.08)"/><path class="cls-2" d="M305.271,2438.59c0-.924-.021-1.617-.084-2.415h.945l.062,1.784h.042a3.543,3.543,0,0,1,3.276-2.016,3.074,3.074,0,0,1,2.9,2.2h.042a3.794,3.794,0,0,1,1.029-1.365,3.394,3.394,0,0,1,2.394-.84c.986,0,3.3.547,3.3,4.368v5.942h-1.008v-5.837c0-2.268-.882-3.611-2.624-3.611a2.92,2.92,0,0,0-2.645,1.994,3.6,3.6,0,0,0-.168.987v6.467h-1.008v-6.3c0-1.827-.862-3.149-2.5-3.149a3.118,3.118,0,0,0-2.792,2.267,3.457,3.457,0,0,0-.148.966v6.215h-1.007Z" transform="translate(-102.872 -2344.08)"/><path class="cls-2" d="M323.142,2441.109c0,3.212,1.742,4.493,3.841,4.493a5.845,5.845,0,0,0,2.793-.567l.252.778a6.68,6.68,0,0,1-3.171.65c-2.9,0-4.7-2.1-4.7-5.061,0-3.359,1.932-5.459,4.535-5.459,3.3,0,3.927,3.108,3.927,4.557a2.589,2.589,0,0,1-.042.609Zm6.424-.8c.021-1.407-.567-3.528-3-3.528-2.225,0-3.191,1.975-3.379,3.528Z" transform="translate(-102.872 -2344.08)"/><path class="cls-2" d="M333.7,2438.59c0-.924-.02-1.617-.084-2.415h.945l.063,1.827h.042a3.805,3.805,0,0,1,3.465-2.059c.966,0,3.527.484,3.527,4.263v6.047h-1.008v-5.963c0-1.827-.714-3.485-2.793-3.485a3.24,3.24,0,0,0-3.023,2.309,3.9,3.9,0,0,0-.126.9v6.235H333.7Z" transform="translate(-102.872 -2344.08)"/><path class="cls-2" d="M346.871,2433.949v2.226h2.876v.819h-2.876v6.551c0,1.28.4,2.078,1.47,2.078a3.755,3.755,0,0,0,1.154-.146l.126.755a3.51,3.51,0,0,1-1.406.252,2.089,2.089,0,0,1-1.722-.714,3.679,3.679,0,0,1-.63-2.415v-6.361h-1.7v-.819h1.7v-1.848Z" transform="translate(-102.872 -2344.08)"/><path class="cls-2" d="M366.231,2441.109c0,3.758-2.583,5.375-4.829,5.375-2.6,0-4.619-2.037-4.619-5.186,0-3.444,2.268-5.355,4.766-5.355C364.342,2435.943,366.231,2438.043,366.231,2441.109Zm-8.44.125c0,2.52,1.616,4.411,3.674,4.411,2.1,0,3.759-1.891,3.759-4.473,0-1.848-1.03-4.389-3.7-4.389C358.945,2436.783,357.791,2439.072,357.791,2441.234Z" transform="translate(-102.872 -2344.08)"/><path class="cls-2" d="M369.383,2446.253v-9.259h-1.449v-.819h1.449v-.546A4.974,4.974,0,0,1,370.5,2432a3.211,3.211,0,0,1,2.247-.881,3.358,3.358,0,0,1,1.512.336l-.316.777a2.683,2.683,0,0,0-1.28-.273c-1.889,0-2.267,1.721-2.267,3.652v.568h2.687v.819h-2.687v9.259Z" transform="translate(-102.872 -2344.08)"/><path class="cls-2" d="M380.449,2431.346h1.008v6.718h.042a3.893,3.893,0,0,1,3.675-2.121c2.561,0,4.325,2.143,4.325,5.166,0,3.59-2.289,5.375-4.493,5.375a3.855,3.855,0,0,1-3.611-2.058h-.042l-.084,1.827h-.9c.064-.714.084-1.6.084-2.352Zm1.008,11.023a3.089,3.089,0,0,0,.084.735,3.411,3.411,0,0,0,3.317,2.541c2.31,0,3.633-1.891,3.633-4.515,0-2.31-1.26-4.347-3.549-4.347a3.556,3.556,0,0,0-3.359,2.688,3.465,3.465,0,0,0-.126.883Z" transform="translate(-102.872 -2344.08)"/><path class="cls-2" d="M398.865,2443.859a15.11,15.11,0,0,0,.147,2.394h-.924l-.147-1.448H397.9a3.852,3.852,0,0,1-3.233,1.679,2.738,2.738,0,0,1-2.961-2.771c0-2.331,2.037-3.738,6.152-3.7v-.274c0-.986-.189-2.981-2.583-2.961a4.406,4.406,0,0,0-2.54.756l-.315-.734a5.565,5.565,0,0,1,2.961-.862c2.918,0,3.485,2.184,3.485,3.969Zm-1.008-3c-2.205-.063-5.1.273-5.1,2.688a1.928,1.928,0,0,0,2.016,2.1,3.015,3.015,0,0,0,2.981-2.016,1.693,1.693,0,0,0,.105-.609Z" transform="translate(-102.872 -2344.08)"/><path class="cls-2" d="M402.646,2438.59c0-.924-.021-1.617-.083-2.415h.944l.063,1.784h.042a3.541,3.541,0,0,1,3.276-2.016,3.075,3.075,0,0,1,2.9,2.2h.042a3.781,3.781,0,0,1,1.028-1.365,3.4,3.4,0,0,1,2.394-.84c.987,0,3.3.547,3.3,4.368v5.942h-1.008v-5.837c0-2.268-.882-3.611-2.625-3.611a2.921,2.921,0,0,0-2.645,1.994,3.6,3.6,0,0,0-.168.987v6.467h-1.008v-6.3c0-1.827-.861-3.149-2.5-3.149a3.12,3.12,0,0,0-2.793,2.267,3.458,3.458,0,0,0-.147.966v6.215h-1.008Z" transform="translate(-102.872 -2344.08)"/><path class="cls-2" d="M420.349,2431.346h1.007v6.718h.042a3.894,3.894,0,0,1,3.675-2.121c2.562,0,4.325,2.143,4.325,5.166,0,3.59-2.289,5.375-4.493,5.375a3.857,3.857,0,0,1-3.611-2.058h-.042l-.084,1.827h-.9c.063-.714.084-1.6.084-2.352Zm1.007,11.023a3.089,3.089,0,0,0,.084.735,3.413,3.413,0,0,0,3.318,2.541c2.309,0,3.633-1.891,3.633-4.515,0-2.31-1.26-4.347-3.549-4.347a3.557,3.557,0,0,0-3.36,2.688,3.465,3.465,0,0,0-.126.883Z" transform="translate(-102.872 -2344.08)"/><path class="cls-2" d="M441.1,2441.109c0,3.758-2.582,5.375-4.829,5.375-2.6,0-4.62-2.037-4.62-5.186,0-3.444,2.268-5.355,4.767-5.355C439.205,2435.943,441.1,2438.043,441.1,2441.109Zm-8.441.125c0,2.52,1.617,4.411,3.675,4.411,2.1,0,3.758-1.891,3.758-4.473,0-1.848-1.028-4.389-3.695-4.389C433.81,2436.783,432.654,2439.072,432.654,2441.234Z" transform="translate(-102.872 -2344.08)"/><path class="cls-2" d="M452.792,2441.109c0,3.758-2.583,5.375-4.829,5.375-2.6,0-4.619-2.037-4.619-5.186,0-3.444,2.267-5.355,4.765-5.355C450.9,2435.943,452.792,2438.043,452.792,2441.109Zm-8.44.125c0,2.52,1.616,4.411,3.673,4.411,2.1,0,3.759-1.891,3.759-4.473,0-1.848-1.029-4.389-3.695-4.389C445.506,2436.783,444.352,2439.072,444.352,2441.234Z" transform="translate(-102.872 -2344.08)"/><path class="cls-2" d="M460.815,2436.175l1.7,5.731c.336,1.176.63,2.184.861,3.151h.042c.252-.924.608-1.995,1.008-3.151l2.015-5.731h.945l1.931,5.69c.42,1.217.736,2.246.988,3.192h.042c.21-.946.524-1.953.923-3.171l1.785-5.711h1.029l-3.359,10.078h-.862l-1.91-5.607c-.42-1.216-.777-2.308-1.05-3.443h-.042a34.98,34.98,0,0,1-1.091,3.465l-2,5.585h-.881l-3.108-10.078Z" transform="translate(-102.872 -2344.08)"/><path class="cls-2" d="M476.691,2441.109c0,3.212,1.743,4.493,3.842,4.493a5.845,5.845,0,0,0,2.793-.567l.252.778a6.68,6.68,0,0,1-3.171.65c-2.9,0-4.7-2.1-4.7-5.061,0-3.359,1.932-5.459,4.535-5.459,3.3,0,3.927,3.108,3.927,4.557a2.589,2.589,0,0,1-.042.609Zm6.425-.8c.021-1.407-.567-3.528-3-3.528-2.225,0-3.191,1.975-3.38,3.528Z" transform="translate(-102.872 -2344.08)"/><path class="cls-2" d="M493.531,2443.859a15.11,15.11,0,0,0,.148,2.394h-.924l-.148-1.448h-.042a3.851,3.851,0,0,1-3.233,1.679,2.737,2.737,0,0,1-2.96-2.771c0-2.331,2.036-3.738,6.151-3.7v-.274c0-.986-.188-2.981-2.582-2.961a4.412,4.412,0,0,0-2.541.756l-.314-.734a5.564,5.564,0,0,1,2.96-.862c2.919,0,3.485,2.184,3.485,3.969Zm-1.008-3c-2.2-.063-5.1.273-5.1,2.688a1.928,1.928,0,0,0,2.016,2.1,3.015,3.015,0,0,0,2.981-2.016,1.69,1.69,0,0,0,.1-.609Z" transform="translate(-102.872 -2344.08)"/><path class="cls-2" d="M496.872,2436.175l2.352,6.257c.4.986.714,1.847.986,2.687h.042c.273-.84.651-1.722,1.029-2.687l2.394-6.257h1.05l-4.1,10.078h-.882l-3.947-10.078Z" transform="translate(-102.872 -2344.08)"/><path class="cls-2" d="M508.506,2433.3a.822.822,0,0,1-.84.86.809.809,0,0,1-.777-.86.862.862,0,0,1,.819-.883A.832.832,0,0,1,508.506,2433.3Zm-1.3,12.954v-10.078h1.008v10.078Z" transform="translate(-102.872 -2344.08)"/><path class="cls-2" d="M512.118,2438.59c0-.924-.021-1.617-.084-2.415h.945l.063,1.827h.042a3.8,3.8,0,0,1,3.464-2.059c.966,0,3.527.484,3.527,4.263v6.047h-1.008v-5.963c0-1.827-.713-3.485-2.792-3.485a3.238,3.238,0,0,0-3.023,2.309,3.851,3.851,0,0,0-.126.9v6.235h-1.008Z" transform="translate(-102.872 -2344.08)"/><path class="cls-2" d="M531.94,2444.783c0,2.582-.545,3.863-1.385,4.661a5.028,5.028,0,0,1-3.423,1.2,5.657,5.657,0,0,1-3.212-.881l.356-.8a5.422,5.422,0,0,0,3,.84c2.12,0,3.654-1.092,3.654-4.072V2444.3h-.042a3.777,3.777,0,0,1-3.507,1.952c-2.54,0-4.325-2.2-4.325-4.955,0-3.507,2.309-5.355,4.535-5.355a3.569,3.569,0,0,1,3.4,1.932h.042l.064-1.7h.923c-.063.756-.084,1.554-.084,2.6Zm-1.007-4.724a2.917,2.917,0,0,0-.126-.987,3.237,3.237,0,0,0-3.129-2.289c-2.142,0-3.612,1.743-3.612,4.41,0,2.268,1.2,4.22,3.57,4.22a3.3,3.3,0,0,0,3.129-2.267,3.717,3.717,0,0,0,.168-1.072Z" transform="translate(-102.872 -2344.08)"/><path class="cls-2" d="M540.552,2444.93a4.455,4.455,0,0,0,2.267.693c1.6,0,2.352-.861,2.352-1.91,0-1.113-.672-1.7-2.121-2.289-1.658-.63-2.562-1.533-2.562-2.75a2.832,2.832,0,0,1,3.108-2.731,3.942,3.942,0,0,1,2.225.631l-.378.819a3.39,3.39,0,0,0-2.015-.61,1.76,1.76,0,0,0-1.952,1.743c0,1.05.713,1.512,2.078,2.079,1.637.629,2.6,1.449,2.6,2.981,0,1.723-1.344,2.877-3.4,2.877a4.958,4.958,0,0,1-2.562-.693Z" transform="translate(-102.872 -2344.08)"/><path class="cls-2" d="M550.715,2433.949v2.226h2.877v.819h-2.877v6.551c0,1.28.4,2.078,1.47,2.078a3.758,3.758,0,0,0,1.155-.146l.126.755a3.512,3.512,0,0,1-1.407.252,2.09,2.09,0,0,1-1.722-.714,3.679,3.679,0,0,1-.63-2.415v-6.361h-1.7v-.819h1.7v-1.848Z" transform="translate(-102.872 -2344.08)"/><path class="cls-2" d="M556.175,2436.175l2.645,6.593c.273.713.546,1.533.735,2.162h.042c.21-.609.462-1.407.777-2.225l2.456-6.53H563.9l-3.023,7.516c-1.218,3.129-2.079,5-3.4,6.153a5.763,5.763,0,0,1-1.764,1.049l-.316-.84a5.262,5.262,0,0,0,1.764-1.113,7.985,7.985,0,0,0,1.68-2.54,1.311,1.311,0,0,0,.126-.441,1.452,1.452,0,0,0-.126-.441l-3.737-9.343Z" transform="translate(-102.872 -2344.08)"/><path class="cls-2" d="M566.339,2431.346h1.008v14.907h-1.008Z" transform="translate(-102.872 -2344.08)"/><path class="cls-2" d="M571.462,2441.109c0,3.212,1.743,4.493,3.843,4.493a5.843,5.843,0,0,0,2.792-.567l.252.778a6.678,6.678,0,0,1-3.17.65c-2.9,0-4.7-2.1-4.7-5.061,0-3.359,1.931-5.459,4.535-5.459,3.3,0,3.926,3.108,3.926,4.557a2.589,2.589,0,0,1-.042.609Zm6.425-.8c.021-1.407-.567-3.528-3-3.528-2.226,0-3.192,1.975-3.381,3.528Z" transform="translate(-102.872 -2344.08)"/><path class="cls-2" d="M595.19,2431.346V2443.9c0,.756.021,1.638.084,2.352h-.9l-.084-1.911h-.042a3.818,3.818,0,0,1-3.59,2.142c-2.5,0-4.346-2.079-4.346-5.082-.021-3.359,2.057-5.459,4.535-5.459a3.561,3.561,0,0,1,3.3,1.786h.042v-6.383Zm-1.007,8.818a3.475,3.475,0,0,0-.106-.924,3.228,3.228,0,0,0-3.17-2.457c-2.205,0-3.591,1.911-3.591,4.515,0,2.267,1.134,4.347,3.528,4.347a3.345,3.345,0,0,0,3.233-2.625,2.719,2.719,0,0,0,.106-.84Z" transform="translate(-102.872 -2344.08)"/><path class="cls-2" d="M599.244,2441.109c0,3.212,1.743,4.493,3.843,4.493a5.837,5.837,0,0,0,2.792-.567l.252.778a6.674,6.674,0,0,1-3.17.65c-2.9,0-4.7-2.1-4.7-5.061,0-3.359,1.931-5.459,4.535-5.459,3.3,0,3.926,3.108,3.926,4.557a2.589,2.589,0,0,1-.042.609Zm6.425-.8c.021-1.407-.566-3.528-3-3.528-2.226,0-3.191,1.975-3.381,3.528Z" transform="translate(-102.872 -2344.08)"/><path class="cls-2" d="M609.388,2444.93a4.455,4.455,0,0,0,2.267.693c1.6,0,2.352-.861,2.352-1.91,0-1.113-.672-1.7-2.121-2.289-1.658-.63-2.562-1.533-2.562-2.75a2.832,2.832,0,0,1,3.108-2.731,3.944,3.944,0,0,1,2.225.631l-.378.819a3.392,3.392,0,0,0-2.015-.61,1.76,1.76,0,0,0-1.952,1.743c0,1.05.713,1.512,2.078,2.079,1.637.629,2.6,1.449,2.6,2.981,0,1.723-1.344,2.877-3.4,2.877a4.958,4.958,0,0,1-2.562-.693Z" transform="translate(-102.872 -2344.08)"/><path class="cls-2" d="M619.467,2433.3a.822.822,0,0,1-.84.86.809.809,0,0,1-.777-.86.862.862,0,0,1,.819-.883A.832.832,0,0,1,619.467,2433.3Zm-1.3,12.954v-10.078h1.008v10.078Z" transform="translate(-102.872 -2344.08)"/><path class="cls-2" d="M631.12,2444.783c0,2.582-.546,3.863-1.386,4.661a5.023,5.023,0,0,1-3.421,1.2,5.658,5.658,0,0,1-3.213-.881l.357-.8a5.415,5.415,0,0,0,3,.84c2.121,0,3.653-1.092,3.653-4.072V2444.3h-.042a3.772,3.772,0,0,1-3.506,1.952c-2.541,0-4.325-2.2-4.325-4.955,0-3.507,2.31-5.355,4.535-5.355a3.57,3.57,0,0,1,3.4,1.932h.042l.062-1.7h.924c-.062.756-.084,1.554-.084,2.6Zm-1.008-4.724a2.867,2.867,0,0,0-.126-.987,3.235,3.235,0,0,0-3.128-2.289c-2.141,0-3.611,1.743-3.611,4.41,0,2.268,1.2,4.22,3.569,4.22a3.3,3.3,0,0,0,3.128-2.267,3.65,3.65,0,0,0,.168-1.072Z" transform="translate(-102.872 -2344.08)"/><path class="cls-2" d="M634.86,2438.59c0-.924-.021-1.617-.084-2.415h.945l.063,1.827h.042a3.8,3.8,0,0,1,3.464-2.059c.966,0,3.527.484,3.527,4.263v6.047H641.81v-5.963c0-1.827-.714-3.485-2.792-3.485a3.24,3.24,0,0,0-3.024,2.309,3.9,3.9,0,0,0-.126.9v6.235H634.86Z" transform="translate(-102.872 -2344.08)"/><path class="cls-2" d="M651.765,2431.346h1.007v6.634h.042a3.623,3.623,0,0,1,1.365-1.449,3.74,3.74,0,0,1,2.037-.588c.944,0,3.506.484,3.506,4.243v6.067h-1.008v-5.963c0-1.827-.714-3.464-2.772-3.464a3.33,3.33,0,0,0-3.044,2.268,2.94,2.94,0,0,0-.126,1.008v6.151h-1.007Z" transform="translate(-102.872 -2344.08)"/><path class="cls-2" d="M669.823,2443.859a15.11,15.11,0,0,0,.148,2.394h-.924l-.148-1.448h-.042a3.851,3.851,0,0,1-3.233,1.679,2.737,2.737,0,0,1-2.96-2.771c0-2.331,2.036-3.738,6.151-3.7v-.274c0-.986-.188-2.981-2.582-2.961a4.412,4.412,0,0,0-2.541.756l-.314-.734a5.564,5.564,0,0,1,2.96-.862c2.919,0,3.485,2.184,3.485,3.969Zm-1.008-3c-2.2-.063-5.1.273-5.1,2.688a1.928,1.928,0,0,0,2.015,2.1,3.016,3.016,0,0,0,2.982-2.016,1.69,1.69,0,0,0,.1-.609Z" transform="translate(-102.872 -2344.08)"/><path class="cls-2" d="M673.185,2444.93a4.452,4.452,0,0,0,2.267.693c1.6,0,2.352-.861,2.352-1.91,0-1.113-.672-1.7-2.121-2.289-1.659-.63-2.562-1.533-2.562-2.75a2.832,2.832,0,0,1,3.108-2.731,3.944,3.944,0,0,1,2.225.631l-.378.819a3.392,3.392,0,0,0-2.015-.61,1.761,1.761,0,0,0-1.953,1.743c0,1.05.714,1.512,2.079,2.079,1.637.629,2.6,1.449,2.6,2.981,0,1.723-1.344,2.877-3.4,2.877a4.958,4.958,0,0,1-2.562-.693Z" transform="translate(-102.872 -2344.08)"/><path class="cls-2" d="M687.086,2431.346h1.008v6.634h.042a3.623,3.623,0,0,1,1.365-1.449,3.737,3.737,0,0,1,2.036-.588c.945,0,3.507.484,3.507,4.243v6.067h-1.008v-5.963c0-1.827-.714-3.464-2.771-3.464a3.33,3.33,0,0,0-3.045,2.268,2.94,2.94,0,0,0-.126,1.008v6.151h-1.008Z" transform="translate(-102.872 -2344.08)"/><path class="cls-2" d="M700.169,2433.3a.821.821,0,0,1-.84.86.809.809,0,0,1-.777-.86.862.862,0,0,1,.819-.883A.832.832,0,0,1,700.169,2433.3Zm-1.3,12.954v-10.078h1.008v10.078Z" transform="translate(-102.872 -2344.08)"/><path class="cls-2" d="M705.167,2433.949v2.226h2.876v.819h-2.876v6.551c0,1.28.4,2.078,1.47,2.078a3.755,3.755,0,0,0,1.154-.146l.126.755a3.51,3.51,0,0,1-1.406.252,2.089,2.089,0,0,1-1.722-.714,3.679,3.679,0,0,1-.63-2.415v-6.361h-1.7v-.819h1.7v-1.848Z" transform="translate(-102.872 -2344.08)"/><path class="cls-2" d="M722.2,2443.859a15.11,15.11,0,0,0,.148,2.394h-.924l-.148-1.448h-.042a3.851,3.851,0,0,1-3.233,1.679,2.737,2.737,0,0,1-2.96-2.771c0-2.331,2.036-3.738,6.151-3.7v-.274c0-.986-.188-2.981-2.582-2.961a4.412,4.412,0,0,0-2.541.756l-.314-.734a5.564,5.564,0,0,1,2.96-.862c2.919,0,3.485,2.184,3.485,3.969Zm-1.008-3c-2.2-.063-5.1.273-5.1,2.688a1.928,1.928,0,0,0,2.016,2.1,3.015,3.015,0,0,0,2.981-2.016,1.69,1.69,0,0,0,.1-.609Z" transform="translate(-102.872 -2344.08)"/><path class="cls-2" d="M731.08,2431.346h1.008v6.718h.042a3.893,3.893,0,0,1,3.675-2.121c2.561,0,4.325,2.143,4.325,5.166,0,3.59-2.289,5.375-4.493,5.375a3.858,3.858,0,0,1-3.612-2.058h-.042l-.084,1.827H731c.064-.714.084-1.6.084-2.352Zm1.008,11.023a3.039,3.039,0,0,0,.084.735,3.411,3.411,0,0,0,3.317,2.541c2.31,0,3.633-1.891,3.633-4.515,0-2.31-1.26-4.347-3.549-4.347a3.556,3.556,0,0,0-3.359,2.688,3.421,3.421,0,0,0-.126.883Z" transform="translate(-102.872 -2344.08)"/><path class="cls-2" d="M751.826,2441.109c0,3.758-2.582,5.375-4.829,5.375-2.6,0-4.619-2.037-4.619-5.186,0-3.444,2.268-5.355,4.767-5.355C749.937,2435.943,751.826,2438.043,751.826,2441.109Zm-8.44.125c0,2.52,1.617,4.411,3.675,4.411,2.1,0,3.757-1.891,3.757-4.473,0-1.848-1.028-4.389-3.695-4.389C744.541,2436.783,743.386,2439.072,743.386,2441.234Z" transform="translate(-102.872 -2344.08)"/><path class="cls-2" d="M756.3,2433.949v2.226h2.876v.819H756.3v6.551c0,1.28.4,2.078,1.47,2.078a3.755,3.755,0,0,0,1.154-.146l.126.755a3.51,3.51,0,0,1-1.406.252,2.089,2.089,0,0,1-1.722-.714,3.679,3.679,0,0,1-.63-2.415v-6.361h-1.7v-.819h1.7v-1.848Z" transform="translate(-102.872 -2344.08)"/><path class="cls-2" d="M763.314,2433.949v2.226h2.877v.819h-2.877v6.551c0,1.28.4,2.078,1.47,2.078a3.748,3.748,0,0,0,1.155-.146l.126.755a3.508,3.508,0,0,1-1.407.252,2.088,2.088,0,0,1-1.721-.714,3.679,3.679,0,0,1-.63-2.415v-6.361h-1.7v-.819h1.7v-1.848Z" transform="translate(-102.872 -2344.08)"/><path class="cls-2" d="M768.942,2431.346h1.008v14.907h-1.008Z" transform="translate(-102.872 -2344.08)"/><path class="cls-2" d="M774.066,2441.109c0,3.212,1.743,4.493,3.842,4.493a5.839,5.839,0,0,0,2.793-.567l.252.778a6.674,6.674,0,0,1-3.17.65c-2.9,0-4.7-2.1-4.7-5.061,0-3.359,1.932-5.459,4.535-5.459,3.3,0,3.926,3.108,3.926,4.557a2.589,2.589,0,0,1-.042.609Zm6.425-.8c.021-1.407-.567-3.528-3-3.528-2.224,0-3.191,1.975-3.38,3.528Z" transform="translate(-102.872 -2344.08)"/><path class="cls-2" d="M784.629,2438.59c0-.924-.022-1.617-.084-2.415h.944l.064,1.827h.041a3.806,3.806,0,0,1,3.465-2.059c.965,0,3.527.484,3.527,4.263v6.047h-1.008v-5.963c0-1.827-.714-3.485-2.793-3.485a3.24,3.24,0,0,0-3.023,2.309,3.906,3.906,0,0,0-.125.9v6.235h-1.008Z" transform="translate(-102.872 -2344.08)"/><path class="cls-2" d="M796.557,2441.109c0,3.212,1.742,4.493,3.841,4.493a5.839,5.839,0,0,0,2.793-.567l.252.778a6.674,6.674,0,0,1-3.17.65c-2.9,0-4.7-2.1-4.7-5.061,0-3.359,1.932-5.459,4.535-5.459,3.3,0,3.926,3.108,3.926,4.557a2.589,2.589,0,0,1-.042.609Zm6.424-.8c.021-1.407-.567-3.528-3-3.528-2.225,0-3.192,1.975-3.38,3.528Z" transform="translate(-102.872 -2344.08)"/><path class="cls-2" d="M814.069,2445.813a6.9,6.9,0,0,1-2.96.65c-2.9,0-4.83-2.121-4.83-5.145a5.069,5.069,0,0,1,5.187-5.375,5.151,5.151,0,0,1,2.645.631l-.357.819a4.72,4.72,0,0,0-2.372-.588c-2.708,0-4.095,2.078-4.095,4.429,0,2.647,1.659,4.368,3.99,4.368a5.6,5.6,0,0,0,2.52-.588Z" transform="translate(-102.872 -2344.08)"/><path class="cls-2" d="M818,2441.025h.042c.252-.315.65-.777.966-1.113l3.569-3.737h1.218l-4.073,4.179,4.64,5.9h-1.218l-4.116-5.291L818,2442.054v4.2h-1.008v-14.907H818Z" transform="translate(-102.872 -2344.08)"/><path class="cls-2" d="M826.271,2445.539a.875.875,0,0,1,.862-.945.858.858,0,0,1,.84.945.889.889,0,0,1-.883.945A.866.866,0,0,1,826.271,2445.539Z" transform="translate(-102.872 -2344.08)"/><path class="cls-2" d="M207.515,2478.458c-.126-2.12-.294-4.724-.294-6.257h-.042c-.525,1.533-1.092,3.17-1.91,5.27l-2.982,7.706h-.693l-2.792-7.517c-.8-2.2-1.407-3.9-1.827-5.459h-.042c-.042,1.658-.147,4.115-.315,6.467l-.441,6.509h-.987l1.029-14.152h1.155l3.044,8.147c.672,1.806,1.155,3.233,1.554,4.6h.063c.357-1.3.861-2.688,1.574-4.577l3.171-8.168h1.2l.945,14.152h-.987Z" transform="translate(-102.872 -2344.08)"/><path class="cls-2" d="M218.877,2482.783a15.117,15.117,0,0,0,.146,2.394H218.1l-.147-1.448h-.042a3.854,3.854,0,0,1-3.233,1.679,2.738,2.738,0,0,1-2.961-2.771c0-2.331,2.037-3.739,6.152-3.7v-.273c0-.986-.189-2.981-2.583-2.961a4.395,4.395,0,0,0-2.54.756l-.315-.734a5.56,5.56,0,0,1,2.961-.862c2.918,0,3.485,2.184,3.485,3.969Zm-1.008-3c-2.205-.063-5.1.273-5.1,2.688a1.926,1.926,0,0,0,2.015,2.1,3.015,3.015,0,0,0,2.982-2.015,1.7,1.7,0,0,0,.1-.61Z" transform="translate(-102.872 -2344.08)"/><path class="cls-2" d="M222.658,2477.514c0-.924-.021-1.618-.084-2.415h.945l.063,1.827h.042a3.8,3.8,0,0,1,3.464-2.059c.966,0,3.527.484,3.527,4.263v6.047h-1.008v-5.963c0-1.827-.713-3.485-2.792-3.485a3.237,3.237,0,0,0-3.023,2.309,3.9,3.9,0,0,0-.126.9v6.236h-1.008Z" transform="translate(-102.872 -2344.08)"/><path class="cls-2" d="M233.83,2475.1l2.646,6.592c.272.714.545,1.534.734,2.163h.042c.21-.609.462-1.407.777-2.225l2.456-6.53h1.072l-3.024,7.516c-1.218,3.129-2.079,5-3.4,6.153a5.774,5.774,0,0,1-1.764,1.048l-.315-.839a5.249,5.249,0,0,0,1.763-1.113,8,8,0,0,0,1.68-2.54,1.311,1.311,0,0,0,.126-.441,1.456,1.456,0,0,0-.126-.442l-3.737-9.342Z" transform="translate(-102.872 -2344.08)"/><path class="cls-2" d="M249.1,2478.311c0-1.26-.022-2.247-.084-3.212h.966l.062,1.911h.042a4.025,4.025,0,0,1,3.717-2.143c2.6,0,4.346,2.143,4.346,5.1,0,3.591-2.142,5.438-4.578,5.438a3.809,3.809,0,0,1-3.422-1.869H250.1v5.795H249.1Zm1.007,2.9a3.318,3.318,0,0,0,.084.8,3.405,3.405,0,0,0,3.318,2.562c2.309,0,3.632-1.869,3.632-4.556,0-2.268-1.26-4.305-3.548-4.305a3.5,3.5,0,0,0-3.339,2.667,4.1,4.1,0,0,0-.147.86Z" transform="translate(-102.872 -2344.08)"/><path class="cls-2" d="M261.381,2480.033c0,3.212,1.743,4.492,3.843,4.492a5.858,5.858,0,0,0,2.792-.566l.252.777a6.661,6.661,0,0,1-3.17.651c-2.9,0-4.7-2.1-4.7-5.061,0-3.359,1.931-5.459,4.535-5.459,3.3,0,3.925,3.108,3.925,4.557a2.589,2.589,0,0,1-.042.609Zm6.425-.8c.021-1.406-.567-3.527-3-3.527-2.226,0-3.192,1.975-3.381,3.527Z" transform="translate(-102.872 -2344.08)"/><path class="cls-2" d="M280.553,2480.033c0,3.758-2.583,5.375-4.829,5.375-2.6,0-4.62-2.037-4.62-5.186,0-3.444,2.268-5.355,4.766-5.355C278.663,2474.867,280.553,2476.967,280.553,2480.033Zm-8.441.125c0,2.52,1.617,4.41,3.674,4.41,2.1,0,3.759-1.89,3.759-4.472,0-1.848-1.029-4.389-3.695-4.389C273.267,2475.707,272.112,2478,272.112,2480.158Z" transform="translate(-102.872 -2344.08)"/><path class="cls-2" d="M283.62,2478.311c0-1.26-.021-2.247-.084-3.212h.966l.062,1.911h.042a4.026,4.026,0,0,1,3.717-2.143c2.6,0,4.346,2.143,4.346,5.1,0,3.591-2.142,5.438-4.577,5.438a3.808,3.808,0,0,1-3.422-1.869h-.042v5.795H283.62Zm1.008,2.9a3.268,3.268,0,0,0,.084.8,3.4,3.4,0,0,0,3.317,2.562c2.31,0,3.632-1.869,3.632-4.556,0-2.268-1.26-4.305-3.548-4.305a3.5,3.5,0,0,0-3.339,2.667,4.161,4.161,0,0,0-.146.86Z" transform="translate(-102.872 -2344.08)"/><path class="cls-2" d="M295.758,2470.27h1.008v14.907h-1.008Z" transform="translate(-102.872 -2344.08)"/><path class="cls-2" d="M300.882,2480.033c0,3.212,1.742,4.492,3.842,4.492a5.866,5.866,0,0,0,2.793-.566l.252.777a6.666,6.666,0,0,1-3.171.651c-2.9,0-4.7-2.1-4.7-5.061,0-3.359,1.931-5.459,4.535-5.459,3.3,0,3.926,3.108,3.926,4.557a2.589,2.589,0,0,1-.042.609Zm6.425-.8c.02-1.406-.568-3.527-3-3.527-2.226,0-3.192,1.975-3.38,3.527Z" transform="translate(-102.872 -2344.08)"/><path class="cls-2" d="M316.547,2470.27h1.008v6.718h.042a3.893,3.893,0,0,1,3.674-2.121c2.562,0,4.326,2.143,4.326,5.166,0,3.59-2.289,5.375-4.493,5.375a3.859,3.859,0,0,1-3.612-2.058h-.042l-.084,1.827h-.9c.063-.714.084-1.6.084-2.352Zm1.008,11.023a3.036,3.036,0,0,0,.084.734,3.41,3.41,0,0,0,3.317,2.541c2.31,0,3.633-1.89,3.633-4.514,0-2.31-1.26-4.347-3.549-4.347a3.555,3.555,0,0,0-3.359,2.688,3.413,3.413,0,0,0-.126.882Z" transform="translate(-102.872 -2344.08)"/><path class="cls-2" d="M336.453,2482.721c0,.881.022,1.679.084,2.456h-.944l-.064-1.806h-.042a3.872,3.872,0,0,1-3.443,2.037c-1.28,0-3.443-.651-3.443-4.451V2475.1h1.007v5.669c0,2.183.672,3.757,2.667,3.757a3.334,3.334,0,0,0,2.982-2.036,3.658,3.658,0,0,0,.188-1.112V2475.1h1.008Z" transform="translate(-102.872 -2344.08)"/><path class="cls-2" d="M339.962,2475.1l2.645,6.592c.273.714.546,1.534.735,2.163h.042c.21-.609.462-1.407.777-2.225l2.456-6.53h1.071l-3.023,7.516c-1.218,3.129-2.079,5-3.4,6.153a5.774,5.774,0,0,1-1.764,1.048l-.315-.839a5.268,5.268,0,0,0,1.763-1.113,8,8,0,0,0,1.68-2.54,1.311,1.311,0,0,0,.126-.441,1.456,1.456,0,0,0-.126-.442l-3.737-9.342Z" transform="translate(-102.872 -2344.08)"/><path class="cls-2" d="M356.635,2472.873v2.226h2.877v.819h-2.877v6.551c0,1.28.4,2.078,1.469,2.078a3.754,3.754,0,0,0,1.156-.147l.126.756a3.512,3.512,0,0,1-1.407.252,2.088,2.088,0,0,1-1.722-.715,3.675,3.675,0,0,1-.63-2.414v-6.361h-1.7v-.819h1.7v-1.848Z" transform="translate(-102.872 -2344.08)"/><path class="cls-2" d="M362.263,2470.27h1.008v6.634h.042a3.616,3.616,0,0,1,1.365-1.449,3.737,3.737,0,0,1,2.036-.588c.945,0,3.507.484,3.507,4.242v6.068h-1.008v-5.963c0-1.827-.714-3.464-2.772-3.464a3.332,3.332,0,0,0-3.045,2.268,2.96,2.96,0,0,0-.125,1.007v6.152h-1.008Z" transform="translate(-102.872 -2344.08)"/><path class="cls-2" d="M374.19,2480.033c0,3.212,1.744,4.492,3.843,4.492a5.852,5.852,0,0,0,2.792-.566l.252.777a6.657,6.657,0,0,1-3.17.651c-2.9,0-4.7-2.1-4.7-5.061,0-3.359,1.932-5.459,4.535-5.459,3.3,0,3.926,3.108,3.926,4.557a2.589,2.589,0,0,1-.042.609Zm6.425-.8c.022-1.406-.566-3.527-3-3.527-2.225,0-3.191,1.975-3.381,3.527Z" transform="translate(-102.872 -2344.08)"/><path class="cls-2" d="M389.688,2475.1l1.7,5.731c.336,1.176.63,2.184.861,3.15h.042c.252-.923.608-1.995,1.008-3.15l2.015-5.731h.945l1.931,5.69c.42,1.217.736,2.246.988,3.191h.042c.21-.945.524-1.953.924-3.17l1.784-5.711h1.029l-3.359,10.078h-.862l-1.91-5.607c-.42-1.216-.777-2.308-1.05-3.443h-.042a34.98,34.98,0,0,1-1.091,3.465l-2,5.585h-.881l-3.108-10.078Z" transform="translate(-102.872 -2344.08)"/><path class="cls-2" d="M414.025,2480.033c0,3.758-2.582,5.375-4.829,5.375-2.6,0-4.619-2.037-4.619-5.186,0-3.444,2.268-5.355,4.767-5.355C412.136,2474.867,414.025,2476.967,414.025,2480.033Zm-8.44.125c0,2.52,1.617,4.41,3.675,4.41,2.1,0,3.758-1.89,3.758-4.472,0-1.848-1.029-4.389-3.7-4.389C406.74,2475.707,405.585,2478,405.585,2480.158Z" transform="translate(-102.872 -2344.08)"/><path class="cls-2" d="M417.093,2478.122c0-1.008-.021-2.036-.084-3.023h.924l.042,2.036h.063a3.131,3.131,0,0,1,2.856-2.268,2.569,2.569,0,0,1,.419.043v.965a1.762,1.762,0,0,0-.483-.041c-1.386,0-2.372,1.2-2.645,2.812a4.745,4.745,0,0,0-.084.967v5.564h-1.008Z" transform="translate(-102.872 -2344.08)"/><path class="cls-2" d="M424.989,2479.949h.042c.252-.315.651-.777.966-1.113l3.569-3.737h1.218l-4.073,4.178,4.64,5.9h-1.218l-4.115-5.291-1.029,1.092v4.2h-1.008V2470.27h1.008Z" transform="translate(-102.872 -2344.08)"/><path class="cls-2" d="M432.99,2483.854a4.465,4.465,0,0,0,2.268.693c1.6,0,2.351-.861,2.351-1.91,0-1.114-.671-1.7-2.121-2.289-1.658-.63-2.561-1.534-2.561-2.75a2.831,2.831,0,0,1,3.107-2.731,3.945,3.945,0,0,1,2.226.631l-.378.818a3.4,3.4,0,0,0-2.016-.609,1.76,1.76,0,0,0-1.952,1.743c0,1.05.714,1.512,2.078,2.079,1.638.629,2.6,1.449,2.6,2.981,0,1.722-1.344,2.877-3.4,2.877a4.948,4.948,0,0,1-2.561-.694Z" transform="translate(-102.872 -2344.08)"/><path class="cls-2" d="M446.87,2470.27h1.008v6.718h.042a3.893,3.893,0,0,1,3.675-2.121c2.561,0,4.325,2.143,4.325,5.166,0,3.59-2.289,5.375-4.493,5.375a3.859,3.859,0,0,1-3.612-2.058h-.042l-.084,1.827h-.9c.064-.714.084-1.6.084-2.352Zm1.008,11.023a3.036,3.036,0,0,0,.084.734,3.41,3.41,0,0,0,3.317,2.541c2.31,0,3.633-1.89,3.633-4.514,0-2.31-1.26-4.347-3.549-4.347A3.556,3.556,0,0,0,448,2478.4a3.413,3.413,0,0,0-.126.882Z" transform="translate(-102.872 -2344.08)"/><path class="cls-2" d="M459.155,2480.033c0,3.212,1.742,4.492,3.842,4.492a5.86,5.86,0,0,0,2.793-.566l.252.777a6.663,6.663,0,0,1-3.171.651c-2.9,0-4.7-2.1-4.7-5.061,0-3.359,1.932-5.459,4.535-5.459,3.3,0,3.927,3.108,3.927,4.557a2.589,2.589,0,0,1-.042.609Zm6.425-.8c.021-1.406-.567-3.527-3-3.527-2.225,0-3.191,1.975-3.38,3.527Z" transform="translate(-102.872 -2344.08)"/><path class="cls-2" d="M476.668,2484.736a6.89,6.89,0,0,1-2.961.651c-2.9,0-4.829-2.121-4.829-5.145a5.069,5.069,0,0,1,5.186-5.375,5.155,5.155,0,0,1,2.646.631l-.357.818a4.733,4.733,0,0,0-2.373-.587c-2.709,0-4.094,2.078-4.094,4.429,0,2.647,1.659,4.367,3.989,4.367a5.609,5.609,0,0,0,2.52-.587Z" transform="translate(-102.872 -2344.08)"/><path class="cls-2" d="M485.887,2482.783a15.117,15.117,0,0,0,.147,2.394h-.924l-.147-1.448h-.042a3.852,3.852,0,0,1-3.233,1.679,2.737,2.737,0,0,1-2.96-2.771c0-2.331,2.036-3.739,6.151-3.7v-.273c0-.986-.189-2.981-2.582-2.961a4.4,4.4,0,0,0-2.541.756l-.315-.734a5.564,5.564,0,0,1,2.96-.862c2.919,0,3.486,2.184,3.486,3.969Zm-1.008-3c-2.2-.063-5.1.273-5.1,2.688a1.927,1.927,0,0,0,2.016,2.1,3.014,3.014,0,0,0,2.981-2.015,1.7,1.7,0,0,0,.105-.61Z" transform="translate(-102.872 -2344.08)"/><path class="cls-2" d="M497.437,2482.721c0,.881.02,1.679.084,2.456h-.946l-.062-1.806h-.042a3.874,3.874,0,0,1-3.444,2.037c-1.281,0-3.443-.651-3.443-4.451V2475.1h1.008v5.669c0,2.183.672,3.757,2.666,3.757a3.33,3.33,0,0,0,2.981-2.036,3.6,3.6,0,0,0,.19-1.112V2475.1h1.008Z" transform="translate(-102.872 -2344.08)"/><path class="cls-2" d="M500.924,2483.854a4.465,4.465,0,0,0,2.267.693c1.6,0,2.352-.861,2.352-1.91,0-1.114-.672-1.7-2.121-2.289-1.658-.63-2.562-1.534-2.562-2.75a2.832,2.832,0,0,1,3.108-2.731,3.942,3.942,0,0,1,2.225.631l-.378.818a3.391,3.391,0,0,0-2.015-.609,1.76,1.76,0,0,0-1.952,1.743c0,1.05.714,1.512,2.078,2.079,1.637.629,2.6,1.449,2.6,2.981,0,1.722-1.343,2.877-3.4,2.877a4.949,4.949,0,0,1-2.562-.694Z" transform="translate(-102.872 -2344.08)"/><path class="cls-2" d="M509.849,2480.033c0,3.212,1.742,4.492,3.841,4.492a5.86,5.86,0,0,0,2.793-.566l.252.777a6.663,6.663,0,0,1-3.171.651c-2.9,0-4.7-2.1-4.7-5.061,0-3.359,1.932-5.459,4.535-5.459,3.3,0,3.927,3.108,3.927,4.557a2.589,2.589,0,0,1-.042.609Zm6.424-.8c.021-1.406-.567-3.527-3-3.527-2.226,0-3.192,1.975-3.38,3.527Z" transform="translate(-102.872 -2344.08)"/><path class="cls-2" d="M525.514,2478.311c0-1.26-.021-2.247-.084-3.212h.966l.063,1.911h.042a4.023,4.023,0,0,1,3.716-2.143c2.6,0,4.346,2.143,4.346,5.1,0,3.591-2.141,5.438-4.577,5.438a3.811,3.811,0,0,1-3.423-1.869h-.042v5.795h-1.007Zm1.007,2.9a3.369,3.369,0,0,0,.084.8,3.405,3.405,0,0,0,3.318,2.562c2.309,0,3.633-1.869,3.633-4.556,0-2.268-1.26-4.305-3.549-4.305a3.5,3.5,0,0,0-3.338,2.667,4.036,4.036,0,0,0-.148.86Z" transform="translate(-102.872 -2344.08)"/><path class="cls-2" d="M537.8,2480.033c0,3.212,1.742,4.492,3.842,4.492a5.866,5.866,0,0,0,2.793-.566l.252.777a6.666,6.666,0,0,1-3.171.651c-2.9,0-4.7-2.1-4.7-5.061,0-3.359,1.931-5.459,4.535-5.459,3.3,0,3.926,3.108,3.926,4.557a2.589,2.589,0,0,1-.042.609Zm6.425-.8c.02-1.406-.568-3.527-3-3.527-2.226,0-3.192,1.975-3.38,3.527Z" transform="translate(-102.872 -2344.08)"/><path class="cls-2" d="M556.97,2480.033c0,3.758-2.583,5.375-4.829,5.375-2.6,0-4.62-2.037-4.62-5.186,0-3.444,2.268-5.355,4.766-5.355C555.08,2474.867,556.97,2476.967,556.97,2480.033Zm-8.441.125c0,2.52,1.617,4.41,3.674,4.41,2.1,0,3.759-1.89,3.759-4.472,0-1.848-1.029-4.389-3.695-4.389C549.684,2475.707,548.529,2478,548.529,2480.158Z" transform="translate(-102.872 -2344.08)"/><path class="cls-2" d="M560.037,2478.311c0-1.26-.02-2.247-.084-3.212h.966l.063,1.911h.042a4.024,4.024,0,0,1,3.716-2.143c2.6,0,4.347,2.143,4.347,5.1,0,3.591-2.142,5.438-4.577,5.438a3.81,3.81,0,0,1-3.423-1.869h-.042v5.795h-1.008Zm1.008,2.9a3.318,3.318,0,0,0,.084.8,3.4,3.4,0,0,0,3.317,2.562c2.31,0,3.633-1.869,3.633-4.556,0-2.268-1.26-4.305-3.549-4.305a3.5,3.5,0,0,0-3.338,2.667,4.1,4.1,0,0,0-.147.86Z" transform="translate(-102.872 -2344.08)"/><path class="cls-2" d="M572.175,2470.27h1.008v14.907h-1.008Z" transform="translate(-102.872 -2344.08)"/><path class="cls-2" d="M577.3,2480.033c0,3.212,1.742,4.492,3.842,4.492a5.866,5.866,0,0,0,2.793-.566l.252.777a6.666,6.666,0,0,1-3.171.651c-2.9,0-4.7-2.1-4.7-5.061,0-3.359,1.931-5.459,4.535-5.459,3.3,0,3.926,3.108,3.926,4.557a2.589,2.589,0,0,1-.042.609Zm6.425-.8c.02-1.406-.568-3.527-3-3.527-2.226,0-3.192,1.975-3.38,3.527Z" transform="translate(-102.872 -2344.08)"/><path class="cls-2" d="M592.8,2475.1l1.7,5.731c.336,1.176.63,2.184.86,3.15h.042c.252-.923.61-1.995,1.008-3.15l2.016-5.731h.945l1.932,5.69c.42,1.217.734,2.246.986,3.191h.042c.21-.945.526-1.953.924-3.17l1.785-5.711h1.028l-3.359,10.078h-.86l-1.911-5.607c-.42-1.216-.777-2.308-1.05-3.443h-.042a34.724,34.724,0,0,1-1.092,3.465l-1.994,5.585h-.882l-3.107-10.078Z" transform="translate(-102.872 -2344.08)"/><path class="cls-2" d="M609.974,2472.223a.821.821,0,0,1-.84.86.809.809,0,0,1-.777-.86.862.862,0,0,1,.819-.883A.832.832,0,0,1,609.974,2472.223Zm-1.3,12.954V2475.1h1.008v10.078Z" transform="translate(-102.872 -2344.08)"/><path class="cls-2" d="M614.972,2472.873v2.226h2.877v.819h-2.877v6.551c0,1.28.4,2.078,1.469,2.078a3.754,3.754,0,0,0,1.156-.147l.126.756a3.514,3.514,0,0,1-1.408.252,2.087,2.087,0,0,1-1.721-.715,3.675,3.675,0,0,1-.63-2.414v-6.361h-1.7v-.819h1.7v-1.848Z" transform="translate(-102.872 -2344.08)"/><path class="cls-2" d="M620.6,2470.27h1.007v6.634h.042a3.625,3.625,0,0,1,1.366-1.449,3.737,3.737,0,0,1,2.036-.588c.945,0,3.507.484,3.507,4.242v6.068H627.55v-5.963c0-1.827-.714-3.464-2.772-3.464a3.332,3.332,0,0,0-3.045,2.268,2.959,2.959,0,0,0-.126,1.007v6.152H620.6Z" transform="translate(-102.872 -2344.08)"/><path class="cls-2" d="M645.546,2470.27v12.555c0,.756.021,1.638.084,2.352h-.9l-.084-1.911H644.6a3.821,3.821,0,0,1-3.591,2.142c-2.5,0-4.346-2.079-4.346-5.082-.021-3.359,2.058-5.459,4.535-5.459a3.559,3.559,0,0,1,3.3,1.785h.042v-6.382Zm-1.008,8.818a3.468,3.468,0,0,0-.1-.924,3.23,3.23,0,0,0-3.171-2.457c-2.2,0-3.59,1.911-3.59,4.515,0,2.267,1.134,4.346,3.527,4.346a3.346,3.346,0,0,0,3.234-2.625,2.71,2.71,0,0,0,.1-.839Z" transform="translate(-102.872 -2344.08)"/><path class="cls-2" d="M650.755,2472.223a.821.821,0,0,1-.84.86.808.808,0,0,1-.776-.86.861.861,0,0,1,.818-.883A.832.832,0,0,1,650.755,2472.223Zm-1.3,12.954V2475.1h1.008v10.078Z" transform="translate(-102.872 -2344.08)"/><path class="cls-2" d="M653.947,2483.854a4.472,4.472,0,0,0,2.268.693c1.6,0,2.351-.861,2.351-1.91,0-1.114-.671-1.7-2.12-2.289-1.659-.63-2.561-1.534-2.561-2.75a2.83,2.83,0,0,1,3.107-2.731,3.945,3.945,0,0,1,2.226.631l-.378.818a3.4,3.4,0,0,0-2.016-.609,1.761,1.761,0,0,0-1.953,1.743c0,1.05.714,1.512,2.079,2.079,1.638.629,2.6,1.449,2.6,2.981,0,1.722-1.344,2.877-3.4,2.877a4.948,4.948,0,0,1-2.561-.694Z" transform="translate(-102.872 -2344.08)"/><path class="cls-2" d="M669,2482.783a15.117,15.117,0,0,0,.146,2.394h-.923l-.147-1.448h-.042a3.854,3.854,0,0,1-3.233,1.679,2.738,2.738,0,0,1-2.961-2.771c0-2.331,2.037-3.739,6.152-3.7v-.273c0-.986-.189-2.981-2.583-2.961a4.395,4.395,0,0,0-2.54.756l-.315-.734a5.56,5.56,0,0,1,2.961-.862c2.918,0,3.485,2.184,3.485,3.969Zm-1.008-3c-2.205-.063-5.1.273-5.1,2.688a1.926,1.926,0,0,0,2.015,2.1,3.015,3.015,0,0,0,2.982-2.015,1.7,1.7,0,0,0,.105-.61Z" transform="translate(-102.872 -2344.08)"/><path class="cls-2" d="M672.763,2470.27h1.008v6.718h.042a3.892,3.892,0,0,1,3.674-2.121c2.562,0,4.326,2.143,4.326,5.166,0,3.59-2.29,5.375-4.494,5.375a3.859,3.859,0,0,1-3.611-2.058h-.042l-.084,1.827h-.9c.063-.714.084-1.6.084-2.352Zm1.008,11.023a3.084,3.084,0,0,0,.083.734,3.412,3.412,0,0,0,3.318,2.541c2.309,0,3.633-1.89,3.633-4.514,0-2.31-1.26-4.347-3.549-4.347a3.557,3.557,0,0,0-3.36,2.688,3.46,3.46,0,0,0-.125.882Z" transform="translate(-102.872 -2344.08)"/><path class="cls-2" d="M686.2,2472.223a.82.82,0,0,1-.84.86.808.808,0,0,1-.776-.86.861.861,0,0,1,.818-.883A.832.832,0,0,1,686.2,2472.223Zm-1.3,12.954V2475.1h1.008v10.078Z" transform="translate(-102.872 -2344.08)"/><path class="cls-2" d="M689.814,2470.27h1.008v14.907h-1.008Z" transform="translate(-102.872 -2344.08)"/><path class="cls-2" d="M696.093,2472.223a.821.821,0,0,1-.84.86.808.808,0,0,1-.776-.86.861.861,0,0,1,.818-.883A.832.832,0,0,1,696.093,2472.223Zm-1.3,12.954V2475.1H695.8v10.078Z" transform="translate(-102.872 -2344.08)"/><path class="cls-2" d="M701.091,2472.873v2.226h2.877v.819h-2.877v6.551c0,1.28.4,2.078,1.47,2.078a3.752,3.752,0,0,0,1.155-.147l.126.756a3.512,3.512,0,0,1-1.407.252,2.088,2.088,0,0,1-1.722-.715,3.675,3.675,0,0,1-.63-2.414v-6.361h-1.7v-.819h1.7v-1.848Z" transform="translate(-102.872 -2344.08)"/><path class="cls-2" d="M708.021,2472.223a.821.821,0,0,1-.84.86.809.809,0,0,1-.777-.86.862.862,0,0,1,.819-.883A.832.832,0,0,1,708.021,2472.223Zm-1.3,12.954V2475.1h1.008v10.078Z" transform="translate(-102.872 -2344.08)"/><path class="cls-2" d="M711.78,2480.033c0,3.212,1.742,4.492,3.842,4.492a5.86,5.86,0,0,0,2.793-.566l.252.777a6.663,6.663,0,0,1-3.171.651c-2.9,0-4.7-2.1-4.7-5.061,0-3.359,1.932-5.459,4.535-5.459,3.3,0,3.927,3.108,3.927,4.557a2.589,2.589,0,0,1-.042.609Zm6.425-.8c.021-1.406-.567-3.527-3-3.527-2.225,0-3.191,1.975-3.38,3.527Z" transform="translate(-102.872 -2344.08)"/><path class="cls-2" d="M721.923,2483.854a4.468,4.468,0,0,0,2.267.693c1.6,0,2.352-.861,2.352-1.91,0-1.114-.672-1.7-2.12-2.289-1.659-.63-2.562-1.534-2.562-2.75a2.831,2.831,0,0,1,3.108-2.731,3.942,3.942,0,0,1,2.225.631l-.378.818a3.393,3.393,0,0,0-2.015-.609,1.761,1.761,0,0,0-1.953,1.743c0,1.05.714,1.512,2.079,2.079,1.637.629,2.6,1.449,2.6,2.981,0,1.722-1.343,2.877-3.4,2.877a4.949,4.949,0,0,1-2.562-.694Z" transform="translate(-102.872 -2344.08)"/><path class="cls-2" d="M735.824,2477.514c0-.924-.02-1.618-.084-2.415h.946l.062,1.784h.042a3.54,3.54,0,0,1,3.275-2.016,3.075,3.075,0,0,1,2.9,2.2h.042a3.763,3.763,0,0,1,1.029-1.365,3.393,3.393,0,0,1,2.394-.84c.986,0,3.3.547,3.3,4.367v5.943h-1.008v-5.837c0-2.268-.882-3.611-2.624-3.611a2.921,2.921,0,0,0-2.646,1.994,3.6,3.6,0,0,0-.168.987v6.467h-1.007v-6.3c0-1.827-.862-3.149-2.5-3.149a3.119,3.119,0,0,0-2.792,2.267,3.5,3.5,0,0,0-.147.966v6.215h-1.008Z" transform="translate(-102.872 -2344.08)"/><path class="cls-2" d="M759.826,2482.783a15.117,15.117,0,0,0,.147,2.394h-.924l-.147-1.448h-.042a3.854,3.854,0,0,1-3.233,1.679,2.738,2.738,0,0,1-2.961-2.771c0-2.331,2.037-3.739,6.152-3.7v-.273c0-.986-.189-2.981-2.583-2.961a4.4,4.4,0,0,0-2.54.756l-.315-.734a5.565,5.565,0,0,1,2.961-.862c2.918,0,3.485,2.184,3.485,3.969Zm-1.008-3c-2.2-.063-5.1.273-5.1,2.688a1.927,1.927,0,0,0,2.015,2.1,3.015,3.015,0,0,0,2.982-2.015,1.7,1.7,0,0,0,.105-.61Z" transform="translate(-102.872 -2344.08)"/><path class="cls-2" d="M771.648,2470.27v12.555c0,.756.022,1.638.084,2.352h-.9l-.084-1.911H770.7a3.82,3.82,0,0,1-3.591,2.142c-2.5,0-4.345-2.079-4.345-5.082-.022-3.359,2.057-5.459,4.535-5.459a3.56,3.56,0,0,1,3.3,1.785h.042v-6.382Zm-1.007,8.818a3.469,3.469,0,0,0-.105-.924,3.229,3.229,0,0,0-3.171-2.457c-2.2,0-3.59,1.911-3.59,4.515,0,2.267,1.134,4.346,3.528,4.346a3.345,3.345,0,0,0,3.233-2.625,2.709,2.709,0,0,0,.105-.839Z" transform="translate(-102.872 -2344.08)"/><path class="cls-2" d="M775.7,2480.033c0,3.212,1.743,4.492,3.843,4.492a5.858,5.858,0,0,0,2.792-.566l.252.777a6.663,6.663,0,0,1-3.171.651c-2.9,0-4.7-2.1-4.7-5.061,0-3.359,1.931-5.459,4.535-5.459,3.3,0,3.927,3.108,3.927,4.557a2.589,2.589,0,0,1-.042.609Zm6.425-.8c.021-1.406-.566-3.527-3-3.527-2.227,0-3.191,1.975-3.381,3.527Z" transform="translate(-102.872 -2344.08)"/><path class="cls-2" d="M792.691,2472.223a.821.821,0,0,1-.839.86.809.809,0,0,1-.778-.86.863.863,0,0,1,.819-.883A.832.832,0,0,1,792.691,2472.223Zm-1.3,12.954V2475.1H792.4v10.078Z" transform="translate(-102.872 -2344.08)"/><path class="cls-2" d="M797.689,2472.873v2.226h2.876v.819h-2.876v6.551c0,1.28.4,2.078,1.469,2.078a3.742,3.742,0,0,0,1.155-.147l.126.756a3.5,3.5,0,0,1-1.406.252,2.088,2.088,0,0,1-1.722-.715,3.68,3.68,0,0,1-.629-2.414v-6.361h-1.7v-.819h1.7v-1.848Z" transform="translate(-102.872 -2344.08)"/><path class="cls-2" d="M802.162,2487.822a28.884,28.884,0,0,0,1.092-4.451l1.322-.21a26.224,26.224,0,0,1-1.616,4.556Z" transform="translate(-102.872 -2344.08)"/><path class="cls-2" d="M812.619,2477.514c0-.924-.02-1.618-.084-2.415h.945l.063,1.827h.043a3.8,3.8,0,0,1,3.464-2.059c.966,0,3.527.484,3.527,4.263v6.047h-1.008v-5.963c0-1.827-.714-3.485-2.792-3.485a3.237,3.237,0,0,0-3.023,2.309,3.848,3.848,0,0,0-.127.9v6.236h-1.008Z" transform="translate(-102.872 -2344.08)"/><path class="cls-2" d="M833.01,2480.033c0,3.758-2.583,5.375-4.83,5.375-2.6,0-4.619-2.037-4.619-5.186,0-3.444,2.267-5.355,4.766-5.355C831.119,2474.867,833.01,2476.967,833.01,2480.033Zm-8.442.125c0,2.52,1.618,4.41,3.675,4.41,2.1,0,3.759-1.89,3.759-4.472,0-1.848-1.029-4.389-3.695-4.389C825.724,2475.707,824.568,2478,824.568,2480.158Z" transform="translate(-102.872 -2344.08)"/><path class="cls-2" d="M837.482,2472.873v2.226h2.877v.819h-2.877v6.551c0,1.28.4,2.078,1.471,2.078a3.744,3.744,0,0,0,1.154-.147l.126.756a3.508,3.508,0,0,1-1.407.252,2.086,2.086,0,0,1-1.721-.715,3.675,3.675,0,0,1-.63-2.414v-6.361h-1.7v-.819h1.7v-1.848Z" transform="translate(-102.872 -2344.08)"/><path class="cls-2" d="M848.214,2470.27h1.008v6.718h.042a3.892,3.892,0,0,1,3.674-2.121c2.562,0,4.326,2.143,4.326,5.166,0,3.59-2.289,5.375-4.494,5.375a3.861,3.861,0,0,1-3.612-2.058h-.041l-.084,1.827h-.9c.063-.714.084-1.6.084-2.352Zm1.008,11.023a2.987,2.987,0,0,0,.084.734,3.409,3.409,0,0,0,3.317,2.541c2.31,0,3.633-1.89,3.633-4.514,0-2.31-1.26-4.347-3.549-4.347a3.554,3.554,0,0,0-3.359,2.688,3.413,3.413,0,0,0-.126.882Z" transform="translate(-102.872 -2344.08)"/><path class="cls-2" d="M860.5,2480.033c0,3.212,1.743,4.492,3.843,4.492a5.861,5.861,0,0,0,2.792-.566l.252.777a6.663,6.663,0,0,1-3.171.651c-2.9,0-4.7-2.1-4.7-5.061,0-3.359,1.931-5.459,4.535-5.459,3.3,0,3.927,3.108,3.927,4.557a2.589,2.589,0,0,1-.042.609Zm6.425-.8c.021-1.406-.567-3.527-3-3.527-2.227,0-3.192,1.975-3.381,3.527Z" transform="translate(-102.872 -2344.08)"/><path class="cls-2" d="M878.012,2484.736a6.894,6.894,0,0,1-2.961.651c-2.9,0-4.828-2.121-4.828-5.145a5.068,5.068,0,0,1,5.185-5.375,5.158,5.158,0,0,1,2.646.631l-.357.818a4.73,4.73,0,0,0-2.373-.587c-2.709,0-4.094,2.078-4.094,4.429,0,2.647,1.659,4.367,3.989,4.367a5.6,5.6,0,0,0,2.519-.587Z" transform="translate(-102.872 -2344.08)"/><path class="cls-2" d="M887.23,2482.783a15.236,15.236,0,0,0,.147,2.394h-.924l-.146-1.448h-.042a3.854,3.854,0,0,1-3.234,1.679,2.738,2.738,0,0,1-2.961-2.771c0-2.331,2.037-3.739,6.153-3.7v-.273c0-.986-.19-2.981-2.582-2.961a4.4,4.4,0,0,0-2.541.756l-.315-.734a5.562,5.562,0,0,1,2.96-.862c2.919,0,3.485,2.184,3.485,3.969Zm-1.007-3c-2.2-.063-5.1.273-5.1,2.688a1.926,1.926,0,0,0,2.016,2.1,3.013,3.013,0,0,0,2.98-2.015,1.7,1.7,0,0,0,.106-.61Z" transform="translate(-102.872 -2344.08)"/><path class="cls-2" d="M898.779,2482.721c0,.881.022,1.679.084,2.456h-.944l-.064-1.806h-.041a3.872,3.872,0,0,1-3.443,2.037c-1.281,0-3.443-.651-3.443-4.451V2475.1h1.008v5.669c0,2.183.671,3.757,2.666,3.757a3.331,3.331,0,0,0,2.981-2.036,3.628,3.628,0,0,0,.188-1.112V2475.1h1.008Z" transform="translate(-102.872 -2344.08)"/><path class="cls-2" d="M902.268,2483.854a4.462,4.462,0,0,0,2.267.693c1.6,0,2.352-.861,2.352-1.91,0-1.114-.672-1.7-2.121-2.289-1.659-.63-2.562-1.534-2.562-2.75a2.831,2.831,0,0,1,3.108-2.731,3.944,3.944,0,0,1,2.225.631l-.378.818a3.393,3.393,0,0,0-2.015-.609,1.761,1.761,0,0,0-1.953,1.743c0,1.05.713,1.512,2.079,2.079,1.637.629,2.6,1.449,2.6,2.981,0,1.722-1.344,2.877-3.4,2.877a4.949,4.949,0,0,1-2.562-.694Z" transform="translate(-102.872 -2344.08)"/><path class="cls-2" d="M911.192,2480.033c0,3.212,1.744,4.492,3.843,4.492a5.858,5.858,0,0,0,2.792-.566l.252.777a6.663,6.663,0,0,1-3.171.651c-2.9,0-4.7-2.1-4.7-5.061,0-3.359,1.932-5.459,4.535-5.459,3.3,0,3.927,3.108,3.927,4.557a2.589,2.589,0,0,1-.042.609Zm6.425-.8c.022-1.406-.566-3.527-3-3.527-2.226,0-3.191,1.975-3.381,3.527Z" transform="translate(-102.872 -2344.08)"/><path class="cls-2" d="M928.264,2472.873v2.226h2.877v.819h-2.877v6.551c0,1.28.4,2.078,1.47,2.078a3.752,3.752,0,0,0,1.155-.147l.126.756a3.514,3.514,0,0,1-1.408.252,2.084,2.084,0,0,1-1.72-.715,3.669,3.669,0,0,1-.631-2.414v-6.361h-1.7v-.819h1.7v-1.848Z" transform="translate(-102.872 -2344.08)"/><path class="cls-2" d="M933.893,2470.27H934.9v6.634h.041a3.632,3.632,0,0,1,1.366-1.449,3.74,3.74,0,0,1,2.037-.588c.944,0,3.506.484,3.506,4.242v6.068h-1.008v-5.963c0-1.827-.714-3.464-2.772-3.464a3.332,3.332,0,0,0-3.045,2.268,2.96,2.96,0,0,0-.125,1.007v6.152h-1.007Z" transform="translate(-102.872 -2344.08)"/><path class="cls-2" d="M945.82,2480.033c0,3.212,1.743,4.492,3.842,4.492a5.853,5.853,0,0,0,2.793-.566l.252.777a6.657,6.657,0,0,1-3.17.651c-2.9,0-4.7-2.1-4.7-5.061,0-3.359,1.932-5.459,4.535-5.459,3.3,0,3.926,3.108,3.926,4.557a2.589,2.589,0,0,1-.042.609Zm6.425-.8c.021-1.406-.567-3.527-3-3.527-2.224,0-3.191,1.975-3.38,3.527Z" transform="translate(-102.872 -2344.08)"/><path class="cls-2" d="M961.318,2475.1l1.7,5.731c.335,1.176.628,2.184.86,3.15h.042c.252-.923.609-1.995,1.008-3.15l2.015-5.731h.946l1.931,5.69c.42,1.217.735,2.246.987,3.191h.042c.21-.945.524-1.953.923-3.17l1.785-5.711h1.029l-3.359,10.078h-.862l-1.91-5.607c-.42-1.216-.777-2.308-1.05-3.443h-.042a34.724,34.724,0,0,1-1.092,3.465l-1.994,5.585H963.4l-3.107-10.078Z" transform="translate(-102.872 -2344.08)"/><path class="cls-2" d="M985.654,2480.033c0,3.758-2.582,5.375-4.828,5.375-2.6,0-4.619-2.037-4.619-5.186,0-3.444,2.268-5.355,4.766-5.355C983.766,2474.867,985.654,2476.967,985.654,2480.033Zm-8.439.125c0,2.52,1.616,4.41,3.674,4.41,2.1,0,3.757-1.89,3.757-4.472,0-1.848-1.028-4.389-3.695-4.389C978.369,2475.707,977.215,2478,977.215,2480.158Z" transform="translate(-102.872 -2344.08)"/><path class="cls-2" d="M988.723,2478.122c0-1.008-.022-2.036-.084-3.023h.924l.041,2.036h.064a3.13,3.13,0,0,1,2.855-2.268,2.593,2.593,0,0,1,.42.043v.965a1.77,1.77,0,0,0-.483-.041c-1.386,0-2.372,1.2-2.646,2.812a4.817,4.817,0,0,0-.084.967v5.564h-1.007Z" transform="translate(-102.872 -2344.08)"/><path class="cls-2" d="M996.618,2479.949h.042c.252-.315.651-.777.966-1.113l3.569-3.737h1.218l-4.073,4.178,4.64,5.9h-1.218l-4.116-5.291-1.028,1.092v4.2H995.61V2470.27h1.008Z" transform="translate(-102.872 -2344.08)"/><path class="cls-2" d="M1004.619,2483.854a4.472,4.472,0,0,0,2.268.693c1.6,0,2.351-.861,2.351-1.91,0-1.114-.672-1.7-2.12-2.289-1.659-.63-2.561-1.534-2.561-2.75a2.83,2.83,0,0,1,3.107-2.731,3.945,3.945,0,0,1,2.226.631l-.378.818a3.4,3.4,0,0,0-2.016-.609,1.761,1.761,0,0,0-1.953,1.743c0,1.05.715,1.512,2.079,2.079,1.638.629,2.6,1.449,2.6,2.981,0,1.722-1.344,2.877-3.4,2.877a4.945,4.945,0,0,1-2.561-.694Z" transform="translate(-102.872 -2344.08)"/><path class="cls-2" d="M1019.906,2472.873v2.226h2.877v.819h-2.877v6.551c0,1.28.4,2.078,1.471,2.078a3.749,3.749,0,0,0,1.154-.147l.126.756a3.512,3.512,0,0,1-1.407.252,2.086,2.086,0,0,1-1.721-.715,3.669,3.669,0,0,1-.631-2.414v-6.361h-1.7v-.819h1.7v-1.848Z" transform="translate(-102.872 -2344.08)"/><path class="cls-2" d="M1025.535,2470.27h1.008v6.634h.041a3.63,3.63,0,0,1,1.365-1.449,3.74,3.74,0,0,1,2.037-.588c.945,0,3.506.484,3.506,4.242v6.068h-1.008v-5.963c0-1.827-.713-3.464-2.771-3.464a3.33,3.33,0,0,0-3.045,2.268,2.936,2.936,0,0,0-.125,1.007v6.152h-1.008Z" transform="translate(-102.872 -2344.08)"/><path class="cls-2" d="M1037.463,2480.033c0,3.212,1.742,4.492,3.842,4.492a5.86,5.86,0,0,0,2.793-.566l.252.777a6.661,6.661,0,0,1-3.17.651c-2.9,0-4.7-2.1-4.7-5.061,0-3.359,1.931-5.459,4.535-5.459,3.3,0,3.926,3.108,3.926,4.557a2.589,2.589,0,0,1-.042.609Zm6.425-.8c.02-1.406-.568-3.527-3-3.527-2.225,0-3.192,1.975-3.38,3.527Z" transform="translate(-102.872 -2344.08)"/><path class="cls-2" d="M1048.025,2477.514c0-.924-.021-1.618-.084-2.415h.945l.063,1.784h.041a3.542,3.542,0,0,1,3.276-2.016,3.075,3.075,0,0,1,2.9,2.2h.041a3.774,3.774,0,0,1,1.029-1.365,3.394,3.394,0,0,1,2.394-.84c.987,0,3.3.547,3.3,4.367v5.943h-1.008v-5.837c0-2.268-.881-3.611-2.624-3.611a2.921,2.921,0,0,0-2.646,1.994,3.643,3.643,0,0,0-.167.987v6.467h-1.008v-6.3c0-1.827-.862-3.149-2.5-3.149a3.12,3.12,0,0,0-2.793,2.267,3.458,3.458,0,0,0-.147.966v6.215h-1.008Z" transform="translate(-102.872 -2344.08)"/><path class="cls-2" d="M1065.33,2483.854a4.462,4.462,0,0,0,2.268.693c1.6,0,2.351-.861,2.351-1.91,0-1.114-.672-1.7-2.121-2.289-1.658-.63-2.561-1.534-2.561-2.75a2.831,2.831,0,0,1,3.107-2.731,3.945,3.945,0,0,1,2.226.631l-.378.818a3.4,3.4,0,0,0-2.016-.609,1.76,1.76,0,0,0-1.952,1.743c0,1.05.713,1.512,2.078,2.079,1.638.629,2.6,1.449,2.6,2.981,0,1.722-1.344,2.877-3.4,2.877a4.945,4.945,0,0,1-2.561-.694Z" transform="translate(-102.872 -2344.08)"/><path class="cls-2" d="M1074.254,2480.033c0,3.212,1.742,4.492,3.842,4.492a5.86,5.86,0,0,0,2.793-.566l.252.777a6.661,6.661,0,0,1-3.17.651c-2.9,0-4.7-2.1-4.7-5.061,0-3.359,1.931-5.459,4.535-5.459,3.3,0,3.926,3.108,3.926,4.557a2.589,2.589,0,0,1-.042.609Zm6.425-.8c.02-1.406-.568-3.527-3-3.527-2.225,0-3.192,1.975-3.38,3.527Z" transform="translate(-102.872 -2344.08)"/><path class="cls-2" d="M1084.816,2470.27h1.008v14.907h-1.008Z" transform="translate(-102.872 -2344.08)"/><path class="cls-2" d="M1089.479,2475.1l2.351,6.256c.4.987.714,1.848.986,2.688h.043c.273-.84.651-1.722,1.029-2.688l2.393-6.256h1.05l-4.095,10.078h-.881l-3.947-10.078Z" transform="translate(-102.872 -2344.08)"/><path class="cls-2" d="M1099.811,2480.033c0,3.212,1.742,4.492,3.841,4.492a5.853,5.853,0,0,0,2.793-.566l.252.777a6.657,6.657,0,0,1-3.17.651c-2.9,0-4.7-2.1-4.7-5.061,0-3.359,1.932-5.459,4.535-5.459,3.3,0,3.926,3.108,3.926,4.557a2.589,2.589,0,0,1-.042.609Zm6.424-.8c.021-1.406-.567-3.527-3-3.527-2.224,0-3.191,1.975-3.379,3.527Z" transform="translate(-102.872 -2344.08)"/><path class="cls-2" d="M1109.953,2483.854a4.462,4.462,0,0,0,2.268.693c1.6,0,2.351-.861,2.351-1.91,0-1.114-.672-1.7-2.121-2.289-1.658-.63-2.561-1.534-2.561-2.75a2.831,2.831,0,0,1,3.107-2.731,3.945,3.945,0,0,1,2.226.631l-.378.818a3.4,3.4,0,0,0-2.016-.609,1.76,1.76,0,0,0-1.952,1.743c0,1.05.713,1.512,2.078,2.079,1.638.629,2.6,1.449,2.6,2.981,0,1.722-1.344,2.877-3.4,2.877a4.945,4.945,0,0,1-2.561-.694Z" transform="translate(-102.872 -2344.08)"/><path class="cls-2" d="M1130.133,2482.783a15.236,15.236,0,0,0,.146,2.394h-.924l-.146-1.448h-.042a3.852,3.852,0,0,1-3.233,1.679,2.738,2.738,0,0,1-2.961-2.771c0-2.331,2.037-3.739,6.152-3.7v-.273c0-.986-.189-2.981-2.582-2.961a4.4,4.4,0,0,0-2.541.756l-.314-.734a5.556,5.556,0,0,1,2.959-.862c2.919,0,3.486,2.184,3.486,3.969Zm-1.008-3c-2.2-.063-5.1.273-5.1,2.688a1.926,1.926,0,0,0,2.016,2.1,3.014,3.014,0,0,0,2.981-2.015,1.7,1.7,0,0,0,.105-.61Z" transform="translate(-102.872 -2344.08)"/><path class="cls-2" d="M1133.893,2478.122c0-1.008-.022-2.036-.084-3.023h.923l.042,2.036h.064a3.13,3.13,0,0,1,2.855-2.268,2.593,2.593,0,0,1,.42.043v.965a1.77,1.77,0,0,0-.483-.041c-1.386,0-2.372,1.2-2.646,2.812a4.817,4.817,0,0,0-.084.967v5.564h-1.007Z" transform="translate(-102.872 -2344.08)"/><path class="cls-2" d="M1140.55,2480.033c0,3.212,1.743,4.492,3.843,4.492a5.865,5.865,0,0,0,2.792-.566l.252.777a6.666,6.666,0,0,1-3.171.651c-2.9,0-4.7-2.1-4.7-5.061,0-3.359,1.931-5.459,4.535-5.459,3.3,0,3.926,3.108,3.926,4.557a2.589,2.589,0,0,1-.042.609Zm6.425-.8c.021-1.406-.567-3.527-3-3.527-2.227,0-3.192,1.975-3.381,3.527Z" transform="translate(-102.872 -2344.08)"/><path class="cls-2" d="M1156.383,2480.033c0,3.212,1.742,4.492,3.842,4.492a5.86,5.86,0,0,0,2.793-.566l.252.777a6.661,6.661,0,0,1-3.17.651c-2.9,0-4.7-2.1-4.7-5.061,0-3.359,1.932-5.459,4.536-5.459,3.3,0,3.925,3.108,3.925,4.557a2.589,2.589,0,0,1-.042.609Zm6.425-.8c.02-1.406-.568-3.527-3-3.527-2.225,0-3.192,1.975-3.38,3.527Z" transform="translate(-102.872 -2344.08)"/><path class="cls-2" d="M1166.82,2475.1l1.721,2.456c.42.609.777,1.113,1.155,1.722h.042c.378-.609.778-1.155,1.176-1.722l1.722-2.456h1.112l-3.527,4.913,3.654,5.165h-1.155l-1.784-2.562c-.463-.63-.84-1.238-1.26-1.889h-.043a22.457,22.457,0,0,1-1.26,1.889l-1.764,2.562h-1.132l3.695-5.144-3.486-4.934Z" transform="translate(-102.872 -2344.08)"/><path class="cls-2" d="M1183.282,2483.434h-.042a3.79,3.79,0,0,1-3.485,1.974c-2.478,0-4.347-2.1-4.347-5.082,0-3.884,2.52-5.459,4.641-5.459a3.473,3.473,0,0,1,3.3,1.953h.041l.063-1.721h.924c-.063.755-.084,1.553-.084,2.6v11.632h-1.008Zm0-4.368a3.375,3.375,0,0,0-.1-.923,3.253,3.253,0,0,0-3.151-2.436c-2.2,0-3.611,1.848-3.611,4.494,0,2.246,1.051,4.367,3.527,4.367a3.279,3.279,0,0,0,3.151-2.351,3.2,3.2,0,0,0,.188-.988Z" transform="translate(-102.872 -2344.08)"/><path class="cls-2" d="M1195.924,2482.721c0,.881.021,1.679.084,2.456h-.945l-.063-1.806h-.041a3.874,3.874,0,0,1-3.443,2.037c-1.282,0-3.444-.651-3.444-4.451V2475.1h1.008v5.669c0,2.183.672,3.757,2.666,3.757a3.332,3.332,0,0,0,2.982-2.036,3.658,3.658,0,0,0,.188-1.112V2475.1h1.008Z" transform="translate(-102.872 -2344.08)"/><path class="cls-2" d="M1201.133,2472.223a.821.821,0,0,1-.84.86.809.809,0,0,1-.776-.86.861.861,0,0,1,.819-.883A.832.832,0,0,1,1201.133,2472.223Zm-1.3,12.954V2475.1h1.008v10.078Z" transform="translate(-102.872 -2344.08)"/><path class="cls-2" d="M1204.326,2483.854a4.462,4.462,0,0,0,2.268.693c1.6,0,2.351-.861,2.351-1.91,0-1.114-.672-1.7-2.121-2.289-1.658-.63-2.561-1.534-2.561-2.75a2.831,2.831,0,0,1,3.107-2.731,3.945,3.945,0,0,1,2.226.631l-.378.818a3.4,3.4,0,0,0-2.016-.609,1.76,1.76,0,0,0-1.952,1.743c0,1.05.713,1.512,2.078,2.079,1.638.629,2.6,1.449,2.6,2.981,0,1.722-1.344,2.877-3.4,2.877a4.945,4.945,0,0,1-2.561-.694Z" transform="translate(-102.872 -2344.08)"/><path class="cls-2" d="M1214.4,2472.223a.82.82,0,0,1-.84.86.809.809,0,0,1-.776-.86.862.862,0,0,1,.819-.883A.832.832,0,0,1,1214.4,2472.223Zm-1.3,12.954V2475.1h1.007v10.078Z" transform="translate(-102.872 -2344.08)"/><path class="cls-2" d="M1219.4,2472.873v2.226h2.877v.819H1219.4v6.551c0,1.28.4,2.078,1.471,2.078a3.749,3.749,0,0,0,1.154-.147l.126.756a3.512,3.512,0,0,1-1.407.252,2.086,2.086,0,0,1-1.721-.715,3.675,3.675,0,0,1-.63-2.414v-6.361h-1.7v-.819h1.7v-1.848Z" transform="translate(-102.872 -2344.08)"/><path class="cls-2" d="M1225.052,2480.033c0,3.212,1.743,4.492,3.843,4.492a5.865,5.865,0,0,0,2.792-.566l.251.777a6.657,6.657,0,0,1-3.17.651c-2.9,0-4.7-2.1-4.7-5.061,0-3.359,1.932-5.459,4.536-5.459,3.3,0,3.926,3.108,3.926,4.557a2.589,2.589,0,0,1-.042.609Zm6.425-.8c.021-1.406-.567-3.527-3-3.527-2.227,0-3.192,1.975-3.381,3.527Z" transform="translate(-102.872 -2344.08)"/><path class="cls-2" d="M1234.838,2484.463a.874.874,0,0,1,.861-.945.858.858,0,0,1,.84.945.889.889,0,0,1-.883.945A.865.865,0,0,1,1234.838,2484.463Z" transform="translate(-102.872 -2344.08)"/><path class="cls-2" d="M107.616,2391.779H103v-.84h10.246v.84h-4.619v13.312h-1.008Z" transform="translate(-102.872 -2344.08)"/><path class="cls-2" d="M115.135,2390.184h1.008v6.634h.042a3.618,3.618,0,0,1,1.364-1.448,3.732,3.732,0,0,1,2.037-.588c.944,0,3.506.483,3.506,4.241v6.068h-1.008v-5.963c0-1.826-.714-3.464-2.771-3.464a3.328,3.328,0,0,0-3.044,2.268,2.913,2.913,0,0,0-.126,1.007v6.152h-1.008Z" transform="translate(-102.872 -2344.08)"/><path class="cls-2" d="M126.9,2398.036c0-1.008-.022-2.036-.084-3.023h.923l.042,2.037h.063a3.132,3.132,0,0,1,2.855-2.268,2.574,2.574,0,0,1,.42.042v.966a1.718,1.718,0,0,0-.482-.042c-1.386,0-2.373,1.2-2.646,2.814a4.712,4.712,0,0,0-.084.965v5.564H126.9Z" transform="translate(-102.872 -2344.08)"/><path class="cls-2" d="M142.013,2399.947c0,3.758-2.582,5.375-4.829,5.375-2.6,0-4.62-2.037-4.62-5.186,0-3.444,2.268-5.354,4.767-5.354C140.123,2394.782,142.013,2396.882,142.013,2399.947Zm-8.441.126c0,2.52,1.617,4.409,3.675,4.409,2.1,0,3.758-1.889,3.758-4.472,0-1.848-1.028-4.388-3.695-4.388C134.728,2395.622,133.572,2397.91,133.572,2400.073Z" transform="translate(-102.872 -2344.08)"/><path class="cls-2" d="M152.87,2402.635c0,.882.021,1.679.084,2.456h-.945l-.063-1.806H151.9a3.874,3.874,0,0,1-3.443,2.037c-1.281,0-3.443-.651-3.443-4.451v-5.858h1.007v5.669c0,2.183.672,3.758,2.666,3.758a3.333,3.333,0,0,0,2.982-2.037,3.622,3.622,0,0,0,.189-1.112v-6.278h1.008Z" transform="translate(-102.872 -2344.08)"/><path class="cls-2" d="M164.818,2403.621c0,2.583-.546,3.863-1.385,4.661a5.025,5.025,0,0,1-3.422,1.2,5.658,5.658,0,0,1-3.213-.881l.357-.8a5.424,5.424,0,0,0,3,.84c2.121,0,3.654-1.092,3.654-4.074v-1.427h-.042a3.774,3.774,0,0,1-3.506,1.952c-2.541,0-4.325-2.2-4.325-4.955,0-3.506,2.309-5.354,4.535-5.354a3.57,3.57,0,0,1,3.4,1.932h.042l.063-1.7h.923c-.062.756-.084,1.553-.084,2.6Zm-1.007-4.724a2.892,2.892,0,0,0-.126-.987,3.235,3.235,0,0,0-3.128-2.288c-2.142,0-3.612,1.742-3.612,4.409,0,2.268,1.2,4.22,3.57,4.22a3.3,3.3,0,0,0,3.128-2.268,3.675,3.675,0,0,0,.168-1.07Z" transform="translate(-102.872 -2344.08)"/><path class="cls-2" d="M168.727,2390.184h1.007v6.634h.042a3.62,3.62,0,0,1,1.365-1.448,3.732,3.732,0,0,1,2.037-.588c.944,0,3.506.483,3.506,4.241v6.068h-1.008v-5.963c0-1.826-.714-3.464-2.772-3.464a3.33,3.33,0,0,0-3.044,2.268,2.938,2.938,0,0,0-.126,1.007v6.152h-1.007Z" transform="translate(-102.872 -2344.08)"/><path class="cls-2" d="M186.933,2392.137a.82.82,0,0,1-.84.86.808.808,0,0,1-.777-.86.862.862,0,0,1,.819-.882A.831.831,0,0,1,186.933,2392.137Zm-1.3,12.954v-10.078h1.008v10.078Z" transform="translate(-102.872 -2344.08)"/><path class="cls-2" d="M190.545,2397.428c0-.924-.021-1.617-.084-2.415h.945l.063,1.827h.042a3.806,3.806,0,0,1,3.465-2.058c.965,0,3.527.483,3.527,4.262v6.047H197.5v-5.963c0-1.826-.714-3.485-2.793-3.485a3.239,3.239,0,0,0-3.023,2.309,3.9,3.9,0,0,0-.126.9v6.236h-1.008Z" transform="translate(-102.872 -2344.08)"/><path class="cls-2" d="M203.712,2392.787v2.226h2.876v.819h-2.876v6.551c0,1.28.4,2.078,1.47,2.078a3.749,3.749,0,0,0,1.154-.147l.126.756a3.51,3.51,0,0,1-1.406.252,2.089,2.089,0,0,1-1.722-.714,3.679,3.679,0,0,1-.63-2.415v-6.361H201v-.819h1.7v-1.848Z" transform="translate(-102.872 -2344.08)"/><path class="cls-2" d="M209.36,2399.947c0,3.212,1.744,4.493,3.843,4.493a5.849,5.849,0,0,0,2.792-.567l.252.777a6.644,6.644,0,0,1-3.17.651c-2.9,0-4.7-2.1-4.7-5.06,0-3.359,1.932-5.459,4.535-5.459,3.3,0,3.926,3.108,3.926,4.556a2.589,2.589,0,0,1-.042.609Zm6.425-.8c.022-1.407-.566-3.527-3-3.527-2.225,0-3.191,1.974-3.381,3.527Z" transform="translate(-102.872 -2344.08)"/><path class="cls-2" d="M219.9,2398.036c0-1.008-.02-2.036-.084-3.023h.924l.042,2.037h.064a3.13,3.13,0,0,1,2.855-2.268,2.585,2.585,0,0,1,.42.042v.966a1.725,1.725,0,0,0-.483-.042c-1.386,0-2.372,1.2-2.646,2.814a4.784,4.784,0,0,0-.084.965v5.564H219.9Z" transform="translate(-102.872 -2344.08)"/><path class="cls-2" d="M226.958,2395.013l2.352,6.257c.4.987.713,1.847.987,2.687h.042c.272-.84.65-1.722,1.028-2.687l2.394-6.257h1.05l-4.094,10.078h-.882l-3.947-10.078Z" transform="translate(-102.872 -2344.08)"/><path class="cls-2" d="M238.592,2392.137a.82.82,0,0,1-.84.86.808.808,0,0,1-.776-.86.861.861,0,0,1,.818-.882A.831.831,0,0,1,238.592,2392.137Zm-1.3,12.954v-10.078H238.3v10.078Z" transform="translate(-102.872 -2344.08)"/><path class="cls-2" d="M242.352,2399.947c0,3.212,1.742,4.493,3.841,4.493a5.857,5.857,0,0,0,2.793-.567l.252.777a6.65,6.65,0,0,1-3.171.651c-2.9,0-4.7-2.1-4.7-5.06,0-3.359,1.932-5.459,4.535-5.459,3.3,0,3.927,3.108,3.927,4.556a2.589,2.589,0,0,1-.042.609Zm6.424-.8c.021-1.407-.567-3.527-3-3.527-2.225,0-3.191,1.974-3.379,3.527Z" transform="translate(-102.872 -2344.08)"/><path class="cls-2" d="M252.809,2395.013l1.7,5.732c.336,1.176.63,2.184.86,3.15h.042c.252-.924.609-2,1.008-3.15l2.016-5.732h.945l1.932,5.69c.419,1.218.734,2.246.986,3.192h.042c.21-.946.525-1.954.924-3.171l1.785-5.711h1.028l-3.359,10.078h-.861l-1.911-5.606c-.42-1.217-.776-2.309-1.05-3.443h-.042a34.44,34.44,0,0,1-1.091,3.464l-1.994,5.585h-.882l-3.108-10.078Z" transform="translate(-102.872 -2344.08)"/><path class="cls-2" d="M268.265,2403.769a4.465,4.465,0,0,0,2.267.692c1.6,0,2.352-.86,2.352-1.91,0-1.113-.672-1.7-2.121-2.289-1.659-.63-2.562-1.533-2.562-2.75a2.831,2.831,0,0,1,3.108-2.73,3.944,3.944,0,0,1,2.225.63l-.378.818a3.4,3.4,0,0,0-2.015-.608,1.76,1.76,0,0,0-1.953,1.742c0,1.05.714,1.512,2.079,2.079,1.637.63,2.6,1.449,2.6,2.982,0,1.721-1.344,2.876-3.4,2.876a4.949,4.949,0,0,1-2.562-.693Z" transform="translate(-102.872 -2344.08)"/><path class="cls-2" d="M281.978,2395.013l1.7,5.732c.336,1.176.63,2.184.861,3.15h.042c.252-.924.608-2,1.008-3.15l2.015-5.732h.945l1.931,5.69c.42,1.218.736,2.246.988,3.192h.042c.21-.946.524-1.954.924-3.171l1.784-5.711h1.029l-3.359,10.078h-.862l-1.91-5.606c-.42-1.217-.777-2.309-1.05-3.443h-.042a34.7,34.7,0,0,1-1.091,3.464l-2,5.585h-.882l-3.108-10.078Z" transform="translate(-102.872 -2344.08)"/><path class="cls-2" d="M299.154,2392.137a.82.82,0,0,1-.84.86.808.808,0,0,1-.776-.86.862.862,0,0,1,.818-.882A.831.831,0,0,1,299.154,2392.137Zm-1.3,12.954v-10.078h1.007v10.078Z" transform="translate(-102.872 -2344.08)"/><path class="cls-2" d="M304.152,2392.787v2.226h2.877v.819h-2.877v6.551c0,1.28.4,2.078,1.47,2.078a3.752,3.752,0,0,0,1.155-.147l.126.756a3.512,3.512,0,0,1-1.407.252,2.092,2.092,0,0,1-1.722-.714,3.685,3.685,0,0,1-.629-2.415v-6.361h-1.7v-.819h1.7v-1.848Z" transform="translate(-102.872 -2344.08)"/><path class="cls-2" d="M309.78,2390.184h1.008v6.634h.042a3.62,3.62,0,0,1,1.365-1.448,3.731,3.731,0,0,1,2.036-.588c.946,0,3.507.483,3.507,4.241v6.068H316.73v-5.963c0-1.826-.713-3.464-2.771-3.464a3.33,3.33,0,0,0-3.045,2.268,2.962,2.962,0,0,0-.126,1.007v6.152H309.78Z" transform="translate(-102.872 -2344.08)"/><path class="cls-2" d="M336.28,2404.587a9.126,9.126,0,0,1-3.821.714c-3.422,0-6.7-2.184-6.7-7.2,0-4.2,2.708-7.391,7.18-7.391a7.022,7.022,0,0,1,3.276.63l-.316.84a6.712,6.712,0,0,0-2.939-.61c-3.821,0-6.151,2.478-6.151,6.551,0,3.843,2.183,6.32,5.983,6.32a7.629,7.629,0,0,0,3.191-.651Z" transform="translate(-102.872 -2344.08)"/><path class="cls-2" d="M340.188,2390.939v6.237H348v-6.237h1.008v14.152H348v-7.075h-7.811v7.075h-1.007v-14.152Z" transform="translate(-102.872 -2344.08)"/><path class="cls-2" d="M359.591,2398.058h-5.649v6.193h6.321v.84h-7.328v-14.152h6.992v.84h-5.985v5.439h5.649Z" transform="translate(-102.872 -2344.08)"/><path class="cls-2" d="M363.267,2405.091v-14.152h.945l5.5,8.357a46.732,46.732,0,0,1,2.666,4.451l.042-.02c-.147-1.912-.168-3.528-.168-5.753v-7.035h.966v14.152H372.3l-5.4-8.231c-1.049-1.637-2.015-3.128-2.751-4.577l-.042.022c.106,1.742.126,3.275.126,5.627v7.159Z" transform="translate(-102.872 -2344.08)"/><path class="cls-2" d="M387.33,2404.461a11.117,11.117,0,0,1-4.136.777,6.873,6.873,0,0,1-5-1.847,7.465,7.465,0,0,1-1.953-5.333,6.95,6.95,0,0,1,7.391-7.265,8.1,8.1,0,0,1,3.3.63l-.336.84a6.649,6.649,0,0,0-3.024-.61c-3.884,0-6.278,2.52-6.278,6.363,0,3.989,2.331,6.361,6.068,6.361a6.794,6.794,0,0,0,2.96-.482v-5h-3.275v-.819h4.283Z" transform="translate(-102.872 -2344.08)"/><path class="cls-2" d="M395.921,2390.939h1.008v13.312h6.3v.84h-7.307Z" transform="translate(-102.872 -2344.08)"/><path class="cls-2" d="M407.156,2392.137a.82.82,0,0,1-.84.86.808.808,0,0,1-.777-.86.862.862,0,0,1,.819-.882A.831.831,0,0,1,407.156,2392.137Zm-1.3,12.954v-10.078h1.008v10.078Z" transform="translate(-102.872 -2344.08)"/><path class="cls-2" d="M419.5,2390.478a13.05,13.05,0,0,0-2.94,8.671,13.275,13.275,0,0,0,2.94,8.545h-.944a13.041,13.041,0,0,1-2.961-8.566,13.3,13.3,0,0,1,2.961-8.65Z" transform="translate(-102.872 -2344.08)"/><path class="cls-2" d="M425.992,2391.779h-4.619v-.84h10.246v.84H427v13.312h-1.008Z" transform="translate(-102.872 -2344.08)"/><path class="cls-2" d="M433.511,2390.184h1.008v6.634h.042a3.611,3.611,0,0,1,1.364-1.448,3.732,3.732,0,0,1,2.037-.588c.944,0,3.506.483,3.506,4.241v6.068H440.46v-5.963c0-1.826-.714-3.464-2.772-3.464a3.328,3.328,0,0,0-3.043,2.268,2.913,2.913,0,0,0-.126,1.007v6.152h-1.008Z" transform="translate(-102.872 -2344.08)"/><path class="cls-2" d="M445.438,2399.947c0,3.212,1.744,4.493,3.843,4.493a5.849,5.849,0,0,0,2.792-.567l.252.777a6.644,6.644,0,0,1-3.17.651c-2.9,0-4.7-2.1-4.7-5.06,0-3.359,1.932-5.459,4.535-5.459,3.3,0,3.926,3.108,3.926,4.556a2.589,2.589,0,0,1-.042.609Zm6.425-.8c.022-1.407-.566-3.527-3-3.527-2.225,0-3.191,1.974-3.381,3.527Z" transform="translate(-102.872 -2344.08)"/><path class="cls-2" d="M461.125,2390.939h6.992v.84h-5.984v5.627h5.5v.84h-5.5v6.845h-1.008Z" transform="translate(-102.872 -2344.08)"/><path class="cls-2" d="M479.246,2399.947c0,3.758-2.582,5.375-4.829,5.375-2.6,0-4.619-2.037-4.619-5.186,0-3.444,2.267-5.354,4.766-5.354C477.356,2394.782,479.246,2396.882,479.246,2399.947Zm-8.44.126c0,2.52,1.617,4.409,3.674,4.409,2.1,0,3.758-1.889,3.758-4.472,0-1.848-1.028-4.388-3.695-4.388C471.961,2395.622,470.806,2397.91,470.806,2400.073Z" transform="translate(-102.872 -2344.08)"/><path class="cls-2" d="M490.1,2402.635c0,.882.021,1.679.084,2.456h-.945l-.063-1.806h-.042a3.874,3.874,0,0,1-3.444,2.037c-1.28,0-3.443-.651-3.443-4.451v-5.858h1.008v5.669c0,2.183.672,3.758,2.667,3.758a3.332,3.332,0,0,0,2.981-2.037,3.622,3.622,0,0,0,.189-1.112v-6.278H490.1Z" transform="translate(-102.872 -2344.08)"/><path class="cls-2" d="M494.011,2397.428c0-.924-.021-1.617-.084-2.415h.945l.063,1.827h.042a3.8,3.8,0,0,1,3.464-2.058c.966,0,3.528.483,3.528,4.262v6.047h-1.008v-5.963c0-1.826-.714-3.485-2.793-3.485a3.239,3.239,0,0,0-3.023,2.309,3.9,3.9,0,0,0-.126.9v6.236h-1.008Z" transform="translate(-102.872 -2344.08)"/><path class="cls-2" d="M513.833,2390.184v12.555c0,.756.021,1.638.084,2.352h-.9l-.084-1.91h-.042a3.822,3.822,0,0,1-3.591,2.141c-2.5,0-4.346-2.079-4.346-5.081-.021-3.359,2.058-5.459,4.535-5.459a3.559,3.559,0,0,1,3.3,1.784h.042v-6.382ZM512.825,2399a3.473,3.473,0,0,0-.1-.924,3.229,3.229,0,0,0-3.171-2.456c-2.2,0-3.59,1.91-3.59,4.514,0,2.267,1.134,4.346,3.527,4.346a3.344,3.344,0,0,0,3.234-2.625,2.7,2.7,0,0,0,.1-.839Z" transform="translate(-102.872 -2344.08)"/><path class="cls-2" d="M517.888,2399.947c0,3.212,1.742,4.493,3.841,4.493a5.857,5.857,0,0,0,2.793-.567l.252.777a6.648,6.648,0,0,1-3.17.651c-2.9,0-4.7-2.1-4.7-5.06,0-3.359,1.932-5.459,4.536-5.459,3.3,0,3.926,3.108,3.926,4.556a2.589,2.589,0,0,1-.042.609Zm6.425-.8c.02-1.407-.568-3.527-3-3.527-2.226,0-3.192,1.974-3.38,3.527Z" transform="translate(-102.872 -2344.08)"/><path class="cls-2" d="M528.43,2398.036c0-1.008-.022-2.036-.084-3.023h.924l.042,2.037h.062a3.132,3.132,0,0,1,2.855-2.268,2.574,2.574,0,0,1,.42.042v.966a1.718,1.718,0,0,0-.482-.042c-1.386,0-2.373,1.2-2.646,2.814a4.714,4.714,0,0,0-.083.965v5.564H528.43Z" transform="translate(-102.872 -2344.08)"/><path class="cls-2" d="M548.9,2399.947c0,3.758-2.582,5.375-4.829,5.375-2.6,0-4.619-2.037-4.619-5.186,0-3.444,2.268-5.354,4.767-5.354C547.013,2394.782,548.9,2396.882,548.9,2399.947Zm-8.44.126c0,2.52,1.617,4.409,3.675,4.409,2.1,0,3.758-1.889,3.758-4.472,0-1.848-1.029-4.388-3.7-4.388C541.617,2395.622,540.462,2397.91,540.462,2400.073Z" transform="translate(-102.872 -2344.08)"/><path class="cls-2" d="M552.054,2405.091v-9.259h-1.449v-.819h1.449v-.546a4.966,4.966,0,0,1,1.113-3.632,3.206,3.206,0,0,1,2.246-.882,3.355,3.355,0,0,1,1.512.336l-.315.776a2.717,2.717,0,0,0-1.281-.272c-1.89,0-2.267,1.722-2.267,3.653v.567h2.687v.819h-2.687v9.259Z" transform="translate(-102.872 -2344.08)"/><path class="cls-2" d="M563.142,2390.939h6.992v.84h-5.985v5.627h5.5v.84h-5.5v6.845h-1.007Z" transform="translate(-102.872 -2344.08)"/><path class="cls-2" d="M581.263,2399.947c0,3.758-2.582,5.375-4.829,5.375-2.6,0-4.62-2.037-4.62-5.186,0-3.444,2.268-5.354,4.767-5.354C579.373,2394.782,581.263,2396.882,581.263,2399.947Zm-8.441.126c0,2.52,1.617,4.409,3.675,4.409,2.1,0,3.758-1.889,3.758-4.472,0-1.848-1.028-4.388-3.7-4.388C573.978,2395.622,572.822,2397.91,572.822,2400.073Z" transform="translate(-102.872 -2344.08)"/><path class="cls-2" d="M592.394,2390.184v12.555c0,.756.02,1.638.084,2.352h-.9l-.084-1.91h-.042a3.818,3.818,0,0,1-3.59,2.141c-2.5,0-4.346-2.079-4.346-5.081-.021-3.359,2.057-5.459,4.535-5.459a3.561,3.561,0,0,1,3.3,1.784h.042v-6.382ZM591.386,2399a3.475,3.475,0,0,0-.106-.924,3.227,3.227,0,0,0-3.17-2.456c-2.205,0-3.59,1.91-3.59,4.514,0,2.267,1.133,4.346,3.527,4.346a3.343,3.343,0,0,0,3.233-2.625,2.7,2.7,0,0,0,.106-.839Z" transform="translate(-102.872 -2344.08)"/><path class="cls-2" d="M604.069,2402.635c0,.882.021,1.679.084,2.456h-.945l-.062-1.806H603.1a3.875,3.875,0,0,1-3.444,2.037c-1.281,0-3.443-.651-3.443-4.451v-5.858h1.008v5.669c0,2.183.671,3.758,2.666,3.758a3.332,3.332,0,0,0,2.981-2.037,3.592,3.592,0,0,0,.19-1.112v-6.278h1.007Z" transform="translate(-102.872 -2344.08)"/><path class="cls-2" d="M621.058,2405.091l-2.142-3.486c-.882-1.322-1.386-2.12-1.868-2.939h-.042c-.462.819-.9,1.6-1.785,2.961l-2.036,3.464h-1.156l4.493-7.159-4.3-6.993h1.134l2.288,3.78c.588.945,1.029,1.679,1.449,2.435h.042c.44-.818.882-1.469,1.49-2.435l2.373-3.78h1.176l-4.515,6.887,4.557,7.265Z" transform="translate(-102.872 -2344.08)"/><path class="cls-2" d="M632.755,2402.635c0,.882.02,1.679.084,2.456h-.945l-.063-1.806h-.042a3.874,3.874,0,0,1-3.443,2.037c-1.282,0-3.444-.651-3.444-4.451v-5.858h1.008v5.669c0,2.183.672,3.758,2.666,3.758a3.333,3.333,0,0,0,2.982-2.037,3.622,3.622,0,0,0,.189-1.112v-6.278h1.008Z" transform="translate(-102.872 -2344.08)"/><path class="cls-2" d="M642.939,2402.7a15.117,15.117,0,0,0,.148,2.394h-.924l-.147-1.448h-.042a3.854,3.854,0,0,1-3.234,1.679,2.737,2.737,0,0,1-2.96-2.771c0-2.331,2.036-3.738,6.152-3.7v-.273c0-.986-.189-2.981-2.582-2.96a4.4,4.4,0,0,0-2.541.756l-.315-.735a5.572,5.572,0,0,1,2.96-.861c2.919,0,3.485,2.184,3.485,3.968Zm-1.007-3c-2.2-.063-5.1.273-5.1,2.688a1.927,1.927,0,0,0,2.016,2.1,3.015,3.015,0,0,0,2.981-2.015,1.7,1.7,0,0,0,.105-.61Z" transform="translate(-102.872 -2344.08)"/><path class="cls-2" d="M646.721,2397.428c0-.924-.021-1.617-.084-2.415h.945l.063,1.827h.042a3.8,3.8,0,0,1,3.464-2.058c.966,0,3.528.483,3.528,4.262v6.047h-1.008v-5.963c0-1.826-.714-3.485-2.793-3.485a3.241,3.241,0,0,0-3.024,2.309,3.96,3.96,0,0,0-.125.9v6.236h-1.008Z" transform="translate(-102.872 -2344.08)"/><path class="cls-2" d="M657.053,2407.694a13.348,13.348,0,0,0,2.939-8.629,13.194,13.194,0,0,0-2.939-8.587H658a13.089,13.089,0,0,1,2.96,8.608,13.222,13.222,0,0,1-2.96,8.608Z" transform="translate(-102.872 -2344.08)"/><path class="cls-2" d="M675.993,2402.7a15.117,15.117,0,0,0,.148,2.394h-.924l-.148-1.448h-.042a3.852,3.852,0,0,1-3.233,1.679,2.737,2.737,0,0,1-2.96-2.771c0-2.331,2.036-3.738,6.151-3.7v-.273c0-.986-.188-2.981-2.582-2.96a4.4,4.4,0,0,0-2.541.756l-.314-.735a5.569,5.569,0,0,1,2.96-.861c2.919,0,3.485,2.184,3.485,3.968Zm-1.008-3c-2.2-.063-5.1.273-5.1,2.688a1.927,1.927,0,0,0,2.015,2.1,3.015,3.015,0,0,0,2.982-2.015,1.692,1.692,0,0,0,.1-.61Z" transform="translate(-102.872 -2344.08)"/><path class="cls-2" d="M679.774,2397.428c0-.924-.021-1.617-.084-2.415h.945l.063,1.827h.041a3.807,3.807,0,0,1,3.465-2.058c.966,0,3.527.483,3.527,4.262v6.047h-1.007v-5.963c0-1.826-.714-3.485-2.793-3.485a3.24,3.24,0,0,0-3.024,2.309,3.96,3.96,0,0,0-.125.9v6.236h-1.008Z" transform="translate(-102.872 -2344.08)"/><path class="cls-2" d="M699.6,2390.184v12.555c0,.756.021,1.638.084,2.352h-.9l-.084-1.91h-.043a3.817,3.817,0,0,1-3.589,2.141c-2.5,0-4.346-2.079-4.346-5.081-.022-3.359,2.056-5.459,4.535-5.459a3.56,3.56,0,0,1,3.3,1.784h.042v-6.382ZM698.589,2399a3.475,3.475,0,0,0-.106-.924,3.227,3.227,0,0,0-3.17-2.456c-2.205,0-3.589,1.91-3.589,4.514,0,2.267,1.132,4.346,3.527,4.346a3.342,3.342,0,0,0,3.232-2.625,2.7,2.7,0,0,0,.106-.839Z" transform="translate(-102.872 -2344.08)"/><path class="cls-2" d="M708.628,2390.184h1.008v6.634h.041a3.627,3.627,0,0,1,1.365-1.448,3.732,3.732,0,0,1,2.037-.588c.944,0,3.506.483,3.506,4.241v6.068h-1.008v-5.963c0-1.826-.714-3.464-2.771-3.464a3.33,3.33,0,0,0-3.045,2.268,2.939,2.939,0,0,0-.125,1.007v6.152h-1.008Z" transform="translate(-102.872 -2344.08)"/><path class="cls-2" d="M720.556,2399.947c0,3.212,1.742,4.493,3.841,4.493a5.851,5.851,0,0,0,2.793-.567l.252.777a6.644,6.644,0,0,1-3.17.651c-2.9,0-4.7-2.1-4.7-5.06,0-3.359,1.932-5.459,4.535-5.459,3.3,0,3.926,3.108,3.926,4.556a2.589,2.589,0,0,1-.042.609Zm6.424-.8c.021-1.407-.567-3.527-3-3.527-2.225,0-3.192,1.974-3.38,3.527Z" transform="translate(-102.872 -2344.08)"/><path class="cls-2" d="M731.1,2398.036c0-1.008-.021-2.036-.084-3.023h.924l.041,2.037h.063a3.132,3.132,0,0,1,2.855-2.268,2.562,2.562,0,0,1,.42.042v.966a1.714,1.714,0,0,0-.482-.042c-1.386,0-2.373,1.2-2.646,2.814a4.712,4.712,0,0,0-.084.965v5.564H731.1Z" transform="translate(-102.872 -2344.08)"/><path class="cls-2" d="M749.912,2404.65a6.869,6.869,0,0,1-2.96.651c-2.9,0-4.83-2.12-4.83-5.144a5.069,5.069,0,0,1,5.187-5.375,5.152,5.152,0,0,1,2.645.63l-.357.818a4.742,4.742,0,0,0-2.372-.587c-2.708,0-4.1,2.079-4.1,4.43,0,2.646,1.659,4.367,3.99,4.367a5.617,5.617,0,0,0,2.52-.587Z" transform="translate(-102.872 -2344.08)"/><path class="cls-2" d="M761.462,2399.947c0,3.758-2.583,5.375-4.83,5.375-2.6,0-4.619-2.037-4.619-5.186,0-3.444,2.267-5.354,4.766-5.354C759.571,2394.782,761.462,2396.882,761.462,2399.947Zm-8.441.126c0,2.52,1.617,4.409,3.674,4.409,2.1,0,3.759-1.889,3.759-4.472,0-1.848-1.029-4.388-3.695-4.388C754.176,2395.622,753.021,2397.91,753.021,2400.073Z" transform="translate(-102.872 -2344.08)"/><path class="cls-2" d="M764.55,2390.184h1.008v14.907H764.55Z" transform="translate(-102.872 -2344.08)"/><path class="cls-2" d="M769.526,2390.184h1.008v14.907h-1.008Z" transform="translate(-102.872 -2344.08)"/><path class="cls-2" d="M774.65,2399.947c0,3.212,1.744,4.493,3.843,4.493a5.855,5.855,0,0,0,2.792-.567l.252.777a6.65,6.65,0,0,1-3.171.651c-2.9,0-4.7-2.1-4.7-5.06,0-3.359,1.932-5.459,4.535-5.459,3.3,0,3.927,3.108,3.927,4.556a2.589,2.589,0,0,1-.042.609Zm6.425-.8c.022-1.407-.566-3.527-3-3.527-2.226,0-3.191,1.974-3.381,3.527Z" transform="translate(-102.872 -2344.08)"/><path class="cls-2" d="M791.491,2402.7a15.236,15.236,0,0,0,.147,2.394h-.924l-.147-1.448h-.042a3.852,3.852,0,0,1-3.233,1.679,2.738,2.738,0,0,1-2.961-2.771c0-2.331,2.037-3.738,6.152-3.7v-.273c0-.986-.189-2.981-2.582-2.96a4.4,4.4,0,0,0-2.541.756l-.314-.735a5.569,5.569,0,0,1,2.96-.861c2.919,0,3.485,2.184,3.485,3.968Zm-1.008-3c-2.2-.063-5.1.273-5.1,2.688a1.926,1.926,0,0,0,2.015,2.1,3.014,3.014,0,0,0,2.981-2.015,1.7,1.7,0,0,0,.1-.61Z" transform="translate(-102.872 -2344.08)"/><path class="cls-2" d="M803.313,2403.621c0,2.583-.545,3.863-1.385,4.661a5.026,5.026,0,0,1-3.423,1.2,5.657,5.657,0,0,1-3.212-.881l.356-.8a5.432,5.432,0,0,0,3,.84c2.12,0,3.654-1.092,3.654-4.074v-1.427h-.042a3.775,3.775,0,0,1-3.507,1.952c-2.54,0-4.324-2.2-4.324-4.955,0-3.506,2.308-5.354,4.535-5.354a3.568,3.568,0,0,1,3.4,1.932h.043l.063-1.7h.923c-.062.756-.084,1.553-.084,2.6Zm-1.007-4.724a2.917,2.917,0,0,0-.126-.987,3.235,3.235,0,0,0-3.128-2.288c-2.143,0-3.612,1.742-3.612,4.409,0,2.268,1.2,4.22,3.569,4.22a3.3,3.3,0,0,0,3.129-2.268,3.675,3.675,0,0,0,.168-1.07Z" transform="translate(-102.872 -2344.08)"/><path class="cls-2" d="M814.989,2402.635c0,.882.022,1.679.084,2.456h-.944l-.064-1.806h-.041a3.872,3.872,0,0,1-3.443,2.037c-1.281,0-3.443-.651-3.443-4.451v-5.858h1.008v5.669c0,2.183.671,3.758,2.666,3.758a3.332,3.332,0,0,0,2.981-2.037,3.653,3.653,0,0,0,.188-1.112v-6.278h1.008Z" transform="translate(-102.872 -2344.08)"/><path class="cls-2" d="M819.044,2399.947c0,3.212,1.742,4.493,3.842,4.493a5.857,5.857,0,0,0,2.793-.567l.252.777a6.648,6.648,0,0,1-3.17.651c-2.9,0-4.7-2.1-4.7-5.06,0-3.359,1.931-5.459,4.535-5.459,3.3,0,3.926,3.108,3.926,4.556a2.589,2.589,0,0,1-.042.609Zm6.425-.8c.02-1.407-.568-3.527-3-3.527-2.225,0-3.192,1.974-3.38,3.527Z" transform="translate(-102.872 -2344.08)"/><path class="cls-2" d="M829.187,2403.769a4.468,4.468,0,0,0,2.267.692c1.6,0,2.352-.86,2.352-1.91,0-1.113-.672-1.7-2.12-2.289-1.66-.63-2.562-1.533-2.562-2.75a2.83,2.83,0,0,1,3.107-2.73,3.945,3.945,0,0,1,2.226.63l-.378.818a3.4,3.4,0,0,0-2.016-.608,1.76,1.76,0,0,0-1.953,1.742c0,1.05.715,1.512,2.079,2.079,1.638.63,2.6,1.449,2.6,2.982,0,1.721-1.344,2.876-3.4,2.876a4.949,4.949,0,0,1-2.562-.693Z" transform="translate(-102.872 -2344.08)"/><path class="cls-2" d="M836.579,2407.736a28.884,28.884,0,0,0,1.092-4.451l1.322-.21a26.24,26.24,0,0,1-1.616,4.557Z" transform="translate(-102.872 -2344.08)"/><path class="cls-2" d="M846.848,2395.013l1.7,5.732c.336,1.176.631,2.184.861,3.15h.042c.252-.924.609-2,1.008-3.15l2.016-5.732h.944l1.932,5.69c.42,1.218.735,2.246.987,3.192h.042c.21-.946.525-1.954.924-3.171l1.785-5.711h1.028l-3.359,10.078H855.9l-1.911-5.606c-.42-1.217-.776-2.309-1.049-3.443H852.9a34.706,34.706,0,0,1-1.092,3.464l-2,5.585h-.881l-3.108-10.078Z" transform="translate(-102.872 -2344.08)"/><path class="cls-2" d="M862.724,2399.947c0,3.212,1.742,4.493,3.841,4.493a5.851,5.851,0,0,0,2.793-.567l.252.777a6.644,6.644,0,0,1-3.17.651c-2.9,0-4.7-2.1-4.7-5.06,0-3.359,1.932-5.459,4.535-5.459,3.3,0,3.926,3.108,3.926,4.556a2.589,2.589,0,0,1-.042.609Zm6.424-.8c.021-1.407-.567-3.527-3-3.527-2.225,0-3.192,1.974-3.38,3.527Z" transform="translate(-102.872 -2344.08)"/><path class="cls-2" d="M877.989,2403.769a4.472,4.472,0,0,0,2.268.692c1.6,0,2.351-.86,2.351-1.91,0-1.113-.671-1.7-2.12-2.289-1.659-.63-2.561-1.533-2.561-2.75a2.83,2.83,0,0,1,3.107-2.73,3.945,3.945,0,0,1,2.226.63l-.378.818a3.407,3.407,0,0,0-2.016-.608,1.76,1.76,0,0,0-1.953,1.742c0,1.05.715,1.512,2.079,2.079,1.638.63,2.6,1.449,2.6,2.982,0,1.721-1.344,2.876-3.4,2.876a4.948,4.948,0,0,1-2.561-.693Z" transform="translate(-102.872 -2344.08)"/><path class="cls-2" d="M895.376,2399.947c0,3.758-2.582,5.375-4.828,5.375-2.6,0-4.619-2.037-4.619-5.186,0-3.444,2.267-5.354,4.765-5.354C893.487,2394.782,895.376,2396.882,895.376,2399.947Zm-8.439.126c0,2.52,1.616,4.409,3.673,4.409,2.1,0,3.758-1.889,3.758-4.472,0-1.848-1.028-4.388-3.7-4.388C888.091,2395.622,886.937,2397.91,886.937,2400.073Z" transform="translate(-102.872 -2344.08)"/><path class="cls-2" d="M898.443,2398.036c0-1.008-.02-2.036-.084-3.023h.924l.042,2.037h.063a3.132,3.132,0,0,1,2.855-2.268,2.562,2.562,0,0,1,.42.042v.966a1.714,1.714,0,0,0-.482-.042c-1.386,0-2.373,1.2-2.646,2.814a4.712,4.712,0,0,0-.084.965v5.564h-1.008Z" transform="translate(-102.872 -2344.08)"/><path class="cls-2" d="M907.116,2392.787v2.226h2.876v.819h-2.876v6.551c0,1.28.4,2.078,1.469,2.078a3.752,3.752,0,0,0,1.155-.147l.126.756a3.51,3.51,0,0,1-1.406.252,2.094,2.094,0,0,1-1.723-.714,3.685,3.685,0,0,1-.629-2.415v-6.361h-1.7v-.819h1.7v-1.848Z" transform="translate(-102.872 -2344.08)"/><path class="cls-2" d="M912.765,2399.947c0,3.212,1.742,4.493,3.841,4.493a5.851,5.851,0,0,0,2.793-.567l.252.777a6.644,6.644,0,0,1-3.17.651c-2.9,0-4.7-2.1-4.7-5.06,0-3.359,1.932-5.459,4.535-5.459,3.3,0,3.926,3.108,3.926,4.556a2.589,2.589,0,0,1-.042.609Zm6.424-.8c.021-1.407-.567-3.527-3-3.527-2.225,0-3.192,1.974-3.38,3.527Z" transform="translate(-102.872 -2344.08)"/><path class="cls-2" d="M931.369,2390.184v12.555c0,.756.021,1.638.084,2.352h-.9l-.084-1.91h-.041a3.823,3.823,0,0,1-3.591,2.141c-2.5,0-4.347-2.079-4.347-5.081-.02-3.359,2.059-5.459,4.535-5.459a3.559,3.559,0,0,1,3.3,1.784h.042v-6.382ZM930.361,2399a3.473,3.473,0,0,0-.1-.924,3.229,3.229,0,0,0-3.171-2.456c-2.2,0-3.591,1.91-3.591,4.514,0,2.267,1.135,4.346,3.527,4.346a3.344,3.344,0,0,0,3.235-2.625,2.7,2.7,0,0,0,.1-.839Z" transform="translate(-102.872 -2344.08)"/><path class="cls-2" d="M949.009,2399.947c0,3.758-2.582,5.375-4.828,5.375-2.6,0-4.619-2.037-4.619-5.186,0-3.444,2.267-5.354,4.765-5.354C947.12,2394.782,949.009,2396.882,949.009,2399.947Zm-8.44.126c0,2.52,1.617,4.409,3.674,4.409,2.1,0,3.758-1.889,3.758-4.472,0-1.848-1.028-4.388-3.695-4.388C941.724,2395.622,940.569,2397.91,940.569,2400.073Z" transform="translate(-102.872 -2344.08)"/><path class="cls-2" d="M959.866,2402.635c0,.882.021,1.679.084,2.456h-.945l-.063-1.806H958.9a3.871,3.871,0,0,1-3.443,2.037c-1.28,0-3.443-.651-3.443-4.451v-5.858h1.008v5.669c0,2.183.671,3.758,2.667,3.758a3.333,3.333,0,0,0,2.981-2.037,3.622,3.622,0,0,0,.189-1.112v-6.278h1.008Z" transform="translate(-102.872 -2344.08)"/><path class="cls-2" d="M965.159,2392.787v2.226h2.876v.819h-2.876v6.551c0,1.28.4,2.078,1.469,2.078a3.752,3.752,0,0,0,1.155-.147l.126.756a3.51,3.51,0,0,1-1.406.252,2.094,2.094,0,0,1-1.723-.714,3.685,3.685,0,0,1-.629-2.415v-6.361h-1.7v-.819h1.7v-1.848Z" transform="translate(-102.872 -2344.08)"/><path class="cls-2" d="M977.3,2392.787v2.226h2.877v.819H977.3v6.551c0,1.28.4,2.078,1.471,2.078a3.749,3.749,0,0,0,1.154-.147l.126.756a3.512,3.512,0,0,1-1.407.252,2.087,2.087,0,0,1-1.721-.714,3.674,3.674,0,0,1-.631-2.415v-6.361h-1.7v-.819h1.7v-1.848Z" transform="translate(-102.872 -2344.08)"/><path class="cls-2" d="M982.925,2390.184h1.008v6.634h.041a3.627,3.627,0,0,1,1.365-1.448,3.732,3.732,0,0,1,2.037-.588c.944,0,3.506.483,3.506,4.241v6.068h-1.008v-5.963c0-1.826-.714-3.464-2.771-3.464a3.33,3.33,0,0,0-3.045,2.268,2.939,2.939,0,0,0-.125,1.007v6.152h-1.008Z" transform="translate(-102.872 -2344.08)"/><path class="cls-2" d="M994.853,2399.947c0,3.212,1.742,4.493,3.841,4.493a5.851,5.851,0,0,0,2.793-.567l.252.777a6.644,6.644,0,0,1-3.17.651c-2.9,0-4.7-2.1-4.7-5.06,0-3.359,1.932-5.459,4.535-5.459,3.3,0,3.926,3.108,3.926,4.556a2.589,2.589,0,0,1-.042.609Zm6.424-.8c.021-1.407-.567-3.527-3-3.527-2.224,0-3.191,1.974-3.379,3.527Z" transform="translate(-102.872 -2344.08)"/><path class="cls-2" d="M1017.489,2404.65a6.871,6.871,0,0,1-2.961.651c-2.9,0-4.828-2.12-4.828-5.144a5.069,5.069,0,0,1,5.186-5.375,5.156,5.156,0,0,1,2.645.63l-.356.818a4.747,4.747,0,0,0-2.373-.587c-2.709,0-4.094,2.079-4.094,4.43,0,2.646,1.658,4.367,3.988,4.367a5.6,5.6,0,0,0,2.52-.587Z" transform="translate(-102.872 -2344.08)"/><path class="cls-2" d="M1028.2,2402.635c0,.882.022,1.679.084,2.456h-.944l-.064-1.806h-.041a3.874,3.874,0,0,1-3.443,2.037c-1.281,0-3.443-.651-3.443-4.451v-5.858h1.007v5.669c0,2.183.672,3.758,2.667,3.758A3.332,3.332,0,0,0,1027,2402.4a3.653,3.653,0,0,0,.188-1.112v-6.278h1.008Z" transform="translate(-102.872 -2344.08)"/><path class="cls-2" d="M1032.085,2398.036c0-1.008-.022-2.036-.084-3.023h.924l.042,2.037h.063a3.132,3.132,0,0,1,2.856-2.268,2.608,2.608,0,0,1,.42.042v.966a1.736,1.736,0,0,0-.484-.042c-1.385,0-2.372,1.2-2.645,2.814a4.712,4.712,0,0,0-.084.965v5.564h-1.008Z" transform="translate(-102.872 -2344.08)"/><path class="cls-2" d="M1038.952,2398.036c0-1.008-.021-2.036-.084-3.023h.924l.042,2.037h.063a3.132,3.132,0,0,1,2.856-2.268,2.608,2.608,0,0,1,.42.042v.966a1.736,1.736,0,0,0-.484-.042c-1.385,0-2.372,1.2-2.645,2.814a4.712,4.712,0,0,0-.084.965v5.564h-1.008Z" transform="translate(-102.872 -2344.08)"/><path class="cls-2" d="M1045.608,2399.947c0,3.212,1.743,4.493,3.842,4.493a5.851,5.851,0,0,0,2.793-.567l.252.777a6.644,6.644,0,0,1-3.17.651c-2.9,0-4.7-2.1-4.7-5.06,0-3.359,1.932-5.459,4.535-5.459,3.3,0,3.926,3.108,3.926,4.556a2.589,2.589,0,0,1-.042.609Zm6.425-.8c.021-1.407-.567-3.527-3-3.527-2.224,0-3.191,1.974-3.38,3.527Z" transform="translate(-102.872 -2344.08)"/><path class="cls-2" d="M1056.171,2397.428c0-.924-.021-1.617-.084-2.415h.945l.063,1.827h.043a3.8,3.8,0,0,1,3.464-2.058c.965,0,3.527.483,3.527,4.262v6.047h-1.008v-5.963c0-1.826-.714-3.485-2.792-3.485a3.237,3.237,0,0,0-3.023,2.309,3.848,3.848,0,0,0-.127.9v6.236h-1.008Z" transform="translate(-102.872 -2344.08)"/><path class="cls-2" d="M1069.339,2392.787v2.226h2.876v.819h-2.876v6.551c0,1.28.4,2.078,1.469,2.078a3.752,3.752,0,0,0,1.155-.147l.126.756a3.51,3.51,0,0,1-1.406.252,2.093,2.093,0,0,1-1.723-.714,3.685,3.685,0,0,1-.629-2.415v-6.361h-1.7v-.819h1.7v-1.848Z" transform="translate(-102.872 -2344.08)"/><path class="cls-2" d="M1080.069,2398.226c0-1.26-.021-2.247-.084-3.213h.966l.064,1.911h.041a4.023,4.023,0,0,1,3.716-2.142c2.6,0,4.346,2.142,4.346,5.1,0,3.591-2.14,5.438-4.576,5.438a3.81,3.81,0,0,1-3.423-1.869h-.042v5.8h-1.008Zm1.008,2.9a3.3,3.3,0,0,0,3.4,3.359c2.309,0,3.631-1.869,3.631-4.556,0-2.268-1.259-4.3-3.547-4.3a3.5,3.5,0,0,0-3.339,2.666,4.117,4.117,0,0,0-.147.861Z" transform="translate(-102.872 -2344.08)"/><path class="cls-2" d="M1092.186,2398.036c0-1.008-.021-2.036-.084-3.023h.923l.042,2.037h.063a3.132,3.132,0,0,1,2.855-2.268,2.562,2.562,0,0,1,.42.042v.966a1.714,1.714,0,0,0-.482-.042c-1.386,0-2.373,1.2-2.646,2.814a4.712,4.712,0,0,0-.084.965v5.564h-1.007Z" transform="translate(-102.872 -2344.08)"/><path class="cls-2" d="M1107.3,2399.947c0,3.758-2.582,5.375-4.828,5.375-2.6,0-4.62-2.037-4.62-5.186,0-3.444,2.268-5.354,4.766-5.354C1105.415,2394.782,1107.3,2396.882,1107.3,2399.947Zm-8.44.126c0,2.52,1.616,4.409,3.674,4.409,2.1,0,3.758-1.889,3.758-4.472,0-1.848-1.028-4.388-3.695-4.388C1100.019,2395.622,1098.864,2397.91,1098.864,2400.073Z" transform="translate(-102.872 -2344.08)"/><path class="cls-2" d="M1110.372,2390.184h1.008v6.718h.042a3.893,3.893,0,0,1,3.675-2.12c2.56,0,4.324,2.142,4.324,5.165,0,3.59-2.288,5.375-4.492,5.375a3.858,3.858,0,0,1-3.612-2.057h-.043l-.084,1.826h-.9c.063-.714.084-1.6.084-2.352Zm1.008,11.023a3.031,3.031,0,0,0,.084.734,3.409,3.409,0,0,0,3.317,2.541c2.31,0,3.632-1.889,3.632-4.514,0-2.31-1.26-4.346-3.548-4.346a3.556,3.556,0,0,0-3.359,2.688,3.368,3.368,0,0,0-.126.881Z" transform="translate(-102.872 -2344.08)"/><path class="cls-2" d="M1122.511,2390.184h1.008v14.907h-1.008Z" transform="translate(-102.872 -2344.08)"/><path class="cls-2" d="M1127.634,2399.947c0,3.212,1.742,4.493,3.842,4.493a5.857,5.857,0,0,0,2.793-.567l.252.777a6.648,6.648,0,0,1-3.17.651c-2.9,0-4.7-2.1-4.7-5.06,0-3.359,1.932-5.459,4.536-5.459,3.3,0,3.925,3.108,3.925,4.556a2.589,2.589,0,0,1-.042.609Zm6.425-.8c.02-1.407-.568-3.527-3-3.527-2.225,0-3.192,1.974-3.38,3.527Z" transform="translate(-102.872 -2344.08)"/><path class="cls-2" d="M1138.2,2397.428c0-.924-.02-1.617-.084-2.415h.946l.062,1.785h.043a3.536,3.536,0,0,1,3.275-2.016,3.075,3.075,0,0,1,2.9,2.2h.043a3.754,3.754,0,0,1,1.028-1.364,3.391,3.391,0,0,1,2.394-.84c.986,0,3.3.546,3.3,4.367v5.942h-1.008v-5.837c0-2.268-.883-3.611-2.625-3.611a2.922,2.922,0,0,0-2.646,1.995,3.59,3.59,0,0,0-.168.986v6.467h-1.007v-6.3c0-1.826-.861-3.149-2.5-3.149a3.117,3.117,0,0,0-2.792,2.267,3.457,3.457,0,0,0-.148.966v6.215H1138.2Z" transform="translate(-102.872 -2344.08)"/><path class="cls-2" d="M1155.5,2403.769a4.462,4.462,0,0,0,2.268.692c1.6,0,2.351-.86,2.351-1.91,0-1.113-.672-1.7-2.121-2.289-1.658-.63-2.561-1.533-2.561-2.75a2.831,2.831,0,0,1,3.107-2.73,3.945,3.945,0,0,1,2.226.63l-.378.818a3.4,3.4,0,0,0-2.016-.608,1.76,1.76,0,0,0-1.952,1.742c0,1.05.713,1.512,2.078,2.079,1.638.63,2.6,1.449,2.6,2.982,0,1.721-1.343,2.876-3.4,2.876a4.942,4.942,0,0,1-2.561-.693Z" transform="translate(-102.872 -2344.08)"/><path class="cls-2" d="M1169.549,2399.947c0,3.212,1.743,4.493,3.843,4.493a5.862,5.862,0,0,0,2.792-.567l.252.777a6.653,6.653,0,0,1-3.171.651c-2.9,0-4.7-2.1-4.7-5.06,0-3.359,1.931-5.459,4.535-5.459,3.3,0,3.926,3.108,3.926,4.556a2.589,2.589,0,0,1-.042.609Zm6.425-.8c.021-1.407-.567-3.527-3-3.527-2.227,0-3.192,1.974-3.381,3.527Z" transform="translate(-102.872 -2344.08)"/><path class="cls-2" d="M1180.112,2397.428c0-.924-.021-1.617-.084-2.415h.945l.063,1.827h.041a3.807,3.807,0,0,1,3.465-2.058c.966,0,3.527.483,3.527,4.262v6.047h-1.007v-5.963c0-1.826-.714-3.485-2.793-3.485a3.24,3.24,0,0,0-3.024,2.309,3.96,3.96,0,0,0-.125.9v6.236h-1.008Z" transform="translate(-102.872 -2344.08)"/><path class="cls-2" d="M1198.842,2404.65a6.873,6.873,0,0,1-2.96.651c-2.9,0-4.83-2.12-4.83-5.144a5.068,5.068,0,0,1,5.186-5.375,5.154,5.154,0,0,1,2.646.63l-.358.818a4.736,4.736,0,0,0-2.372-.587c-2.708,0-4.094,2.079-4.094,4.43,0,2.646,1.659,4.367,3.99,4.367a5.612,5.612,0,0,0,2.519-.587Z" transform="translate(-102.872 -2344.08)"/><path class="cls-2" d="M1210.392,2399.947c0,3.758-2.583,5.375-4.83,5.375-2.6,0-4.62-2.037-4.62-5.186,0-3.444,2.268-5.354,4.767-5.354C1208.5,2394.782,1210.392,2396.882,1210.392,2399.947Zm-8.442.126c0,2.52,1.617,4.409,3.675,4.409,2.1,0,3.759-1.889,3.759-4.472,0-1.848-1.03-4.388-3.7-4.388C1203.105,2395.622,1201.95,2397.91,1201.95,2400.073Z" transform="translate(-102.872 -2344.08)"/><path class="cls-2" d="M1221.249,2402.635c0,.882.021,1.679.084,2.456h-.945l-.063-1.806h-.043a3.872,3.872,0,0,1-3.443,2.037c-1.28,0-3.443-.651-3.443-4.451v-5.858h1.007v5.669c0,2.183.672,3.758,2.667,3.758a3.334,3.334,0,0,0,2.982-2.037,3.622,3.622,0,0,0,.189-1.112v-6.278h1.008Z" transform="translate(-102.872 -2344.08)"/><path class="cls-2" d="M1225.155,2397.428c0-.924-.02-1.617-.084-2.415h.946l.062,1.827h.043a3.8,3.8,0,0,1,3.464-2.058c.966,0,3.527.483,3.527,4.262v6.047h-1.008v-5.963c0-1.826-.713-3.485-2.792-3.485a3.237,3.237,0,0,0-3.023,2.309,3.9,3.9,0,0,0-.127.9v6.236h-1.008Z" transform="translate(-102.872 -2344.08)"/><path class="cls-2" d="M1238.323,2392.787v2.226h2.876v.819h-2.876v6.551c0,1.28.4,2.078,1.469,2.078a3.752,3.752,0,0,0,1.155-.147l.126.756a3.51,3.51,0,0,1-1.406.252,2.094,2.094,0,0,1-1.723-.714,3.685,3.685,0,0,1-.629-2.415v-6.361h-1.7v-.819h1.7v-1.848Z" transform="translate(-102.872 -2344.08)"/><path class="cls-2" d="M1243.972,2399.947c0,3.212,1.742,4.493,3.841,4.493a5.851,5.851,0,0,0,2.793-.567l.252.777a6.644,6.644,0,0,1-3.17.651c-2.9,0-4.7-2.1-4.7-5.06,0-3.359,1.932-5.459,4.536-5.459,3.3,0,3.925,3.108,3.925,4.556a2.589,2.589,0,0,1-.042.609Zm6.424-.8c.021-1.407-.567-3.527-3-3.527-2.225,0-3.192,1.974-3.38,3.527Z" transform="translate(-102.872 -2344.08)"/><path class="cls-2" d="M1254.514,2398.036c0-1.008-.021-2.036-.084-3.023h.924l.042,2.037h.062a3.132,3.132,0,0,1,2.855-2.268,2.562,2.562,0,0,1,.42.042v.966a1.714,1.714,0,0,0-.482-.042c-1.386,0-2.373,1.2-2.646,2.814a4.712,4.712,0,0,0-.084.965v5.564h-1.007Z" transform="translate(-102.872 -2344.08)"/><path class="cls-2" d="M1261.171,2399.947c0,3.212,1.742,4.493,3.842,4.493a5.857,5.857,0,0,0,2.793-.567l.252.777a6.648,6.648,0,0,1-3.17.651c-2.9,0-4.7-2.1-4.7-5.06,0-3.359,1.931-5.459,4.535-5.459,3.3,0,3.926,3.108,3.926,4.556a2.589,2.589,0,0,1-.042.609Zm6.425-.8c.02-1.407-.568-3.527-3-3.527-2.225,0-3.192,1.974-3.38,3.527Z" transform="translate(-102.872 -2344.08)"/><path class="cls-2" d="M1279.774,2390.184v12.555c0,.756.022,1.638.084,2.352h-.9l-.084-1.91h-.043a3.818,3.818,0,0,1-3.59,2.141c-2.5,0-4.345-2.079-4.345-5.081-.022-3.359,2.056-5.459,4.535-5.459a3.56,3.56,0,0,1,3.3,1.784h.042v-6.382Zm-1.007,8.818a3.475,3.475,0,0,0-.106-.924,3.227,3.227,0,0,0-3.17-2.456c-2.2,0-3.59,1.91-3.59,4.514,0,2.267,1.133,4.346,3.528,4.346a3.342,3.342,0,0,0,3.232-2.625,2.7,2.7,0,0,0,.106-.839Z" transform="translate(-102.872 -2344.08)"/><path class="cls-2" d="M1288.785,2390.184h1.008v6.718h.042a3.891,3.891,0,0,1,3.674-2.12c2.562,0,4.326,2.142,4.326,5.165,0,3.59-2.289,5.375-4.494,5.375a3.862,3.862,0,0,1-3.612-2.057h-.041l-.084,1.826h-.9c.064-.714.084-1.6.084-2.352Zm1.008,11.023a2.982,2.982,0,0,0,.084.734,3.409,3.409,0,0,0,3.317,2.541c2.31,0,3.633-1.889,3.633-4.514,0-2.31-1.26-4.346-3.549-4.346a3.555,3.555,0,0,0-3.359,2.688,3.411,3.411,0,0,0-.126.881Z" transform="translate(-102.872 -2344.08)"/><path class="cls-2" d="M1300.419,2395.013l2.645,6.592c.273.714.546,1.534.736,2.164h.041c.211-.61.463-1.408.777-2.226l2.457-6.53h1.071l-3.024,7.516c-1.218,3.129-2.078,5-3.4,6.153a5.763,5.763,0,0,1-1.764,1.049l-.315-.839a5.279,5.279,0,0,0,1.763-1.114,8,8,0,0,0,1.68-2.54,1.313,1.313,0,0,0,.127-.441,1.456,1.456,0,0,0-.127-.441l-3.736-9.343Z" transform="translate(-102.872 -2344.08)"/><path class="cls-2" d="M1315.706,2390.939h6.992v.84h-5.984v5.627h5.5v.84h-5.5v6.845h-1.008Z" transform="translate(-102.872 -2344.08)"/><path class="cls-2" d="M1333.827,2399.947c0,3.758-2.582,5.375-4.828,5.375-2.6,0-4.619-2.037-4.619-5.186,0-3.444,2.267-5.354,4.766-5.354C1331.938,2394.782,1333.827,2396.882,1333.827,2399.947Zm-8.439.126c0,2.52,1.616,4.409,3.674,4.409,2.1,0,3.757-1.889,3.757-4.472,0-1.848-1.028-4.388-3.695-4.388C1326.542,2395.622,1325.388,2397.91,1325.388,2400.073Z" transform="translate(-102.872 -2344.08)"/><path class="cls-2" d="M1344.958,2390.184v12.555c0,.756.021,1.638.084,2.352h-.9l-.084-1.91h-.043a3.819,3.819,0,0,1-3.59,2.141c-2.5,0-4.346-2.079-4.346-5.081-.021-3.359,2.057-5.459,4.535-5.459a3.559,3.559,0,0,1,3.3,1.784h.042v-6.382ZM1343.95,2399a3.474,3.474,0,0,0-.105-.924,3.227,3.227,0,0,0-3.17-2.456c-2.2,0-3.59,1.91-3.59,4.514,0,2.267,1.133,4.346,3.527,4.346a3.343,3.343,0,0,0,3.233-2.625,2.7,2.7,0,0,0,.105-.839Z" transform="translate(-102.872 -2344.08)"/><path class="cls-2" d="M1356.634,2402.635c0,.882.02,1.679.084,2.456h-.946l-.062-1.806h-.043a3.872,3.872,0,0,1-3.443,2.037c-1.281,0-3.444-.651-3.444-4.451v-5.858h1.008v5.669c0,2.183.672,3.758,2.667,3.758a3.334,3.334,0,0,0,2.982-2.037,3.622,3.622,0,0,0,.189-1.112v-6.278h1.008Z" transform="translate(-102.872 -2344.08)"/><path class="cls-2" d="M1373.622,2405.091l-2.142-3.486c-.881-1.322-1.385-2.12-1.868-2.939h-.043c-.461.819-.9,1.6-1.784,2.961l-2.036,3.464h-1.155l4.493-7.159-4.305-6.993h1.135l2.288,3.78c.588.945,1.028,1.679,1.448,2.435h.043c.441-.818.881-1.469,1.491-2.435l2.373-3.78h1.175l-4.514,6.887,4.555,7.265Z" transform="translate(-102.872 -2344.08)"/><path class="cls-2" d="M1385.319,2402.635c0,.882.022,1.679.084,2.456h-.944l-.063-1.806h-.042a3.872,3.872,0,0,1-3.443,2.037c-1.281,0-3.443-.651-3.443-4.451v-5.858h1.008v5.669c0,2.183.671,3.758,2.666,3.758a3.332,3.332,0,0,0,2.981-2.037,3.622,3.622,0,0,0,.189-1.112v-6.278h1.007Z" transform="translate(-102.872 -2344.08)"/><path class="cls-2" d="M1395.505,2402.7a15.236,15.236,0,0,0,.146,2.394h-.923l-.147-1.448h-.042a3.852,3.852,0,0,1-3.233,1.679,2.738,2.738,0,0,1-2.961-2.771c0-2.331,2.037-3.738,6.152-3.7v-.273c0-.986-.189-2.981-2.582-2.96a4.4,4.4,0,0,0-2.541.756l-.314-.735a5.564,5.564,0,0,1,2.96-.861c2.918,0,3.485,2.184,3.485,3.968Zm-1.008-3c-2.205-.063-5.1.273-5.1,2.688a1.926,1.926,0,0,0,2.015,2.1,3.014,3.014,0,0,0,2.981-2.015,1.7,1.7,0,0,0,.105-.61Z" transform="translate(-102.872 -2344.08)"/><path class="cls-2" d="M1399.286,2397.428c0-.924-.021-1.617-.084-2.415h.944l.064,1.827h.041a3.807,3.807,0,0,1,3.465-2.058c.966,0,3.527.483,3.527,4.262v6.047h-1.008v-5.963c0-1.826-.714-3.485-2.793-3.485a3.239,3.239,0,0,0-3.023,2.309,3.9,3.9,0,0,0-.125.9v6.236h-1.008Z" transform="translate(-102.872 -2344.08)"/><path class="cls-2" d="M1410.5,2404.377a.872.872,0,0,1,.86-.944.858.858,0,0,1,.84.944.889.889,0,0,1-.881.945A.866.866,0,0,1,1410.5,2404.377Z" transform="translate(-102.872 -2344.08)"/><path class="cls-3" d="M171.8,2433.84h-.046l-2.736,1.38-.483-2.139,3.656-1.793h2.345v14.946H171.8Z" transform="translate(-102.872 -2344.08)"/><path class="cls-3" d="M167.365,2485.234v-1.724l1.77-1.633c3.519-3.266,5.174-5.059,5.2-7.036a2.352,2.352,0,0,0-2.667-2.507,5.38,5.38,0,0,0-3.2,1.242l-.828-2a7.4,7.4,0,0,1,4.6-1.54c3.311,0,4.921,2.092,4.921,4.529,0,2.623-1.886,4.738-4.507,7.152l-1.288,1.127v.046h6.116v2.345Z" transform="translate(-102.872 -2344.08)"/><rect class="cls-4" x="1744.128" y="16.92" width="9" height="66"/></svg>