<svg id="图层_3" data-name="图层 3" xmlns="http://www.w3.org/2000/svg" xmlns:xlink="http://www.w3.org/1999/xlink" viewBox="0 0 1697.697 696.345"><defs><style>.cls-1,.cls-120,.cls-125,.cls-2{fill:none;}.cls-1,.cls-132{stroke:#fff;}.cls-1,.cls-100,.cls-101,.cls-102,.cls-103,.cls-104,.cls-105,.cls-106,.cls-107,.cls-108,.cls-109,.cls-115,.cls-120,.cls-125,.cls-129,.cls-132,.cls-134,.cls-145,.cls-15,.cls-153,.cls-154,.cls-16,.cls-17,.cls-2,.cls-24,.cls-32,.cls-39,.cls-4,.cls-5,.cls-57,.cls-58,.cls-59,.cls-60,.cls-61,.cls-66,.cls-67,.cls-68,.cls-69,.cls-79,.cls-80,.cls-81,.cls-82,.cls-83,.cls-84,.cls-86,.cls-87,.cls-88,.cls-89,.cls-91,.cls-93,.cls-96{stroke-miterlimit:10;}.cls-1,.cls-100,.cls-101,.cls-102,.cls-103,.cls-104,.cls-105,.cls-106,.cls-107,.cls-108,.cls-109,.cls-115,.cls-134,.cls-145,.cls-15,.cls-154,.cls-16,.cls-17,.cls-24,.cls-32,.cls-39,.cls-4,.cls-5,.cls-57,.cls-58,.cls-59,.cls-60,.cls-61,.cls-66,.cls-67,.cls-68,.cls-69,.cls-79,.cls-80,.cls-81,.cls-82,.cls-83,.cls-84,.cls-86,.cls-87,.cls-88,.cls-89,.cls-91,.cls-93,.cls-96{stroke-width:0.25px;}.cls-2{stroke-width:3px;stroke:url(#未命名的渐变_48);}.cls-115,.cls-122,.cls-127,.cls-3,.cls-39,.cls-56,.cls-72,.cls-91,.cls-93,.cls-96,.cls-99{font-size:21px;}.cls-100,.cls-101,.cls-102,.cls-103,.cls-104,.cls-105,.cls-106,.cls-107,.cls-108,.cls-109,.cls-115,.cls-3,.cls-39,.cls-56,.cls-72,.cls-91,.cls-93,.cls-96{font-family:MyriadPro-Light, Myriad Pro;font-weight:300;}.cls-108,.cls-3,.cls-75{letter-spacing:0.04em;}.cls-100,.cls-101,.cls-102,.cls-103,.cls-104,.cls-105,.cls-106,.cls-107,.cls-108,.cls-109,.cls-115,.cls-15,.cls-16,.cls-17,.cls-24,.cls-32,.cls-39,.cls-4,.cls-5,.cls-57,.cls-58,.cls-59,.cls-60,.cls-61,.cls-66,.cls-67,.cls-68,.cls-69,.cls-79,.cls-80,.cls-81,.cls-82,.cls-83,.cls-84,.cls-86,.cls-87,.cls-88,.cls-89,.cls-91,.cls-93,.cls-96{stroke:#000;}.cls-12,.cls-13,.cls-14,.cls-5,.cls-78,.cls-91{letter-spacing:0.025em;}.cls-10,.cls-11,.cls-114,.cls-12,.cls-129,.cls-132,.cls-134,.cls-145,.cls-153,.cls-154,.cls-18,.cls-19,.cls-20,.cls-21,.cls-22,.cls-23,.cls-6,.cls-62,.cls-63,.cls-64,.cls-65,.cls-7,.cls-8,.cls-85,.cls-9,.cls-99{fill:#ff7b54;}.cls-10,.cls-11,.cls-12,.cls-13,.cls-18,.cls-19,.cls-20,.cls-21,.cls-22,.cls-23,.cls-6,.cls-62,.cls-63,.cls-64,.cls-65,.cls-7,.cls-8,.cls-85,.cls-9,.cls-99{font-family:MyriadPro-Bold, Myriad Pro;font-weight:700;}.cls-100,.cls-17,.cls-45,.cls-6{letter-spacing:0.025em;}.cls-7{letter-spacing:0.03em;}.cls-25,.cls-32,.cls-8{letter-spacing:0.028em;}.cls-128,.cls-67,.cls-9{letter-spacing:0.016em;}.cls-10,.cls-119,.cls-60{letter-spacing:0.01em;}.cls-11{letter-spacing:0.046em;}.cls-15,.cls-62,.cls-94{letter-spacing:0.02em;}.cls-16,.cls-52{letter-spacing:0.019em;}.cls-19{letter-spacing:0.014em;}.cls-20,.cls-47{letter-spacing:0.017em;}.cls-21{letter-spacing:0.02em;}.cls-104,.cls-22,.cls-41,.cls-69{letter-spacing:0.025em;}.cls-23{letter-spacing:0.041em;}.cls-24,.cls-32{font-size:24px;}.cls-122,.cls-127,.cls-24,.cls-32{font-family:MyriadPro-Semibold, Myriad Pro;font-weight:600;}.cls-26{letter-spacing:0.025em;}.cls-27{letter-spacing:0.032em;}.cls-28{letter-spacing:0.025em;}.cls-29{letter-spacing:0.017em;}.cls-30{letter-spacing:0.012em;}.cls-31{letter-spacing:0.048em;}.cls-33{letter-spacing:0.013em;}.cls-34{letter-spacing:0.016em;}.cls-35{letter-spacing:0.019em;}.cls-36{letter-spacing:0.04em;}.cls-37{letter-spacing:0.009em;}.cls-38{letter-spacing:0.016em;}.cls-39,.cls-74,.cls-83,.cls-99{letter-spacing:-0.001em;}.cls-40,.cls-79{letter-spacing:0.032em;}.cls-42{letter-spacing:0.055em;}.cls-103,.cls-43,.cls-80{letter-spacing:0.019em;}.cls-105,.cls-44{letter-spacing:0.018em;}.cls-46{letter-spacing:0.033em;}.cls-101,.cls-48{letter-spacing:0.014em;}.cls-49,.cls-56,.cls-96{letter-spacing:0.021em;}.cls-50,.cls-58{letter-spacing:0.014em;}.cls-51,.cls-57{letter-spacing:0.029em;}.cls-53,.cls-59{letter-spacing:0.018em;}.cls-54{letter-spacing:0.033em;}.cls-55{letter-spacing:0.036em;}.cls-61,.cls-90{letter-spacing:0.036em;}.cls-63{letter-spacing:0.017em;}.cls-64{letter-spacing:-0.014em;}.cls-138,.cls-65{letter-spacing:0.013em;}.cls-66{letter-spacing:-0.01em;}.cls-68,.cls-77{letter-spacing:0.015em;}.cls-70{letter-spacing:0.029em;}.cls-102,.cls-71,.cls-88{letter-spacing:0.019em;}.cls-72,.cls-81{letter-spacing:-0.005em;}.cls-73,.cls-82{letter-spacing:-0.01em;}.cls-106,.cls-76{letter-spacing:0.032em;}.cls-134,.cls-145,.cls-154,.cls-78{font-family:MyriadPro-Regular, Myriad Pro;}.cls-78{font-weight:400;}.cls-84{letter-spacing:0.047em;}.cls-85{letter-spacing:0.016em;}.cls-110,.cls-86{letter-spacing:-0.005em;}.cls-111,.cls-87{letter-spacing:-0.01em;}.cls-89{letter-spacing:-0.009em;}.cls-92{letter-spacing:0.015em;}.cls-93{letter-spacing:-0.009em;}.cls-95{letter-spacing:0.033em;}.cls-97{letter-spacing:0.034em;}.cls-98{letter-spacing:0.02em;}.cls-100,.cls-101,.cls-102,.cls-103,.cls-104,.cls-105,.cls-106,.cls-107,.cls-108,.cls-109{fill:#000;}.cls-107{letter-spacing:0.055em;}.cls-109{letter-spacing:0.017em;}.cls-112{letter-spacing:-0.001em;}.cls-113{letter-spacing:0.011em;}.cls-115{letter-spacing:0.021em;}.cls-116{letter-spacing:0.029em;}.cls-117{letter-spacing:0.036em;}.cls-118{letter-spacing:0.045em;}.cls-120,.cls-125{stroke-width:2px;}.cls-120{stroke:url(#未命名的渐变_15);}.cls-121{fill:url(#未命名的渐变_15-2);}.cls-122,.cls-127{fill:#ffb26b;}.cls-122{letter-spacing:0.003em;}.cls-123{letter-spacing:0.025em;}.cls-124{letter-spacing:0.016em;}.cls-125{stroke:url(#未命名的渐变_15-3);}.cls-126{fill:url(#未命名的渐变_15-4);}.cls-127{letter-spacing:0.003em;}.cls-129,.cls-134,.cls-145,.cls-153,.cls-154{stroke:#ff7b54;}.cls-130{fill:url(#未命名的渐变_37);}.cls-131{fill:url(#未命名的渐变_37-2);}.cls-132,.cls-153{stroke-width:0.5px;}.cls-133{fill:#fff;}.cls-134,.cls-145,.cls-154{font-size:15px;}.cls-134,.cls-146{letter-spacing:0.025em;}.cls-135{letter-spacing:-0.006em;}.cls-136{letter-spacing:0.017em;}.cls-137{letter-spacing:0.025em;}.cls-139{letter-spacing:0.022em;}.cls-140{letter-spacing:0.015em;}.cls-141{letter-spacing:0.025em;}.cls-142,.cls-154{letter-spacing:0.014em;}.cls-143{letter-spacing:0.021em;}.cls-144{letter-spacing:0.019em;}.cls-147{letter-spacing:0.029em;}.cls-148{letter-spacing:-0.001em;}.cls-149{letter-spacing:-0.011em;}.cls-150{letter-spacing:-0.008em;}.cls-151{letter-spacing:0.017em;}.cls-152{fill:url(#未命名的渐变_37-3);}.cls-155{letter-spacing:0.029em;}.cls-156{letter-spacing:0.035em;}</style><linearGradient id="未命名的渐变_48" x1="1160.125" y1="398.543" x2="1423.125" y2="398.543" gradientUnits="userSpaceOnUse"><stop offset="0.536" stop-color="#ffb26b" stop-opacity="0"/><stop offset="1" stop-color="#ff7b54"/></linearGradient><linearGradient id="未命名的渐变_15" x1="787.125" y1="202.543" x2="1047.125" y2="202.543" gradientUnits="userSpaceOnUse"><stop offset="0" stop-color="#ff7b54" stop-opacity="0"/><stop offset="1" stop-color="#ff7b54"/></linearGradient><linearGradient id="未命名的渐变_15-2" y1="83.042" y2="83.042" xlink:href="#未命名的渐变_15"/><linearGradient id="未命名的渐变_15-3" x1="372.125" y1="594.824" y2="594.824" xlink:href="#未命名的渐变_15"/><linearGradient id="未命名的渐变_15-4" x1="372.125" y1="500.573" y2="500.573" xlink:href="#未命名的渐变_15"/><linearGradient id="未命名的渐变_37" x1="1113.125" y1="203.543" x2="1220.125" y2="203.543" gradientUnits="userSpaceOnUse"><stop offset="0" stop-color="#ffb26b" stop-opacity="0"/><stop offset="1" stop-color="#ff7b54"/></linearGradient><linearGradient id="未命名的渐变_37-2" x1="1113.125" y1="594.543" x2="1220.125" y2="594.543" xlink:href="#未命名的渐变_37"/><linearGradient id="未命名的渐变_37-3" x1="1450.125" y1="397.543" x2="1557.125" y2="397.543" xlink:href="#未命名的渐变_37"/></defs><rect class="cls-1" x="0.125" y="4.043" width="5" height="685"/><ellipse class="cls-2" cx="1291.625" cy="398.543" rx="130" ry="196"/><text class="cls-3" transform="translate(4.762 63.819)"><tspan class="cls-4">I</tspan><tspan class="cls-5" x="5.271" y="0">n China, </tspan><tspan class="cls-6" x="82.508" y="0">disabili</tspan><tspan class="cls-7" x="155.02" y="0">t</tspan><tspan class="cls-6" x="163.356" y="0">y / individuals living in </tspan><tspan class="cls-8" x="391.161" y="0">p</tspan><tspan class="cls-9" x="404.306" y="0">o</tspan><tspan class="cls-10" x="416.759" y="0">v</tspan><tspan class="cls-6" x="428.099" y="0">e</tspan><tspan class="cls-11" x="439.712" y="0">r</tspan><tspan class="cls-7" x="448.658" y="0">t</tspan><tspan class="cls-12" x="456.995" y="0">y = 45.7%</tspan><tspan class="cls-13" x="552.606" y="0">.</tspan><tspan class="cls-14"><tspan class="cls-4" x="0" y="25.2">Empl</tspan><tspan class="cls-15" x="45.128" y="25.2">o</tspan><tspan class="cls-4" x="56.72" y="25.2">yment ra</tspan><tspan class="cls-16" x="135.616" y="25.2">t</tspan><tspan class="cls-17" x="142.503" y="25.2">e of persons with disabilities </tspan><tspan class="cls-18" x="398.888" y="25.2">= 56% = only 60% of the </tspan><tspan class="cls-19" x="641.351" y="25.2">r</tspan><tspan class="cls-20" x="649.625" y="25.2">a</tspan><tspan class="cls-21" x="661.069" y="25.2">t</tspan><tspan class="cls-22" x="669.197" y="25.2">e of non</tspan><tspan class="cls-23" x="748.976" y="25.2">-</tspan><tspan class="cls-6" x="756.598" y="25.2">disabled </tspan><tspan class="cls-8" x="845.973" y="25.2">p</tspan><tspan class="cls-6" x="859.118" y="25.2">ersons</tspan><tspan class="cls-17" x="923.986" y="25.2">.</tspan></tspan></text><text class="cls-24" transform="translate(4.762 20.213)"><tspan class="cls-25">D</tspan><tspan class="cls-26" x="17.064" y="0">isabili</tspan><tspan class="cls-27" x="82.103" y="0">t</tspan><tspan class="cls-28" x="91.294" y="0">y with </tspan><tspan x="163.701" y="0">P</tspan><tspan class="cls-29" x="177.117" y="0">o</tspan><tspan class="cls-30" x="191.061" y="0">v</tspan><tspan class="cls-28" x="203.542" y="0">e</tspan><tspan class="cls-31" x="216.525" y="0">r</tspan><tspan class="cls-27" x="226.221" y="0">t</tspan><tspan class="cls-26" x="235.413" y="0">y</tspan></text><text class="cls-32" transform="translate(4.762 411.213)">D<tspan class="cls-26" x="17.064" y="0">ifficulties in </tspan><tspan class="cls-33" x="149.037" y="0">P</tspan><tspan class="cls-34" x="162.765" y="0">r</tspan><tspan class="cls-28" x="171.693" y="0">o</tspan><tspan class="cls-35" x="185.829" y="0">t</tspan><tspan class="cls-28" x="194.709" y="0">e</tspan><tspan class="cls-36" x="207.693" y="0">c</tspan><tspan class="cls-28" x="219.429" y="0">ting </tspan><tspan class="cls-37" x="269.444" y="0">C</tspan><tspan class="cls-26" x="283.772" y="0">utu</tspan><tspan class="cls-38" x="321.307" y="0">r</tspan><tspan class="cls-26" x="330.235" y="0">al Heritage</tspan></text><text class="cls-39" transform="translate(4.762 134.709)">P<tspan class="cls-14" x="10.521" y="0">eople living with disabilities face disc</tspan><tspan class="cls-40" x="339.292" y="0">r</tspan><tspan class="cls-41" x="346.158" y="0">imination when t</tspan><tspan class="cls-42" x="498.175" y="0">r</tspan><tspan class="cls-14" x="505.525" y="0">ying </tspan><tspan class="cls-43" x="549.057" y="0">t</tspan><tspan class="cls-14" x="555.945" y="0">o access </tspan><tspan class="cls-44" x="635.155" y="0">w</tspan><tspan class="cls-45" x="650.695" y="0">o</tspan><tspan class="cls-46" x="662.393" y="0">r</tspan><tspan class="cls-45" x="669.28" y="0">k and also in</tspan><tspan class="cls-47" x="779.634" y="0">-</tspan><tspan class="cls-44" x="786.248" y="0">w</tspan><tspan class="cls-45" x="801.788" y="0">o</tspan><tspan class="cls-46" x="813.485" y="0">r</tspan><tspan class="cls-45" x="820.373" y="0">k bia</tspan><tspan class="cls-48" x="861.994" y="0">s</tspan><tspan class="cls-45" x="870.121" y="0">.</tspan><tspan class="cls-49"><tspan x="0" y="25.2">T</tspan><tspan class="cls-14" x="10.206" y="25.2">he main p</tspan><tspan class="cls-50" x="99.539" y="25.2">r</tspan><tspan class="cls-14" x="106.028" y="25.2">oblem th</tspan><tspan class="cls-51" x="187.17" y="25.2">e</tspan><tspan class="cls-14" x="197.964" y="25.2">y encoun</tspan><tspan class="cls-52" x="280.388" y="25.2">t</tspan><tspan class="cls-45" x="287.275" y="25.2">er at </tspan><tspan class="cls-53" x="332.025" y="25.2">w</tspan><tspan class="cls-45" x="347.565" y="25.2">o</tspan><tspan class="cls-54" x="359.263" y="25.2">r</tspan><tspan class="cls-14" x="366.15" y="25.2">k is s</tspan><tspan class="cls-43" x="407.435" y="25.2">t</tspan><tspan class="cls-14" x="414.323" y="25.2">e</tspan><tspan class="cls-50" x="425.033" y="25.2">r</tspan><tspan class="cls-45" x="431.522" y="25.2">eo</tspan><tspan class="cls-55" x="453.929" y="25.2">t</tspan><tspan class="cls-14" x="461.173" y="25.2">ypes and labelling: </tspan></tspan></text><text class="cls-56" transform="translate(4.992 300.909)"><tspan class="cls-4">T</tspan><tspan class="cls-5" x="10.206" y="0">hus th</tspan><tspan class="cls-57" x="65.939" y="0">e</tspan><tspan class="cls-17" x="76.732" y="0">y a</tspan><tspan class="cls-58" x="101.68" y="0">r</tspan><tspan class="cls-5" x="108.169" y="0">e negati</tspan><tspan class="cls-59" x="180.429" y="0">v</tspan><tspan class="cls-5" x="190.299" y="0">ely a</tspan><tspan class="cls-60" x="230.933" y="0">ff</tspan><tspan class="cls-17" x="242.525" y="0">e</tspan><tspan class="cls-61" x="253.235" y="0">c</tspan><tspan class="cls-16" x="263.356" y="0">t</tspan><tspan class="cls-17" x="270.244" y="0">ed </tspan><tspan class="cls-15" x="298.026" y="0">b</tspan><tspan class="cls-5" x="310.039" y="0">y </tspan><tspan class="cls-62" x="324.927" y="0">St</tspan><tspan class="cls-12" x="344.814" y="0">e</tspan><tspan class="cls-63" x="356.427" y="0">r</tspan><tspan class="cls-6" x="364.764" y="0">eo</tspan><tspan class="cls-7" x="389.019" y="0">t</tspan><tspan class="cls-6" x="397.355" y="0">y</tspan><tspan class="cls-8" x="408.864" y="0">p</tspan><tspan class="cls-12" x="422.009" y="0">e</tspan><tspan class="cls-64" x="433.622" y="0"> </tspan><tspan class="cls-65" x="437.57" y="0">T</tspan><tspan class="cls-22" x="449.352" y="0">h</tspan><tspan class="cls-63" x="462.182" y="0">r</tspan><tspan class="cls-6" x="470.519" y="0">e</tspan><tspan class="cls-63" x="482.132" y="0">a</tspan><tspan class="cls-6" x="493.577" y="0">t</tspan><tspan class="cls-5" x="501.809" y="0">:</tspan><tspan class="cls-66" x="505.988" y="0"> </tspan><tspan class="cls-67" x="510.377" y="0">W</tspan><tspan class="cls-5" x="527.933" y="0">ith falling confidenc</tspan><tspan class="cls-68" x="704.961" y="0">e</tspan><tspan class="cls-69" x="715.461" y="0">, people with </tspan><tspan class="cls-5"><tspan x="0" y="25.2">disabilities a</tspan><tspan class="cls-50" x="108.379" y="25.2">r</tspan><tspan x="114.868" y="25.2">e </tspan><tspan class="cls-51" x="130.702" y="25.2">e</tspan><tspan class="cls-53" x="141.495" y="25.2">v</tspan><tspan class="cls-45" x="151.365" y="25.2">en mo</tspan><tspan class="cls-50" x="208.4" y="25.2">r</tspan><tspan class="cls-45" x="214.89" y="25.2">e difficult </tspan><tspan class="cls-43" x="302.815" y="25.2">t</tspan><tspan x="309.703" y="25.2">o find a job whe</tspan><tspan class="cls-50" x="453.383" y="25.2">r</tspan><tspan x="459.872" y="25.2">e th</tspan><tspan class="cls-70" x="494.5" y="25.2">e</tspan><tspan x="505.294" y="25.2">y a</tspan><tspan class="cls-50" x="530.241" y="25.2">r</tspan><tspan class="cls-45" x="536.73" y="25.2">e truly </tspan><tspan class="cls-44" x="597.839" y="25.2">w</tspan><tspan class="cls-45" x="613.379" y="25.2">ell-</tspan><tspan class="cls-48" x="640.825" y="25.2">r</tspan><tspan class="cls-45" x="647.314" y="25.2">espe</tspan><tspan class="cls-55" x="689.208" y="25.2">c</tspan><tspan class="cls-71" x="699.33" y="25.2">t</tspan><tspan class="cls-45" x="706.218" y="25.2">e</tspan><tspan class="cls-48" x="716.928" y="25.2">d</tspan><tspan class="cls-41" x="728.646" y="25.2">.</tspan></tspan></text><text class="cls-72" transform="translate(4.992 454.377)"><tspan class="cls-4">F<tspan class="cls-14" x="9.597" y="0">ilaments Bamboo</tspan><tspan class="cls-73" x="164.679" y="0"> </tspan><tspan class="cls-74" x="169.068" y="0">W</tspan><tspan class="cls-14" x="186.268" y="0">e</tspan><tspan class="cls-43" x="196.977" y="0">a</tspan><tspan class="cls-14" x="206.91" y="0">ving is the first ba</tspan><tspan class="cls-52" x="363.798" y="0">t</tspan><tspan class="cls-14" x="370.686" y="0">ch of Chin</tspan><tspan class="cls-50" x="461.3" y="0">a</tspan><tspan class="cls-14" x="471.128" y="0">&apos;s National </tspan><tspan class="cls-75" x="568.419" y="0">I</tspan><tspan class="cls-45" x="573.69" y="0">ntan</tspan><tspan class="cls-47" x="614.325" y="0">g</tspan><tspan class="cls-45" x="626.105" y="0">ible </tspan><tspan class="cls-44" x="663.947" y="0">C</tspan><tspan class="cls-45" x="676.295" y="0">ultural He</tspan><tspan class="cls-76" x="762.981" y="0">r</tspan><tspan class="cls-45" x="769.848" y="0">itag</tspan><tspan class="cls-77" x="803.783" y="0">e</tspan><tspan class="cls-41" x="814.283" y="0">.</tspan></tspan><tspan class="cls-49"><tspan class="cls-4" x="0" y="25.2">T</tspan><tspan class="cls-5" x="10.206" y="25.2">he</tspan><tspan class="cls-58" x="32.697" y="25.2">r</tspan><tspan class="cls-5" x="39.186" y="25.2">e a</tspan><tspan class="cls-58" x="65.078" y="25.2">r</tspan><tspan class="cls-17" x="71.567" y="25.2">e</tspan><tspan class="cls-78" x="82.277" y="25.2"> </tspan><tspan class="cls-12" x="87.254" y="25.2">less than 50</tspan><tspan class="cls-78" x="203.845" y="25.2"> </tspan><tspan class="cls-5" x="208.821" y="25.2">inhe</tspan><tspan class="cls-79" x="248.007" y="25.2">r</tspan><tspan class="cls-5" x="254.874" y="25.2">i</tspan><tspan class="cls-80" x="259.788" y="25.2">t</tspan><tspan class="cls-5" x="266.676" y="25.2">ors of </tspan><tspan class="cls-81" x="321.422" y="25.2">F</tspan><tspan class="cls-5" x="331.019" y="25.2">ilaments Bamboo</tspan><tspan class="cls-82" x="486.101" y="25.2"> </tspan><tspan class="cls-83" x="490.49" y="25.2">W</tspan><tspan class="cls-17" x="507.689" y="25.2">e</tspan><tspan class="cls-16" x="518.399" y="25.2">a</tspan><tspan class="cls-17" x="528.332" y="25.2">ving s</tspan><tspan class="cls-84" x="580.474" y="25.2">k</tspan><tspan class="cls-5" x="590.344" y="25.2">ills in China, </tspan></tspan><tspan class="cls-14"><tspan class="cls-4" x="0" y="50.4">while their </tspan><tspan class="cls-80" x="99.454" y="50.4">a</tspan><tspan class="cls-59" x="109.387" y="50.4">v</tspan><tspan class="cls-4" x="119.257" y="50.4">erage age is </tspan><tspan class="cls-18" x="230.765" y="50.4">a</tspan><tspan class="cls-8" x="242.378" y="50.4">b</tspan><tspan class="cls-85" x="255.523" y="50.4">o</tspan><tspan class="cls-10" x="267.977" y="50.4">v</tspan><tspan class="cls-18" x="279.317" y="50.4">e 40</tspan><tspan class="cls-4" x="320.057" y="50.4">, which suggests a th</tspan><tspan class="cls-58" x="506.008" y="50.4">r</tspan><tspan class="cls-17" x="512.497" y="50.4">eat that </tspan><tspan class="cls-86" x="586.395" y="50.4">F</tspan><tspan class="cls-17" x="595.991" y="50.4">ilaments Bamboo</tspan><tspan class="cls-87" x="751.073" y="50.4"> </tspan><tspan class="cls-83" x="755.463" y="50.4">W</tspan><tspan class="cls-69" x="772.662" y="50.4">e</tspan><tspan class="cls-80" x="783.371" y="50.4">a</tspan><tspan class="cls-69" x="793.305" y="50.4">ving is fading </tspan><tspan class="cls-88" x="917.287" y="50.4">a</tspan><tspan class="cls-69" x="927.22" y="50.4">w</tspan><tspan class="cls-80" x="942.906" y="50.4">a</tspan><tspan class="cls-89" x="952.84" y="50.4">y</tspan><tspan class="cls-69" x="961.891" y="50.4">.</tspan></tspan><tspan class="cls-5"><tspan x="0" y="75.6">Bamboo</tspan><tspan class="cls-73" x="74.423" y="75.6"> </tspan><tspan class="cls-74" x="78.812" y="75.6">W</tspan><tspan x="96.011" y="75.6">e</tspan><tspan class="cls-43" x="106.721" y="75.6">a</tspan><tspan class="cls-45" x="116.654" y="75.6">ving is t</tspan><tspan class="cls-50" x="185.848" y="75.6">r</tspan><tspan class="cls-45" x="192.337" y="75.6">ea</tspan><tspan class="cls-43" x="213.105" y="75.6">t</tspan><tspan x="219.994" y="75.6">ed with s</tspan><tspan class="cls-52" x="300.653" y="75.6">t</tspan><tspan class="cls-45" x="307.541" y="75.6">e</tspan><tspan class="cls-50" x="318.25" y="75.6">r</tspan><tspan x="324.74" y="75.6">eo</tspan><tspan class="cls-90" x="347.146" y="75.6">t</tspan><tspan x="354.391" y="75.6">ypes:</tspan></tspan></text><text class="cls-91" transform="translate(94.762 572.296)">Bamboo <tspan class="cls-53" x="79.547" y="0">w</tspan><tspan x="95.087" y="0">e</tspan><tspan class="cls-43" x="105.796" y="0">a</tspan><tspan x="115.729" y="0">ving is rustic and unfashionabl</tspan><tspan class="cls-92" x="385.744" y="0">e</tspan><tspan class="cls-45" x="396.243" y="0">.</tspan></text><text class="cls-93" transform="translate(94.762 624.17)">F<tspan class="cls-70" x="9.513" y="0">e</tspan><tspan class="cls-14" x="20.307" y="0">w people understand or enj</tspan><tspan class="cls-94" x="266.737" y="0">o</tspan><tspan class="cls-14" x="278.329" y="0">y bamboo </tspan><tspan class="cls-44" x="373.751" y="0">w</tspan><tspan class="cls-45" x="389.291" y="0">e</tspan><tspan class="cls-43" x="400.001" y="0">a</tspan><tspan class="cls-14" x="409.934" y="0">ving </tspan><tspan class="cls-53" x="453.718" y="0">w</tspan><tspan class="cls-14" x="469.258" y="0">o</tspan><tspan class="cls-95" x="480.955" y="0">r</tspan><tspan class="cls-14" x="487.843" y="0">k</tspan><tspan class="cls-50" x="497.251" y="0">s</tspan><tspan class="cls-14" x="505.378" y="0">.</tspan></text><text class="cls-96" transform="translate(94.992 598.233)">T<tspan class="cls-14" x="10.206" y="0">he cra</tspan><tspan class="cls-97" x="64.49" y="0">f</tspan><tspan class="cls-14" x="70.706" y="0">tsmanship of bamboo </tspan><tspan class="cls-53" x="271.315" y="0">w</tspan><tspan class="cls-14" x="286.855" y="0">e</tspan><tspan class="cls-43" x="297.565" y="0">a</tspan><tspan class="cls-45" x="307.498" y="0">ving is highly demanding </tspan><tspan class="cls-44" x="537.907" y="0">y</tspan><tspan class="cls-45" x="547.524" y="0">et with l</tspan><tspan class="cls-98" x="619.868" y="0">o</tspan><tspan class="cls-41" x="631.46" y="0">w </tspan><tspan class="cls-48" x="652.271" y="0">r</tspan><tspan class="cls-45" x="658.76" y="0">etu</tspan><tspan class="cls-40" x="688.159" y="0">r</tspan><tspan class="cls-41" x="695.026" y="0">n.</tspan></text><text class="cls-99" transform="translate(4.762 665.769)">F<tspan class="cls-43" x="11.046" y="0">e</tspan><tspan class="cls-45" x="22.533" y="0">w </tspan><tspan class="cls-25" x="43.764" y="0">p</tspan><tspan class="cls-45" x="56.909" y="0">eople</tspan><tspan class="cls-100" x="112.16" y="0" xml:space="preserve"> a</tspan><tspan class="cls-101" x="127.343" y="0">r</tspan><tspan class="cls-100" x="133.832" y="0">e willing </tspan><tspan class="cls-102" x="213.987" y="0">t</tspan><tspan class="cls-100" x="220.875" y="0">o dedica</tspan><tspan class="cls-103" x="297.167" y="0">t</tspan><tspan class="cls-104" x="304.056" y="0">e themsel</tspan><tspan class="cls-105" x="391.161" y="0">v</tspan><tspan class="cls-100" x="401.031" y="0">es </tspan><tspan class="cls-102" x="425.223" y="0">t</tspan><tspan class="cls-100" x="432.11" y="0">o lea</tspan><tspan class="cls-106" x="474.677" y="0">r</tspan><tspan class="cls-100" x="481.543" y="0">ning and p</tspan><tspan class="cls-101" x="578.121" y="0">r</tspan><tspan class="cls-100" x="584.61" y="0">ese</tspan><tspan class="cls-107" x="614.388" y="0">r</tspan><tspan class="cls-104" x="621.737" y="0">ving the </tspan><tspan class="cls-108" x="700.15" y="0">I</tspan><tspan class="cls-100" x="705.421" y="0">ntan</tspan><tspan class="cls-109" x="746.056" y="0">g</tspan><tspan class="cls-104" x="757.837" y="0">ible </tspan><tspan class="cls-105" x="795.678" y="0">C</tspan><tspan class="cls-100" x="808.025" y="0">ultural </tspan><tspan class="cls-100"><tspan x="0" y="25.2">He</tspan><tspan class="cls-76" x="24.465" y="25.2">r</tspan><tspan x="31.331" y="25.2">itage of </tspan><tspan class="cls-110" x="103.948" y="25.2">F</tspan><tspan x="113.545" y="25.2">ilaments Bamboo</tspan><tspan class="cls-111" x="268.627" y="25.2"> </tspan><tspan class="cls-112" x="273.017" y="25.2">W</tspan><tspan x="290.215" y="25.2">e</tspan><tspan class="cls-43" x="300.925" y="25.2">a</tspan><tspan class="cls-41" x="310.858" y="25.2">vin</tspan><tspan class="cls-113" x="337.57" y="25.2">g</tspan><tspan class="cls-41" x="349.225" y="25.2">.</tspan></tspan></text><text class="cls-91" transform="translate(94.762 203.458)">Disabled people dese<tspan class="cls-42" x="191.495" y="0">r</tspan><tspan class="cls-53" x="198.845" y="0">v</tspan><tspan x="208.715" y="0">e pi</tspan><tspan class="cls-90" x="241.579" y="0">t</tspan><tspan class="cls-45" x="248.823" y="0">y</tspan></text><circle class="cls-114" cx="79.125" cy="197.294" r="6"/><text class="cls-115" transform="translate(94.992 229.332)">T<tspan class="cls-45" x="10.206" y="0">h</tspan><tspan class="cls-116" x="21.987" y="0">e</tspan><tspan class="cls-45" x="32.78" y="0">y a</tspan><tspan class="cls-48" x="57.728" y="0">r</tspan><tspan class="cls-45" x="64.217" y="0">e not as p</tspan><tspan class="cls-48" x="151.323" y="0">r</tspan><tspan class="cls-45" x="157.813" y="0">odu</tspan><tspan class="cls-117" x="193.135" y="0">c</tspan><tspan class="cls-41" x="203.256" y="0">ti</tspan><tspan class="cls-44" x="215.184" y="0">v</tspan><tspan class="cls-45" x="225.054" y="0">e as non</tspan><tspan class="cls-118" x="299.687" y="0">-</tspan><tspan class="cls-41" x="306.89" y="0">disabled people</tspan></text><circle class="cls-114" cx="79.125" cy="223.168" r="6"/><text class="cls-115" transform="translate(94.992 255.207)">T<tspan class="cls-45" x="10.206" y="0">h</tspan><tspan class="cls-116" x="21.987" y="0">e</tspan><tspan class="cls-45" x="32.78" y="0">y a</tspan><tspan class="cls-48" x="57.728" y="0">r</tspan><tspan class="cls-45" x="64.217" y="0">e waiting </tspan><tspan class="cls-119" x="151.492" y="0">f</tspan><tspan class="cls-41" x="157.204" y="0">or help f</tspan><tspan class="cls-48" x="231.479" y="0">r</tspan><tspan class="cls-41" x="237.969" y="0">om others</tspan></text><circle class="cls-114" cx="79.125" cy="249.043" r="6"/><circle class="cls-114" cx="79.125" cy="566.132" r="6"/><circle class="cls-114" cx="79.125" cy="592.069" r="6"/><circle class="cls-114" cx="79.125" cy="618.007" r="6"/><polyline class="cls-120" points="787.125 322.043 1046.125 322.043 1046.125 83.043 957.589 83.043"/><polygon class="cls-121" points="964.216 74.863 965.581 76.328 958.357 83.041 965.581 89.756 964.216 91.221 955.42 83.041 964.216 74.863"/><text class="cls-122" transform="matrix(0, -0.998, 1, 0, 1075.397, 268.262)">V<tspan class="cls-123" x="12.684" y="0">icious ci</tspan><tspan class="cls-124" x="89.291" y="0">r</tspan><tspan class="cls-123" x="97.103" y="0">cle:</tspan><tspan class="cls-123"><tspan x="22.795" y="25.2">need job</tspan></tspan></text><polyline class="cls-125" points="372.125 689.074 1046.125 689.074 1046.125 500.574 1020.294 500.574"/><polygon class="cls-126" points="1026.921 492.395 1028.285 493.859 1021.062 500.572 1028.285 507.287 1026.921 508.752 1018.125 500.572 1026.921 492.395"/><text class="cls-127" transform="translate(1075.898 659.734) rotate(-90)">V<tspan class="cls-14" x="12.684" y="0">icious ci</tspan><tspan class="cls-128" x="89.291" y="0">r</tspan><tspan class="cls-45" x="97.103" y="0">cle:</tspan><tspan class="cls-14"><tspan x="5.166" y="25.2">need people</tspan></tspan></text><path class="cls-129" d="M1377.619,790.078c-.919.056-1.838.129-2.758.164-1.889.072-2.224.487-2.031,2.329a19.432,19.432,0,0,1-.018,2.46c-.024,1.066.552,1.443,1.547,1.447.9,0,1.811.057,2.711.143a1.9,1.9,0,0,0,2.29-2.138c-.146-1.479-.61-2.936-.67-4.413a4.312,4.312,0,0,1,1.344-3.541c.079.732.139,1.157.169,1.584.116,1.634.181,3.273.347,4.9.152,1.5,1,1.9,2.393,1.42a16.383,16.383,0,0,1,2.876-.519c1.03-.161,2.086-.213,3.089-.47,1.1-.283,1.5-.994,1.417-2.251a55.912,55.912,0,0,1,.093-6.535c.021-.409.523-.793.8-1.188l.514.2c.085,1.529.177,3.058.252,4.588.056,1.14.068,2.282.141,3.421a1.759,1.759,0,0,0,1.929,1.835c1.853.073,3.707.188,5.551.374.317.032.588.508.881.778-.328.267-.64.738-.986.765-1.422.11-2.855.129-4.282.1a2.323,2.323,0,0,0-2.57,2.265,1.55,1.55,0,0,0,1.538,1.854,2.737,2.737,0,0,0,.82.034c2.769-.559,5.4.521,8.115.676a8.166,8.166,0,0,1,2.028.778,6.408,6.408,0,0,1-1.115.394c-2.668.279-5.335.7-8.009.751-2.259.047-4.523-.42-6.791-.5-2.486-.09-4.983-.077-7.467.054a1.561,1.561,0,0,0-1.589,1.839,22.05,22.05,0,0,1,.2,3.27c-.019.4-.556.769-.856,1.152-.334-.359-.959-.723-.953-1.077a38.57,38.57,0,0,1,.4-5.426c.179-1.121,1.048-1.337,2.206-.91a1.714,1.714,0,0,0,1.265.031,8.4,8.4,0,0,1,4.752-1.008,8.642,8.642,0,0,0,1.363-.128c1.119-.122,1.769-.667,1.707-1.874a2.039,2.039,0,0,0-1.939-2.085,20.955,20.955,0,0,1-3.959-.051c-2.322-.554-3.375.6-4.283,2.417-.177.355-1,.511-1.536.537-1.276.062-2.568-.113-3.834.01-.914.088-1.235.662-1.157,1.754a55.207,55.207,0,0,1-.164,5.815c-.035,1-.016,2-.082,3a14.827,14.827,0,0,1-.339,2.692c-.115.451-.585.811-.895,1.212-.247-.48-.684-.951-.708-1.441-.083-1.732.014-3.472-.029-5.206-.046-1.857-.177-3.712-.26-5.568a3.967,3.967,0,0,1,.023-1.365,14.066,14.066,0,0,0,.5-6.869c-.372-2.41.466-5.029.9-7.534.352-2.024,3.087-3.1,4.867-2.215a28.67,28.67,0,0,0-3.345,1.746c-1.012.692-1.1,2.589-.494,4.046.543,1.311,1.558,1.358,2.716,1.2.446-.062.9-.068,1.35-.1Z" transform="translate(-98.875 -187.957)"/><path class="cls-129" d="M1387.835,782.612c0-2.107.008-4,0-5.89-.014-2.508.055-5.023-.135-7.518-.045-.6-.974-1.126-1.6-1.8a2.75,2.75,0,0,0,2.346-3.2,4.606,4.606,0,0,0-2.071-3.58c.418-.485.8-.931,1.187-1.374a1.259,1.259,0,0,1,1.911-.272c.037.028.071.087.1.086a40.382,40.382,0,0,0,5.209-.376c.454-.085.7-1.244,1.064-1.9a5.626,5.626,0,0,1,.521-.68,2.753,2.753,0,0,1,.574.635,2.388,2.388,0,0,1,.163.94c.018,1.267.223,2.291,1.916,1.994.2-.035.5.478.759.737-.277.237-.585.706-.825.674-1.6-.217-1.928.589-1.743,1.935a2.191,2.191,0,0,1-.037.952,2.54,2.54,0,0,1-.522.676c-.173-.23-.356-.454-.514-.694-.042-.064,0-.179-.01-.269-.076-.758.127-1.892-.286-2.2-1.294-.969-2.791-1.947-4.515-1.5a2.9,2.9,0,0,0-1.624,1.657,6.5,6.5,0,0,0-.2,2.8,2.69,2.69,0,0,0,3.758,2.3c1.009-.394,2.014-.8,3.033-1.167.238-.085.658-.136.775-.006,1.054,1.166,2.465.721,3.735.9.716.1,1.508.128,1.48,1.44-1.384-.113-2.739-.149-4.069-.352-1.305-.2-1.9.112-1.774,1.45a41.917,41.917,0,0,0,.869,4.414.287.287,0,0,0,.054.125c1.141,1.339,2.554.476,3.852.451a1.512,1.512,0,0,0,1.7-1.433c.067-.76.109-1.523.175-2.463.957,1.294,1.329,2.579.511,3.792-.883,1.311-2.43,1.443-3.888,1.545a5.331,5.331,0,0,1-.938-.182c-1.352-.165-1.752.209-1.67,1.582s.2,2.735.286,4.1c.03.479,0,.962,0,1.473-1.229.114-1.117-.646-1.264-1.307-.842-3.789-.077-7.639-.476-11.445-.2-1.946-1.663-2.812-3.459-1.933a2.975,2.975,0,0,1-1.107.488c-1.592,0-1.875.917-1.8,2.252.158,2.771.253,5.545.379,8.317A4.028,4.028,0,0,1,1387.835,782.612Z" transform="translate(-98.875 -187.957)"/><path class="cls-129" d="M1360.464,773.482c-.153,1.453-.308,2.906-.456,4.36-.018.18.059.394-.012.542-1.118,2.337.031,4.634.083,6.949.024,1.081-.239,2.166-.254,3.251-.023,1.723.1,3.449.064,5.172-.013.681-.339,1.351-.409,2.037-.068.665.074,1.351,0,2.016a7.7,7.7,0,0,1-.448,1.472c-.485-.189-1.117-.252-1.418-.6a3.692,3.692,0,0,1-.838-1.793,12.729,12.729,0,0,1,.735-6.447,1.686,1.686,0,0,0,.089-1.193c-.806-1.547.134-2.844.4-4.266a19.769,19.769,0,0,0,.147-4.342c-.063-1.766-.387-3.529-.36-5.29a4.1,4.1,0,0,0-1.473-3.218,2.186,2.186,0,0,1-.677-1.373c0-.223.734-.553,1.178-.665a1.889,1.889,0,0,0,1.478-2.142,13.087,13.087,0,0,1,.03-2.451c.076-.4.634-.712.974-1.064a4.983,4.983,0,0,1,.482,1.1,11.648,11.648,0,0,1,.108,1.775,2.579,2.579,0,0,0,1.7,2.661,1.383,1.383,0,0,1,.7.418c.858,1.431,1.883,1.974,3.4.858a.985.985,0,0,1,.861.316,3.153,3.153,0,0,1,0,1.591,1.117,1.117,0,0,1-1.025.295c-1.083-.754-1.992-.333-3.009.143-.423.2-1.043-.03-1.574-.064Z" transform="translate(-98.875 -187.957)"/><path class="cls-129" d="M1334,787.134c.265-.342.374-.545.418-.532,1.555.471,2.559-.94,3.933-1.145a2.065,2.065,0,0,0,1.458-2.745,28.006,28.006,0,0,1-.683-3.475,1.351,1.351,0,0,1,.363-.944c1.024-1.13,3.519-.682,4.284.8a2.436,2.436,0,0,1-.408.284c-2.1.924-2.429,1.586-2.224,3.808.094,1.029,1.218,1.371,3.162,1.9a13.365,13.365,0,0,1,2.946,1.169c.728.4.739,1.075-.144,1.378a7.231,7.231,0,0,1-1.952.293c-.725.039-1.468-.108-2.179,0-.445.065-1.084.35-1.219.7a8.406,8.406,0,0,0-.774,3.14,18.289,18.289,0,0,1-.344,5.614c-.407,1.48-.039,3.168-.061,4.763-.01.743.45,1.9-.806,1.924-1.113.023-1.053-1.135-1.067-1.9-.03-1.636.128-3.274.132-4.911,0-1.575-.123-3.149-.125-4.723,0-.583.25-1.163.283-1.75.124-2.253-1.1-3.462-3.383-3.432A12.139,12.139,0,0,1,1334,787.134Z" transform="translate(-98.875 -187.957)"/><path class="cls-129" d="M1384.387,752.792c-1.025.179-1.854.291-2.666.474a1.757,1.757,0,0,0-1.472,1.863c-.08,2.185-.3,4.368-.322,6.553-.019,2.2.143,4.407.213,6.61.09,2.869.2,5.738.231,8.607a9.774,9.774,0,0,1-.379,1.975l-.52.069c-.289-.516-.783-1.015-.83-1.553-.143-1.633-.157-3.281-.142-4.923.018-1.913.173-3.825.172-5.737,0-3.1-.228-6.2-.061-9.281a12.225,12.225,0,0,1,1.37-4.08c.484-1.08.975-1.985-.422-2.756a1.351,1.351,0,0,1-.485-1.023c0-.162.573-.518.825-.469a4.43,4.43,0,0,1,1.272.653c.05.029.029.173.051.261.2.8.166,1.839.668,2.335C1382.336,752.811,1383.375,752.653,1384.387,752.792Z" transform="translate(-98.875 -187.957)"/><path class="cls-129" d="M1340.279,746c.167.124.495.326.478.361-.7,1.468,1.019,2.84.041,4.432-.653,1.063.667,2.643,2.062,2.743a9.382,9.382,0,0,1,2.169.058,7.347,7.347,0,0,1,1.786,1.251l-.094.569a22.12,22.12,0,0,1-2.654.546c-1.314.113-2.576.148-2.946,1.807-.059.262-.493.441-.753.658-.176-.239-.455-.455-.511-.719-.292-1.38-1.315-1.723-2.508-1.913-.959-.153-1.906-.379-2.866-.573.087-1.173.6-1.4,1.466-1.466a8.813,8.813,0,0,0,2.676-.683,2.137,2.137,0,0,0,1.229-2.362c-.092-1.547-.024-3.1-.024-4.658Z" transform="translate(-98.875 -187.957)"/><path class="cls-129" d="M1373.734,755.906c.2.418.572.832.581,1.253.035,1.668-.178,3.349-.044,5,.192,2.387-.647,4.861.609,7.174a1.508,1.508,0,0,1-.07,1.314c-1.076,1.521-.861,3.212-.812,4.894a16.187,16.187,0,0,1,.017,2.461,4.123,4.123,0,0,1-.687,1.284c-.248-.429-.691-.851-.708-1.29-.064-1.638.034-3.282.028-4.923-.006-2.119-.129-4.24-.064-6.356.083-2.7.3-5.4.466-8.1.053-.874.117-1.748.177-2.622Z" transform="translate(-98.875 -187.957)"/><path class="cls-129" d="M1345.768,770.9a5.318,5.318,0,0,1,.749-.442c2.609-.63,2.608-.628,2.666-3.382.008-.364.021-.729.057-1.092.147-1.48-.487-2.109-1.957-2.332a20.9,20.9,0,0,1-3.463-1,.558.558,0,0,1,.322-1.053c1.477.347,3.191.406,4.341,1.236a4.574,4.574,0,0,1,2.053,4.444,7.221,7.221,0,0,0,.055,2.314c.188,1.05.651,1.861,2,1.728.412-.04.868.379,1.3.587a5.781,5.781,0,0,1-1.315,1.121,4.165,4.165,0,0,1-1.872.273c-.472-.031-1.167-.234-1.338-.574a2.258,2.258,0,0,0-2.088-1.26A7.2,7.2,0,0,1,1345.768,770.9Z" transform="translate(-98.875 -187.957)"/><path class="cls-129" d="M1337.524,770.353a16.569,16.569,0,0,0,1.66-.757,1.165,1.165,0,0,0,.613-1.661,2.93,2.93,0,0,1,.273-2.4c.7-.936.248-1.5-.173-2.194-.551-.913-1.348-.584-2.067-.354-.643.205-1.275.708-1.721-.533.7-.262,1.4-.5,2.08-.789.53-.22,1.027-.521,1.56-.735.478-.192,1.257-.585,1.425-.415a2.632,2.632,0,0,1,.913,1.784,36.3,36.3,0,0,1-1.221,4.7c-.676,2.272.206,3.43,2.58,3.332.476-.02.954,0,1.431,0l.052.528a6.241,6.241,0,0,1-1.78.151c-1.578-.328-2.151.067-2.185,1.688-.01.5-.027,1-.071,1.5-.019.216-.115.425-.508.744-.2-.528-.4-1.053-.587-1.584a6.851,6.851,0,0,0-.633-1.745A7.711,7.711,0,0,0,1337.524,770.353Z" transform="translate(-98.875 -187.957)"/><path class="cls-129" d="M1361.635,754.84c-.236,1.563-.466,3.126-.711,4.687-.049.309-.064.782-.253.883-1.314.7-1.434,1.946-1.423,3.273l-.4.1c-.3-.536-.806-1.052-.855-1.609a26.314,26.314,0,0,0-2.919-9.11,19.842,19.842,0,0,0-1.444-2.2c1.809.042,2.738.916,3.357,2.835a9.186,9.186,0,0,0,1.1,2.3c.915,1.354,1.959,1.236,2.759-.2a6.375,6.375,0,0,1,.779-.939Z" transform="translate(-98.875 -187.957)"/><path class="cls-129" d="M1338.388,778.936a48.684,48.684,0,0,1-5.928.226c-.568-.04-1.484-1.19-1.508-1.858-.091-2.59.1-5.191.228-7.786.016-.317.335-.618.507-.914,1.655.682,1.965,1.641,1.076,2.951a5.2,5.2,0,0,0-.289,5.218c.209.487,1.1.806,1.742.956,1.381.326,2.8.492,4.2.723Z" transform="translate(-98.875 -187.957)"/><path class="cls-129" d="M1361.63,754.853a7.8,7.8,0,0,1,.381-1.975c1.137-2.369,2.815-4.1,5.661-4.12.395,0,.792.389,1.188.6a4.2,4.2,0,0,1-.745,1.207,4.724,4.724,0,0,1-1.971,1.13c-1.522.241-2.7.675-3.171,2.343-.1.363-.876.534-1.34.8C1361.635,754.84,1361.63,754.853,1361.63,754.853Z" transform="translate(-98.875 -187.957)"/><path class="cls-129" d="M1392.7,752.034a13.71,13.71,0,0,1,2.005.186c1.048.248,1.466-.143,1.447-1.161a25.117,25.117,0,0,1-.005-3.14,2.686,2.686,0,0,1,.839-1.263c.087-.093.678.062.695.162a3.765,3.765,0,0,1,.023,1.4c-.269,1.267-.655,2.509-.895,3.779-.065.345.385.792.31,1.128a2.939,2.939,0,0,1-.717,1.247c-1.3-.509-2.564-1.127-3.835-1.721Z" transform="translate(-98.875 -187.957)"/><path class="cls-129" d="M1389.005,756.413l-2.9-3.755c.432.022,1.154.268,1.621.025a3.064,3.064,0,0,0,1.105-1.518,2.566,2.566,0,0,0-.029-1.316c-.057-.34-.332-.659-.333-.988a4.549,4.549,0,0,1,.3-1.161,6.462,6.462,0,0,1,.534,1.017c.365,1.14.711,2.289,1.007,3.448a2.332,2.332,0,0,1,.039,1.3C1389.962,754.473,1389.458,755.436,1389.005,756.413Z" transform="translate(-98.875 -187.957)"/><path class="cls-129" d="M1384.475,767.18c-1.013,1.143-1.468,1.094-1.9-.149-.445-1.274-1.075-2.5-.283-3.924.266-.481-.112-1.28.033-1.878a2.42,2.42,0,0,1,.907-1.538c.948-.437,1.571-.087,2.1.785C1382.431,762.185,1382.074,764.776,1384.475,767.18Z" transform="translate(-98.875 -187.957)"/><path class="cls-129" d="M1349.56,779.751c-1.4-.318-2.5-.549-3.588-.832a.613.613,0,0,1-.331-.5.6.6,0,0,1,.455-.38,3.331,3.331,0,0,0,3.553-1.693c.061-.107.768-.031.79.055a7.829,7.829,0,0,1,.413,2.584C1350.817,779.321,1349.9,779.565,1349.56,779.751Z" transform="translate(-98.875 -187.957)"/><path class="cls-129" d="M1357.235,808.018a3.689,3.689,0,0,1,.048-1.49c.184-.452.771-.741,1.181-1.1.283.358.81.718.806,1.072a29.546,29.546,0,0,1-.368,3.922c-.039.264-.545.706-.692.654a1.3,1.3,0,0,1-.759-.765A16.144,16.144,0,0,1,1357.235,808.018Z" transform="translate(-98.875 -187.957)"/><path class="cls-129" d="M1403.734,756.94a6.244,6.244,0,0,1-.231-1.008c-.1-2.189-1.421-3.125-3.557-2.613a7.668,7.668,0,0,1-2.128-.209c1.953-1.363,3.649-.435,5.275-.478.28-.008.756.474.827.8a23.587,23.587,0,0,1,.391,3.051C1404.321,756.589,1404.016,756.724,1403.734,756.94Z" transform="translate(-98.875 -187.957)"/><path class="cls-129" d="M1374.639,752.594l-2.222-3.781c.3-.039.925-.325,1.326-.133a3.474,3.474,0,0,1,1.733,1.477A1.761,1.761,0,0,1,1374.639,752.594Z" transform="translate(-98.875 -187.957)"/><path class="cls-129" d="M1330.7,765.983c.342-.754.634-1.458.987-2.128a.617.617,0,0,1,.56-.222c.2.1.463.4.435.571a16.835,16.835,0,0,1-.586,2.49c-.057.174-.639.384-.741.3A4.132,4.132,0,0,1,1330.7,765.983Z" transform="translate(-98.875 -187.957)"/><path class="cls-129" d="M1358.606,800.755c.417.733.815,1.131.732,1.343a13.066,13.066,0,0,1-1.061,1.866c-.211-.436-.625-.891-.584-1.3A7.147,7.147,0,0,1,1358.606,800.755Z" transform="translate(-98.875 -187.957)"/><path class="cls-129" d="M1404.38,758.5c-.079,1.507-.965,2.456-2.082,2.235-.221-.043-.533-.253-.57-.434a.773.773,0,0,1,.332-.64C1402.782,759.247,1403.544,758.906,1404.38,758.5Z" transform="translate(-98.875 -187.957)"/><path class="cls-129" d="M1349.736,749.246l3.272.636-.116.63-3.3-.554Z" transform="translate(-98.875 -187.957)"/><path class="cls-129" d="M1378.178,749a11.011,11.011,0,0,1-1.5.468c-.082.015-.256-.469-.388-.722l1.668-.451Z" transform="translate(-98.875 -187.957)"/><path class="cls-129" d="M1379.352,810.328c1.3.725,1.341,1.238.124,2.239Z" transform="translate(-98.875 -187.957)"/><rect class="cls-130" x="1113.125" y="202.043" width="107" height="3" rx="1.5"/><rect class="cls-131" x="1113.125" y="593.043" width="107" height="3" rx="1.5"/><path class="cls-132" d="M1357.833,415.921a15.865,15.865,0,0,1-4.565-.672,15.984,15.984,0,0,1-4.665-28.371,1.754,1.754,0,0,1,2.027,2.863,12.48,12.48,0,1,0,19.2,13.792,1.719,1.719,0,0,1,1.274-1.253,1.773,1.773,0,0,1,2.1,2.227h0a16.123,16.123,0,0,1-15.366,11.414Z" transform="translate(-98.875 -187.957)"/><path class="cls-132" d="M1361.13,367.8a7.352,7.352,0,1,1,5.77-5.769A7.361,7.361,0,0,1,1361.13,367.8Zm-.4-10.91a3.851,3.851,0,0,0-4.743,4.743,3.785,3.785,0,0,0,2.658,2.658,3.851,3.851,0,0,0,4.743-4.743A3.785,3.785,0,0,0,1360.734,356.894Zm28.436,58.913a4.816,4.816,0,0,1-4.368-2.788l-.048-.113-4.69-12.292a2.48,2.48,0,0,0-1.373-1.548,2.52,2.52,0,0,0-.924-.176h-18.914a4.428,4.428,0,0,1-4.42-4.161l-.221-3.642-.731-14.96a6.122,6.122,0,0,1,5.626-6.448,6.024,6.024,0,0,1,6.4,5.768l.115,2.411h11.408a4.176,4.176,0,0,1,4.175,4.305,4.261,4.261,0,0,1-4.277,4.05h-10.895l.123,3.947,13.941-.026a9.239,9.239,0,0,1,8.278,5.181l.061.143,5.141,13.575a4.792,4.792,0,0,1-2.02,6.144h0a4.833,4.833,0,0,1-2.387.63ZM1388,411.585a1.312,1.312,0,0,0,2.36-1.146l-.047-.113-5.131-13.549a5.7,5.7,0,0,0-5.072-3.136h-.01l-17.348.032-.34-10.968h14.512a.741.741,0,0,0,.771-.648.67.67,0,0,0-.189-.489.662.662,0,0,0-.48-.2h-14.751L1362,375.6a2.516,2.516,0,0,0-2.675-2.422,2.6,2.6,0,0,0-2.345,2.776l.731,14.94.219,3.622a.921.921,0,0,0,.919.865h18.914a6,6,0,0,1,2.211.421,5.928,5.928,0,0,1,3.4,3.667L1388,411.585Z" transform="translate(-98.875 -187.957)"/><path class="cls-114" d="M1523.827,604.5a2.985,2.985,0,0,0-1.48-2.05.228.228,0,0,1-.125-.168l-2.513-15.373a.237.237,0,0,1,.068-.2,2.7,2.7,0,0,0,.743-1.524c0-.033,0-.067,0-.1a4.845,4.845,0,0,0-.114-1.176,4.3,4.3,0,0,0-.487-.889,1.134,1.134,0,0,1-.136-.754,2.362,2.362,0,0,1,.067-.273c.005-.019.034-.2.049-.1a.77.77,0,0,1,.051-.42c-.04-.329.021-.585-.035-.925l-.04-.242a2.98,2.98,0,0,0-1.48-2.049.233.233,0,0,1-.124-.168l-1.722-10.533a.234.234,0,0,1,.067-.2,2.8,2.8,0,0,0,.748-2.413,3.2,3.2,0,0,0-3.66-2.631l-8.469,1.384a3.01,3.01,0,0,0-2.409,3.5l.04.242a2.982,2.982,0,0,0,1.48,2.05.229.229,0,0,1,.124.168l1.722,10.532a.236.236,0,0,1-.067.2,2.794,2.794,0,0,0-.748,2.412l.039.242a2.889,2.889,0,0,0,.768,1.48.232.232,0,0,1,.042.261,2.891,2.891,0,0,0-.256,1.647l.04.242a2.985,2.985,0,0,0,1.48,2.05.229.229,0,0,1,.124.168l2.513,15.372a.235.235,0,0,1-.067.2,2.8,2.8,0,0,0-.748,2.413,3.2,3.2,0,0,0,3.66,2.631l8.227-1.344A3.2,3.2,0,0,0,1523.827,604.5Zm-15.995-21.857-.039-.242a.546.546,0,0,1,.283-.543l.808-.381-2.294-14.034-.887-.1c-.261-.081-.4-.182-.442-.424l-.039-.242a.527.527,0,0,1,.4-.563l8.711-1.424a.527.527,0,0,1,.563.4l.039.242a.547.547,0,0,1-.283.543l-.808.38,2.294,14.035.887.1c.261.082.4.183.442.425l.039.242a.527.527,0,0,1-.4.563l-8.711,1.424A.528.528,0,0,1,1507.832,582.64Zm13.229,23.178-8.711,1.424a.527.527,0,0,1-.563-.4l-.039-.242a.545.545,0,0,1,.284-.543l.807-.38-3.085-18.874-.886-.1c-.262-.081-.4-.183-.443-.425l-.039-.241a.528.528,0,0,1,.4-.564l8.711-1.423a.527.527,0,0,1,.563.4l.039.241a.547.547,0,0,1-.283.544l-.808.38,3.085,18.874.887.1c.261.081.4.182.442.424l.039.242A.527.527,0,0,1,1521.061,605.818Z" transform="translate(-98.875 -187.957)"/><polygon class="cls-133" points="1409.519 421.631 1428.899 362.049 1428.099 358.459 1431.689 357.66 1438.472 359.916 1440.201 362.043 1438.075 363.773 1418.031 426.014 1409.519 421.631"/><path class="cls-114" d="M1538.194,585.276l-3.322-6.524a.244.244,0,0,1,.256-.35c4.1.408,8.889-5.878,10.459-10.7L1549,557.207l-1.166-.379c-4.2-1.365-9.5,5.419-11.166,10.548l-2.5,7.694-1.364-.959a1.537,1.537,0,0,0,.344-.661l.076-.234a2.792,2.792,0,0,0-.373-2.5.235.235,0,0,1-.035-.21l5.615-17.26a.232.232,0,0,1,.148-.148,2.986,2.986,0,0,0,1.775-1.8h0a3.2,3.2,0,0,0-2.045-4.017l-7.928-2.578a3.2,3.2,0,0,0-4.017,2.045h0a2.792,2.792,0,0,0,.373,2.5.232.232,0,0,1,.035.21l-5.576,17.144a.232.232,0,0,1-.149.147,2.982,2.982,0,0,0-1.774,1.8l-.076.233a2.886,2.886,0,0,0,0,1.667.233.233,0,0,1-.082.252,2.882,2.882,0,0,0-.983,1.346l-.076.233a2.8,2.8,0,0,0,.373,2.5.232.232,0,0,1,.035.21l-5.576,17.144a.23.23,0,0,1-.149.147,2.984,2.984,0,0,0-1.774,1.8l-.076.233a2.886,2.886,0,0,0,0,1.667.232.232,0,0,1-.081.252,2.879,2.879,0,0,0-.984,1.345l-.076.234a2.8,2.8,0,0,0,.373,2.5.232.232,0,0,1,.035.21l-2.925,8.993a2.07,2.07,0,0,0,1.328,2.608l7.587,2.468a2.211,2.211,0,0,0,2.787-1.419l2.882-8.86a.23.23,0,0,1,.149-.147,2.984,2.984,0,0,0,1.774-1.8l.076-.233a2.877,2.877,0,0,0,0-1.667.231.231,0,0,1,.082-.251,2.878,2.878,0,0,0,.983-1.346l.076-.233a2.791,2.791,0,0,0-.373-2.5.238.238,0,0,1-.035-.211l5.539-17.027a.23.23,0,0,1,.149-.147,2.984,2.984,0,0,0,1.774-1.8l.076-.233h0l1.052.729-.461.623c-.192.195-3.494,4.013-1.014,10.615l.013.03,5.105,10.028,1.152-1.559A11.252,11.252,0,0,0,1538.194,585.276Zm.806-17.141c1.118-3.437,3.977-7.183,6.173-8.492a.248.248,0,0,1,.362.291l-2.28,7.007c-1.118,3.436-3.977,7.182-6.173,8.491a.248.248,0,0,1-.362-.29Zm-9.248,7.82-.076.233c-.076.234-.23.312-.5.353l-.892-.032-6.674,20.518.74.5a.548.548,0,0,1,.2.58l-.076.234a.527.527,0,0,1-.618.314l-8.394-2.73a.527.527,0,0,1-.314-.618l.076-.233c.075-.233.23-.312.5-.353l.892.032,6.674-20.518-.74-.5a.546.546,0,0,1-.2-.58l.076-.233a.527.527,0,0,1,.618-.315l8.393,2.73A.527.527,0,0,1,1529.752,575.955Zm-8.189-6.531c.076-.233.231-.312.5-.352l.892.032,6.674-20.518-.74-.5a.546.546,0,0,1-.2-.58l.075-.233a.529.529,0,0,1,.619-.315l8.393,2.731a.528.528,0,0,1,.315.618l-.076.233c-.076.233-.23.312-.5.353l-.892-.033-6.675,20.518.741.5a.548.548,0,0,1,.2.58l-.076.233a.528.528,0,0,1-.618.315l-8.394-2.731a.527.527,0,0,1-.314-.618Zm-.23,32.412c-.075.233-.23.312-.5.353l-.892-.033-2.951,9.072a1.371,1.371,0,0,1-1.728.88l-4.317-1.4a1.443,1.443,0,0,1-.927-1.82l2.928-9-.74-.5a.548.548,0,0,1-.2-.58l.076-.233a.529.529,0,0,1,.618-.315l8.394,2.731a.527.527,0,0,1,.314.618Zm12.621-14.187c0-.011-.01-.022-.014-.033a10.08,10.08,0,0,1-.426-6.183l2.517,4.944a9.441,9.441,0,0,1,.9,7.127Z" transform="translate(-98.875 -187.957)"/><text class="cls-134" transform="translate(1201.101 647.505)">Shanghai <tspan class="cls-135" x="65.279" y="0">F</tspan><tspan x="72.494" y="0">odu </tspan><tspan class="cls-136" x="102.134" y="0">X</tspan><tspan class="cls-137" x="110.954" y="0">uan</tspan><tspan x="-41.017" y="18">Bamboo </tspan><tspan class="cls-138" x="17.662" y="18">C</tspan><tspan x="26.557" y="18">ultu</tspan><tspan class="cls-94" x="53.092" y="18">r</tspan><tspan x="58.297" y="18">al </tspan><tspan class="cls-139" x="73.372" y="18">C</tspan><tspan class="cls-140" x="82.401" y="18">r</tspan><tspan class="cls-141" x="87.531" y="18">e</tspan><tspan class="cls-49" x="95.421" y="18">a</tspan><tspan x="102.966" y="18">tion </tspan><tspan class="cls-142" x="133.056" y="18">C</tspan><tspan x="141.966" y="18">e</tspan><tspan class="cls-143" x="149.855" y="18">n</tspan><tspan class="cls-144" x="158.496" y="18">t</tspan><tspan x="163.746" y="18">er</tspan></text><text class="cls-145" transform="translate(1195.229 251.505)">P<tspan class="cls-141" x="7.98" y="0">eople willing </tspan><tspan class="cls-144" x="96.778" y="0">t</tspan><tspan class="cls-146" x="102.028" y="0">o lea</tspan><tspan class="cls-147" x="133.603" y="0">r</tspan><tspan class="cls-146" x="138.943" y="0">n</tspan><tspan class="cls-148"><tspan x="-17.348" y="18">F</tspan><tspan class="cls-141" x="-10.058" y="18">ilame</tspan><tspan class="cls-143" x="26.122" y="18">n</tspan><tspan class="cls-146" x="34.762" y="18">ts Bamboo</tspan><tspan class="cls-149" x="105.096" y="18"> </tspan><tspan class="cls-150" x="108.111" y="18">W</tspan><tspan class="cls-141" x="120.681" y="18">e</tspan><tspan class="cls-151" x="128.571" y="18">a</tspan><tspan class="cls-146" x="136.056" y="18">ving</tspan></tspan></text><rect class="cls-152" x="1450.125" y="394.043" width="107" height="7" rx="3.5"/><path class="cls-132" d="M1688.755,617a15.988,15.988,0,0,1-9.23-29.043,1.754,1.754,0,0,1,2.027,2.862,12.48,12.48,0,1,0,19.2,13.793,1.716,1.716,0,0,1,1.273-1.253,1.772,1.772,0,0,1,2.1,2.226h0A16.126,16.126,0,0,1,1688.755,617Z" transform="translate(-98.875 -187.957)"/><path class="cls-132" d="M1692.052,568.881a7.352,7.352,0,1,1,5.77-5.769A7.362,7.362,0,0,1,1692.052,568.881Zm-.4-10.911a3.853,3.853,0,0,0-4.744,4.744,3.787,3.787,0,0,0,2.658,2.658,3.853,3.853,0,0,0,4.744-4.744A3.787,3.787,0,0,0,1691.656,557.97Zm28.436,58.913a4.81,4.81,0,0,1-4.368-2.788l-.049-.113-4.69-12.292a2.475,2.475,0,0,0-1.373-1.548,2.514,2.514,0,0,0-.923-.175h-18.914a4.427,4.427,0,0,1-4.42-4.161l-.221-3.642-.731-14.96a6.121,6.121,0,0,1,5.626-6.448,6.022,6.022,0,0,1,6.4,5.768l.115,2.411h11.407a4.178,4.178,0,0,1,4.176,4.3,4.261,4.261,0,0,1-4.277,4.05h-10.9l.123,3.947,13.94-.025a9.238,9.238,0,0,1,8.279,5.181l.061.142,5.141,13.576a4.792,4.792,0,0,1-2.02,6.144h0a4.825,4.825,0,0,1-2.387.629Zm-1.166-4.221a1.312,1.312,0,0,0,2.36-1.147l-.047-.113-5.131-13.549a5.7,5.7,0,0,0-5.072-3.135h-.011l-17.347.031-.341-10.968h14.513a.741.741,0,0,0,.771-.648.671.671,0,0,0-.669-.692H1693.2l-.275-5.764a2.514,2.514,0,0,0-2.675-2.421,2.6,2.6,0,0,0-2.345,2.776l.73,14.94.22,3.621a.923.923,0,0,0,.919.866h18.914a5.853,5.853,0,0,1,5.613,4.088l4.624,12.115Z" transform="translate(-98.875 -187.957)"/><path class="cls-153" d="M1723,568.515l-4.412-1.651a.158.158,0,0,1-.031-.278c2.121-1.587,1.662-6.652.309-9.624l-2.942-6.461-.718.327c-2.585,1.177-2.15,6.7-.712,9.858l2.158,4.739-1.064.138a1.011,1.011,0,0,0-.124-.464l-.066-.143a1.8,1.8,0,0,0-1.263-1.023.151.151,0,0,1-.108-.085l-4.84-10.629a.149.149,0,0,1,.006-.135,1.919,1.919,0,0,0,.059-1.626h0a2.057,2.057,0,0,0-2.717-1.016l-4.882,2.223a2.056,2.056,0,0,0-1.016,2.716h0a1.8,1.8,0,0,0,1.263,1.023.151.151,0,0,1,.108.085l4.808,10.558a.151.151,0,0,1-.007.134,1.922,1.922,0,0,0-.059,1.626l.066.143a1.851,1.851,0,0,0,.726.79.148.148,0,0,1,.07.155,1.859,1.859,0,0,0,.119,1.066l.065.143a1.8,1.8,0,0,0,1.263,1.023.152.152,0,0,1,.109.085l4.807,10.557a.149.149,0,0,1-.006.135,1.919,1.919,0,0,0-.059,1.626l.065.143a1.853,1.853,0,0,0,.727.79.147.147,0,0,1,.07.154,1.857,1.857,0,0,0,.119,1.066l.065.144a1.8,1.8,0,0,0,1.263,1.023.149.149,0,0,1,.108.085l2.522,5.538a1.332,1.332,0,0,0,1.764.66l4.672-2.128a1.424,1.424,0,0,0,.706-1.885l-2.485-5.456a.145.145,0,0,1,.007-.134,1.922,1.922,0,0,0,.058-1.626l-.065-.144a1.86,1.86,0,0,0-.726-.789.149.149,0,0,1-.071-.155,1.849,1.849,0,0,0-.119-1.066l-.065-.143a1.8,1.8,0,0,0-1.263-1.023.151.151,0,0,1-.108-.085l-4.775-10.486a.145.145,0,0,1,.007-.134,1.922,1.922,0,0,0,.058-1.626l-.065-.144h0l.816-.111.053.5c-.007.176.087,3.422,4.133,5.476l.02.009,6.781,2.538-.131-1.24A7.241,7.241,0,0,0,1723,568.515Zm-7.07-8.482a11.324,11.324,0,0,1-.762-6.713.159.159,0,0,1,.3-.019l1.965,4.315a11.322,11.322,0,0,1,.763,6.712.16.16,0,0,1-.3.02Zm-.987,7.73.065.144a.329.329,0,0,1-.084.385l-.437.373,5.753,12.635.568-.085a.352.352,0,0,1,.347.189l.065.144a.341.341,0,0,1-.156.418l-5.17,2.353a.339.339,0,0,1-.418-.156l-.065-.144a.331.331,0,0,1,.085-.385l.437-.372-5.754-12.636-.568.085a.35.35,0,0,1-.346-.189l-.065-.143a.338.338,0,0,1,.156-.418l5.169-2.354A.339.339,0,0,1,1714.939,567.763Zm-6.724.462a.33.33,0,0,1,.084-.385l.438-.373-5.754-12.636-.568.086a.354.354,0,0,1-.346-.189l-.066-.144a.34.34,0,0,1,.157-.418l5.169-2.354a.34.34,0,0,1,.418.157l.065.143a.332.332,0,0,1-.084.386l-.438.372,5.754,12.636.568-.086a.354.354,0,0,1,.346.189l.066.144a.339.339,0,0,1-.157.418l-5.169,2.354a.34.34,0,0,1-.418-.157ZM1722.2,583.7a.332.332,0,0,1-.085.386l-.437.372,2.544,5.587a.882.882,0,0,1-.438,1.168l-2.658,1.211a.929.929,0,0,1-1.231-.461l-2.525-5.543-.568.085a.353.353,0,0,1-.346-.189l-.065-.144a.34.34,0,0,1,.156-.418l5.169-2.354a.339.339,0,0,1,.418.157Zm-.18-12.217-.022-.01a6.487,6.487,0,0,1-2.89-2.747l3.344,1.251a6.071,6.071,0,0,1,3.527,2.988Z" transform="translate(-98.875 -187.957)"/><text class="cls-154" transform="translate(1554.489 453.233)">C<tspan class="cls-146" x="8.91" y="0">o</tspan><tspan class="cls-49" x="17.52" y="0">n</tspan><tspan class="cls-141" x="26.16" y="0">t</tspan><tspan class="cls-155" x="31.5" y="0">r</tspan><tspan class="cls-146" x="36.84" y="0">ibuting </tspan><tspan class="cls-144" x="88.514" y="0">t</tspan><tspan class="cls-146" x="93.764" y="0">o</tspan><tspan class="cls-156"><tspan x="-40.709" y="18">I</tspan><tspan class="cls-143" x="-36.599" y="18">n</tspan><tspan class="cls-146" x="-27.959" y="18">tan</tspan><tspan class="cls-144" x="-6.314" y="18">g</tspan><tspan class="cls-146" x="2.355" y="18">ible </tspan><tspan class="cls-138" x="30.51" y="18">C</tspan><tspan class="cls-137" x="39.405" y="18">ultu</tspan><tspan class="cls-94" x="65.939" y="18">r</tspan><tspan class="cls-146" x="71.145" y="18">al He</tspan><tspan class="cls-155" x="104.264" y="18">r</tspan><tspan class="cls-141" x="109.604" y="18">itage</tspan></tspan></text></svg>