<svg id="图层_2" data-name="图层 2" xmlns="http://www.w3.org/2000/svg" viewBox="0 0 1310.923 149.951"><defs><style>.cls-1{fill:#ffb26b;opacity:0.5;}.cls-2{font-size:24px;letter-spacing:0.009em;}.cls-17,.cls-2,.cls-7{stroke:#000;stroke-miterlimit:10;stroke-width:0.25px;}.cls-2,.cls-39{font-family:MyriadPro-Semibold, Myriad Pro;font-weight:600;}.cls-3{letter-spacing:0.025em;}.cls-4{letter-spacing:0.016em;}.cls-5{letter-spacing:0.02em;}.cls-6{letter-spacing:0.013em;}.cls-17,.cls-7{font-size:21px;font-family:MyriadPro-Light, Myriad Pro;font-weight:300;}.cls-7{letter-spacing:0.021em;}.cls-8{letter-spacing:0.025em;}.cls-9{letter-spacing:0.029em;}.cls-10{letter-spacing:0.018em;}.cls-11{letter-spacing:0.019em;}.cls-12{letter-spacing:0.025em;}.cls-13{letter-spacing:0.036em;}.cls-14{letter-spacing:0.017em;}.cls-15{letter-spacing:0.045em;}.cls-16{letter-spacing:0.025em;}.cls-17{letter-spacing:0.033em;}.cls-18{letter-spacing:0.015em;}.cls-19{letter-spacing:0.033em;}.cls-20{letter-spacing:0.018em;}.cls-21{letter-spacing:0.033em;}.cls-22{letter-spacing:0.018em;}.cls-23{letter-spacing:0.014em;}.cls-24{letter-spacing:0.019em;}.cls-25{letter-spacing:0.015em;}.cls-26{letter-spacing:0.014em;}.cls-27{letter-spacing:0.019em;}.cls-28{letter-spacing:0.055em;}.cls-29{letter-spacing:0.029em;}.cls-30{letter-spacing:0.088em;}.cls-31{letter-spacing:0.021em;}.cls-32{letter-spacing:-0.009em;}.cls-33{letter-spacing:0.02em;}.cls-34{letter-spacing:0.051em;}.cls-35{letter-spacing:0.032em;}.cls-36{letter-spacing:0.014em;}.cls-37{letter-spacing:-0.009em;}.cls-38{letter-spacing:0.02em;}.cls-39{font-size:23px;fill:#ff7b54;letter-spacing:0.025em;}</style></defs><rect class="cls-1" x="87.253" y="94.967" width="655" height="10"/><rect class="cls-1" x="87.253" y="133.967" width="1064" height="10"/><text class="cls-2" transform="translate(0.25 20.213)">C<tspan class="cls-3" x="14.328" y="0">ur</tspan><tspan class="cls-4" x="37.728" y="0">r</tspan><tspan class="cls-3" x="46.655" y="0">e</tspan><tspan class="cls-5" x="59.639" y="0">n</tspan><tspan class="cls-3" x="73.847" y="0">t </tspan><tspan class="cls-6" x="88.439" y="0">P</tspan><tspan class="cls-4" x="102.167" y="0">r</tspan><tspan class="cls-3" x="111.095" y="0">oblems</tspan></text><text class="cls-7" transform="translate(90.89 105.22)">T<tspan class="cls-8" x="10.206" y="0">he d</tspan><tspan class="cls-9" x="49.769" y="0">e</tspan><tspan class="cls-10" x="60.563" y="0">v</tspan><tspan class="cls-8" x="70.433" y="0">elopment of bamboo </tspan><tspan class="cls-10" x="265.667" y="0">w</tspan><tspan class="cls-8" x="281.207" y="0">e</tspan><tspan class="cls-11" x="291.916" y="0">a</tspan><tspan class="cls-12" x="301.849" y="0">ving s</tspan><tspan class="cls-13" x="353.992" y="0">t</tspan><tspan class="cls-12" x="361.236" y="0">yle desi</tspan><tspan class="cls-14" x="427.741" y="0">g</tspan><tspan class="cls-8" x="439.522" y="0">n has hit a bottlenec</tspan><tspan class="cls-15" x="621.673" y="0">k</tspan><tspan class="cls-16" x="631.501" y="0">.</tspan></text><text class="cls-17" transform="translate(91.12 144.144)">M<tspan class="cls-12" x="17.031" y="0">a</tspan><tspan class="cls-18" x="27.09" y="0">n</tspan><tspan class="cls-12" x="38.661" y="0">y people buy the </tspan><tspan class="cls-10" x="194.309" y="0">w</tspan><tspan class="cls-8" x="209.849" y="0">o</tspan><tspan class="cls-19" x="221.546" y="0">r</tspan><tspan class="cls-8" x="228.434" y="0">ks because people with disabilities made it, not because the </tspan><tspan class="cls-20" x="765.939" y="0">w</tspan><tspan class="cls-12" x="781.479" y="0">o</tspan><tspan class="cls-21" x="793.176" y="0">r</tspan><tspan class="cls-12" x="800.063" y="0">ks themsel</tspan><tspan class="cls-22" x="894.226" y="0">v</tspan><tspan class="cls-16" x="904.096" y="0">es a</tspan><tspan class="cls-23" x="938.346" y="0">r</tspan><tspan class="cls-12" x="944.835" y="0">e e</tspan><tspan class="cls-23" x="971.378" y="0">x</tspan><tspan class="cls-12" x="980.681" y="0">quisi</tspan><tspan class="cls-24" x="1022.449" y="0">t</tspan><tspan class="cls-25" x="1029.337" y="0">e</tspan><tspan class="cls-16" x="1039.837" y="0">. </tspan></text><text class="cls-7" transform="translate(0.481 64.058)">T<tspan class="cls-8" x="10.206" y="0">h</tspan><tspan class="cls-26" x="21.987" y="0">r</tspan><tspan class="cls-8" x="28.476" y="0">ough in</tspan><tspan class="cls-27" x="97.397" y="0">t</tspan><tspan class="cls-12" x="104.285" y="0">e</tspan><tspan class="cls-28" x="114.995" y="0">r</tspan><tspan class="cls-12" x="122.345" y="0">vi</tspan><tspan class="cls-29" x="137.276" y="0">e</tspan><tspan class="cls-8" x="148.069" y="0">ws with CHENG Li </tspan><tspan class="cls-30" x="310.963" y="0">(</tspan><tspan class="cls-31" x="318.376" y="0">T</tspan><tspan class="cls-12" x="328.582" y="0">he </tspan><tspan class="cls-32" x="356.197" y="0">F</tspan><tspan class="cls-12" x="365.709" y="0">ounder of </tspan><tspan class="cls-32" x="458.213" y="0">F</tspan><tspan class="cls-12" x="467.726" y="0">odu </tspan><tspan class="cls-33" x="508.172" y="0">X</tspan><tspan class="cls-8" x="520.058" y="0">uan) and her colleague</tspan><tspan class="cls-23" x="724.679" y="0">s</tspan><tspan class="cls-16" x="732.806" y="0">, </tspan><tspan class="cls-22" x="742.108" y="0">w</tspan><tspan class="cls-16" x="757.648" y="0">e so</tspan><tspan class="cls-34" x="793.536" y="0">r</tspan><tspan class="cls-24" x="800.802" y="0">t</tspan><tspan class="cls-12" x="807.689" y="0">ed out the cu</tspan><tspan class="cls-35" x="927.178" y="0">r</tspan><tspan class="cls-36" x="934.045" y="0">r</tspan><tspan class="cls-12" x="940.533" y="0">ent p</tspan><tspan class="cls-23" x="987.278" y="0">r</tspan><tspan class="cls-12" x="993.768" y="0">oblems encoun</tspan><tspan class="cls-24" x="1132.009" y="0">t</tspan><tspan class="cls-12" x="1138.896" y="0">e</tspan><tspan class="cls-23" x="1149.606" y="0">r</tspan><tspan class="cls-16" x="1156.096" y="0">ed </tspan><tspan class="cls-33" x="1183.878" y="0">b</tspan><tspan class="cls-12" x="1195.89" y="0">y </tspan><tspan class="cls-37" x="1210.778" y="0">F</tspan><tspan class="cls-12" x="1220.291" y="0">odu </tspan><tspan class="cls-38" x="1260.736" y="0">X</tspan><tspan class="cls-12" x="1272.623" y="0">uan.</tspan></text><text class="cls-39" transform="translate(63.629 105.201)">1</text><text class="cls-39" transform="translate(63.629 144.201)">2</text></svg>