<svg width="1044" height="342" viewBox="0 0 1044 342" fill="none" xmlns="http://www.w3.org/2000/svg">
<path d="M20.395 21H23.47V6.725H28.32V4.15H15.595V6.725H20.395V21ZM31.5606 21H34.6356V13.7C34.6356 13.375 34.6606 13.05 34.7606 12.775C35.1106 11.85 35.9606 11.05 37.1606 11.05C38.8606 11.05 39.5106 12.4 39.5106 14.15V21H42.5856V13.825C42.5856 9.925 40.4106 8.55 38.3356 8.55C37.5606 8.55 36.8356 8.75 36.2106 9.1C35.5856 9.425 35.0606 9.9 34.6856 10.475H34.6356V3.25H31.5606V21ZM57.8173 15.775C57.8673 15.5 57.9173 15.05 57.9173 14.475C57.9173 11.8 56.6173 8.55 52.6673 8.55C48.7673 8.55 46.7173 11.725 46.7173 15.1C46.7173 18.825 49.0423 21.25 52.9923 21.25C54.7423 21.25 56.1923 20.925 57.2423 20.475L56.7923 18.375C55.8423 18.7 54.8423 18.925 53.4173 18.925C51.4423 18.925 49.7423 17.975 49.6673 15.775H57.8173ZM49.6673 13.625C49.7923 12.375 50.5923 10.65 52.4923 10.65C54.5423 10.65 55.0423 12.5 55.0173 13.625H49.6673ZM71.7587 21V14.975C71.7587 12.2 71.7087 9.975 71.5837 7.8L71.6837 7.775C72.5087 9.675 73.6087 11.725 74.6837 13.575L79.0837 21H82.2837V4.15H79.4337V10.025C79.4337 12.6 79.4837 14.775 79.7087 17.025H79.6587C78.8837 15.2 77.8837 13.25 76.7837 11.375L72.4337 4.15H68.9087V21H71.7587ZM98.2282 8.825H95.1532V16.175C95.1532 16.525 95.1032 16.875 94.9782 17.125C94.6782 17.925 93.8782 18.775 92.6282 18.775C91.0032 18.775 90.3532 17.475 90.3532 15.45V8.825H87.2782V15.975C87.2782 19.95 89.3032 21.275 91.5032 21.275C93.7032 21.275 94.9032 20.025 95.4282 19.175H95.5032L95.6532 21H98.3282C98.2782 20 98.2282 18.8 98.2282 17.35V8.825ZM103.187 21H106.187V13.8C106.187 13.45 106.237 13.1 106.337 12.775C106.637 11.95 107.412 11.05 108.562 11.05C109.987 11.05 110.662 12.25 110.662 13.95V21H113.662V13.7C113.662 13.35 113.712 12.95 113.812 12.675C114.137 11.8 114.912 11.05 115.962 11.05C117.437 11.05 118.137 12.25 118.137 14.275V21H121.137V13.825C121.137 9.925 119.087 8.55 117.087 8.55C116.062 8.55 115.287 8.8 114.587 9.275C114.037 9.625 113.537 10.125 113.112 10.8H113.062C112.537 9.45 111.287 8.55 109.687 8.55C107.612 8.55 106.512 9.675 105.937 10.625H105.862L105.712 8.825H103.087C103.137 9.875 103.187 11.05 103.187 12.45V21ZM126.003 17.575C126.003 18.825 125.953 20.175 125.903 21H128.528L128.678 19.175H128.728C129.603 20.675 131.003 21.275 132.578 21.275C135.328 21.275 138.103 19.1 138.103 14.725C138.128 11.025 136.003 8.55 133.028 8.55C131.203 8.55 129.878 9.325 129.128 10.5H129.078V3.25H126.003V17.575ZM129.078 14C129.078 13.7 129.128 13.425 129.178 13.2C129.503 11.85 130.653 10.95 131.903 10.95C133.953 10.95 134.978 12.7 134.978 14.85C134.978 17.325 133.803 18.85 131.878 18.85C130.553 18.85 129.478 17.95 129.153 16.7C129.103 16.475 129.078 16.225 129.078 15.975V14ZM152.577 15.775C152.627 15.5 152.677 15.05 152.677 14.475C152.677 11.8 151.377 8.55 147.427 8.55C143.527 8.55 141.477 11.725 141.477 15.1C141.477 18.825 143.802 21.25 147.752 21.25C149.502 21.25 150.952 20.925 152.002 20.475L151.552 18.375C150.602 18.7 149.602 18.925 148.177 18.925C146.202 18.925 144.502 17.975 144.427 15.775H152.577ZM144.427 13.625C144.552 12.375 145.352 10.65 147.252 10.65C149.302 10.65 149.802 12.5 149.777 13.625H144.427ZM156.768 21H159.843V14.675C159.843 14.35 159.868 14.025 159.918 13.75C160.193 12.35 161.218 11.425 162.668 11.425C163.043 11.425 163.318 11.45 163.593 11.5V8.625C163.343 8.575 163.168 8.55 162.868 8.55C161.543 8.55 160.118 9.425 159.518 11.125H159.443L159.318 8.825H156.668C156.743 9.9 156.768 11.1 156.768 12.75V21ZM181.38 3.85C176.63 3.85 173.355 7.5 173.355 12.7C173.355 17.625 176.355 21.275 181.13 21.275C185.755 21.275 189.18 18.05 189.18 12.4C189.18 7.575 186.28 3.85 181.38 3.85ZM181.28 6.325C184.355 6.325 185.93 9.325 185.93 12.5C185.93 16.025 184.255 18.8 181.28 18.8C178.33 18.8 176.605 16.075 176.605 12.625C176.605 9.15 178.23 6.325 181.28 6.325ZM197.075 21V11.125H199.7V8.825H197.05V8.2C197.05 6.7 197.55 5.425 199.075 5.425C199.65 5.425 200.05 5.525 200.4 5.65L200.6 3.275C200.125 3.125 199.475 2.975 198.65 2.975C197.575 2.975 196.375 3.3 195.475 4.15C194.425 5.15 194 6.725 194 8.3V8.825H192.35V11.125H194V21H197.075ZM216.655 21L222.48 4.15H219.205L216.755 11.85C216.105 13.9 215.48 15.95 215.03 17.95H214.98C214.555 15.9 213.98 13.95 213.33 11.825L211.03 4.15H207.68L213.13 21H216.655ZM228.308 21V8.825H225.233V21H228.308ZM226.783 3.75C225.758 3.75 225.058 4.475 225.058 5.425C225.058 6.325 225.733 7.075 226.758 7.075C227.833 7.075 228.508 6.325 228.508 5.425C228.483 4.475 227.833 3.75 226.783 3.75ZM232.505 20.4C233.405 20.9 234.73 21.25 236.205 21.25C239.43 21.25 241.155 19.65 241.155 17.425C241.13 15.625 240.13 14.5 237.905 13.725C236.355 13.15 235.78 12.8 235.78 12.025C235.78 11.275 236.38 10.725 237.48 10.725C238.555 10.725 239.555 11.125 240.055 11.425L240.68 9.275C239.955 8.875 238.78 8.55 237.43 8.55C234.605 8.55 232.83 10.2 232.83 12.35C232.83 13.8 233.805 15.1 236.18 15.9C237.68 16.45 238.18 16.85 238.18 17.675C238.18 18.475 237.58 19.05 236.23 19.05C235.13 19.05 233.805 18.575 233.13 18.15L232.505 20.4ZM256.205 8.825H253.13V16.175C253.13 16.525 253.08 16.875 252.955 17.125C252.655 17.925 251.855 18.775 250.605 18.775C248.98 18.775 248.33 17.475 248.33 15.45V8.825H245.255V15.975C245.255 19.95 247.28 21.275 249.48 21.275C251.68 21.275 252.88 20.025 253.405 19.175H253.48L253.63 21H256.305C256.255 20 256.205 18.8 256.205 17.35V8.825ZM270.613 13.7C270.613 11.025 269.488 8.55 265.588 8.55C263.663 8.55 262.088 9.075 261.188 9.625L261.788 11.625C262.613 11.1 263.863 10.725 265.063 10.725C267.213 10.725 267.538 12.05 267.538 12.85V13.05C263.038 13.025 260.313 14.6 260.313 17.65C260.313 19.5 261.688 21.275 264.138 21.275C265.738 21.275 267.013 20.6 267.738 19.65H267.813L268.038 21H270.813C270.663 20.25 270.613 19.175 270.613 18.075V13.7ZM267.613 16.725C267.613 16.95 267.613 17.175 267.538 17.4C267.238 18.275 266.363 19.075 265.113 19.075C264.138 19.075 263.363 18.525 263.363 17.325C263.363 15.475 265.438 15.025 267.613 15.05V16.725ZM275.483 21H278.558V3.25H275.483V21ZM283.529 21H286.604V3.25H283.529V21ZM290.125 8.825L294.6 20C294.725 20.3 294.75 20.475 294.75 20.6C294.75 20.75 294.7 20.925 294.575 21.15C294.15 21.975 293.475 22.7 292.875 23.075C292.25 23.525 291.625 23.8 291.1 23.925L291.8 26.5C292.55 26.4 293.8 26 295.025 24.95C296.45 23.7 297.575 21.675 299.25 17.125L302.3 8.825H299.025L297.125 15.325C296.875 16.1 296.65 17.025 296.475 17.7H296.4C296.225 17.025 295.95 16.1 295.7 15.35L293.525 8.825H290.125ZM312.626 4.15V21H315.701V4.15H312.626ZM320.864 21H323.864V13.8C323.864 13.45 323.914 13.1 324.014 12.775C324.314 11.95 325.089 11.05 326.239 11.05C327.664 11.05 328.339 12.25 328.339 13.95V21H331.339V13.7C331.339 13.35 331.389 12.95 331.489 12.675C331.814 11.8 332.589 11.05 333.639 11.05C335.114 11.05 335.814 12.25 335.814 14.275V21H338.814V13.825C338.814 9.925 336.764 8.55 334.764 8.55C333.739 8.55 332.964 8.8 332.264 9.275C331.714 9.625 331.214 10.125 330.789 10.8H330.739C330.214 9.45 328.964 8.55 327.364 8.55C325.289 8.55 324.189 9.675 323.614 10.625H323.539L323.389 8.825H320.764C320.814 9.875 320.864 11.05 320.864 12.45V21ZM343.681 25.95H346.756V19.65H346.806C347.431 20.625 348.706 21.275 350.231 21.275C353.006 21.275 355.781 19.15 355.781 14.75C355.781 10.95 353.456 8.55 350.656 8.55C348.806 8.55 347.381 9.325 346.481 10.7H346.431L346.281 8.825H343.581C343.631 9.975 343.681 11.275 343.681 12.875V25.95ZM346.756 14.025C346.756 13.775 346.806 13.5 346.856 13.25C347.181 11.9 348.356 10.975 349.631 10.975C351.606 10.975 352.656 12.725 352.656 14.875C352.656 17.275 351.506 18.9 349.556 18.9C348.231 18.9 347.156 18 346.831 16.75C346.781 16.475 346.756 16.2 346.756 15.9V14.025ZM369.38 13.7C369.38 11.025 368.255 8.55 364.355 8.55C362.43 8.55 360.855 9.075 359.955 9.625L360.555 11.625C361.38 11.1 362.63 10.725 363.83 10.725C365.98 10.725 366.305 12.05 366.305 12.85V13.05C361.805 13.025 359.08 14.6 359.08 17.65C359.08 19.5 360.455 21.275 362.905 21.275C364.505 21.275 365.78 20.6 366.505 19.65H366.58L366.805 21H369.58C369.43 20.25 369.38 19.175 369.38 18.075V13.7ZM366.38 16.725C366.38 16.95 366.38 17.175 366.305 17.4C366.005 18.275 365.13 19.075 363.88 19.075C362.905 19.075 362.13 18.525 362.13 17.325C362.13 15.475 364.205 15.025 366.38 15.05V16.725ZM377.325 21V8.825H374.25V21H377.325ZM375.8 3.75C374.775 3.75 374.075 4.475 374.075 5.425C374.075 6.325 374.75 7.075 375.775 7.075C376.85 7.075 377.525 6.325 377.525 5.425C377.5 4.475 376.85 3.75 375.8 3.75ZM382.272 21H385.347V14.675C385.347 14.35 385.372 14.025 385.422 13.75C385.697 12.35 386.722 11.425 388.172 11.425C388.547 11.425 388.822 11.45 389.097 11.5V8.625C388.847 8.575 388.672 8.55 388.372 8.55C387.047 8.55 385.622 9.425 385.022 11.125H384.947L384.822 8.825H382.172C382.247 9.9 382.272 11.1 382.272 12.75V21ZM402.913 15.775C402.963 15.5 403.013 15.05 403.013 14.475C403.013 11.8 401.713 8.55 397.763 8.55C393.863 8.55 391.813 11.725 391.813 15.1C391.813 18.825 394.138 21.25 398.088 21.25C399.838 21.25 401.288 20.925 402.338 20.475L401.888 18.375C400.938 18.7 399.938 18.925 398.513 18.925C396.538 18.925 394.838 17.975 394.763 15.775H402.913ZM394.763 13.625C394.888 12.375 395.688 10.65 397.588 10.65C399.638 10.65 400.138 12.5 400.113 13.625H394.763ZM415.254 3.25V10.125H415.204C414.654 9.225 413.454 8.55 411.779 8.55C408.854 8.55 406.304 10.975 406.329 15.05C406.329 18.8 408.629 21.275 411.554 21.275C413.304 21.275 414.779 20.425 415.504 19.075H415.554L415.704 21H418.429C418.379 20.175 418.329 18.825 418.329 17.575V3.25H415.254ZM415.254 15.725C415.254 16.05 415.229 16.35 415.154 16.625C414.854 17.95 413.754 18.8 412.504 18.8C410.554 18.8 409.454 17.175 409.454 14.925C409.454 12.675 410.554 10.925 412.529 10.925C413.929 10.925 414.904 11.9 415.179 13.075C415.229 13.325 415.254 13.65 415.254 13.9V15.725ZM124.903 51H127.953V44.625C128.378 44.725 128.878 44.75 129.453 44.75C131.628 44.75 133.528 44.15 134.778 42.925C135.703 42.025 136.203 40.725 136.203 39.125C136.203 37.55 135.553 36.225 134.553 35.4C133.478 34.5 131.853 34.025 129.603 34.025C127.553 34.025 126.028 34.175 124.903 34.375V51ZM127.953 36.55C128.278 36.475 128.878 36.4 129.728 36.4C131.853 36.4 133.153 37.375 133.153 39.25C133.153 41.2 131.753 42.35 129.453 42.35C128.828 42.35 128.353 42.325 127.953 42.2V36.55ZM150.058 45.775C150.108 45.5 150.158 45.05 150.158 44.475C150.158 41.8 148.858 38.55 144.908 38.55C141.008 38.55 138.958 41.725 138.958 45.1C138.958 48.825 141.283 51.25 145.233 51.25C146.983 51.25 148.433 50.925 149.483 50.475L149.033 48.375C148.083 48.7 147.083 48.925 145.658 48.925C143.683 48.925 141.983 47.975 141.908 45.775H150.058ZM141.908 43.625C142.033 42.375 142.833 40.65 144.733 40.65C146.783 40.65 147.283 42.5 147.258 43.625H141.908ZM159.774 38.55C156.099 38.55 153.474 41 153.474 45C153.474 48.925 156.149 51.275 159.574 51.275C162.674 51.275 165.824 49.275 165.824 44.8C165.824 41.1 163.399 38.55 159.774 38.55ZM159.699 40.775C161.799 40.775 162.649 42.975 162.649 44.875C162.649 47.35 161.424 49.05 159.674 49.05C157.824 49.05 156.649 47.275 156.649 44.925C156.649 42.9 157.524 40.775 159.699 40.775ZM169.985 55.95H173.06V49.65H173.11C173.735 50.625 175.01 51.275 176.535 51.275C179.31 51.275 182.085 49.15 182.085 44.75C182.085 40.95 179.76 38.55 176.96 38.55C175.11 38.55 173.685 39.325 172.785 40.7H172.735L172.585 38.825H169.885C169.935 39.975 169.985 41.275 169.985 42.875V55.95ZM173.06 44.025C173.06 43.775 173.11 43.5 173.16 43.25C173.485 41.9 174.66 40.975 175.935 40.975C177.91 40.975 178.96 42.725 178.96 44.875C178.96 47.275 177.81 48.9 175.86 48.9C174.535 48.9 173.46 48 173.135 46.75C173.085 46.475 173.06 46.2 173.06 45.9V44.025ZM186.234 51H189.309V33.25H186.234V51ZM204.605 45.775C204.655 45.5 204.705 45.05 204.705 44.475C204.705 41.8 203.405 38.55 199.455 38.55C195.555 38.55 193.505 41.725 193.505 45.1C193.505 48.825 195.83 51.25 199.78 51.25C201.53 51.25 202.98 50.925 204.03 50.475L203.58 48.375C202.63 48.7 201.63 48.925 200.205 48.925C198.23 48.925 196.53 47.975 196.455 45.775H204.605ZM196.455 43.625C196.58 42.375 197.38 40.65 199.28 40.65C201.33 40.65 201.83 42.5 201.805 43.625H196.455ZM215.722 34.15V51H218.797V34.15H215.722ZM223.96 51H227.035V43.825C227.035 43.475 227.085 43.1 227.185 42.85C227.51 41.925 228.36 41.05 229.585 41.05C231.26 41.05 231.91 42.375 231.91 44.125V51H234.985V43.775C234.985 39.925 232.785 38.55 230.66 38.55C228.635 38.55 227.31 39.7 226.76 40.65H226.685L226.535 38.825H223.86C223.91 39.875 223.96 41.05 223.96 42.45V51ZM258.392 48.1C257.567 48.45 256.267 48.7 255.042 48.7C251.317 48.7 249.167 46.35 249.167 42.625C249.167 38.575 251.642 36.425 255.067 36.425C256.442 36.425 257.567 36.725 258.367 37.075L259.017 34.625C258.392 34.3 256.967 33.875 254.942 33.875C249.792 33.875 245.917 37.225 245.917 42.775C245.917 47.925 249.167 51.275 254.517 51.275C256.567 51.275 258.167 50.875 258.892 50.525L258.392 48.1ZM262.942 51H266.017V43.7C266.017 43.375 266.042 43.05 266.142 42.775C266.492 41.85 267.342 41.05 268.542 41.05C270.242 41.05 270.892 42.4 270.892 44.15V51H273.967V43.825C273.967 39.925 271.792 38.55 269.717 38.55C268.942 38.55 268.217 38.75 267.592 39.1C266.967 39.425 266.442 39.9 266.067 40.475H266.017V33.25H262.942V51ZM281.948 51V38.825H278.873V51H281.948ZM280.423 33.75C279.398 33.75 278.698 34.475 278.698 35.425C278.698 36.325 279.373 37.075 280.398 37.075C281.473 37.075 282.148 36.325 282.148 35.425C282.123 34.475 281.473 33.75 280.423 33.75ZM286.895 51H289.97V43.825C289.97 43.475 290.02 43.1 290.12 42.85C290.445 41.925 291.295 41.05 292.52 41.05C294.195 41.05 294.845 42.375 294.845 44.125V51H297.92V43.775C297.92 39.925 295.72 38.55 293.595 38.55C291.57 38.55 290.245 39.7 289.695 40.65H289.62L289.47 38.825H286.795C286.845 39.875 286.895 41.05 286.895 42.45V51ZM312.276 43.7C312.276 41.025 311.151 38.55 307.251 38.55C305.326 38.55 303.751 39.075 302.851 39.625L303.451 41.625C304.276 41.1 305.526 40.725 306.726 40.725C308.876 40.725 309.201 42.05 309.201 42.85V43.05C304.701 43.025 301.976 44.6 301.976 47.65C301.976 49.5 303.351 51.275 305.801 51.275C307.401 51.275 308.676 50.6 309.401 49.65H309.476L309.701 51H312.476C312.326 50.25 312.276 49.175 312.276 48.075V43.7ZM309.276 46.725C309.276 46.95 309.276 47.175 309.201 47.4C308.901 48.275 308.026 49.075 306.776 49.075C305.801 49.075 305.026 48.525 305.026 47.325C305.026 45.475 307.101 45.025 309.276 45.05V46.725Z" fill="black"/>
<line x1="33.75" y1="271.75" x2="33.75" y2="314.25" stroke="#C4C4C4" stroke-width="1.5" stroke-linecap="round" stroke-dasharray="5 5"/>
<line x1="146.75" y1="207.75" x2="146.75" y2="314.25" stroke="#C4C4C4" stroke-width="1.5" stroke-linecap="round" stroke-dasharray="5 5"/>
<line x1="259.75" y1="198.75" x2="259.75" y2="314.25" stroke="#C4C4C4" stroke-width="1.5" stroke-linecap="round" stroke-dasharray="5 5"/>
<line x1="372.75" y1="131.75" x2="372.75" y2="314.25" stroke="#C4C4C4" stroke-width="1.5" stroke-linecap="round" stroke-dasharray="5 5"/>
<line x1="0.75" y1="314.25" x2="423.25" y2="314.25" stroke="#C4C4C4" stroke-width="1.5" stroke-linecap="round"/>
<line x1="32.5014" y1="271.133" x2="145.501" y2="206.133" stroke="#EB6100" stroke-width="2"/>
<line x1="145.921" y1="206.003" x2="258.921" y2="197.003" stroke="#EB6100" stroke-width="2"/>
<line x1="258.49" y1="197.14" x2="371.49" y2="130.14" stroke="#EB6100" stroke-width="2"/>
<circle cx="33" cy="272" r="15" fill="#FF863D" fill-opacity="0.5"/>
<circle cx="33" cy="272" r="9" fill="#EB6100"/>
<circle cx="372" cy="131" r="15" fill="#FF863D" fill-opacity="0.5"/>
<circle cx="372" cy="131" r="9" fill="#EB6100"/>
<circle cx="146" cy="207" r="15" fill="#FF863D" fill-opacity="0.5"/>
<circle cx="146" cy="207" r="9" fill="#EB6100"/>
<circle cx="259" cy="198" r="15" fill="#FF863D" fill-opacity="0.5"/>
<circle cx="259" cy="198" r="9" fill="#EB6100"/>
<path d="M447.283 319V314.74L450.643 308.89H448.558L447.343 311.485C446.998 312.22 446.713 312.85 446.473 313.495H446.443C446.158 312.805 445.903 312.235 445.558 311.485L444.358 308.89H442.243L445.438 314.785V319H447.283ZM457.459 315.865C457.489 315.7 457.519 315.43 457.519 315.085C457.519 313.48 456.739 311.53 454.369 311.53C452.029 311.53 450.799 313.435 450.799 315.46C450.799 317.695 452.194 319.15 454.564 319.15C455.614 319.15 456.484 318.955 457.114 318.685L456.844 317.425C456.274 317.62 455.674 317.755 454.819 317.755C453.634 317.755 452.614 317.185 452.569 315.865H457.459ZM452.569 314.575C452.644 313.825 453.124 312.79 454.264 312.79C455.494 312.79 455.794 313.9 455.779 314.575H452.569ZM465.644 314.62C465.644 313.015 464.969 311.53 462.629 311.53C461.474 311.53 460.529 311.845 459.989 312.175L460.349 313.375C460.844 313.06 461.594 312.835 462.314 312.835C463.604 312.835 463.799 313.63 463.799 314.11V314.23C461.099 314.215 459.464 315.16 459.464 316.99C459.464 318.1 460.289 319.165 461.759 319.165C462.719 319.165 463.484 318.76 463.919 318.19H463.964L464.099 319H465.764C465.674 318.55 465.644 317.905 465.644 317.245V314.62ZM463.844 316.435C463.844 316.57 463.844 316.705 463.799 316.84C463.619 317.365 463.094 317.845 462.344 317.845C461.759 317.845 461.294 317.515 461.294 316.795C461.294 315.685 462.539 315.415 463.844 315.43V316.435ZM468.566 319H470.411V315.205C470.411 315.01 470.426 314.815 470.456 314.65C470.621 313.81 471.236 313.255 472.106 313.255C472.331 313.255 472.496 313.27 472.661 313.3V311.575C472.511 311.545 472.406 311.53 472.226 311.53C471.431 311.53 470.576 312.055 470.216 313.075H470.171L470.096 311.695H468.506C468.551 312.34 468.566 313.06 468.566 314.05V319Z" fill="black"/>
<path d="M424.75 309.371L434.5 315L424.75 320.629L424.75 309.371Z" stroke="#C4C4C4" stroke-width="1.5"/>
<path d="M18.9935 337H20.7785V327.25H19.2485L16.8635 328.42L17.1785 329.815L18.9635 328.915H18.9935V337ZM25.8505 337.15C26.1355 337.165 26.5405 337.165 26.9605 337.12C28.2805 337.03 29.4505 336.565 30.2905 335.785C31.3105 334.81 31.9855 333.325 31.9855 331.24C31.9855 328.855 30.7855 327.085 28.5055 327.085C26.4355 327.085 24.9955 328.69 24.9955 330.565C24.9955 332.365 26.2555 333.58 27.9505 333.58C28.8805 333.58 29.5855 333.265 30.0805 332.725H30.1105C29.9305 333.655 29.4955 334.39 28.8505 334.9C28.3105 335.335 27.6055 335.59 26.8705 335.65C26.4355 335.695 26.1505 335.71 25.8505 335.68V337.15ZM28.4155 328.45C29.6155 328.45 30.1105 329.575 30.1105 330.895C30.1105 331.15 30.0655 331.3 30.0055 331.435C29.7205 331.885 29.1805 332.245 28.4305 332.245C27.4105 332.245 26.8255 331.465 26.8255 330.46C26.8255 329.275 27.4855 328.45 28.4155 328.45ZM35.8275 331.96C34.7025 332.455 33.9975 333.28 33.9975 334.48C33.9975 335.845 35.1825 337.165 37.4625 337.165C39.5475 337.165 41.0175 335.995 41.0175 334.255C41.0175 333.04 40.2225 332.2 39.1575 331.795V331.75C40.2225 331.225 40.6575 330.37 40.6575 329.545C40.6575 328.345 39.7125 327.085 37.5975 327.085C35.7525 327.085 34.3425 328.165 34.3425 329.755C34.3425 330.61 34.8075 331.42 35.8275 331.915V331.96ZM37.5225 335.86C36.4875 335.86 35.8575 335.11 35.8875 334.27C35.8875 333.475 36.4125 332.83 37.3275 332.575C38.4225 332.875 39.1425 333.415 39.1425 334.405C39.1425 335.245 38.4975 335.86 37.5225 335.86ZM37.5075 328.36C38.4975 328.36 38.9025 329.065 38.9025 329.74C38.9025 330.475 38.3625 331.015 37.6875 331.21C36.7575 330.955 36.0975 330.475 36.0975 329.68C36.0975 328.975 36.5775 328.36 37.5075 328.36ZM43.2995 327.25V328.78H47.9045V328.81L43.7945 337H45.7295L49.8545 328.435V327.25H43.2995Z" fill="black"/>
<path d="M135.699 337V335.47H131.709V335.44L132.549 334.705C134.259 333.13 135.489 331.75 135.489 330.04C135.489 328.45 134.439 327.085 132.279 327.085C131.049 327.085 129.984 327.52 129.279 328.09L129.819 329.395C130.314 329.02 131.034 328.585 131.904 328.585C133.179 328.585 133.644 329.35 133.644 330.22C133.629 331.51 132.549 332.68 130.254 334.81L129.099 335.875V337H135.699ZM141.551 327.085C139.271 327.085 137.981 329.11 137.981 332.155C137.996 335.125 139.196 337.165 141.431 337.165C143.771 337.165 145.001 335.2 145.001 332.05C145.001 329.185 143.906 327.085 141.551 327.085ZM141.506 328.495C142.616 328.495 143.141 329.83 143.141 332.095C143.141 334.435 142.586 335.755 141.491 335.755C140.486 335.755 139.841 334.525 139.841 332.14C139.841 329.71 140.531 328.495 141.506 328.495ZM150.568 327.085C148.288 327.085 146.998 329.11 146.998 332.155C147.013 335.125 148.213 337.165 150.448 337.165C152.788 337.165 154.018 335.2 154.018 332.05C154.018 329.185 152.923 327.085 150.568 327.085ZM150.523 328.495C151.633 328.495 152.158 329.83 152.158 332.095C152.158 334.435 151.603 335.755 150.508 335.755C149.503 335.755 148.858 334.525 148.858 332.14C148.858 329.71 149.548 328.495 150.523 328.495ZM162.074 327.115C161.849 327.1 161.549 327.1 161.144 327.16C159.749 327.265 158.564 327.745 157.679 328.6C156.659 329.56 155.984 331.075 155.984 332.95C155.984 335.365 157.289 337.165 159.659 337.165C161.729 337.165 163.094 335.545 163.094 333.685C163.094 331.705 161.789 330.505 160.109 330.505C159.134 330.505 158.399 330.895 157.919 331.45H157.874C158.114 330.1 159.089 328.855 161.144 328.615C161.504 328.57 161.804 328.555 162.074 328.57V327.115ZM159.659 335.785C158.444 335.785 157.844 334.735 157.814 333.445C157.814 333.19 157.859 333.01 157.934 332.86C158.219 332.275 158.834 331.855 159.524 331.855C160.604 331.855 161.219 332.65 161.219 333.79C161.219 334.96 160.604 335.785 159.659 335.785Z" fill="black"/>
<path d="M248.699 337V335.47H244.709V335.44L245.549 334.705C247.259 333.13 248.489 331.75 248.489 330.04C248.489 328.45 247.439 327.085 245.279 327.085C244.049 327.085 242.984 327.52 242.279 328.09L242.819 329.395C243.314 329.02 244.034 328.585 244.904 328.585C246.179 328.585 246.644 329.35 246.644 330.22C246.629 331.51 245.549 332.68 243.254 334.81L242.099 335.875V337H248.699ZM254.551 327.085C252.271 327.085 250.981 329.11 250.981 332.155C250.996 335.125 252.196 337.165 254.431 337.165C256.771 337.165 258.001 335.2 258.001 332.05C258.001 329.185 256.906 327.085 254.551 327.085ZM254.506 328.495C255.616 328.495 256.141 329.83 256.141 332.095C256.141 334.435 255.586 335.755 254.491 335.755C253.486 335.755 252.841 334.525 252.841 332.14C252.841 329.71 253.531 328.495 254.506 328.495ZM263.028 337H264.813V327.25H263.283L260.898 328.42L261.213 329.815L262.998 328.915H263.028V337ZM272.584 327.085C270.304 327.085 269.014 329.11 269.014 332.155C269.029 335.125 270.229 337.165 272.464 337.165C274.804 337.165 276.034 335.2 276.034 332.05C276.034 329.185 274.939 327.085 272.584 327.085ZM272.539 328.495C273.649 328.495 274.174 329.83 274.174 332.095C274.174 334.435 273.619 335.755 272.524 335.755C271.519 335.755 270.874 334.525 270.874 332.14C270.874 329.71 271.564 328.495 272.539 328.495Z" fill="black"/>
<path d="M361.699 337V335.47H357.709V335.44L358.549 334.705C360.259 333.13 361.489 331.75 361.489 330.04C361.489 328.45 360.439 327.085 358.279 327.085C357.049 327.085 355.984 327.52 355.279 328.09L355.819 329.395C356.314 329.02 357.034 328.585 357.904 328.585C359.179 328.585 359.644 329.35 359.644 330.22C359.629 331.51 358.549 332.68 356.254 334.81L355.099 335.875V337H361.699ZM367.551 327.085C365.271 327.085 363.981 329.11 363.981 332.155C363.996 335.125 365.196 337.165 367.431 337.165C369.771 337.165 371.001 335.2 371.001 332.05C371.001 329.185 369.906 327.085 367.551 327.085ZM367.506 328.495C368.616 328.495 369.141 329.83 369.141 332.095C369.141 334.435 368.586 335.755 367.491 335.755C366.486 335.755 365.841 334.525 365.841 332.14C365.841 329.71 366.531 328.495 367.506 328.495ZM376.028 337H377.813V327.25H376.283L373.898 328.42L374.213 329.815L375.998 328.915H376.028V337ZM385.584 327.085C383.304 327.085 382.014 329.11 382.014 332.155C382.029 335.125 383.229 337.165 385.464 337.165C387.804 337.165 389.034 335.2 389.034 332.05C389.034 329.185 387.939 327.085 385.584 327.085ZM385.539 328.495C386.649 328.495 387.174 329.83 387.174 332.095C387.174 334.435 386.619 335.755 385.524 335.755C384.519 335.755 383.874 334.525 383.874 332.14C383.874 329.71 384.564 328.495 385.539 328.495Z" fill="black"/>
<path d="M12.9592 235.25V236.345H17.7292V236.375L13.4992 245H14.8642L19.1092 236.12V235.25H12.9592ZM21.6246 235.25V236.345H26.3946V236.375L22.1646 245H23.5296L27.7746 236.12V235.25H21.6246ZM35.9301 235.25H31.2651L30.6351 239.93C30.9951 239.885 31.4301 239.84 32.0001 239.84C33.9351 239.84 34.7901 240.725 34.7901 241.985C34.8051 243.29 33.7251 244.1 32.4951 244.1C31.5951 244.1 30.8001 243.8 30.3951 243.56L30.0651 244.565C30.5451 244.865 31.4301 245.165 32.4951 245.165C34.6101 245.165 36.1251 243.74 36.1251 241.835C36.1251 240.62 35.4951 239.765 34.7301 239.345C34.1301 238.97 33.3951 238.82 32.6301 238.82C32.2701 238.82 32.0601 238.835 31.8351 238.865L32.2101 236.36H35.9301V235.25ZM42.0455 235.085C40.0655 235.085 38.6405 236.87 38.6405 240.155C38.6705 243.38 39.9755 245.165 41.8805 245.165C44.0255 245.165 45.2705 243.335 45.2705 240.02C45.2705 236.915 44.0855 235.085 42.0455 235.085ZM41.9555 236.105C43.3355 236.105 43.9355 237.68 43.9355 240.08C43.9355 242.57 43.2905 244.145 41.9555 244.145C40.7555 244.145 39.9755 242.705 39.9755 240.17C39.9755 237.515 40.8155 236.105 41.9555 236.105ZM47.9059 245H49.2109V241.145L50.1859 240.035L53.5009 245H55.0459L51.1009 239.18L54.7609 234.89H53.1409L50.0509 238.685C49.7959 239.015 49.5259 239.375 49.2559 239.765H49.2109V234.89H47.9059V245Z" fill="black"/>
<path d="M123.811 180H125.086V170.25H123.961L121.831 171.39L122.086 172.395L123.781 171.48H123.811V180ZM135.837 180V178.905H131.472V178.875L132.237 178.155C134.292 176.175 135.597 174.72 135.597 172.92C135.597 171.525 134.712 170.085 132.612 170.085C131.502 170.085 130.527 170.52 129.867 171.075L130.287 172.005C130.737 171.63 131.472 171.18 132.357 171.18C133.812 171.18 134.277 172.095 134.277 173.085C134.277 174.555 133.137 175.815 130.647 178.185L129.612 179.19V180H135.837ZM138.232 179.505C138.712 179.82 139.672 180.165 140.767 180.165C143.092 180.165 144.322 178.8 144.322 177.24C144.307 175.875 143.347 174.975 142.147 174.75V174.72C143.332 174.285 143.947 173.43 143.947 172.41C143.947 171.225 143.077 170.085 141.157 170.085C140.107 170.085 139.117 170.46 138.592 170.835L138.952 171.795C139.372 171.495 140.122 171.15 140.902 171.15C142.117 171.15 142.612 171.84 142.612 172.62C142.612 173.775 141.397 174.27 140.437 174.27H139.702V175.26H140.437C141.712 175.26 142.942 175.845 142.957 177.21C142.972 178.035 142.432 179.1 140.752 179.1C139.822 179.1 138.967 178.725 138.592 178.5L138.232 179.505ZM146.898 179.505C147.378 179.82 148.338 180.165 149.433 180.165C151.758 180.165 152.988 178.8 152.988 177.24C152.973 175.875 152.013 174.975 150.813 174.75V174.72C151.998 174.285 152.613 173.43 152.613 172.41C152.613 171.225 151.743 170.085 149.823 170.085C148.773 170.085 147.783 170.46 147.258 170.835L147.618 171.795C148.038 171.495 148.788 171.15 149.568 171.15C150.783 171.15 151.278 171.84 151.278 172.62C151.278 173.775 150.063 174.27 149.103 174.27H148.368V175.26H149.103C150.378 175.26 151.608 175.845 151.623 177.21C151.638 178.035 151.098 179.1 149.418 179.1C148.488 179.1 147.633 178.725 147.258 178.5L146.898 179.505ZM158.878 170.085C156.898 170.085 155.473 171.87 155.473 175.155C155.503 178.38 156.808 180.165 158.713 180.165C160.858 180.165 162.103 178.335 162.103 175.02C162.103 171.915 160.918 170.085 158.878 170.085ZM158.788 171.105C160.168 171.105 160.768 172.68 160.768 175.08C160.768 177.57 160.123 179.145 158.788 179.145C157.588 179.145 156.808 177.705 156.808 175.17C156.808 172.515 157.648 171.105 158.788 171.105ZM164.739 180H166.044V176.145L167.019 175.035L170.334 180H171.879L167.934 174.18L171.594 169.89H169.974L166.884 173.685C166.629 174.015 166.359 174.375 166.089 174.765H166.044V169.89H164.739V180Z" fill="black"/>
<path d="M236.811 171H238.086V161.25H236.961L234.831 162.39L235.086 163.395L236.781 162.48H236.811V171ZM248.837 171V169.905H244.472V169.875L245.237 169.155C247.292 167.175 248.597 165.72 248.597 163.92C248.597 162.525 247.712 161.085 245.612 161.085C244.502 161.085 243.527 161.52 242.867 162.075L243.287 163.005C243.737 162.63 244.472 162.18 245.357 162.18C246.812 162.18 247.277 163.095 247.277 164.085C247.277 165.555 246.137 166.815 243.647 169.185L242.612 170.19V171H248.837ZM256.842 161.1C256.602 161.1 256.272 161.115 255.882 161.175C254.652 161.325 253.572 161.82 252.762 162.615C251.787 163.575 251.112 165.09 251.112 167.01C251.112 169.545 252.477 171.165 254.547 171.165C256.587 171.165 257.802 169.515 257.802 167.715C257.802 165.825 256.587 164.565 254.862 164.565C253.782 164.565 252.957 165.075 252.492 165.705H252.462C252.687 164.085 253.767 162.585 255.852 162.255C256.227 162.195 256.572 162.165 256.842 162.18V161.1ZM254.577 170.145C253.182 170.145 252.432 168.945 252.417 167.34C252.417 167.1 252.477 166.92 252.552 166.77C252.912 166.05 253.662 165.57 254.457 165.57C255.672 165.57 256.467 166.41 256.467 167.805C256.467 169.2 255.702 170.145 254.577 170.145ZM259.898 170.505C260.378 170.82 261.338 171.165 262.433 171.165C264.758 171.165 265.988 169.8 265.988 168.24C265.973 166.875 265.013 165.975 263.813 165.75V165.72C264.998 165.285 265.613 164.43 265.613 163.41C265.613 162.225 264.743 161.085 262.823 161.085C261.773 161.085 260.783 161.46 260.258 161.835L260.618 162.795C261.038 162.495 261.788 162.15 262.568 162.15C263.783 162.15 264.278 162.84 264.278 163.62C264.278 164.775 263.063 165.27 262.103 165.27H261.368V166.26H262.103C263.378 166.26 264.608 166.845 264.623 168.21C264.638 169.035 264.098 170.1 262.418 170.1C261.488 170.1 260.633 169.725 260.258 169.5L259.898 170.505ZM271.878 161.085C269.898 161.085 268.473 162.87 268.473 166.155C268.503 169.38 269.808 171.165 271.713 171.165C273.858 171.165 275.103 169.335 275.103 166.02C275.103 162.915 273.918 161.085 271.878 161.085ZM271.788 162.105C273.168 162.105 273.768 163.68 273.768 166.08C273.768 168.57 273.123 170.145 271.788 170.145C270.588 170.145 269.808 168.705 269.808 166.17C269.808 163.515 270.648 162.105 271.788 162.105ZM277.739 171H279.044V167.145L280.019 166.035L283.334 171H284.879L280.934 165.18L284.594 160.89H282.974L279.884 164.685C279.629 165.015 279.359 165.375 279.089 165.765H279.044V160.89H277.739V171Z" fill="black"/>
<path d="M349.811 104H351.086V94.25H349.961L347.831 95.39L348.086 96.395L349.781 95.48H349.811V104ZM355.792 94.25V95.345H360.562V95.375L356.332 104H357.697L361.942 95.12V94.25H355.792ZM364.232 103.505C364.712 103.82 365.672 104.165 366.767 104.165C369.092 104.165 370.322 102.8 370.322 101.24C370.307 99.875 369.347 98.975 368.147 98.75V98.72C369.332 98.285 369.947 97.43 369.947 96.41C369.947 95.225 369.077 94.085 367.157 94.085C366.107 94.085 365.117 94.46 364.592 94.835L364.952 95.795C365.372 95.495 366.122 95.15 366.902 95.15C368.117 95.15 368.612 95.84 368.612 96.62C368.612 97.775 367.397 98.27 366.437 98.27H365.702V99.26H366.437C367.712 99.26 368.942 99.845 368.957 101.21C368.972 102.035 368.432 103.1 366.752 103.1C365.822 103.1 364.967 102.725 364.592 102.5L364.232 103.505ZM375.808 104H377.083V94.25H375.958L373.828 95.39L374.083 96.395L375.778 95.48H375.808V104ZM384.878 94.085C382.898 94.085 381.473 95.87 381.473 99.155C381.503 102.38 382.808 104.165 384.713 104.165C386.858 104.165 388.103 102.335 388.103 99.02C388.103 95.915 386.918 94.085 384.878 94.085ZM384.788 95.105C386.168 95.105 386.768 96.68 386.768 99.08C386.768 101.57 386.123 103.145 384.788 103.145C383.588 103.145 382.808 101.705 382.808 99.17C382.808 96.515 383.648 95.105 384.788 95.105ZM390.739 104H392.044V100.145L393.019 99.035L396.334 104H397.879L393.934 98.18L397.594 93.89H395.974L392.884 97.685C392.629 98.015 392.359 98.375 392.089 98.765H392.044V93.89H390.739V104Z" fill="black"/>
<path d="M71.9078 104H74.1128V94.25H72.2378L69.6428 95.45L70.0178 97.16L71.8778 96.275H71.9078V104ZM79.7331 104.165C80.5581 104.165 81.0981 103.58 81.0981 102.785C81.0831 101.945 80.5431 101.39 79.7631 101.39C78.9681 101.39 78.4131 101.96 78.4131 102.785C78.4131 103.58 78.9681 104.165 79.7331 104.165ZM83.1046 103.49C83.6746 103.835 84.7396 104.165 85.9996 104.165C88.4746 104.165 89.9896 102.905 89.9896 101.195C89.9896 99.905 89.0446 99.02 87.8746 98.81V98.78C89.0746 98.375 89.6596 97.55 89.6596 96.515C89.6596 95.18 88.5046 94.085 86.4346 94.085C85.1596 94.085 84.0046 94.445 83.4196 94.82L83.8846 96.47C84.2746 96.23 85.1146 95.885 85.9096 95.885C86.8846 95.885 87.3496 96.32 87.3496 96.905C87.3496 97.73 86.3896 98.03 85.6246 98.03H84.7246V99.665H85.6546C86.6596 99.665 87.6196 100.1 87.6196 101.075C87.6196 101.795 87.0196 102.365 85.8346 102.365C84.9046 102.365 83.9746 101.99 83.5696 101.765L83.1046 103.49ZM94.9799 94.085C93.2999 94.085 92.2349 95.405 92.2349 97.145C92.2349 98.99 93.4049 100.1 94.8899 100.1C96.2999 100.1 97.5899 99.02 97.5899 96.98C97.5899 95.315 96.6449 94.085 94.9799 94.085ZM94.9049 95.33C95.6249 95.33 95.8949 96.095 95.8949 97.085C95.8949 98.195 95.5799 98.855 94.9349 98.855C94.2749 98.855 93.9149 98.12 93.9299 97.1C93.9299 96.11 94.2299 95.33 94.9049 95.33ZM96.2249 104.165L101.82 94.1H100.605L94.9949 104.165H96.2249ZM102 98.135C100.335 98.135 99.2699 99.455 99.2699 101.195C99.2699 103.025 100.44 104.135 101.91 104.135C103.32 104.135 104.61 103.055 104.61 101.03C104.61 99.365 103.665 98.135 102 98.135ZM101.94 99.38C102.645 99.38 102.915 100.145 102.915 101.135C102.915 102.23 102.6 102.89 101.955 102.89C101.31 102.89 100.95 102.155 100.965 101.135C100.965 100.16 101.265 99.38 101.94 99.38ZM114.435 96.485C112.065 96.485 110.505 98 110.505 100.385C110.505 102.755 112.155 104.165 114.3 104.165C116.265 104.165 118.17 102.935 118.17 100.25C118.17 98.03 116.67 96.485 114.435 96.485ZM114.36 98.12C115.395 98.12 115.815 99.23 115.815 100.31C115.815 101.645 115.26 102.53 114.36 102.53C113.385 102.53 112.86 101.585 112.86 100.325C112.86 99.245 113.28 98.12 114.36 98.12ZM123.108 104V98.345H124.563V96.665H123.093V96.29C123.093 95.57 123.408 94.985 124.158 94.985C124.458 94.985 124.698 95.03 124.893 95.09L124.983 93.335C124.668 93.26 124.278 93.185 123.783 93.185C123.108 93.185 122.328 93.38 121.743 93.92C121.098 94.52 120.828 95.495 120.828 96.38V96.665H119.853V98.345H120.828V104H123.108ZM137.807 101.93C137.342 102.125 136.592 102.26 135.887 102.26C133.862 102.26 132.662 100.985 132.662 98.96C132.662 96.71 134.072 95.615 135.872 95.615C136.697 95.615 137.342 95.795 137.792 95.99L138.272 94.19C137.867 93.965 136.967 93.74 135.782 93.74C132.722 93.74 130.262 95.645 130.262 99.095C130.262 101.975 132.062 104.165 135.557 104.165C136.772 104.165 137.732 103.925 138.137 103.73L137.807 101.93ZM140.504 104H142.784V99.65C142.784 99.485 142.799 99.29 142.859 99.155C143.024 98.735 143.399 98.345 143.999 98.345C144.854 98.345 145.184 99.005 145.184 99.965V104H147.464V99.725C147.464 97.505 146.354 96.5 144.899 96.5C144.479 96.5 144.059 96.605 143.714 96.785C143.354 96.965 143.054 97.22 142.814 97.55H142.784V93.35H140.504V104ZM152.548 104V96.665H150.268V104H152.548ZM151.423 93.485C150.688 93.485 150.208 93.98 150.208 94.625C150.208 95.255 150.673 95.765 151.393 95.765C152.158 95.765 152.623 95.255 152.623 94.625C152.608 93.98 152.158 93.485 151.423 93.485ZM155.359 104H157.639V99.77C157.639 99.56 157.654 99.35 157.714 99.2C157.879 98.78 158.254 98.345 158.884 98.345C159.709 98.345 160.039 98.99 160.039 99.935V104H162.319V99.665C162.319 97.505 161.194 96.5 159.694 96.5C158.464 96.5 157.729 97.205 157.429 97.685H157.384L157.279 96.665H155.299C155.329 97.325 155.359 98.09 155.359 99.005V104ZM171.228 99.665C171.228 97.925 170.463 96.485 168.018 96.485C166.683 96.485 165.678 96.86 165.168 97.145L165.588 98.615C166.068 98.315 166.863 98.06 167.613 98.06C168.738 98.06 168.948 98.615 168.948 99.02V99.11C166.353 99.11 164.643 100.01 164.643 101.915C164.643 103.085 165.528 104.165 167.013 104.165C167.883 104.165 168.633 103.85 169.113 103.265H169.158L169.293 104H171.348C171.258 103.595 171.228 102.92 171.228 102.23V99.665ZM169.023 101.33C169.023 101.465 169.008 101.6 168.978 101.72C168.828 102.185 168.348 102.56 167.793 102.56C167.283 102.56 166.893 102.275 166.893 101.69C166.893 100.82 167.823 100.535 169.023 100.535V101.33ZM173.457 93.62L173.802 97.685H175.137L175.482 93.62H173.457ZM177.479 103.64C178.034 103.94 178.889 104.165 179.849 104.165C181.949 104.165 183.014 103.16 183.014 101.78C182.999 100.715 182.429 99.995 181.034 99.515C180.134 99.2 179.849 99.02 179.849 98.66C179.849 98.3 180.164 98.075 180.719 98.075C181.334 98.075 181.979 98.315 182.309 98.495L182.699 96.92C182.249 96.695 181.499 96.485 180.644 96.485C178.829 96.485 177.659 97.52 177.659 98.9C177.644 99.77 178.229 100.595 179.759 101.105C180.599 101.39 180.824 101.57 180.824 101.96C180.824 102.335 180.539 102.56 179.849 102.56C179.174 102.56 178.304 102.275 177.884 102.02L177.479 103.64ZM189.7 95.3V96.665H188.725V98.345H189.7V101.345C189.7 102.38 189.91 103.085 190.33 103.52C190.705 103.895 191.32 104.15 192.055 104.15C192.685 104.15 193.24 104.06 193.525 103.955L193.51 102.23C193.3 102.275 193.15 102.29 192.835 102.29C192.16 102.29 191.935 101.885 191.935 101V98.345H193.57V96.665H191.935V94.685L189.7 95.3ZM199.304 96.485C196.934 96.485 195.374 98 195.374 100.385C195.374 102.755 197.024 104.165 199.169 104.165C201.134 104.165 203.039 102.935 203.039 100.25C203.039 98.03 201.539 96.485 199.304 96.485ZM199.229 98.12C200.264 98.12 200.684 99.23 200.684 100.31C200.684 101.645 200.129 102.53 199.229 102.53C198.254 102.53 197.729 101.585 197.729 100.325C197.729 99.245 198.149 98.12 199.229 98.12ZM205.742 95.3V96.665H204.767V98.345H205.742V101.345C205.742 102.38 205.952 103.085 206.372 103.52C206.747 103.895 207.362 104.15 208.097 104.15C208.727 104.15 209.282 104.06 209.567 103.955L209.552 102.23C209.342 102.275 209.192 102.29 208.877 102.29C208.202 102.29 207.977 101.885 207.977 101V98.345H209.612V96.665H207.977V94.685L205.742 95.3ZM218.014 99.665C218.014 97.925 217.249 96.485 214.804 96.485C213.469 96.485 212.464 96.86 211.954 97.145L212.374 98.615C212.854 98.315 213.649 98.06 214.399 98.06C215.524 98.06 215.734 98.615 215.734 99.02V99.11C213.139 99.11 211.429 100.01 211.429 101.915C211.429 103.085 212.314 104.165 213.799 104.165C214.669 104.165 215.419 103.85 215.899 103.265H215.944L216.079 104H218.134C218.044 103.595 218.014 102.92 218.014 102.23V99.665ZM215.809 101.33C215.809 101.465 215.794 101.6 215.764 101.72C215.614 102.185 215.134 102.56 214.579 102.56C214.069 102.56 213.679 102.275 213.679 101.69C213.679 100.82 214.609 100.535 215.809 100.535V101.33ZM220.809 104H223.089V93.35H220.809V104ZM13.5109 124.97H15.7909V121.325H15.8209C16.1509 121.805 16.8409 122.165 17.7259 122.165C19.3609 122.165 21.0559 120.905 21.0559 118.235C21.0559 115.895 19.6159 114.5 18.0109 114.5C16.9459 114.5 16.1059 114.92 15.5659 115.685H15.5359L15.4309 114.665H13.4509C13.4809 115.355 13.5109 116.165 13.5109 117.125V124.97ZM15.7909 117.845C15.7909 117.71 15.8059 117.56 15.8359 117.44C15.9859 116.765 16.5559 116.285 17.2009 116.285C18.2209 116.285 18.7459 117.17 18.7459 118.34C18.7459 119.585 18.1609 120.41 17.1709 120.41C16.5109 120.41 15.9859 119.945 15.8359 119.33C15.8059 119.18 15.7909 119.03 15.7909 118.85V117.845ZM27.0047 114.485C24.6347 114.485 23.0747 116 23.0747 118.385C23.0747 120.755 24.7247 122.165 26.8697 122.165C28.8347 122.165 30.7397 120.935 30.7397 118.25C30.7397 116.03 29.2397 114.485 27.0047 114.485ZM26.9297 116.12C27.9647 116.12 28.3847 117.23 28.3847 118.31C28.3847 119.645 27.8297 120.53 26.9297 120.53C25.9547 120.53 25.4297 119.585 25.4297 118.325C25.4297 117.245 25.8497 116.12 26.9297 116.12ZM33.1269 124.97H35.4069V121.325H35.4369C35.7669 121.805 36.4569 122.165 37.3419 122.165C38.9769 122.165 40.6719 120.905 40.6719 118.235C40.6719 115.895 39.2319 114.5 37.6269 114.5C36.5619 114.5 35.7219 114.92 35.1819 115.685H35.1519L35.0469 114.665H33.0669C33.0969 115.355 33.1269 116.165 33.1269 117.125V124.97ZM35.4069 117.845C35.4069 117.71 35.4219 117.56 35.4519 117.44C35.6019 116.765 36.1719 116.285 36.8169 116.285C37.8369 116.285 38.3619 117.17 38.3619 118.34C38.3619 119.585 37.7769 120.41 36.7869 120.41C36.1269 120.41 35.6019 119.945 35.4519 119.33C35.4219 119.18 35.4069 119.03 35.4069 118.85V117.845ZM49.9818 114.665H47.7018V119.03C47.7018 119.225 47.6718 119.39 47.6118 119.525C47.4768 119.885 47.1018 120.32 46.4718 120.32C45.6618 120.32 45.3168 119.675 45.3168 118.61V114.665H43.0368V118.97C43.0368 121.235 44.1168 122.165 45.6168 122.165C46.9368 122.165 47.6268 121.415 47.9118 120.965H47.9568L48.0618 122H50.0418C50.0118 121.385 49.9818 120.605 49.9818 119.645V114.665ZM52.7869 122H55.0669V111.35H52.7869V122ZM63.9977 117.665C63.9977 115.925 63.2327 114.485 60.7877 114.485C59.4527 114.485 58.4477 114.86 57.9377 115.145L58.3577 116.615C58.8377 116.315 59.6327 116.06 60.3827 116.06C61.5077 116.06 61.7177 116.615 61.7177 117.02V117.11C59.1227 117.11 57.4127 118.01 57.4127 119.915C57.4127 121.085 58.2977 122.165 59.7827 122.165C60.6527 122.165 61.4027 121.85 61.8827 121.265H61.9277L62.0627 122H64.1177C64.0277 121.595 63.9977 120.92 63.9977 120.23V117.665ZM61.7927 119.33C61.7927 119.465 61.7777 119.6 61.7477 119.72C61.5977 120.185 61.1177 120.56 60.5627 120.56C60.0527 120.56 59.6627 120.275 59.6627 119.69C59.6627 118.82 60.5927 118.535 61.7927 118.535V119.33ZM66.9904 113.3V114.665H66.0154V116.345H66.9904V119.345C66.9904 120.38 67.2004 121.085 67.6204 121.52C67.9954 121.895 68.6104 122.15 69.3454 122.15C69.9754 122.15 70.5304 122.06 70.8154 121.955L70.8004 120.23C70.5904 120.275 70.4404 120.29 70.1254 120.29C69.4504 120.29 69.2254 119.885 69.2254 119V116.345H70.8604V114.665H69.2254V112.685L66.9904 113.3ZM75.4382 122V114.665H73.1582V122H75.4382ZM74.3132 111.485C73.5782 111.485 73.0982 111.98 73.0982 112.625C73.0982 113.255 73.5632 113.765 74.2832 113.765C75.0482 113.765 75.5132 113.255 75.5132 112.625C75.4982 111.98 75.0482 111.485 74.3132 111.485ZM81.7594 114.485C79.3894 114.485 77.8294 116 77.8294 118.385C77.8294 120.755 79.4794 122.165 81.6244 122.165C83.5894 122.165 85.4944 120.935 85.4944 118.25C85.4944 116.03 83.9944 114.485 81.7594 114.485ZM81.6844 116.12C82.7194 116.12 83.1394 117.23 83.1394 118.31C83.1394 119.645 82.5844 120.53 81.6844 120.53C80.7094 120.53 80.1844 119.585 80.1844 118.325C80.1844 117.245 80.6044 116.12 81.6844 116.12ZM87.8816 122H90.1616V117.77C90.1616 117.56 90.1766 117.35 90.2366 117.2C90.4016 116.78 90.7766 116.345 91.4066 116.345C92.2316 116.345 92.5616 116.99 92.5616 117.935V122H94.8416V117.665C94.8416 115.505 93.7166 114.5 92.2166 114.5C90.9866 114.5 90.2516 115.205 89.9516 115.685H89.9066L89.8016 114.665H87.8216C87.8516 115.325 87.8816 116.09 87.8816 117.005V122ZM103.933 122V114.665H101.653V122H103.933ZM102.808 111.485C102.073 111.485 101.593 111.98 101.593 112.625C101.593 113.255 102.058 113.765 102.778 113.765C103.543 113.765 104.008 113.255 104.008 112.625C103.993 111.98 103.543 111.485 102.808 111.485ZM106.744 122H109.024V117.77C109.024 117.56 109.039 117.35 109.099 117.2C109.264 116.78 109.639 116.345 110.269 116.345C111.094 116.345 111.424 116.99 111.424 117.935V122H113.704V117.665C113.704 115.505 112.579 114.5 111.079 114.5C109.849 114.5 109.114 115.205 108.814 115.685H108.769L108.664 114.665H106.684C106.714 115.325 106.744 116.09 106.744 117.005V122ZM120.83 113.3V114.665H119.855V116.345H120.83V119.345C120.83 120.38 121.04 121.085 121.46 121.52C121.835 121.895 122.45 122.15 123.185 122.15C123.815 122.15 124.37 122.06 124.655 121.955L124.64 120.23C124.43 120.275 124.28 120.29 123.965 120.29C123.29 120.29 123.065 119.885 123.065 119V116.345H124.7V114.665H123.065V112.685L120.83 113.3ZM126.998 122H129.278V117.65C129.278 117.485 129.293 117.29 129.353 117.155C129.518 116.735 129.893 116.345 130.493 116.345C131.348 116.345 131.678 117.005 131.678 117.965V122H133.958V117.725C133.958 115.505 132.848 114.5 131.393 114.5C130.973 114.5 130.553 114.605 130.208 114.785C129.848 114.965 129.548 115.22 129.308 115.55H129.278V111.35H126.998V122ZM143.242 119.06C143.272 118.895 143.317 118.55 143.317 118.16C143.317 116.345 142.417 114.5 140.047 114.5C137.497 114.5 136.342 116.555 136.342 118.415C136.342 120.71 137.767 122.15 140.257 122.15C141.247 122.15 142.162 122 142.912 121.685L142.612 120.14C141.997 120.35 141.367 120.455 140.587 120.455C139.522 120.455 138.577 120.005 138.517 119.06H143.242ZM138.502 117.5C138.562 116.9 138.952 116.015 139.912 116.015C140.962 116.015 141.202 116.945 141.202 117.5H138.502ZM149.249 121.64C149.804 121.94 150.659 122.165 151.619 122.165C153.719 122.165 154.784 121.16 154.784 119.78C154.769 118.715 154.199 117.995 152.804 117.515C151.904 117.2 151.619 117.02 151.619 116.66C151.619 116.3 151.934 116.075 152.489 116.075C153.104 116.075 153.749 116.315 154.079 116.495L154.469 114.92C154.019 114.695 153.269 114.485 152.414 114.485C150.599 114.485 149.429 115.52 149.429 116.9C149.414 117.77 149.999 118.595 151.529 119.105C152.369 119.39 152.594 119.57 152.594 119.96C152.594 120.335 152.309 120.56 151.619 120.56C150.944 120.56 150.074 120.275 149.654 120.02L149.249 121.64ZM163.253 117.665C163.253 115.925 162.488 114.485 160.043 114.485C158.708 114.485 157.703 114.86 157.193 115.145L157.613 116.615C158.093 116.315 158.888 116.06 159.638 116.06C160.763 116.06 160.973 116.615 160.973 117.02V117.11C158.378 117.11 156.668 118.01 156.668 119.915C156.668 121.085 157.553 122.165 159.038 122.165C159.908 122.165 160.658 121.85 161.138 121.265H161.183L161.318 122H163.373C163.283 121.595 163.253 120.92 163.253 120.23V117.665ZM161.048 119.33C161.048 119.465 161.033 119.6 161.003 119.72C160.853 120.185 160.373 120.56 159.818 120.56C159.308 120.56 158.918 120.275 158.918 119.69C158.918 118.82 159.848 118.535 161.048 118.535V119.33ZM166.048 122H168.268V117.725C168.268 117.53 168.283 117.32 168.358 117.14C168.493 116.78 168.838 116.33 169.423 116.33C170.158 116.33 170.488 116.96 170.488 117.875V122H172.708V117.71C172.708 117.515 172.738 117.29 172.783 117.125C172.948 116.69 173.308 116.33 173.848 116.33C174.583 116.33 174.928 116.945 174.928 118.01V122H177.148V117.68C177.148 115.475 176.083 114.485 174.673 114.485C174.133 114.485 173.683 114.62 173.278 114.845C172.918 115.055 172.603 115.355 172.318 115.745H172.288C171.973 114.98 171.238 114.485 170.278 114.485C169.033 114.485 168.373 115.175 168.058 115.655H168.013L167.923 114.665H165.988C166.018 115.325 166.048 116.09 166.048 117.005V122ZM186.408 119.06C186.438 118.895 186.483 118.55 186.483 118.16C186.483 116.345 185.583 114.5 183.213 114.5C180.663 114.5 179.508 116.555 179.508 118.415C179.508 120.71 180.933 122.15 183.423 122.15C184.413 122.15 185.328 122 186.078 121.685L185.778 120.14C185.163 120.35 184.533 120.455 183.753 120.455C182.688 120.455 181.743 120.005 181.683 119.06H186.408ZM181.668 117.5C181.728 116.9 182.118 116.015 183.078 116.015C184.128 116.015 184.368 116.945 184.368 117.5H181.668ZM192.01 114.665L194.71 121.385C194.785 121.565 194.8 121.67 194.8 121.76C194.8 121.85 194.755 121.97 194.68 122.09C194.47 122.45 194.08 122.825 193.735 123.005C193.39 123.2 193.03 123.335 192.745 123.395L193.24 125.315C193.81 125.255 194.65 125 195.43 124.31C196.255 123.575 196.96 122.42 198.01 119.495L199.72 114.665H197.29L196.375 118.265C196.27 118.7 196.15 119.24 196.06 119.645H196C195.91 119.255 195.76 118.7 195.64 118.28L194.545 114.665H192.01ZM207.922 119.06C207.952 118.895 207.997 118.55 207.997 118.16C207.997 116.345 207.097 114.5 204.727 114.5C202.177 114.5 201.022 116.555 201.022 118.415C201.022 120.71 202.447 122.15 204.937 122.15C205.927 122.15 206.842 122 207.592 121.685L207.292 120.14C206.677 120.35 206.047 120.455 205.267 120.455C204.202 120.455 203.257 120.005 203.197 119.06H207.922ZM203.182 117.5C203.242 116.9 203.632 116.015 204.592 116.015C205.642 116.015 205.882 116.945 205.882 117.5H203.182ZM216.447 117.665C216.447 115.925 215.682 114.485 213.237 114.485C211.902 114.485 210.897 114.86 210.387 115.145L210.807 116.615C211.287 116.315 212.082 116.06 212.832 116.06C213.957 116.06 214.167 116.615 214.167 117.02V117.11C211.572 117.11 209.862 118.01 209.862 119.915C209.862 121.085 210.747 122.165 212.232 122.165C213.102 122.165 213.852 121.85 214.332 121.265H214.377L214.512 122H216.567C216.477 121.595 216.447 120.92 216.447 120.23V117.665ZM214.242 119.33C214.242 119.465 214.227 119.6 214.197 119.72C214.047 120.185 213.567 120.56 213.012 120.56C212.502 120.56 212.112 120.275 212.112 119.69C212.112 118.82 213.042 118.535 214.242 118.535V119.33ZM219.242 122H221.522V118.28C221.522 118.1 221.537 117.92 221.567 117.77C221.717 117.065 222.287 116.615 223.127 116.615C223.382 116.615 223.562 116.645 223.742 116.675V114.53C223.577 114.5 223.472 114.485 223.262 114.485C222.542 114.485 221.657 114.935 221.282 116.015H221.222L221.132 114.665H219.182C219.227 115.295 219.242 116 219.242 117.08V122Z" fill="#FF863D"/>
<line x1="233" y1="99.25" x2="339" y2="99.25" stroke="#FF863D" stroke-width="1.5"/>
<path d="M553.163 58.2379H562.42C563.955 58.2379 565.211 56.9819 565.211 55.4469V40.1436H566.792C568.328 40.1436 569.583 38.8872 569.583 37.3526V20.0947C569.583 18.5596 568.328 17.3037 566.792 17.3037H548.791C547.256 17.3037 546 18.5596 546 20.0947V37.3526C546 38.8872 547.256 40.1436 548.791 40.1436H550.373V55.4469C550.373 56.9819 551.582 58.2379 553.163 58.2379Z" fill="black" fill-opacity="0.1"/>
<path d="M557.769 14.6061C561.802 14.6061 565.072 11.3364 565.072 7.30303C565.072 3.26968 561.802 0 557.769 0C553.735 0 550.466 3.26968 550.466 7.30303C550.466 11.3364 553.735 14.6061 557.769 14.6061Z" fill="black" fill-opacity="0.1"/>
<path d="M553.163 127.911H562.42C563.955 127.911 565.211 126.655 565.211 125.12V109.817H566.792C568.328 109.817 569.583 108.56 569.583 107.026V89.7678C569.583 88.2327 568.328 86.9768 566.792 86.9768H548.791C547.256 86.9768 546 88.2327 546 89.7678V107.026C546 108.56 547.256 109.817 548.791 109.817H550.373V125.12C550.373 126.655 551.582 127.911 553.163 127.911Z" fill="black" fill-opacity="0.1"/>
<path d="M557.769 84.2789C561.802 84.2789 565.072 81.0092 565.072 76.9759C565.072 72.9425 561.802 69.6729 557.769 69.6729C553.735 69.6729 550.466 72.9425 550.466 76.9759C550.466 81.0092 553.735 84.2789 557.769 84.2789Z" fill="black" fill-opacity="0.1"/>
<path d="M553.163 197.584H562.42C563.955 197.584 565.211 196.328 565.211 194.793V179.49H566.792C568.328 179.49 569.583 178.233 569.583 176.699V159.441C569.583 157.906 568.328 156.65 566.792 156.65H548.791C547.256 156.65 546 157.906 546 159.441V176.699C546 178.233 547.256 179.49 548.791 179.49H550.373V194.793C550.373 196.328 551.582 197.584 553.163 197.584Z" fill="black" fill-opacity="0.1"/>
<path d="M557.769 153.952C561.802 153.952 565.072 150.682 565.072 146.649C565.072 142.616 561.802 139.346 557.769 139.346C553.735 139.346 550.466 142.616 550.466 146.649C550.466 150.682 553.735 153.952 557.769 153.952Z" fill="black" fill-opacity="0.1"/>
<path d="M553.163 267.257H562.42C563.955 267.257 565.211 266.001 565.211 264.466V249.162H566.792C568.328 249.162 569.583 247.906 569.583 246.371V229.113C569.583 227.578 568.328 226.323 566.792 226.323H548.791C547.256 226.323 546 227.578 546 229.113V246.371C546 247.906 547.256 249.162 548.791 249.162H550.373V264.466C550.373 266.001 551.582 267.257 553.163 267.257Z" fill="black" fill-opacity="0.1"/>
<path d="M557.769 223.625C561.802 223.625 565.072 220.355 565.072 216.322C565.072 212.288 561.802 209.019 557.769 209.019C553.735 209.019 550.466 212.288 550.466 216.322C550.466 220.355 553.735 223.625 557.769 223.625Z" fill="black" fill-opacity="0.1"/>
<path d="M553.163 336.93H562.42C563.955 336.93 565.211 335.674 565.211 334.139V318.835H566.792C568.328 318.835 569.583 317.579 569.583 316.044V298.786C569.583 297.251 568.328 295.995 566.792 295.995H548.791C547.256 295.995 546 297.251 546 298.786V316.044C546 317.579 547.256 318.835 548.791 318.835H550.373V334.139C550.373 335.674 551.582 336.93 553.163 336.93Z" fill="black" fill-opacity="0.1"/>
<path d="M557.769 293.298C561.802 293.298 565.072 290.028 565.072 285.995C565.072 281.961 561.802 278.692 557.769 278.692C553.735 278.692 550.466 281.961 550.466 285.995C550.466 290.028 553.735 293.298 557.769 293.298Z" fill="black" fill-opacity="0.1"/>
<path d="M588.219 58.2379H597.476C599.011 58.2379 600.267 56.9819 600.267 55.4469V40.1436H601.848C603.383 40.1436 604.639 38.8872 604.639 37.3526V20.0947C604.639 18.5596 603.383 17.3037 601.848 17.3037H583.847C582.311 17.3037 581.056 18.5596 581.056 20.0947V37.3526C581.056 38.8872 582.311 40.1436 583.847 40.1436H585.428V55.4469C585.428 56.9819 586.637 58.2379 588.219 58.2379Z" fill="black" fill-opacity="0.1"/>
<path d="M592.824 14.6061C596.857 14.6061 600.127 11.3364 600.127 7.30303C600.127 3.26968 596.857 0 592.824 0C588.791 0 585.521 3.26968 585.521 7.30303C585.521 11.3364 588.791 14.6061 592.824 14.6061Z" fill="black" fill-opacity="0.1"/>
<path d="M588.219 127.911H597.476C599.011 127.911 600.267 126.655 600.267 125.12V109.817H601.848C603.383 109.817 604.639 108.56 604.639 107.026V89.7678C604.639 88.2327 603.383 86.9768 601.848 86.9768H583.847C582.311 86.9768 581.056 88.2327 581.056 89.7678V107.026C581.056 108.56 582.311 109.817 583.847 109.817H585.428V125.12C585.428 126.655 586.637 127.911 588.219 127.911Z" fill="black" fill-opacity="0.1"/>
<path d="M592.824 84.2789C596.857 84.2789 600.127 81.0092 600.127 76.9759C600.127 72.9425 596.857 69.6729 592.824 69.6729C588.791 69.6729 585.521 72.9425 585.521 76.9759C585.521 81.0092 588.791 84.2789 592.824 84.2789Z" fill="black" fill-opacity="0.1"/>
<path d="M588.219 197.584H597.476C599.011 197.584 600.267 196.328 600.267 194.793V179.49H601.848C603.383 179.49 604.639 178.233 604.639 176.699V159.441C604.639 157.906 603.383 156.65 601.848 156.65H583.847C582.311 156.65 581.056 157.906 581.056 159.441V176.699C581.056 178.233 582.311 179.49 583.847 179.49H585.428V194.793C585.428 196.328 586.637 197.584 588.219 197.584Z" fill="black" fill-opacity="0.1"/>
<path d="M592.824 153.952C596.857 153.952 600.127 150.682 600.127 146.649C600.127 142.616 596.857 139.346 592.824 139.346C588.791 139.346 585.521 142.616 585.521 146.649C585.521 150.682 588.791 153.952 592.824 153.952Z" fill="black" fill-opacity="0.1"/>
<path d="M588.219 267.257H597.476C599.011 267.257 600.267 266.001 600.267 264.466V249.162H601.848C603.383 249.162 604.639 247.906 604.639 246.371V229.113C604.639 227.578 603.383 226.323 601.848 226.323H583.847C582.311 226.323 581.056 227.578 581.056 229.113V246.371C581.056 247.906 582.311 249.162 583.847 249.162H585.428V264.466C585.428 266.001 586.637 267.257 588.219 267.257Z" fill="black" fill-opacity="0.1"/>
<path d="M592.824 223.625C596.857 223.625 600.127 220.355 600.127 216.322C600.127 212.288 596.857 209.019 592.824 209.019C588.791 209.019 585.521 212.288 585.521 216.322C585.521 220.355 588.791 223.625 592.824 223.625Z" fill="black" fill-opacity="0.1"/>
<path d="M588.219 336.93H597.476C599.011 336.93 600.267 335.674 600.267 334.139V318.835H601.848C603.383 318.835 604.639 317.579 604.639 316.044V298.786C604.639 297.251 603.383 295.995 601.848 295.995H583.847C582.311 295.995 581.056 297.251 581.056 298.786V316.044C581.056 317.579 582.311 318.835 583.847 318.835H585.428V334.139C585.428 335.674 586.637 336.93 588.219 336.93Z" fill="black" fill-opacity="0.1"/>
<path d="M592.824 293.298C596.857 293.298 600.127 290.028 600.127 285.995C600.127 281.961 596.857 278.692 592.824 278.692C588.791 278.692 585.521 281.961 585.521 285.995C585.521 290.028 588.791 293.298 592.824 293.298Z" fill="black" fill-opacity="0.1"/>
<path d="M623.275 58.2379H632.531C634.066 58.2379 635.322 56.9819 635.322 55.4469V40.1436H636.903C638.439 40.1436 639.694 38.8872 639.694 37.3526V20.0947C639.694 18.5596 638.439 17.3037 636.903 17.3037H618.902C617.367 17.3037 616.111 18.5596 616.111 20.0947V37.3526C616.111 38.8872 617.367 40.1436 618.902 40.1436H620.484V55.4469C620.484 56.9819 621.693 58.2379 623.275 58.2379Z" fill="black" fill-opacity="0.1"/>
<path d="M627.88 14.6061C631.913 14.6061 635.183 11.3364 635.183 7.30303C635.183 3.26968 631.913 0 627.88 0C623.846 0 620.577 3.26968 620.577 7.30303C620.577 11.3364 623.846 14.6061 627.88 14.6061Z" fill="black" fill-opacity="0.1"/>
<path d="M623.275 127.911H632.531C634.066 127.911 635.322 126.655 635.322 125.12V109.817H636.903C638.439 109.817 639.694 108.56 639.694 107.026V89.7678C639.694 88.2327 638.439 86.9768 636.903 86.9768H618.902C617.367 86.9768 616.111 88.2327 616.111 89.7678V107.026C616.111 108.56 617.367 109.817 618.902 109.817H620.484V125.12C620.484 126.655 621.693 127.911 623.275 127.911Z" fill="black" fill-opacity="0.1"/>
<path d="M627.88 84.2789C631.913 84.2789 635.183 81.0092 635.183 76.9759C635.183 72.9425 631.913 69.6729 627.88 69.6729C623.846 69.6729 620.577 72.9425 620.577 76.9759C620.577 81.0092 623.846 84.2789 627.88 84.2789Z" fill="black" fill-opacity="0.1"/>
<path d="M623.275 197.584H632.531C634.066 197.584 635.322 196.328 635.322 194.793V179.49H636.903C638.439 179.49 639.694 178.233 639.694 176.699V159.441C639.694 157.906 638.439 156.65 636.903 156.65H618.902C617.367 156.65 616.111 157.906 616.111 159.441V176.699C616.111 178.233 617.367 179.49 618.902 179.49H620.484V194.793C620.484 196.328 621.693 197.584 623.275 197.584Z" fill="black" fill-opacity="0.1"/>
<path d="M627.88 153.952C631.913 153.952 635.183 150.682 635.183 146.649C635.183 142.616 631.913 139.346 627.88 139.346C623.846 139.346 620.577 142.616 620.577 146.649C620.577 150.682 623.846 153.952 627.88 153.952Z" fill="black" fill-opacity="0.1"/>
<path d="M623.275 267.257H632.531C634.066 267.257 635.322 266.001 635.322 264.466V249.162H636.903C638.439 249.162 639.694 247.906 639.694 246.371V229.113C639.694 227.578 638.439 226.323 636.903 226.323H618.902C617.367 226.323 616.111 227.578 616.111 229.113V246.371C616.111 247.906 617.367 249.162 618.902 249.162H620.484V264.466C620.484 266.001 621.693 267.257 623.275 267.257Z" fill="black" fill-opacity="0.1"/>
<path d="M627.88 223.625C631.913 223.625 635.183 220.355 635.183 216.322C635.183 212.288 631.913 209.019 627.88 209.019C623.846 209.019 620.577 212.288 620.577 216.322C620.577 220.355 623.846 223.625 627.88 223.625Z" fill="black" fill-opacity="0.1"/>
<path d="M623.275 336.93H632.531C634.066 336.93 635.322 335.674 635.322 334.139V318.835H636.903C638.439 318.835 639.694 317.579 639.694 316.044V298.786C639.694 297.251 638.439 295.995 636.903 295.995H618.902C617.367 295.995 616.111 297.251 616.111 298.786V316.044C616.111 317.579 617.367 318.835 618.902 318.835H620.484V334.139C620.484 335.674 621.693 336.93 623.275 336.93Z" fill="black" fill-opacity="0.1"/>
<path d="M627.88 293.298C631.913 293.298 635.183 290.028 635.183 285.995C635.183 281.961 631.913 278.692 627.88 278.692C623.846 278.692 620.577 281.961 620.577 285.995C620.577 290.028 623.846 293.298 627.88 293.298Z" fill="black" fill-opacity="0.1"/>
<path d="M658.33 58.2379H667.587C669.122 58.2379 670.378 56.9819 670.378 55.4469V40.1436H671.959C673.494 40.1436 674.75 38.8872 674.75 37.3526V20.0947C674.75 18.5596 673.494 17.3037 671.959 17.3037H653.958C652.423 17.3037 651.167 18.5596 651.167 20.0947V37.3526C651.167 38.8872 652.423 40.1436 653.958 40.1436H655.539V55.4469C655.539 56.9819 656.749 58.2379 658.33 58.2379Z" fill="black" fill-opacity="0.1"/>
<path d="M662.935 14.6061C666.969 14.6061 670.238 11.3364 670.238 7.30303C670.238 3.26968 666.969 0 662.935 0C658.902 0 655.632 3.26968 655.632 7.30303C655.632 11.3364 658.902 14.6061 662.935 14.6061Z" fill="black" fill-opacity="0.1"/>
<path d="M658.33 127.911H667.587C669.122 127.911 670.378 126.655 670.378 125.12V109.817H671.959C673.494 109.817 674.75 108.56 674.75 107.026V89.7678C674.75 88.2327 673.494 86.9768 671.959 86.9768H653.958C652.423 86.9768 651.167 88.2327 651.167 89.7678V107.026C651.167 108.56 652.423 109.817 653.958 109.817H655.539V125.12C655.539 126.655 656.749 127.911 658.33 127.911Z" fill="black" fill-opacity="0.1"/>
<path d="M662.935 84.2789C666.969 84.2789 670.238 81.0092 670.238 76.9759C670.238 72.9425 666.969 69.6729 662.935 69.6729C658.902 69.6729 655.632 72.9425 655.632 76.9759C655.632 81.0092 658.902 84.2789 662.935 84.2789Z" fill="black" fill-opacity="0.1"/>
<path d="M658.33 197.584H667.587C669.122 197.584 670.378 196.328 670.378 194.793V179.49H671.959C673.494 179.49 674.75 178.233 674.75 176.699V159.441C674.75 157.906 673.494 156.65 671.959 156.65H653.958C652.423 156.65 651.167 157.906 651.167 159.441V176.699C651.167 178.233 652.423 179.49 653.958 179.49H655.539V194.793C655.539 196.328 656.749 197.584 658.33 197.584Z" fill="black" fill-opacity="0.1"/>
<path d="M662.935 153.952C666.969 153.952 670.238 150.682 670.238 146.649C670.238 142.616 666.969 139.346 662.935 139.346C658.902 139.346 655.632 142.616 655.632 146.649C655.632 150.682 658.902 153.952 662.935 153.952Z" fill="black" fill-opacity="0.1"/>
<path d="M658.33 267.257H667.587C669.122 267.257 670.378 266.001 670.378 264.466V249.162H671.959C673.494 249.162 674.75 247.906 674.75 246.371V229.113C674.75 227.578 673.494 226.323 671.959 226.323H653.958C652.423 226.323 651.167 227.578 651.167 229.113V246.371C651.167 247.906 652.423 249.162 653.958 249.162H655.539V264.466C655.539 266.001 656.749 267.257 658.33 267.257Z" fill="black" fill-opacity="0.1"/>
<path d="M662.935 223.625C666.969 223.625 670.238 220.355 670.238 216.322C670.238 212.288 666.969 209.019 662.935 209.019C658.902 209.019 655.632 212.288 655.632 216.322C655.632 220.355 658.902 223.625 662.935 223.625Z" fill="black" fill-opacity="0.1"/>
<path d="M658.33 336.93H667.587C669.122 336.93 670.378 335.674 670.378 334.139V318.835H671.959C673.494 318.835 674.75 317.579 674.75 316.044V298.786C674.75 297.251 673.494 295.995 671.959 295.995H653.958C652.423 295.995 651.167 297.251 651.167 298.786V316.044C651.167 317.579 652.423 318.835 653.958 318.835H655.539V334.139C655.539 335.674 656.749 336.93 658.33 336.93Z" fill="black" fill-opacity="0.1"/>
<path d="M662.935 293.298C666.969 293.298 670.238 290.028 670.238 285.995C670.238 281.961 666.969 278.692 662.935 278.692C658.902 278.692 655.632 281.961 655.632 285.995C655.632 290.028 658.902 293.298 662.935 293.298Z" fill="black" fill-opacity="0.1"/>
<path d="M763.497 58.2379H772.753C774.288 58.2379 775.544 56.9819 775.544 55.4469V40.1436H777.125C778.661 40.1436 779.916 38.8872 779.916 37.3526V20.0947C779.916 18.5596 778.661 17.3037 777.125 17.3037H759.124C757.589 17.3037 756.333 18.5596 756.333 20.0947V37.3526C756.333 38.8872 757.589 40.1436 759.124 40.1436H760.706V55.4469C760.706 56.9819 761.915 58.2379 763.497 58.2379Z" fill="black" fill-opacity="0.1"/>
<path d="M768.102 14.6061C772.135 14.6061 775.405 11.3364 775.405 7.30303C775.405 3.26968 772.135 0 768.102 0C764.068 0 760.799 3.26968 760.799 7.30303C760.799 11.3364 764.068 14.6061 768.102 14.6061Z" fill="black" fill-opacity="0.1"/>
<path d="M763.497 127.911H772.753C774.288 127.911 775.544 126.655 775.544 125.12V109.817H777.125C778.661 109.817 779.916 108.56 779.916 107.026V89.7678C779.916 88.2327 778.661 86.9768 777.125 86.9768H759.124C757.589 86.9768 756.333 88.2327 756.333 89.7678V107.026C756.333 108.56 757.589 109.817 759.124 109.817H760.706V125.12C760.706 126.655 761.915 127.911 763.497 127.911Z" fill="black" fill-opacity="0.1"/>
<path d="M768.102 84.2789C772.135 84.2789 775.405 81.0092 775.405 76.9759C775.405 72.9425 772.135 69.6729 768.102 69.6729C764.068 69.6729 760.799 72.9425 760.799 76.9759C760.799 81.0092 764.068 84.2789 768.102 84.2789Z" fill="black" fill-opacity="0.1"/>
<path d="M763.497 197.584H772.753C774.288 197.584 775.544 196.328 775.544 194.793V179.49H777.125C778.661 179.49 779.916 178.233 779.916 176.699V159.441C779.916 157.906 778.661 156.65 777.125 156.65H759.124C757.589 156.65 756.333 157.906 756.333 159.441V176.699C756.333 178.233 757.589 179.49 759.124 179.49H760.706V194.793C760.706 196.328 761.915 197.584 763.497 197.584Z" fill="black" fill-opacity="0.1"/>
<path d="M768.102 153.952C772.135 153.952 775.405 150.682 775.405 146.649C775.405 142.616 772.135 139.346 768.102 139.346C764.068 139.346 760.799 142.616 760.799 146.649C760.799 150.682 764.068 153.952 768.102 153.952Z" fill="black" fill-opacity="0.1"/>
<path d="M763.497 267.257H772.753C774.288 267.257 775.544 266.001 775.544 264.466V249.162H777.125C778.661 249.162 779.916 247.906 779.916 246.371V229.113C779.916 227.578 778.661 226.323 777.125 226.323H759.124C757.589 226.323 756.333 227.578 756.333 229.113V246.371C756.333 247.906 757.589 249.162 759.124 249.162H760.706V264.466C760.706 266.001 761.915 267.257 763.497 267.257Z" fill="black" fill-opacity="0.1"/>
<path d="M768.102 223.625C772.135 223.625 775.405 220.355 775.405 216.322C775.405 212.288 772.135 209.019 768.102 209.019C764.068 209.019 760.799 212.288 760.799 216.322C760.799 220.355 764.068 223.625 768.102 223.625Z" fill="black" fill-opacity="0.1"/>
<path d="M763.497 336.93H772.753C774.288 336.93 775.544 335.674 775.544 334.139V318.835H777.125C778.661 318.835 779.916 317.579 779.916 316.044V298.786C779.916 297.251 778.661 295.995 777.125 295.995H759.124C757.589 295.995 756.333 297.251 756.333 298.786V316.044C756.333 317.579 757.589 318.835 759.124 318.835H760.706V334.139C760.706 335.674 761.915 336.93 763.497 336.93Z" fill="black" fill-opacity="0.1"/>
<path d="M768.102 293.298C772.135 293.298 775.405 290.028 775.405 285.995C775.405 281.961 772.135 278.692 768.102 278.692C764.068 278.692 760.799 281.961 760.799 285.995C760.799 290.028 764.068 293.298 768.102 293.298Z" fill="black" fill-opacity="0.1"/>
<path d="M938.774 58.2379H948.031C949.566 58.2379 950.822 56.9819 950.822 55.4469V40.1436H952.403C953.939 40.1436 955.194 38.8872 955.194 37.3526V20.0947C955.194 18.5596 953.939 17.3037 952.403 17.3037H934.402C932.867 17.3037 931.611 18.5596 931.611 20.0947V37.3526C931.611 38.8872 932.867 40.1436 934.402 40.1436H935.983V55.4469C935.983 56.9819 937.193 58.2379 938.774 58.2379Z" fill="black" fill-opacity="0.1"/>
<path d="M943.379 14.6061C947.413 14.6061 950.682 11.3364 950.682 7.30303C950.682 3.26968 947.413 0 943.379 0C939.346 0 936.076 3.26968 936.076 7.30303C936.076 11.3364 939.346 14.6061 943.379 14.6061Z" fill="black" fill-opacity="0.1"/>
<path d="M938.774 127.911H948.031C949.566 127.911 950.822 126.655 950.822 125.12V109.817H952.403C953.939 109.817 955.194 108.56 955.194 107.026V89.7678C955.194 88.2327 953.939 86.9768 952.403 86.9768H934.402C932.867 86.9768 931.611 88.2327 931.611 89.7678V107.026C931.611 108.56 932.867 109.817 934.402 109.817H935.983V125.12C935.983 126.655 937.193 127.911 938.774 127.911Z" fill="black" fill-opacity="0.1"/>
<path d="M943.379 84.2789C947.413 84.2789 950.682 81.0092 950.682 76.9759C950.682 72.9425 947.413 69.6729 943.379 69.6729C939.346 69.6729 936.076 72.9425 936.076 76.9759C936.076 81.0092 939.346 84.2789 943.379 84.2789Z" fill="black" fill-opacity="0.1"/>
<path d="M938.774 197.584H948.031C949.566 197.584 950.822 196.328 950.822 194.793V179.49H952.403C953.939 179.49 955.194 178.233 955.194 176.699V159.441C955.194 157.906 953.939 156.65 952.403 156.65H934.402C932.867 156.65 931.611 157.906 931.611 159.441V176.699C931.611 178.233 932.867 179.49 934.402 179.49H935.983V194.793C935.983 196.328 937.193 197.584 938.774 197.584Z" fill="black" fill-opacity="0.1"/>
<path d="M943.379 153.952C947.413 153.952 950.683 150.682 950.683 146.649C950.683 142.616 947.413 139.346 943.379 139.346C939.346 139.346 936.076 142.616 936.076 146.649C936.076 150.682 939.346 153.952 943.379 153.952Z" fill="black" fill-opacity="0.1"/>
<path d="M938.774 267.257H948.031C949.566 267.257 950.822 266.001 950.822 264.466V249.162H952.403C953.939 249.162 955.194 247.906 955.194 246.371V229.113C955.194 227.578 953.939 226.323 952.403 226.323H934.402C932.867 226.323 931.611 227.578 931.611 229.113V246.371C931.611 247.906 932.867 249.162 934.402 249.162H935.983V264.466C935.983 266.001 937.193 267.257 938.774 267.257Z" fill="black" fill-opacity="0.1"/>
<path d="M943.379 223.625C947.413 223.625 950.682 220.355 950.682 216.322C950.682 212.288 947.413 209.019 943.379 209.019C939.346 209.019 936.076 212.288 936.076 216.322C936.076 220.355 939.346 223.625 943.379 223.625Z" fill="black" fill-opacity="0.1"/>
<path d="M938.774 336.93H948.031C949.566 336.93 950.822 335.674 950.822 334.139V318.835H952.403C953.939 318.835 955.194 317.579 955.194 316.044V298.786C955.194 297.251 953.939 295.995 952.403 295.995H934.402C932.867 295.995 931.611 297.251 931.611 298.786V316.044C931.611 317.579 932.867 318.835 934.402 318.835H935.983V334.139C935.983 335.674 937.193 336.93 938.774 336.93Z" fill="black" fill-opacity="0.1"/>
<path d="M943.379 293.298C947.413 293.298 950.682 290.028 950.682 285.995C950.682 281.961 947.413 278.692 943.379 278.692C939.346 278.692 936.076 281.961 936.076 285.995C936.076 290.028 939.346 293.298 943.379 293.298Z" fill="black" fill-opacity="0.1"/>
<path d="M693.386 58.2379H702.642C704.177 58.2379 705.433 56.9819 705.433 55.4469V40.1436H707.014C708.55 40.1436 709.805 38.8872 709.805 37.3526V20.0947C709.805 18.5596 708.55 17.3037 707.014 17.3037H689.013C687.478 17.3037 686.222 18.5596 686.222 20.0947V37.3526C686.222 38.8872 687.478 40.1436 689.013 40.1436H690.595V55.4469C690.595 56.9819 691.804 58.2379 693.386 58.2379Z" fill="black" fill-opacity="0.1"/>
<path d="M697.991 14.6061C702.024 14.6061 705.294 11.3364 705.294 7.30303C705.294 3.26968 702.024 0 697.991 0C693.957 0 690.688 3.26968 690.688 7.30303C690.688 11.3364 693.957 14.6061 697.991 14.6061Z" fill="black" fill-opacity="0.1"/>
<path d="M693.386 127.911H702.642C704.177 127.911 705.433 126.655 705.433 125.12V109.817H707.014C708.55 109.817 709.805 108.56 709.805 107.026V89.7678C709.805 88.2327 708.55 86.9768 707.014 86.9768H689.013C687.478 86.9768 686.222 88.2327 686.222 89.7678V107.026C686.222 108.56 687.478 109.817 689.013 109.817H690.595V125.12C690.595 126.655 691.804 127.911 693.386 127.911Z" fill="black" fill-opacity="0.1"/>
<path d="M697.991 84.2789C702.024 84.2789 705.294 81.0092 705.294 76.9759C705.294 72.9425 702.024 69.6729 697.991 69.6729C693.957 69.6729 690.688 72.9425 690.688 76.9759C690.688 81.0092 693.957 84.2789 697.991 84.2789Z" fill="black" fill-opacity="0.1"/>
<path d="M693.386 197.584H702.642C704.177 197.584 705.433 196.328 705.433 194.793V179.49H707.014C708.55 179.49 709.805 178.233 709.805 176.699V159.441C709.805 157.906 708.55 156.65 707.014 156.65H689.013C687.478 156.65 686.222 157.906 686.222 159.441V176.699C686.222 178.233 687.478 179.49 689.013 179.49H690.595V194.793C690.595 196.328 691.804 197.584 693.386 197.584Z" fill="black" fill-opacity="0.1"/>
<path d="M697.991 153.952C702.024 153.952 705.294 150.682 705.294 146.649C705.294 142.616 702.024 139.346 697.991 139.346C693.957 139.346 690.688 142.616 690.688 146.649C690.688 150.682 693.957 153.952 697.991 153.952Z" fill="black" fill-opacity="0.1"/>
<path d="M693.386 267.257H702.642C704.177 267.257 705.433 266.001 705.433 264.466V249.162H707.014C708.55 249.162 709.805 247.906 709.805 246.371V229.113C709.805 227.578 708.55 226.323 707.014 226.323H689.013C687.478 226.323 686.222 227.578 686.222 229.113V246.371C686.222 247.906 687.478 249.162 689.013 249.162H690.595V264.466C690.595 266.001 691.804 267.257 693.386 267.257Z" fill="black" fill-opacity="0.1"/>
<path d="M697.991 223.625C702.024 223.625 705.294 220.355 705.294 216.322C705.294 212.288 702.024 209.019 697.991 209.019C693.957 209.019 690.688 212.288 690.688 216.322C690.688 220.355 693.957 223.625 697.991 223.625Z" fill="black" fill-opacity="0.1"/>
<path d="M693.386 336.93H702.642C704.177 336.93 705.433 335.674 705.433 334.139V318.835H707.014C708.55 318.835 709.805 317.579 709.805 316.044V298.786C709.805 297.251 708.55 295.995 707.014 295.995H689.013C687.478 295.995 686.222 297.251 686.222 298.786V316.044C686.222 317.579 687.478 318.835 689.013 318.835H690.595V334.139C690.595 335.674 691.804 336.93 693.386 336.93Z" fill="black" fill-opacity="0.1"/>
<path d="M697.991 293.298C702.024 293.298 705.294 290.028 705.294 285.995C705.294 281.961 702.024 278.692 697.991 278.692C693.957 278.692 690.688 281.961 690.688 285.995C690.688 290.028 693.957 293.298 697.991 293.298Z" fill="black" fill-opacity="0.1"/>
<path d="M798.552 58.2379H807.809C809.344 58.2379 810.6 56.9819 810.6 55.4469V40.1436H812.181C813.716 40.1436 814.972 38.8872 814.972 37.3526V20.0947C814.972 18.5596 813.716 17.3037 812.181 17.3037H794.18C792.645 17.3037 791.389 18.5596 791.389 20.0947V37.3526C791.389 38.8872 792.645 40.1436 794.18 40.1436H795.761V55.4469C795.761 56.9819 796.971 58.2379 798.552 58.2379Z" fill="black" fill-opacity="0.1"/>
<path d="M803.157 14.6061C807.191 14.6061 810.46 11.3364 810.46 7.30303C810.46 3.26968 807.191 0 803.157 0C799.124 0 795.854 3.26968 795.854 7.30303C795.854 11.3364 799.124 14.6061 803.157 14.6061Z" fill="black" fill-opacity="0.1"/>
<path d="M798.552 127.911H807.809C809.344 127.911 810.6 126.655 810.6 125.12V109.817H812.181C813.716 109.817 814.972 108.56 814.972 107.026V89.7678C814.972 88.2327 813.716 86.9768 812.181 86.9768H794.18C792.645 86.9768 791.389 88.2327 791.389 89.7678V107.026C791.389 108.56 792.645 109.817 794.18 109.817H795.761V125.12C795.761 126.655 796.971 127.911 798.552 127.911Z" fill="black" fill-opacity="0.1"/>
<path d="M803.157 84.2789C807.191 84.2789 810.46 81.0092 810.46 76.9759C810.46 72.9425 807.191 69.6729 803.157 69.6729C799.124 69.6729 795.854 72.9425 795.854 76.9759C795.854 81.0092 799.124 84.2789 803.157 84.2789Z" fill="black" fill-opacity="0.1"/>
<path d="M798.552 197.584H807.809C809.344 197.584 810.6 196.328 810.6 194.793V179.49H812.181C813.716 179.49 814.972 178.233 814.972 176.699V159.441C814.972 157.906 813.716 156.65 812.181 156.65H794.18C792.645 156.65 791.389 157.906 791.389 159.441V176.699C791.389 178.233 792.645 179.49 794.18 179.49H795.761V194.793C795.761 196.328 796.971 197.584 798.552 197.584Z" fill="black" fill-opacity="0.1"/>
<path d="M803.157 153.952C807.191 153.952 810.46 150.682 810.46 146.649C810.46 142.616 807.191 139.346 803.157 139.346C799.124 139.346 795.854 142.616 795.854 146.649C795.854 150.682 799.124 153.952 803.157 153.952Z" fill="black" fill-opacity="0.1"/>
<path d="M798.552 267.257H807.809C809.344 267.257 810.6 266.001 810.6 264.466V249.162H812.181C813.716 249.162 814.972 247.906 814.972 246.371V229.113C814.972 227.578 813.716 226.323 812.181 226.323H794.18C792.645 226.323 791.389 227.578 791.389 229.113V246.371C791.389 247.906 792.645 249.162 794.18 249.162H795.761V264.466C795.761 266.001 796.971 267.257 798.552 267.257Z" fill="black" fill-opacity="0.1"/>
<path d="M803.157 223.625C807.191 223.625 810.46 220.355 810.46 216.322C810.46 212.288 807.191 209.019 803.157 209.019C799.124 209.019 795.854 212.288 795.854 216.322C795.854 220.355 799.124 223.625 803.157 223.625Z" fill="black" fill-opacity="0.1"/>
<path d="M798.552 336.93H807.809C809.344 336.93 810.6 335.674 810.6 334.139V318.835H812.181C813.716 318.835 814.972 317.579 814.972 316.044V298.786C814.972 297.251 813.716 295.995 812.181 295.995H794.18C792.645 295.995 791.389 297.251 791.389 298.786V316.044C791.389 317.579 792.645 318.835 794.18 318.835H795.761V334.139C795.761 335.674 796.971 336.93 798.552 336.93Z" fill="black" fill-opacity="0.1"/>
<path d="M803.157 293.298C807.191 293.298 810.46 290.028 810.46 285.995C810.46 281.961 807.191 278.692 803.157 278.692C799.124 278.692 795.854 281.961 795.854 285.995C795.854 290.028 799.124 293.298 803.157 293.298Z" fill="black" fill-opacity="0.1"/>
<path d="M973.83 58.2379H983.087C984.622 58.2379 985.878 56.9819 985.878 55.4469V40.1436H987.459C988.994 40.1436 990.25 38.8872 990.25 37.3526V20.0947C990.25 18.5596 988.994 17.3037 987.459 17.3037H969.457C967.922 17.3037 966.666 18.5596 966.666 20.0947V37.3526C966.666 38.8872 967.922 40.1436 969.457 40.1436H971.039V55.4469C971.039 56.9819 972.248 58.2379 973.83 58.2379Z" fill="black" fill-opacity="0.1"/>
<path d="M978.435 14.6061C982.468 14.6061 985.738 11.3364 985.738 7.30303C985.738 3.26968 982.468 0 978.435 0C974.402 0 971.132 3.26968 971.132 7.30303C971.132 11.3364 974.402 14.6061 978.435 14.6061Z" fill="black" fill-opacity="0.1"/>
<path d="M973.83 127.911H983.087C984.622 127.911 985.878 126.655 985.878 125.12V109.817H987.459C988.994 109.817 990.25 108.56 990.25 107.026V89.7678C990.25 88.2327 988.994 86.9768 987.459 86.9768H969.457C967.922 86.9768 966.666 88.2327 966.666 89.7678V107.026C966.666 108.56 967.922 109.817 969.457 109.817H971.039V125.12C971.039 126.655 972.248 127.911 973.83 127.911Z" fill="black" fill-opacity="0.1"/>
<path d="M978.435 84.2789C982.468 84.2789 985.738 81.0092 985.738 76.9759C985.738 72.9425 982.468 69.6729 978.435 69.6729C974.402 69.6729 971.132 72.9425 971.132 76.9759C971.132 81.0092 974.402 84.2789 978.435 84.2789Z" fill="black" fill-opacity="0.1"/>
<path d="M973.83 197.584H983.087C984.622 197.584 985.878 196.328 985.878 194.793V179.49H987.459C988.994 179.49 990.25 178.233 990.25 176.699V159.441C990.25 157.906 988.994 156.65 987.459 156.65H969.457C967.922 156.65 966.666 157.906 966.666 159.441V176.699C966.666 178.233 967.922 179.49 969.457 179.49H971.039V194.793C971.039 196.328 972.248 197.584 973.83 197.584Z" fill="black" fill-opacity="0.1"/>
<path d="M978.435 153.952C982.468 153.952 985.738 150.682 985.738 146.649C985.738 142.616 982.468 139.346 978.435 139.346C974.402 139.346 971.132 142.616 971.132 146.649C971.132 150.682 974.402 153.952 978.435 153.952Z" fill="black" fill-opacity="0.1"/>
<path d="M973.83 267.257H983.087C984.622 267.257 985.878 266.001 985.878 264.466V249.162H987.459C988.994 249.162 990.25 247.906 990.25 246.371V229.113C990.25 227.578 988.994 226.323 987.459 226.323H969.457C967.922 226.323 966.666 227.578 966.666 229.113V246.371C966.666 247.906 967.922 249.162 969.457 249.162H971.039V264.466C971.039 266.001 972.248 267.257 973.83 267.257Z" fill="black" fill-opacity="0.1"/>
<path d="M978.435 223.625C982.468 223.625 985.738 220.355 985.738 216.322C985.738 212.288 982.468 209.019 978.435 209.019C974.402 209.019 971.132 212.288 971.132 216.322C971.132 220.355 974.402 223.625 978.435 223.625Z" fill="black" fill-opacity="0.1"/>
<path d="M973.83 336.93H983.087C984.622 336.93 985.878 335.674 985.878 334.139V318.835H987.459C988.994 318.835 990.25 317.579 990.25 316.044V298.786C990.25 297.251 988.994 295.995 987.459 295.995H969.457C967.922 295.995 966.666 297.251 966.666 298.786V316.044C966.666 317.579 967.922 318.835 969.457 318.835H971.039V334.139C971.039 335.674 972.248 336.93 973.83 336.93Z" fill="black" fill-opacity="0.1"/>
<path d="M978.435 293.298C982.468 293.298 985.738 290.028 985.738 285.995C985.738 281.961 982.468 278.692 978.435 278.692C974.402 278.692 971.132 281.961 971.132 285.995C971.132 290.028 974.402 293.298 978.435 293.298Z" fill="black" fill-opacity="0.1"/>
<path d="M868.663 58.2379H877.92C879.455 58.2379 880.711 56.9819 880.711 55.4469V40.1436H882.292C883.828 40.1436 885.083 38.8872 885.083 37.3526V20.0947C885.083 18.5596 883.828 17.3037 882.292 17.3037H864.291C862.756 17.3037 861.5 18.5596 861.5 20.0947V37.3526C861.5 38.8872 862.756 40.1436 864.291 40.1436H865.872V55.4469C865.872 56.9819 867.082 58.2379 868.663 58.2379Z" fill="black" fill-opacity="0.1"/>
<path d="M873.268 14.6061C877.302 14.6061 880.571 11.3364 880.571 7.30303C880.571 3.26968 877.302 0 873.268 0C869.235 0 865.965 3.26968 865.965 7.30303C865.965 11.3364 869.235 14.6061 873.268 14.6061Z" fill="black" fill-opacity="0.1"/>
<path d="M868.663 127.911H877.92C879.455 127.911 880.711 126.655 880.711 125.12V109.817H882.292C883.828 109.817 885.083 108.56 885.083 107.026V89.7678C885.083 88.2327 883.828 86.9768 882.292 86.9768H864.291C862.756 86.9768 861.5 88.2327 861.5 89.7678V107.026C861.5 108.56 862.756 109.817 864.291 109.817H865.872V125.12C865.872 126.655 867.082 127.911 868.663 127.911Z" fill="black" fill-opacity="0.1"/>
<path d="M873.268 84.2789C877.302 84.2789 880.571 81.0092 880.571 76.9759C880.571 72.9425 877.302 69.6729 873.268 69.6729C869.235 69.6729 865.965 72.9425 865.965 76.9759C865.965 81.0092 869.235 84.2789 873.268 84.2789Z" fill="black" fill-opacity="0.1"/>
<path d="M868.663 197.584H877.92C879.455 197.584 880.711 196.328 880.711 194.793V179.49H882.292C883.828 179.49 885.083 178.233 885.083 176.699V159.441C885.083 157.906 883.828 156.65 882.292 156.65H864.291C862.756 156.65 861.5 157.906 861.5 159.441V176.699C861.5 178.233 862.756 179.49 864.291 179.49H865.872V194.793C865.872 196.328 867.082 197.584 868.663 197.584Z" fill="black" fill-opacity="0.1"/>
<path d="M873.268 153.952C877.302 153.952 880.571 150.682 880.571 146.649C880.571 142.616 877.302 139.346 873.268 139.346C869.235 139.346 865.965 142.616 865.965 146.649C865.965 150.682 869.235 153.952 873.268 153.952Z" fill="black" fill-opacity="0.1"/>
<path d="M868.663 267.257H877.92C879.455 267.257 880.711 266.001 880.711 264.466V249.162H882.292C883.828 249.162 885.083 247.906 885.083 246.371V229.113C885.083 227.578 883.828 226.323 882.292 226.323H864.291C862.756 226.323 861.5 227.578 861.5 229.113V246.371C861.5 247.906 862.756 249.162 864.291 249.162H865.872V264.466C865.872 266.001 867.082 267.257 868.663 267.257Z" fill="black" fill-opacity="0.1"/>
<path d="M873.268 223.625C877.302 223.625 880.571 220.355 880.571 216.322C880.571 212.288 877.302 209.019 873.268 209.019C869.235 209.019 865.965 212.288 865.965 216.322C865.965 220.355 869.235 223.625 873.268 223.625Z" fill="black" fill-opacity="0.1"/>
<path d="M868.663 336.93H877.92C879.455 336.93 880.711 335.674 880.711 334.139V318.835H882.292C883.828 318.835 885.083 317.579 885.083 316.044V298.786C885.083 297.251 883.828 295.995 882.292 295.995H864.291C862.756 295.995 861.5 297.251 861.5 298.786V316.044C861.5 317.579 862.756 318.835 864.291 318.835H865.872V334.139C865.872 335.674 867.082 336.93 868.663 336.93Z" fill="black" fill-opacity="0.1"/>
<path d="M873.268 293.298C877.302 293.298 880.571 290.028 880.571 285.995C880.571 281.961 877.302 278.692 873.268 278.692C869.235 278.692 865.965 281.961 865.965 285.995C865.965 290.028 869.235 293.298 873.268 293.298Z" fill="black" fill-opacity="0.1"/>
<path d="M728.441 58.2379H737.698C739.233 58.2379 740.489 56.9819 740.489 55.4469V40.1436H742.07C743.605 40.1436 744.861 38.8872 744.861 37.3526V20.0947C744.861 18.5596 743.605 17.3037 742.07 17.3037H724.069C722.534 17.3037 721.278 18.5596 721.278 20.0947V37.3526C721.278 38.8872 722.534 40.1436 724.069 40.1436H725.65V55.4469C725.65 56.9819 726.86 58.2379 728.441 58.2379Z" fill="black" fill-opacity="0.1"/>
<path d="M733.046 14.6061C737.08 14.6061 740.349 11.3364 740.349 7.30303C740.349 3.26968 737.08 0 733.046 0C729.013 0 725.743 3.26968 725.743 7.30303C725.743 11.3364 729.013 14.6061 733.046 14.6061Z" fill="black" fill-opacity="0.1"/>
<path d="M728.441 127.911H737.698C739.233 127.911 740.489 126.655 740.489 125.12V109.817H742.07C743.605 109.817 744.861 108.56 744.861 107.026V89.7678C744.861 88.2327 743.605 86.9768 742.07 86.9768H724.069C722.534 86.9768 721.278 88.2327 721.278 89.7678V107.026C721.278 108.56 722.534 109.817 724.069 109.817H725.65V125.12C725.65 126.655 726.86 127.911 728.441 127.911Z" fill="black" fill-opacity="0.1"/>
<path d="M733.046 84.2789C737.08 84.2789 740.349 81.0092 740.349 76.9759C740.349 72.9425 737.08 69.6729 733.046 69.6729C729.013 69.6729 725.743 72.9425 725.743 76.9759C725.743 81.0092 729.013 84.2789 733.046 84.2789Z" fill="black" fill-opacity="0.1"/>
<path d="M728.441 197.584H737.698C739.233 197.584 740.489 196.328 740.489 194.793V179.49H742.07C743.605 179.49 744.861 178.233 744.861 176.699V159.441C744.861 157.906 743.605 156.65 742.07 156.65H724.069C722.534 156.65 721.278 157.906 721.278 159.441V176.699C721.278 178.233 722.534 179.49 724.069 179.49H725.65V194.793C725.65 196.328 726.86 197.584 728.441 197.584Z" fill="black" fill-opacity="0.1"/>
<path d="M733.046 153.952C737.08 153.952 740.349 150.682 740.349 146.649C740.349 142.616 737.08 139.346 733.046 139.346C729.013 139.346 725.743 142.616 725.743 146.649C725.743 150.682 729.013 153.952 733.046 153.952Z" fill="black" fill-opacity="0.1"/>
<path d="M728.441 267.257H737.698C739.233 267.257 740.489 266.001 740.489 264.466V249.162H742.07C743.605 249.162 744.861 247.906 744.861 246.371V229.113C744.861 227.578 743.605 226.323 742.07 226.323H724.069C722.534 226.323 721.278 227.578 721.278 229.113V246.371C721.278 247.906 722.534 249.162 724.069 249.162H725.65V264.466C725.65 266.001 726.86 267.257 728.441 267.257Z" fill="black" fill-opacity="0.1"/>
<path d="M733.046 223.625C737.08 223.625 740.349 220.355 740.349 216.322C740.349 212.288 737.08 209.019 733.046 209.019C729.013 209.019 725.743 212.288 725.743 216.322C725.743 220.355 729.013 223.625 733.046 223.625Z" fill="black" fill-opacity="0.1"/>
<path d="M728.441 336.93H737.698C739.233 336.93 740.489 335.674 740.489 334.139V318.835H742.07C743.605 318.835 744.861 317.579 744.861 316.044V298.786C744.861 297.251 743.605 295.995 742.07 295.995H724.069C722.534 295.995 721.278 297.251 721.278 298.786V316.044C721.278 317.579 722.534 318.835 724.069 318.835H725.65V334.139C725.65 335.674 726.86 336.93 728.441 336.93Z" fill="black" fill-opacity="0.1"/>
<path d="M733.046 293.298C737.08 293.298 740.349 290.028 740.349 285.995C740.349 281.961 737.08 278.692 733.046 278.692C729.013 278.692 725.743 281.961 725.743 285.995C725.743 290.028 729.013 293.298 733.046 293.298Z" fill="black" fill-opacity="0.1"/>
<path d="M833.608 58.2379H842.864C844.399 58.2379 845.655 56.9819 845.655 55.4469V40.1436H847.236C848.772 40.1436 850.027 38.8872 850.027 37.3526V20.0947C850.027 18.5596 848.772 17.3037 847.236 17.3037H829.235C827.7 17.3037 826.444 18.5596 826.444 20.0947V37.3526C826.444 38.8872 827.7 40.1436 829.235 40.1436H830.817V55.4469C830.817 56.9819 832.026 58.2379 833.608 58.2379Z" fill="black" fill-opacity="0.1"/>
<path d="M838.213 14.6061C842.246 14.6061 845.516 11.3364 845.516 7.30303C845.516 3.26968 842.246 0 838.213 0C834.179 0 830.91 3.26968 830.91 7.30303C830.91 11.3364 834.179 14.6061 838.213 14.6061Z" fill="black" fill-opacity="0.1"/>
<path d="M833.608 127.911H842.864C844.399 127.911 845.655 126.655 845.655 125.12V109.817H847.236C848.772 109.817 850.027 108.56 850.027 107.026V89.7678C850.027 88.2327 848.772 86.9768 847.236 86.9768H829.235C827.7 86.9768 826.444 88.2327 826.444 89.7678V107.026C826.444 108.56 827.7 109.817 829.235 109.817H830.817V125.12C830.817 126.655 832.026 127.911 833.608 127.911Z" fill="black" fill-opacity="0.1"/>
<path d="M838.213 84.2789C842.246 84.2789 845.516 81.0092 845.516 76.9759C845.516 72.9425 842.246 69.6729 838.213 69.6729C834.179 69.6729 830.91 72.9425 830.91 76.9759C830.91 81.0092 834.179 84.2789 838.213 84.2789Z" fill="black" fill-opacity="0.1"/>
<path d="M833.608 197.584H842.864C844.4 197.584 845.655 196.328 845.655 194.793V179.49H847.237C848.772 179.49 850.027 178.233 850.027 176.699V159.441C850.027 157.906 848.772 156.65 847.237 156.65H829.235C827.7 156.65 826.444 157.906 826.444 159.441V176.699C826.444 178.233 827.7 179.49 829.235 179.49H830.817V194.793C830.817 196.328 832.026 197.584 833.608 197.584Z" fill="black" fill-opacity="0.1"/>
<path d="M838.213 153.952C842.246 153.952 845.516 150.682 845.516 146.649C845.516 142.616 842.246 139.346 838.213 139.346C834.18 139.346 830.91 142.616 830.91 146.649C830.91 150.682 834.18 153.952 838.213 153.952Z" fill="black" fill-opacity="0.1"/>
<path d="M833.608 267.257H842.864C844.399 267.257 845.655 266.001 845.655 264.466V249.162H847.236C848.772 249.162 850.027 247.906 850.027 246.371V229.113C850.027 227.578 848.772 226.323 847.236 226.323H829.235C827.7 226.323 826.444 227.578 826.444 229.113V246.371C826.444 247.906 827.7 249.162 829.235 249.162H830.817V264.466C830.817 266.001 832.026 267.257 833.608 267.257Z" fill="black" fill-opacity="0.1"/>
<path d="M838.213 223.625C842.246 223.625 845.516 220.355 845.516 216.322C845.516 212.288 842.246 209.019 838.213 209.019C834.179 209.019 830.91 212.288 830.91 216.322C830.91 220.355 834.179 223.625 838.213 223.625Z" fill="black" fill-opacity="0.1"/>
<path d="M833.608 336.93H842.864C844.399 336.93 845.655 335.674 845.655 334.139V318.835H847.236C848.772 318.835 850.027 317.579 850.027 316.044V298.786C850.027 297.251 848.772 295.995 847.236 295.995H829.235C827.7 295.995 826.444 297.251 826.444 298.786V316.044C826.444 317.579 827.7 318.835 829.235 318.835H830.817V334.139C830.817 335.674 832.026 336.93 833.608 336.93Z" fill="black" fill-opacity="0.1"/>
<path d="M838.213 293.298C842.246 293.298 845.516 290.028 845.516 285.995C845.516 281.961 842.246 278.692 838.213 278.692C834.179 278.692 830.91 281.961 830.91 285.995C830.91 290.028 834.179 293.298 838.213 293.298Z" fill="black" fill-opacity="0.1"/>
<path d="M1008.89 58.2379H1018.14C1019.68 58.2379 1020.93 56.9819 1020.93 55.4469V40.1436H1022.51C1024.05 40.1436 1025.31 38.8872 1025.31 37.3526V20.0947C1025.31 18.5596 1024.05 17.3037 1022.51 17.3037H1004.51C1002.98 17.3037 1001.72 18.5596 1001.72 20.0947V37.3526C1001.72 38.8872 1002.98 40.1436 1004.51 40.1436H1006.09V55.4469C1006.09 56.9819 1007.3 58.2379 1008.89 58.2379Z" fill="black" fill-opacity="0.1"/>
<path d="M1013.49 14.6061C1017.52 14.6061 1020.79 11.3364 1020.79 7.30303C1020.79 3.26968 1017.52 0 1013.49 0C1009.46 0 1006.19 3.26968 1006.19 7.30303C1006.19 11.3364 1009.46 14.6061 1013.49 14.6061Z" fill="black" fill-opacity="0.1"/>
<path d="M1008.89 127.911H1018.14C1019.68 127.911 1020.93 126.655 1020.93 125.12V109.817H1022.51C1024.05 109.817 1025.31 108.56 1025.31 107.026V89.7678C1025.31 88.2327 1024.05 86.9768 1022.51 86.9768H1004.51C1002.98 86.9768 1001.72 88.2327 1001.72 89.7678V107.026C1001.72 108.56 1002.98 109.817 1004.51 109.817H1006.09V125.12C1006.09 126.655 1007.3 127.911 1008.89 127.911Z" fill="black" fill-opacity="0.1"/>
<path d="M1013.49 84.2789C1017.52 84.2789 1020.79 81.0092 1020.79 76.9759C1020.79 72.9425 1017.52 69.6729 1013.49 69.6729C1009.46 69.6729 1006.19 72.9425 1006.19 76.9759C1006.19 81.0092 1009.46 84.2789 1013.49 84.2789Z" fill="black" fill-opacity="0.1"/>
<path d="M1008.89 197.584H1018.14C1019.68 197.584 1020.93 196.328 1020.93 194.793V179.49H1022.51C1024.05 179.49 1025.31 178.233 1025.31 176.699V159.441C1025.31 157.906 1024.05 156.65 1022.51 156.65H1004.51C1002.98 156.65 1001.72 157.906 1001.72 159.441V176.699C1001.72 178.233 1002.98 179.49 1004.51 179.49H1006.09V194.793C1006.09 196.328 1007.3 197.584 1008.89 197.584Z" fill="black" fill-opacity="0.1"/>
<path d="M1013.49 153.952C1017.52 153.952 1020.79 150.682 1020.79 146.649C1020.79 142.616 1017.52 139.346 1013.49 139.346C1009.46 139.346 1006.19 142.616 1006.19 146.649C1006.19 150.682 1009.46 153.952 1013.49 153.952Z" fill="black" fill-opacity="0.1"/>
<path d="M1008.89 267.257H1018.14C1019.68 267.257 1020.93 266.001 1020.93 264.466V249.162H1022.51C1024.05 249.162 1025.31 247.906 1025.31 246.371V229.113C1025.31 227.578 1024.05 226.323 1022.51 226.323H1004.51C1002.98 226.323 1001.72 227.578 1001.72 229.113V246.371C1001.72 247.906 1002.98 249.162 1004.51 249.162H1006.09V264.466C1006.09 266.001 1007.3 267.257 1008.89 267.257Z" fill="black" fill-opacity="0.1"/>
<path d="M1013.49 223.625C1017.52 223.625 1020.79 220.355 1020.79 216.322C1020.79 212.288 1017.52 209.019 1013.49 209.019C1009.46 209.019 1006.19 212.288 1006.19 216.322C1006.19 220.355 1009.46 223.625 1013.49 223.625Z" fill="black" fill-opacity="0.1"/>
<path d="M903.719 58.2379H912.976C914.511 58.2379 915.766 56.9819 915.766 55.4469V40.1436H917.348C918.883 40.1436 920.139 38.8872 920.139 37.3526V20.0947C920.139 18.5596 918.883 17.3037 917.348 17.3037H899.346C897.811 17.3037 896.555 18.5596 896.555 20.0947V37.3526C896.555 38.8872 897.811 40.1436 899.346 40.1436H900.928V55.4469C900.928 56.9819 902.137 58.2379 903.719 58.2379Z" fill="black" fill-opacity="0.1"/>
<path d="M908.324 14.6061C912.357 14.6061 915.627 11.3364 915.627 7.30303C915.627 3.26968 912.357 0 908.324 0C904.291 0 901.021 3.26968 901.021 7.30303C901.021 11.3364 904.291 14.6061 908.324 14.6061Z" fill="black" fill-opacity="0.1"/>
<path d="M903.719 127.911H912.976C914.511 127.911 915.766 126.655 915.766 125.12V109.817H917.348C918.883 109.817 920.139 108.56 920.139 107.026V89.7678C920.139 88.2327 918.883 86.9768 917.348 86.9768H899.346C897.811 86.9768 896.555 88.2327 896.555 89.7678V107.026C896.555 108.56 897.811 109.817 899.346 109.817H900.928V125.12C900.928 126.655 902.137 127.911 903.719 127.911Z" fill="black" fill-opacity="0.1"/>
<path d="M908.324 84.2789C912.357 84.2789 915.627 81.0092 915.627 76.9759C915.627 72.9425 912.357 69.6729 908.324 69.6729C904.291 69.6729 901.021 72.9425 901.021 76.9759C901.021 81.0092 904.291 84.2789 908.324 84.2789Z" fill="black" fill-opacity="0.1"/>
<path d="M903.719 197.584H912.976C914.511 197.584 915.766 196.328 915.766 194.793V179.49H917.348C918.883 179.49 920.139 178.233 920.139 176.699V159.441C920.139 157.906 918.883 156.65 917.348 156.65H899.346C897.811 156.65 896.555 157.906 896.555 159.441V176.699C896.555 178.233 897.811 179.49 899.346 179.49H900.928V194.793C900.928 196.328 902.137 197.584 903.719 197.584Z" fill="black" fill-opacity="0.1"/>
<path d="M908.324 153.952C912.357 153.952 915.627 150.682 915.627 146.649C915.627 142.616 912.357 139.346 908.324 139.346C904.291 139.346 901.021 142.616 901.021 146.649C901.021 150.682 904.291 153.952 908.324 153.952Z" fill="black" fill-opacity="0.1"/>
<path d="M903.719 267.257H912.976C914.511 267.257 915.766 266.001 915.766 264.466V249.162H917.348C918.883 249.162 920.139 247.906 920.139 246.371V229.113C920.139 227.578 918.883 226.323 917.348 226.323H899.346C897.811 226.323 896.555 227.578 896.555 229.113V246.371C896.555 247.906 897.811 249.162 899.346 249.162H900.928V264.466C900.928 266.001 902.137 267.257 903.719 267.257Z" fill="black" fill-opacity="0.1"/>
<path d="M908.324 223.625C912.357 223.625 915.627 220.355 915.627 216.322C915.627 212.288 912.357 209.019 908.324 209.019C904.291 209.019 901.021 212.288 901.021 216.322C901.021 220.355 904.291 223.625 908.324 223.625Z" fill="black" fill-opacity="0.1"/>
<path d="M903.719 336.93H912.976C914.511 336.93 915.766 335.674 915.766 334.139V318.835H917.348C918.883 318.835 920.139 317.579 920.139 316.044V298.786C920.139 297.251 918.883 295.995 917.348 295.995H899.346C897.811 295.995 896.555 297.251 896.555 298.786V316.044C896.555 317.579 897.811 318.835 899.346 318.835H900.928V334.139C900.928 335.674 902.137 336.93 903.719 336.93Z" fill="black" fill-opacity="0.1"/>
<path d="M908.324 293.298C912.357 293.298 915.627 290.028 915.627 285.995C915.627 281.961 912.357 278.692 908.324 278.692C904.291 278.692 901.021 281.961 901.021 285.995C901.021 290.028 904.291 293.298 908.324 293.298Z" fill="black" fill-opacity="0.1"/>
<path d="M1011.42 289.149H1003.12L1004.41 287.396L1003.12 285.643H1012.32" fill="#FEE71D"/>
<path d="M1043.23 335.131L1024.03 309.462C1023.97 309.602 1023.9 309.74 1023.81 309.875C1023.51 310.364 1023.12 310.758 1022.66 311.049L1041.59 336.357C1041.79 336.625 1042.1 336.767 1042.41 336.767C1042.63 336.767 1042.84 336.701 1043.02 336.563C1043.48 336.225 1043.57 335.584 1043.23 335.131V335.131Z" fill="#FF863D"/>
<path d="M1013.15 293.368C1017.18 293.368 1020.45 290.098 1020.45 286.065C1020.45 282.032 1017.18 278.762 1013.15 278.762C1009.12 278.762 1005.85 282.032 1005.85 286.065C1005.85 290.098 1009.12 293.368 1013.15 293.368Z" fill="#FF863D"/>
<path fill-rule="evenodd" clip-rule="evenodd" d="M1008.55 337H1017.8C1019.34 337 1020.59 335.747 1020.59 334.216V315.443L1022.9 316.487L1026.32 318.041C1026.82 318.516 1027.5 318.808 1028.25 318.808C1029.79 318.808 1031.04 317.561 1031.04 316.023C1031.04 315.433 1030.85 314.886 1030.54 314.435L1030.57 314.399L1030.43 314.285C1030.16 313.95 1029.81 313.678 1029.42 313.496L1024.94 309.99V304.453C1024.96 304.336 1024.97 304.217 1024.97 304.097V298.945C1024.97 297.414 1023.71 296.161 1022.17 296.161H1004.17C1002.64 296.161 1001.38 297.414 1001.38 298.945V316.163C1001.38 317.694 1002.64 318.948 1004.17 318.948H1005.75V334.216C1005.75 335.747 1006.96 337 1008.55 337Z" fill="#FF863D"/>
<path d="M1021.09 284.679V287.046C1021.09 287.482 1020.76 287.834 1020.36 287.834H1006.04C1005.64 287.834 1005.31 287.482 1005.31 287.046V284.679C1005.31 284.243 1005.64 283.891 1006.04 283.891H1020.36C1020.76 283.891 1021.09 284.243 1021.09 284.679Z" fill="#FEE71D"/>
<path d="M1021.09 284.679V287.046C1021.09 287.482 1020.74 287.834 1020.32 287.834H1008.71C1008.29 287.834 1007.94 287.482 1007.94 287.046V284.679C1007.94 284.243 1008.29 283.891 1008.71 283.891H1020.32C1020.74 283.891 1021.09 284.243 1021.09 284.679Z" fill="#FCF46F"/>
<path d="M721.583 156.736V181H727.055V156.736H721.583ZM734.079 181H739.551V170.848C739.551 170.344 739.587 169.84 739.731 169.48C740.127 168.472 741.027 167.428 742.539 167.428C744.519 167.428 745.311 168.976 745.311 171.244V181H750.783V170.596C750.783 165.412 748.083 163 744.483 163C741.531 163 739.767 164.692 739.047 165.844H738.939L738.687 163.396H733.935C734.007 164.98 734.079 166.816 734.079 169.012V181ZM783.078 181V176.5H774.222V176.428L776.382 174.628C779.802 171.604 782.61 168.472 782.61 164.512C782.61 160.3 779.73 157.204 774.402 157.204C771.27 157.204 768.498 158.284 766.77 159.616L768.318 163.504C769.542 162.604 771.306 161.596 773.322 161.596C776.022 161.596 777.138 163.108 777.138 165.016C777.102 167.752 774.618 170.38 769.47 174.988L766.482 177.688V181H783.078ZM797.322 157.204C791.274 157.204 788.43 162.532 788.43 169.336C788.466 175.96 791.13 181.396 797.178 181.396C803.118 181.396 806.034 176.392 806.034 169.192C806.034 162.784 803.55 157.204 797.322 157.204ZM797.25 161.344C799.446 161.344 800.562 164.08 800.562 169.264C800.562 174.592 799.41 177.256 797.286 177.256C795.198 177.256 793.902 174.7 793.902 169.336C793.902 163.864 795.27 161.344 797.25 161.344ZM827.695 181V176.5H818.839V176.428L820.999 174.628C824.419 171.604 827.227 168.472 827.227 164.512C827.227 160.3 824.347 157.204 819.019 157.204C815.887 157.204 813.115 158.284 811.387 159.616L812.935 163.504C814.159 162.604 815.923 161.596 817.939 161.596C820.639 161.596 821.755 163.108 821.755 165.016C821.719 167.752 819.235 170.38 814.087 174.988L811.099 177.688V181H827.695ZM841.94 157.204C835.892 157.204 833.048 162.532 833.048 169.336C833.084 175.96 835.748 181.396 841.796 181.396C847.736 181.396 850.652 176.392 850.652 169.192C850.652 162.784 848.168 157.204 841.94 157.204ZM841.868 161.344C844.064 161.344 845.18 164.08 845.18 169.264C845.18 174.592 844.028 177.256 841.904 177.256C839.816 177.256 838.52 174.7 838.52 169.336C838.52 163.864 839.888 161.344 841.868 161.344Z" fill="#FF863D"/>
</svg>
