<svg width="1043" height="387" viewBox="0 0 1043 387" fill="none" xmlns="http://www.w3.org/2000/svg">
<circle cx="8" cy="12" r="8" fill="#FF863D"/>
<path d="M30.775 20.95C31.8 21.075 33.15 21.175 34.925 21.175C38.2 21.175 40.875 20.4 42.55 18.875C44.15 17.425 45.175 15.2 45.175 12.175C45.175 9.325 44.175 7.3 42.525 5.975C40.975 4.675 38.825 4.025 35.675 4.025C33.85 4.025 32.15 4.175 30.775 4.375V20.95ZM33.85 6.6C34.3 6.5 34.975 6.425 35.95 6.425C39.8 6.425 41.95 8.575 41.925 12.275C41.925 16.55 39.55 18.775 35.55 18.75C34.925 18.75 34.275 18.75 33.85 18.675V6.6ZM59.6654 15.775C59.7154 15.5 59.7654 15.05 59.7654 14.475C59.7654 11.8 58.4654 8.55 54.5154 8.55C50.6154 8.55 48.5654 11.725 48.5654 15.1C48.5654 18.825 50.8904 21.25 54.8404 21.25C56.5904 21.25 58.0404 20.925 59.0904 20.475L58.6404 18.375C57.6904 18.7 56.6904 18.925 55.2654 18.925C53.2904 18.925 51.5904 17.975 51.5154 15.775H59.6654ZM51.5154 13.625C51.6404 12.375 52.4404 10.65 54.3404 10.65C56.3904 10.65 56.8904 12.5 56.8654 13.625H51.5154ZM63.1061 20.4C64.0061 20.9 65.3311 21.25 66.8061 21.25C70.0311 21.25 71.7561 19.65 71.7561 17.425C71.7311 15.625 70.7311 14.5 68.5061 13.725C66.9561 13.15 66.3811 12.8 66.3811 12.025C66.3811 11.275 66.9811 10.725 68.0811 10.725C69.1561 10.725 70.1561 11.125 70.6561 11.425L71.2811 9.275C70.5561 8.875 69.3811 8.55 68.0311 8.55C65.2061 8.55 63.4311 10.2 63.4311 12.35C63.4311 13.8 64.4061 15.1 66.7811 15.9C68.2811 16.45 68.7811 16.85 68.7811 17.675C68.7811 18.475 68.1811 19.05 66.8311 19.05C65.7311 19.05 64.4061 18.575 63.7311 18.15L63.1061 20.4ZM78.9809 21V8.825H75.9059V21H78.9809ZM77.4559 3.75C76.4309 3.75 75.7309 4.475 75.7309 5.425C75.7309 6.325 76.4059 7.075 77.4309 7.075C78.5059 7.075 79.1809 6.325 79.1809 5.425C79.1559 4.475 78.5059 3.75 77.4559 3.75ZM94.9523 12.325C94.9523 10.65 95.0023 9.65 95.0523 8.825H92.3773L92.2523 10.45H92.2023C91.6273 9.45 90.5523 8.55 88.6773 8.55C85.7523 8.55 83.1523 10.975 83.1523 14.975C83.1523 18.425 85.3023 20.925 88.3273 20.925C89.9523 20.925 91.1773 20.2 91.8773 19.125H91.9273V20.175C91.9273 22.8 90.4273 23.85 88.4273 23.85C86.9523 23.85 85.6523 23.375 84.8773 22.925L84.2023 25.25C85.2523 25.875 86.9023 26.225 88.4523 26.225C90.1273 26.225 91.9023 25.875 93.1523 24.75C94.4273 23.6 94.9523 21.775 94.9523 19.225V12.325ZM91.8773 15.675C91.8773 16.025 91.8523 16.45 91.7523 16.75C91.4023 17.875 90.4023 18.625 89.2523 18.625C87.3273 18.625 86.2773 16.95 86.2773 14.875C86.2773 12.4 87.5523 10.9 89.2773 10.9C90.5773 10.9 91.4523 11.75 91.7773 12.875C91.8523 13.125 91.8773 13.4 91.8773 13.7V15.675ZM99.7857 21H102.861V13.825C102.861 13.475 102.911 13.1 103.011 12.85C103.336 11.925 104.186 11.05 105.411 11.05C107.086 11.05 107.736 12.375 107.736 14.125V21H110.811V13.775C110.811 9.925 108.611 8.55 106.486 8.55C104.461 8.55 103.136 9.7 102.586 10.65H102.511L102.361 8.825H99.6857C99.7357 9.875 99.7857 11.05 99.7857 12.45V21ZM121.893 20.2C122.818 20.775 124.668 21.275 126.468 21.275C130.793 21.275 132.843 18.925 132.843 16.2C132.843 13.775 131.443 12.3 128.518 11.2C126.268 10.325 125.293 9.725 125.293 8.425C125.293 7.425 126.118 6.4 128.068 6.4C129.643 6.4 130.818 6.875 131.443 7.2L132.168 4.725C131.293 4.275 129.968 3.875 128.143 3.875C124.468 3.875 122.168 5.95 122.168 8.725C122.168 11.15 123.943 12.625 126.743 13.625C128.868 14.4 129.718 15.15 129.718 16.425C129.718 17.8 128.618 18.725 126.668 18.725C125.093 18.725 123.568 18.225 122.593 17.65L121.893 20.2ZM137.107 25.95H140.182V19.65H140.232C140.857 20.625 142.132 21.275 143.657 21.275C146.432 21.275 149.207 19.15 149.207 14.75C149.207 10.95 146.882 8.55 144.082 8.55C142.232 8.55 140.807 9.325 139.907 10.7H139.857L139.707 8.825H137.007C137.057 9.975 137.107 11.275 137.107 12.875V25.95ZM140.182 14.025C140.182 13.775 140.232 13.5 140.282 13.25C140.607 11.9 141.782 10.975 143.057 10.975C145.032 10.975 146.082 12.725 146.082 14.875C146.082 17.275 144.932 18.9 142.982 18.9C141.657 18.9 140.582 18 140.257 16.75C140.207 16.475 140.182 16.2 140.182 15.9V14.025ZM163.681 15.775C163.731 15.5 163.781 15.05 163.781 14.475C163.781 11.8 162.481 8.55 158.531 8.55C154.631 8.55 152.581 11.725 152.581 15.1C152.581 18.825 154.906 21.25 158.856 21.25C160.606 21.25 162.056 20.925 163.106 20.475L162.656 18.375C161.706 18.7 160.706 18.925 159.281 18.925C157.306 18.925 155.606 17.975 155.531 15.775H163.681ZM155.531 13.625C155.656 12.375 156.456 10.65 158.356 10.65C160.406 10.65 160.906 12.5 160.881 13.625H155.531ZM176.397 18.35C175.797 18.6 175.022 18.825 173.972 18.825C171.872 18.825 170.247 17.4 170.247 14.9C170.222 12.675 171.622 10.95 173.972 10.95C175.072 10.95 175.797 11.175 176.297 11.425L176.847 9.1C176.147 8.8 174.997 8.55 173.872 8.55C169.597 8.55 167.097 11.375 167.097 15.025C167.097 18.8 169.572 21.25 173.372 21.25C174.897 21.25 176.172 20.925 176.822 20.625L176.397 18.35ZM183.802 21V8.825H180.727V21H183.802ZM182.277 3.75C181.252 3.75 180.552 4.475 180.552 5.425C180.552 6.325 181.227 7.075 182.252 7.075C183.327 7.075 184.002 6.325 184.002 5.425C183.977 4.475 183.327 3.75 182.277 3.75ZM192.174 21V11.125H196.324V21H199.399V8.825H192.149V8.325C192.149 6.725 192.849 5.425 194.974 5.425C196.124 5.425 197.099 5.75 197.649 6.075L198.349 3.75C197.649 3.3 196.199 2.975 194.974 2.975C191.374 2.975 189.099 4.975 189.099 8.25V8.825H187.449V11.125H189.099V21H192.174ZM212.863 18.35C212.263 18.6 211.488 18.825 210.438 18.825C208.338 18.825 206.713 17.4 206.713 14.9C206.688 12.675 208.088 10.95 210.438 10.95C211.538 10.95 212.263 11.175 212.763 11.425L213.313 9.1C212.613 8.8 211.463 8.55 210.338 8.55C206.063 8.55 203.563 11.375 203.563 15.025C203.563 18.8 206.038 21.25 209.838 21.25C211.363 21.25 212.638 20.925 213.288 20.625L212.863 18.35ZM226.644 13.7C226.644 11.025 225.519 8.55 221.619 8.55C219.694 8.55 218.119 9.075 217.219 9.625L217.819 11.625C218.644 11.1 219.894 10.725 221.094 10.725C223.244 10.725 223.569 12.05 223.569 12.85V13.05C219.069 13.025 216.344 14.6 216.344 17.65C216.344 19.5 217.719 21.275 220.169 21.275C221.769 21.275 223.044 20.6 223.769 19.65H223.844L224.069 21H226.844C226.694 20.25 226.644 19.175 226.644 18.075V13.7ZM223.644 16.725C223.644 16.95 223.644 17.175 223.569 17.4C223.269 18.275 222.394 19.075 221.144 19.075C220.169 19.075 219.394 18.525 219.394 17.325C219.394 15.475 221.469 15.025 223.644 15.05V16.725ZM231.868 6.55V8.825H230.143V11.125H231.868V16.85C231.868 18.45 232.168 19.575 232.843 20.275C233.418 20.9 234.343 21.275 235.493 21.275C236.443 21.275 237.268 21.125 237.718 20.95L237.668 18.625C237.318 18.725 237.018 18.75 236.468 18.75C235.293 18.75 234.893 18 234.893 16.5V11.125H237.818V8.825H234.893V5.7L231.868 6.55ZM244.832 21V8.825H241.757V21H244.832ZM243.307 3.75C242.282 3.75 241.582 4.475 241.582 5.425C241.582 6.325 242.257 7.075 243.282 7.075C244.357 7.075 245.032 6.325 245.032 5.425C245.007 4.475 244.357 3.75 243.307 3.75ZM255.304 8.55C251.629 8.55 249.004 11 249.004 15C249.004 18.925 251.679 21.275 255.104 21.275C258.204 21.275 261.354 19.275 261.354 14.8C261.354 11.1 258.929 8.55 255.304 8.55ZM255.229 10.775C257.329 10.775 258.179 12.975 258.179 14.875C258.179 17.35 256.954 19.05 255.204 19.05C253.354 19.05 252.179 17.275 252.179 14.925C252.179 12.9 253.054 10.775 255.229 10.775ZM265.515 21H268.59V13.825C268.59 13.475 268.64 13.1 268.74 12.85C269.065 11.925 269.915 11.05 271.14 11.05C272.815 11.05 273.465 12.375 273.465 14.125V21H276.54V13.775C276.54 9.925 274.34 8.55 272.215 8.55C270.19 8.55 268.865 9.7 268.315 10.65H268.24L268.09 8.825H265.415C265.465 9.875 265.515 11.05 265.515 12.45V21Z" fill="black"/>
<rect x="247" y="134" width="190" height="190" fill="#FFDB65"/>
<circle cx="279.347" cy="164.598" r="13.1135" fill="#FCF696"/>
<circle cx="279.347" cy="207.727" r="13.1135" fill="#FCF696"/>
<circle cx="279.347" cy="250.856" r="13.1135" fill="#FCF696"/>
<circle cx="279.347" cy="293.985" r="13.1135" fill="#FCF696"/>
<circle cx="321.31" cy="164.598" r="13.1135" fill="#FCF696"/>
<circle cx="321.31" cy="207.727" r="13.1135" fill="#FCF696"/>
<circle cx="321.31" cy="250.856" r="13.1135" fill="#FCF696"/>
<circle cx="321.31" cy="293.985" r="13.1135" fill="#FCF696"/>
<circle cx="363.273" cy="164.598" r="13.1135" fill="#FCF696"/>
<circle cx="363.273" cy="207.727" r="13.1135" fill="#FCF696"/>
<circle cx="363.273" cy="250.856" r="13.1135" fill="#FCF696"/>
<circle cx="363.273" cy="293.985" r="13.1135" fill="#FCF696"/>
<circle cx="405.236" cy="164.598" r="13.1135" fill="#FCF696"/>
<circle cx="405.236" cy="207.727" r="13.1135" fill="#FCF696"/>
<circle cx="405.236" cy="250.856" r="13.1135" fill="#FCF696"/>
<circle cx="405.236" cy="293.985" r="13.1135" fill="#FCF696"/>
<path d="M8.57027 359H10.7663V354.41C11.0723 354.482 11.4323 354.5 11.8463 354.5C13.4123 354.5 14.7803 354.068 15.6803 353.186C16.3463 352.538 16.7063 351.602 16.7063 350.45C16.7063 349.316 16.2383 348.362 15.5183 347.768C14.7443 347.12 13.5743 346.778 11.9543 346.778C10.4783 346.778 9.38027 346.886 8.57027 347.03V359ZM10.7663 348.596C11.0003 348.542 11.4323 348.488 12.0443 348.488C13.5743 348.488 14.5103 349.19 14.5103 350.54C14.5103 351.944 13.5023 352.772 11.8463 352.772C11.3963 352.772 11.0543 352.754 10.7663 352.664V348.596ZM19.6522 359H21.8662V346.22H19.6522V359ZM32.8793 355.238C32.9153 355.04 32.9513 354.716 32.9513 354.302C32.9513 352.376 32.0153 350.036 29.1713 350.036C26.3633 350.036 24.8873 352.322 24.8873 354.752C24.8873 357.434 26.5613 359.18 29.4053 359.18C30.6653 359.18 31.7093 358.946 32.4653 358.622L32.1413 357.11C31.4573 357.344 30.7373 357.506 29.7113 357.506C28.2893 357.506 27.0653 356.822 27.0113 355.238H32.8793ZM27.0113 353.69C27.1013 352.79 27.6773 351.548 29.0453 351.548C30.5213 351.548 30.8813 352.88 30.8633 353.69H27.0113ZM42.7005 353.744C42.7005 351.818 41.8905 350.036 39.0825 350.036C37.6965 350.036 36.5625 350.414 35.9145 350.81L36.3465 352.25C36.9405 351.872 37.8405 351.602 38.7045 351.602C40.2525 351.602 40.4865 352.556 40.4865 353.132V353.276C37.2465 353.258 35.2845 354.392 35.2845 356.588C35.2845 357.92 36.2745 359.198 38.0385 359.198C39.1905 359.198 40.1085 358.712 40.6305 358.028H40.6845L40.8465 359H42.8445C42.7365 358.46 42.7005 357.686 42.7005 356.894V353.744ZM40.5405 355.922C40.5405 356.084 40.5405 356.246 40.4865 356.408C40.2705 357.038 39.6405 357.614 38.7405 357.614C38.0385 357.614 37.4805 357.218 37.4805 356.354C37.4805 355.022 38.9745 354.698 40.5405 354.716V355.922ZM45.6671 358.568C46.3151 358.928 47.2691 359.18 48.3311 359.18C50.6531 359.18 51.8951 358.028 51.8951 356.426C51.8771 355.13 51.1571 354.32 49.5551 353.762C48.4391 353.348 48.0251 353.096 48.0251 352.538C48.0251 351.998 48.4571 351.602 49.2491 351.602C50.0231 351.602 50.7431 351.89 51.1031 352.106L51.5531 350.558C51.0311 350.27 50.1851 350.036 49.2131 350.036C47.1791 350.036 45.9011 351.224 45.9011 352.772C45.9011 353.816 46.6031 354.752 48.3131 355.328C49.3931 355.724 49.7531 356.012 49.7531 356.606C49.7531 357.182 49.3211 357.596 48.3491 357.596C47.5571 357.596 46.6031 357.254 46.1171 356.948L45.6671 358.568ZM62.317 355.238C62.353 355.04 62.389 354.716 62.389 354.302C62.389 352.376 61.453 350.036 58.609 350.036C55.801 350.036 54.325 352.322 54.325 354.752C54.325 357.434 55.999 359.18 58.843 359.18C60.103 359.18 61.147 358.946 61.903 358.622L61.579 357.11C60.895 357.344 60.175 357.506 59.149 357.506C57.727 357.506 56.503 356.822 56.449 355.238H62.317ZM56.449 353.69C56.539 352.79 57.115 351.548 58.483 351.548C59.959 351.548 60.319 352.88 60.301 353.69H56.449ZM69.2948 350.234L71.8868 359H73.9568L75.0728 355.436C75.3248 354.572 75.5408 353.708 75.7388 352.628H75.7748C75.9728 353.69 76.1708 354.518 76.4408 355.436L77.4848 359H79.5368L82.2908 350.234H80.1128L79.1408 354.122C78.9068 355.148 78.6908 356.102 78.5648 357.056H78.5288C78.3308 356.102 78.0968 355.148 77.8268 354.122L76.7288 350.234H74.9288L73.7768 354.23C73.5428 355.13 73.2548 356.102 73.0748 357.056H73.0388C72.8768 356.102 72.6788 355.148 72.4628 354.212L71.5628 350.234H69.2948ZM91.5818 353.744C91.5818 351.818 90.7718 350.036 87.9638 350.036C86.5778 350.036 85.4438 350.414 84.7958 350.81L85.2278 352.25C85.8218 351.872 86.7218 351.602 87.5858 351.602C89.1338 351.602 89.3678 352.556 89.3678 353.132V353.276C86.1278 353.258 84.1658 354.392 84.1658 356.588C84.1658 357.92 85.1558 359.198 86.9198 359.198C88.0718 359.198 88.9898 358.712 89.5118 358.028H89.5658L89.7278 359H91.7258C91.6178 358.46 91.5818 357.686 91.5818 356.894V353.744ZM89.4218 355.922C89.4218 356.084 89.4218 356.246 89.3678 356.408C89.1518 357.038 88.5218 357.614 87.6218 357.614C86.9198 357.614 86.3618 357.218 86.3618 356.354C86.3618 355.022 87.8558 354.698 89.4218 354.716V355.922ZM95.0884 359H97.3024V346.22H95.0884V359ZM103.095 346.22H100.881V359H103.095V356.012L103.833 355.13L106.353 359H109.071L105.363 353.816L108.621 350.234H105.957L103.815 353.06C103.599 353.366 103.347 353.744 103.131 354.086H103.095V346.22ZM118.572 359V351.89H120.462V350.234H118.554V349.784C118.554 348.704 118.914 347.786 120.012 347.786C120.426 347.786 120.714 347.858 120.966 347.948L121.11 346.238C120.768 346.13 120.3 346.022 119.706 346.022C118.932 346.022 118.068 346.256 117.42 346.868C116.664 347.588 116.358 348.722 116.358 349.856V350.234H115.17V351.89H116.358V359H118.572ZM126.809 350.036C124.163 350.036 122.273 351.8 122.273 354.68C122.273 357.506 124.199 359.198 126.665 359.198C128.897 359.198 131.165 357.758 131.165 354.536C131.165 351.872 129.419 350.036 126.809 350.036ZM126.755 351.638C128.267 351.638 128.879 353.222 128.879 354.59C128.879 356.372 127.997 357.596 126.737 357.596C125.405 357.596 124.559 356.318 124.559 354.626C124.559 353.168 125.189 351.638 126.755 351.638ZM134.161 359H136.375V354.446C136.375 354.212 136.393 353.978 136.429 353.78C136.627 352.772 137.365 352.106 138.409 352.106C138.679 352.106 138.877 352.124 139.075 352.16V350.09C138.895 350.054 138.769 350.036 138.553 350.036C137.599 350.036 136.573 350.666 136.141 351.89H136.087L135.997 350.234H134.089C134.143 351.008 134.161 351.872 134.161 353.06V359ZM141.215 350.234L143.807 359H145.877L146.993 355.436C147.245 354.572 147.461 353.708 147.659 352.628H147.695C147.893 353.69 148.091 354.518 148.361 355.436L149.405 359H151.457L154.211 350.234H152.033L151.061 354.122C150.827 355.148 150.611 356.102 150.485 357.056H150.449C150.251 356.102 150.017 355.148 149.747 354.122L148.649 350.234H146.849L145.697 354.23C145.463 355.13 145.175 356.102 144.995 357.056H144.959C144.797 356.102 144.599 355.148 144.383 354.212L143.483 350.234H141.215ZM163.502 353.744C163.502 351.818 162.692 350.036 159.884 350.036C158.498 350.036 157.364 350.414 156.716 350.81L157.148 352.25C157.742 351.872 158.642 351.602 159.506 351.602C161.054 351.602 161.288 352.556 161.288 353.132V353.276C158.048 353.258 156.086 354.392 156.086 356.588C156.086 357.92 157.076 359.198 158.84 359.198C159.992 359.198 160.91 358.712 161.432 358.028H161.486L161.648 359H163.646C163.538 358.46 163.502 357.686 163.502 356.894V353.744ZM161.342 355.922C161.342 356.084 161.342 356.246 161.288 356.408C161.072 357.038 160.442 357.614 159.542 357.614C158.84 357.614 158.282 357.218 158.282 356.354C158.282 355.022 159.776 354.698 161.342 354.716V355.922ZM167.009 359H169.223V354.446C169.223 354.212 169.241 353.978 169.277 353.78C169.475 352.772 170.213 352.106 171.257 352.106C171.527 352.106 171.725 352.124 171.923 352.16V350.09C171.743 350.054 171.617 350.036 171.401 350.036C170.447 350.036 169.421 350.666 168.989 351.89H168.935L168.845 350.234H166.937C166.991 351.008 167.009 351.872 167.009 353.06V359ZM180.305 346.22V351.17H180.269C179.873 350.522 179.009 350.036 177.803 350.036C175.697 350.036 173.861 351.782 173.879 354.716C173.879 357.416 175.535 359.198 177.641 359.198C178.901 359.198 179.963 358.586 180.485 357.614H180.521L180.629 359H182.591C182.555 358.406 182.519 357.434 182.519 356.534V346.22H180.305ZM180.305 355.202C180.305 355.436 180.287 355.652 180.233 355.85C180.017 356.804 179.225 357.416 178.325 357.416C176.921 357.416 176.129 356.246 176.129 354.626C176.129 353.006 176.921 351.746 178.343 351.746C179.351 351.746 180.053 352.448 180.251 353.294C180.287 353.474 180.305 353.708 180.305 353.888V355.202Z" fill="#EB6100"/>
<path d="M240.676 359H242.872V354.41C243.178 354.482 243.538 354.5 243.952 354.5C245.518 354.5 246.886 354.068 247.786 353.186C248.452 352.538 248.812 351.602 248.812 350.45C248.812 349.316 248.344 348.362 247.624 347.768C246.85 347.12 245.68 346.778 244.06 346.778C242.584 346.778 241.486 346.886 240.676 347.03V359ZM242.872 348.596C243.106 348.542 243.538 348.488 244.15 348.488C245.68 348.488 246.616 349.19 246.616 350.54C246.616 351.944 245.608 352.772 243.952 352.772C243.502 352.772 243.16 352.754 242.872 352.664V348.596ZM251.757 359H253.971V346.22H251.757V359ZM264.985 355.238C265.021 355.04 265.057 354.716 265.057 354.302C265.057 352.376 264.121 350.036 261.277 350.036C258.469 350.036 256.993 352.322 256.993 354.752C256.993 357.434 258.667 359.18 261.511 359.18C262.771 359.18 263.815 358.946 264.571 358.622L264.247 357.11C263.563 357.344 262.843 357.506 261.817 357.506C260.395 357.506 259.171 356.822 259.117 355.238H264.985ZM259.117 353.69C259.207 352.79 259.783 351.548 261.151 351.548C262.627 351.548 262.987 352.88 262.969 353.69H259.117ZM274.806 353.744C274.806 351.818 273.996 350.036 271.188 350.036C269.802 350.036 268.668 350.414 268.02 350.81L268.452 352.25C269.046 351.872 269.946 351.602 270.81 351.602C272.358 351.602 272.592 352.556 272.592 353.132V353.276C269.352 353.258 267.39 354.392 267.39 356.588C267.39 357.92 268.38 359.198 270.144 359.198C271.296 359.198 272.214 358.712 272.736 358.028H272.79L272.952 359H274.95C274.842 358.46 274.806 357.686 274.806 356.894V353.744ZM272.646 355.922C272.646 356.084 272.646 356.246 272.592 356.408C272.376 357.038 271.746 357.614 270.846 357.614C270.144 357.614 269.586 357.218 269.586 356.354C269.586 355.022 271.08 354.698 272.646 354.716V355.922ZM277.772 358.568C278.42 358.928 279.374 359.18 280.436 359.18C282.758 359.18 284 358.028 284 356.426C283.982 355.13 283.262 354.32 281.66 353.762C280.544 353.348 280.13 353.096 280.13 352.538C280.13 351.998 280.562 351.602 281.354 351.602C282.128 351.602 282.848 351.89 283.208 352.106L283.658 350.558C283.136 350.27 282.29 350.036 281.318 350.036C279.284 350.036 278.006 351.224 278.006 352.772C278.006 353.816 278.708 354.752 280.418 355.328C281.498 355.724 281.858 356.012 281.858 356.606C281.858 357.182 281.426 357.596 280.454 357.596C279.662 357.596 278.708 357.254 278.222 356.948L277.772 358.568ZM294.422 355.238C294.458 355.04 294.494 354.716 294.494 354.302C294.494 352.376 293.558 350.036 290.714 350.036C287.906 350.036 286.43 352.322 286.43 354.752C286.43 357.434 288.104 359.18 290.948 359.18C292.208 359.18 293.252 358.946 294.008 358.622L293.684 357.11C293 357.344 292.28 357.506 291.254 357.506C289.832 357.506 288.608 356.822 288.554 355.238H294.422ZM288.554 353.69C288.644 352.79 289.22 351.548 290.588 351.548C292.064 351.548 292.424 352.88 292.406 353.69H288.554ZM302.336 362.564H304.55V358.028H304.586C305.036 358.73 305.954 359.198 307.052 359.198C309.05 359.198 311.048 357.668 311.048 354.5C311.048 351.764 309.374 350.036 307.358 350.036C306.026 350.036 305 350.594 304.352 351.584H304.316L304.208 350.234H302.264C302.3 351.062 302.336 351.998 302.336 353.15V362.564ZM304.55 353.978C304.55 353.798 304.586 353.6 304.622 353.42C304.856 352.448 305.702 351.782 306.62 351.782C308.042 351.782 308.798 353.042 308.798 354.59C308.798 356.318 307.97 357.488 306.566 357.488C305.612 357.488 304.838 356.84 304.604 355.94C304.568 355.742 304.55 355.544 304.55 355.328V353.978ZM320.839 353.744C320.839 351.818 320.029 350.036 317.221 350.036C315.835 350.036 314.701 350.414 314.053 350.81L314.485 352.25C315.079 351.872 315.979 351.602 316.843 351.602C318.391 351.602 318.625 352.556 318.625 353.132V353.276C315.385 353.258 313.423 354.392 313.423 356.588C313.423 357.92 314.413 359.198 316.177 359.198C317.329 359.198 318.247 358.712 318.769 358.028H318.823L318.985 359H320.983C320.875 358.46 320.839 357.686 320.839 356.894V353.744ZM318.679 355.922C318.679 356.084 318.679 356.246 318.625 356.408C318.409 357.038 317.779 357.614 316.879 357.614C316.177 357.614 315.619 357.218 315.619 356.354C315.619 355.022 317.113 354.698 318.679 354.716V355.922ZM323.126 350.234L326.348 358.28C326.438 358.496 326.456 358.622 326.456 358.712C326.456 358.82 326.42 358.946 326.33 359.108C326.024 359.702 325.538 360.224 325.106 360.494C324.656 360.818 324.206 361.016 323.828 361.106L324.332 362.96C324.872 362.888 325.772 362.6 326.654 361.844C327.68 360.944 328.49 359.486 329.696 356.21L331.892 350.234H329.534L328.166 354.914C327.986 355.472 327.824 356.138 327.698 356.624H327.644C327.518 356.138 327.32 355.472 327.14 354.932L325.574 350.234H323.126ZM346.041 353.744C346.041 351.818 345.231 350.036 342.423 350.036C341.037 350.036 339.903 350.414 339.255 350.81L339.687 352.25C340.281 351.872 341.181 351.602 342.045 351.602C343.593 351.602 343.827 352.556 343.827 353.132V353.276C340.587 353.258 338.625 354.392 338.625 356.588C338.625 357.92 339.615 359.198 341.379 359.198C342.531 359.198 343.449 358.712 343.971 358.028H344.025L344.187 359H346.185C346.077 358.46 346.041 357.686 346.041 356.894V353.744ZM343.881 355.922C343.881 356.084 343.881 356.246 343.827 356.408C343.611 357.038 342.981 357.614 342.081 357.614C341.379 357.614 340.821 357.218 340.821 356.354C340.821 355.022 342.315 354.698 343.881 354.716V355.922ZM349.802 348.596V350.234H348.56V351.89H349.802V356.012C349.802 357.164 350.018 357.974 350.504 358.478C350.918 358.928 351.584 359.198 352.412 359.198C353.096 359.198 353.69 359.09 354.014 358.964L353.978 357.29C353.726 357.362 353.51 357.38 353.114 357.38C352.268 357.38 351.98 356.84 351.98 355.76V351.89H354.086V350.234H351.98V347.984L349.802 348.596ZM357.282 348.596V350.234H356.04V351.89H357.282V356.012C357.282 357.164 357.498 357.974 357.984 358.478C358.398 358.928 359.064 359.198 359.892 359.198C360.576 359.198 361.17 359.09 361.494 358.964L361.458 357.29C361.206 357.362 360.99 357.38 360.594 357.38C359.748 357.38 359.46 356.84 359.46 355.76V351.89H361.566V350.234H359.46V347.984L357.282 348.596ZM371.732 355.238C371.768 355.04 371.804 354.716 371.804 354.302C371.804 352.376 370.868 350.036 368.024 350.036C365.216 350.036 363.74 352.322 363.74 354.752C363.74 357.434 365.414 359.18 368.258 359.18C369.518 359.18 370.562 358.946 371.318 358.622L370.994 357.11C370.31 357.344 369.59 357.506 368.564 357.506C367.142 357.506 365.918 356.822 365.864 355.238H371.732ZM365.864 353.69C365.954 352.79 366.53 351.548 367.898 351.548C369.374 351.548 369.734 352.88 369.716 353.69H365.864ZM374.749 359H376.963V353.834C376.963 353.582 376.999 353.312 377.071 353.132C377.305 352.466 377.917 351.836 378.799 351.836C380.005 351.836 380.473 352.79 380.473 354.05V359H382.687V353.798C382.687 351.026 381.103 350.036 379.573 350.036C378.115 350.036 377.161 350.864 376.765 351.548H376.711L376.603 350.234H374.677C374.713 350.99 374.749 351.836 374.749 352.844V359ZM386.492 348.596V350.234H385.25V351.89H386.492V356.012C386.492 357.164 386.708 357.974 387.194 358.478C387.608 358.928 388.274 359.198 389.102 359.198C389.786 359.198 390.38 359.09 390.704 358.964L390.668 357.29C390.416 357.362 390.2 357.38 389.804 357.38C388.958 357.38 388.67 356.84 388.67 355.76V351.89H390.776V350.234H388.67V347.984L386.492 348.596ZM395.826 359V350.234H393.612V359H395.826ZM394.728 346.58C393.99 346.58 393.486 347.102 393.486 347.786C393.486 348.434 393.972 348.974 394.71 348.974C395.484 348.974 395.97 348.434 395.97 347.786C395.952 347.102 395.484 346.58 394.728 346.58ZM403.366 350.036C400.72 350.036 398.83 351.8 398.83 354.68C398.83 357.506 400.756 359.198 403.222 359.198C405.454 359.198 407.722 357.758 407.722 354.536C407.722 351.872 405.976 350.036 403.366 350.036ZM403.312 351.638C404.824 351.638 405.436 353.222 405.436 354.59C405.436 356.372 404.554 357.596 403.294 357.596C401.962 357.596 401.116 356.318 401.116 354.626C401.116 353.168 401.746 351.638 403.312 351.638ZM410.718 359H412.932V353.834C412.932 353.582 412.968 353.312 413.04 353.132C413.274 352.466 413.886 351.836 414.768 351.836C415.974 351.836 416.442 352.79 416.442 354.05V359H418.656V353.798C418.656 351.026 417.072 350.036 415.542 350.036C414.084 350.036 413.13 350.864 412.734 351.548H412.68L412.572 350.234H410.646C410.682 350.99 410.718 351.836 410.718 352.844V359ZM427.445 348.596V350.234H426.203V351.89H427.445V356.012C427.445 357.164 427.661 357.974 428.147 358.478C428.561 358.928 429.227 359.198 430.055 359.198C430.739 359.198 431.333 359.09 431.657 358.964L431.621 357.29C431.369 357.362 431.153 357.38 430.757 357.38C429.911 357.38 429.623 356.84 429.623 355.76V351.89H431.729V350.234H429.623V347.984L427.445 348.596ZM438.438 350.036C435.792 350.036 433.902 351.8 433.902 354.68C433.902 357.506 435.828 359.198 438.294 359.198C440.526 359.198 442.794 357.758 442.794 354.536C442.794 351.872 441.048 350.036 438.438 350.036ZM438.384 351.638C439.896 351.638 440.508 353.222 440.508 354.59C440.508 356.372 439.626 357.596 438.366 357.596C437.034 357.596 436.188 356.318 436.188 354.626C436.188 353.168 436.818 351.638 438.384 351.638ZM283.23 379.092C282.798 379.272 282.24 379.434 281.484 379.434C279.972 379.434 278.802 378.408 278.802 376.608C278.784 375.006 279.792 373.764 281.484 373.764C282.276 373.764 282.798 373.926 283.158 374.106L283.554 372.432C283.05 372.216 282.222 372.036 281.412 372.036C278.334 372.036 276.534 374.07 276.534 376.698C276.534 379.416 278.316 381.18 281.052 381.18C282.15 381.18 283.068 380.946 283.536 380.73L283.23 379.092ZM286.348 381H288.562V375.744C288.562 375.51 288.58 375.276 288.652 375.078C288.904 374.412 289.516 373.836 290.38 373.836C291.604 373.836 292.072 374.808 292.072 376.068V381H294.286V375.834C294.286 373.026 292.72 372.036 291.226 372.036C290.668 372.036 290.146 372.18 289.696 372.432C289.246 372.666 288.868 373.008 288.598 373.422H288.562V368.22H286.348V381ZM304.623 375.744C304.623 373.818 303.813 372.036 301.005 372.036C299.619 372.036 298.485 372.414 297.837 372.81L298.269 374.25C298.863 373.872 299.763 373.602 300.627 373.602C302.175 373.602 302.409 374.556 302.409 375.132V375.276C299.169 375.258 297.207 376.392 297.207 378.588C297.207 379.92 298.197 381.198 299.961 381.198C301.113 381.198 302.031 380.712 302.553 380.028H302.607L302.769 381H304.767C304.659 380.46 304.623 379.686 304.623 378.894V375.744ZM302.463 377.922C302.463 378.084 302.463 378.246 302.409 378.408C302.193 379.038 301.563 379.614 300.663 379.614C299.961 379.614 299.403 379.218 299.403 378.354C299.403 377.022 300.897 376.698 302.463 376.716V377.922ZM308.129 381H310.343V375.834C310.343 375.582 310.379 375.312 310.451 375.132C310.685 374.466 311.297 373.836 312.179 373.836C313.385 373.836 313.853 374.79 313.853 376.05V381H316.067V375.798C316.067 373.026 314.483 372.036 312.953 372.036C311.495 372.036 310.541 372.864 310.145 373.548H310.091L309.983 372.234H308.057C308.093 372.99 308.129 373.836 308.129 374.844V381ZM327.538 374.754C327.538 373.548 327.574 372.828 327.61 372.234H325.684L325.594 373.404H325.558C325.144 372.684 324.37 372.036 323.02 372.036C320.914 372.036 319.042 373.782 319.042 376.662C319.042 379.146 320.59 380.946 322.768 380.946C323.938 380.946 324.82 380.424 325.324 379.65H325.36V380.406C325.36 382.296 324.28 383.052 322.84 383.052C321.778 383.052 320.842 382.71 320.284 382.386L319.798 384.06C320.554 384.51 321.742 384.762 322.858 384.762C324.064 384.762 325.342 384.51 326.242 383.7C327.16 382.872 327.538 381.558 327.538 379.722V374.754ZM325.324 377.166C325.324 377.418 325.306 377.724 325.234 377.94C324.982 378.75 324.262 379.29 323.434 379.29C322.048 379.29 321.292 378.084 321.292 376.59C321.292 374.808 322.21 373.728 323.452 373.728C324.388 373.728 325.018 374.34 325.252 375.15C325.306 375.33 325.324 375.528 325.324 375.744V377.166ZM338.522 377.238C338.558 377.04 338.594 376.716 338.594 376.302C338.594 374.376 337.658 372.036 334.814 372.036C332.006 372.036 330.53 374.322 330.53 376.752C330.53 379.434 332.204 381.18 335.048 381.18C336.308 381.18 337.352 380.946 338.108 380.622L337.784 379.11C337.1 379.344 336.38 379.506 335.354 379.506C333.932 379.506 332.708 378.822 332.654 377.238H338.522ZM332.654 375.69C332.744 374.79 333.32 373.548 334.688 373.548C336.164 373.548 336.524 374.88 336.506 375.69H332.654ZM341 380.568C341.648 380.928 342.602 381.18 343.664 381.18C345.986 381.18 347.228 380.028 347.228 378.426C347.21 377.13 346.49 376.32 344.888 375.762C343.772 375.348 343.358 375.096 343.358 374.538C343.358 373.998 343.79 373.602 344.582 373.602C345.356 373.602 346.076 373.89 346.436 374.106L346.886 372.558C346.364 372.27 345.518 372.036 344.546 372.036C342.512 372.036 341.234 373.224 341.234 374.772C341.234 375.816 341.936 376.752 343.646 377.328C344.726 377.724 345.086 378.012 345.086 378.606C345.086 379.182 344.654 379.596 343.682 379.596C342.89 379.596 341.936 379.254 341.45 378.948L341 380.568ZM361.916 375.744C361.916 373.818 361.106 372.036 358.298 372.036C356.912 372.036 355.778 372.414 355.13 372.81L355.562 374.25C356.156 373.872 357.056 373.602 357.92 373.602C359.468 373.602 359.702 374.556 359.702 375.132V375.276C356.462 375.258 354.5 376.392 354.5 378.588C354.5 379.92 355.49 381.198 357.254 381.198C358.406 381.198 359.324 380.712 359.846 380.028H359.9L360.062 381H362.06C361.952 380.46 361.916 379.686 361.916 378.894V375.744ZM359.756 377.922C359.756 378.084 359.756 378.246 359.702 378.408C359.486 379.038 358.856 379.614 357.956 379.614C357.254 379.614 356.696 379.218 356.696 378.354C356.696 377.022 358.19 376.698 359.756 376.716V377.922ZM365.423 381H367.637V375.744C367.637 375.51 367.655 375.276 367.727 375.078C367.979 374.412 368.591 373.836 369.455 373.836C370.679 373.836 371.147 374.808 371.147 376.068V381H373.361V375.834C373.361 373.026 371.795 372.036 370.301 372.036C369.743 372.036 369.221 372.18 368.771 372.432C368.321 372.666 367.943 373.008 367.673 373.422H367.637V368.22H365.423V381ZM384.327 377.238C384.363 377.04 384.399 376.716 384.399 376.302C384.399 374.376 383.463 372.036 380.619 372.036C377.811 372.036 376.335 374.322 376.335 376.752C376.335 379.434 378.009 381.18 380.853 381.18C382.113 381.18 383.157 380.946 383.913 380.622L383.589 379.11C382.905 379.344 382.185 379.506 381.159 379.506C379.737 379.506 378.513 378.822 378.459 377.238H384.327ZM378.459 375.69C378.549 374.79 379.125 373.548 380.493 373.548C381.969 373.548 382.329 374.88 382.311 375.69H378.459ZM394.149 375.744C394.149 373.818 393.339 372.036 390.531 372.036C389.145 372.036 388.011 372.414 387.363 372.81L387.795 374.25C388.389 373.872 389.289 373.602 390.153 373.602C391.701 373.602 391.935 374.556 391.935 375.132V375.276C388.695 375.258 386.733 376.392 386.733 378.588C386.733 379.92 387.723 381.198 389.487 381.198C390.639 381.198 391.557 380.712 392.079 380.028H392.133L392.295 381H394.293C394.185 380.46 394.149 379.686 394.149 378.894V375.744ZM391.989 377.922C391.989 378.084 391.989 378.246 391.935 378.408C391.719 379.038 391.089 379.614 390.189 379.614C389.487 379.614 388.929 379.218 388.929 378.354C388.929 377.022 390.423 376.698 391.989 376.716V377.922ZM403.523 368.22V373.17H403.487C403.091 372.522 402.227 372.036 401.021 372.036C398.915 372.036 397.079 373.782 397.097 376.716C397.097 379.416 398.753 381.198 400.859 381.198C402.119 381.198 403.181 380.586 403.703 379.614H403.739L403.847 381H405.809C405.773 380.406 405.737 379.434 405.737 378.534V368.22H403.523ZM403.523 377.202C403.523 377.436 403.505 377.652 403.451 377.85C403.235 378.804 402.443 379.416 401.543 379.416C400.139 379.416 399.347 378.246 399.347 376.626C399.347 375.006 400.139 373.746 401.561 373.746C402.569 373.746 403.271 374.448 403.469 375.294C403.505 375.474 403.523 375.708 403.523 375.888V377.202Z" fill="#EB6100"/>
<rect y="134" width="190" height="190" fill="#FFDB65"/>
<rect x="18.6503" y="151.485" width="26.227" height="155.613" rx="13.1135" fill="#FCF696"/>
<rect x="60.6135" y="151.485" width="26.227" height="155.613" rx="13.1135" fill="#FCF696"/>
<rect x="102.577" y="151.485" width="26.227" height="155.613" rx="13.1135" fill="#FCF696"/>
<rect x="144.54" y="151.485" width="26.227" height="155.613" rx="13.1135" fill="#FCF696"/>
<path d="M7.632 72.184L8.928 76H10.602L6.462 63.868H4.59L0.45 76H2.07L3.33 72.184H7.632ZM3.654 70.96L4.842 67.45C5.094 66.712 5.274 65.956 5.454 65.254H5.49C5.67 65.956 5.85 66.676 6.12 67.468L7.326 70.96H3.654ZM19.2345 74.506C18.7845 74.704 18.1905 74.92 17.2905 74.92C15.5625 74.92 14.2665 73.678 14.2665 71.662C14.2665 69.862 15.3465 68.368 17.3445 68.368C18.2085 68.368 18.8025 68.584 19.1805 68.782L19.5405 67.576C19.1085 67.342 18.2805 67.108 17.3445 67.108C14.5005 67.108 12.6645 69.07 12.6645 71.752C12.6645 74.416 14.3745 76.198 17.0025 76.198C18.1725 76.198 19.0905 75.892 19.5045 75.694L19.2345 74.506ZM28.3674 74.506C27.9174 74.704 27.3234 74.92 26.4234 74.92C24.6954 74.92 23.3994 73.678 23.3994 71.662C23.3994 69.862 24.4794 68.368 26.4774 68.368C27.3414 68.368 27.9354 68.584 28.3134 68.782L28.6734 67.576C28.2414 67.342 27.4134 67.108 26.4774 67.108C23.6334 67.108 21.7974 69.07 21.7974 71.752C21.7974 74.416 23.5074 76.198 26.1354 76.198C27.3054 76.198 28.2234 75.892 28.6374 75.694L28.3674 74.506ZM35.2503 67.108C32.8563 67.108 30.9303 68.818 30.9303 71.716C30.9303 74.47 32.7663 76.198 35.1063 76.198C37.1943 76.198 39.4443 74.794 39.4443 71.572C39.4443 68.926 37.7523 67.108 35.2503 67.108ZM35.2143 68.296C37.0863 68.296 37.8243 70.15 37.8243 71.626C37.8243 73.588 36.6903 75.01 35.1783 75.01C33.6303 75.01 32.5503 73.57 32.5503 71.662C32.5503 70.024 33.3603 68.296 35.2143 68.296ZM42.6092 76H44.1932V71.356C44.1932 71.104 44.2112 70.834 44.2472 70.618C44.4632 69.43 45.2552 68.602 46.3712 68.602C46.5872 68.602 46.7492 68.602 46.9112 68.638V67.144C46.7672 67.126 46.6412 67.108 46.4792 67.108C45.4172 67.108 44.4452 67.846 44.0492 69.016H43.9952L43.9232 67.288H42.5372C42.5912 68.098 42.6092 68.98 42.6092 70.006V76ZM55.4321 63.22V68.422H55.3961C55.0001 67.738 54.1181 67.108 52.7681 67.108C50.6621 67.108 48.8441 68.872 48.8621 71.77C48.8621 74.416 50.5001 76.198 52.6061 76.198C54.0281 76.198 55.0721 75.46 55.5401 74.488H55.5941L55.6661 76H57.0701C57.0341 75.406 56.9981 74.524 56.9981 73.75V63.22H55.4321ZM55.4321 72.346C55.4321 72.598 55.4141 72.814 55.3601 73.03C55.0721 74.2 54.1001 74.92 53.0381 74.92C51.3461 74.92 50.4641 73.462 50.4641 71.698C50.4641 69.79 51.4361 68.35 53.0741 68.35C54.2621 68.35 55.1261 69.178 55.3601 70.168C55.4141 70.366 55.4321 70.636 55.4321 70.834V72.346ZM62.4063 76V67.288H60.8223V76H62.4063ZM61.6143 63.85C61.0203 63.85 60.6243 64.3 60.6243 64.84C60.6243 65.38 61.0023 65.812 61.5783 65.812C62.2083 65.812 62.5863 65.38 62.5863 64.84C62.5863 64.282 62.1903 63.85 61.6143 63.85ZM66.211 76H67.795V70.762C67.795 70.492 67.831 70.222 67.903 70.024C68.191 69.142 69.001 68.404 70.027 68.404C71.521 68.404 72.043 69.574 72.043 70.978V76H73.627V70.816C73.627 67.828 71.755 67.108 70.549 67.108C69.109 67.108 68.101 67.918 67.669 68.728H67.633L67.543 67.288H66.139C66.193 68.008 66.211 68.728 66.211 69.646V76ZM84.8174 69.664C84.8174 68.62 84.8354 67.9 84.8894 67.288H83.4854L83.4314 68.602H83.3954C82.9994 67.882 82.1894 67.108 80.6774 67.108C78.6614 67.108 76.7354 68.764 76.7354 71.716C76.7354 74.128 78.2834 75.964 80.4434 75.964C81.7934 75.964 82.7474 75.316 83.2154 74.506H83.2514V75.46C83.2514 77.674 82.0634 78.52 80.4434 78.52C79.3634 78.52 78.4634 78.196 77.8874 77.818L77.4914 79.042C78.1934 79.51 79.3454 79.762 80.3894 79.762C81.4874 79.762 82.7114 79.492 83.5754 78.718C84.4034 77.944 84.8174 76.738 84.8174 74.722V69.664ZM83.2334 72.292C83.2334 72.562 83.1974 72.868 83.1074 73.138C82.7834 74.146 81.9014 74.758 80.9114 74.758C79.2194 74.758 78.3374 73.336 78.3374 71.626C78.3374 69.61 79.4174 68.332 80.9294 68.332C82.0994 68.332 82.8554 69.088 83.1434 70.024C83.2154 70.222 83.2334 70.456 83.2334 70.726V72.292ZM93.9345 65.668V67.288H92.5845V68.494H93.9345V73.246C93.9345 74.272 94.1145 75.046 94.5465 75.532C94.9245 75.946 95.5185 76.198 96.2565 76.198C96.8685 76.198 97.3545 76.09 97.6605 75.982L97.5885 74.776C97.3545 74.848 97.1025 74.884 96.6705 74.884C95.7885 74.884 95.4825 74.272 95.4825 73.192V68.494H97.7505V67.288H95.4825V65.2L93.9345 65.668ZM104.288 67.108C101.894 67.108 99.9681 68.818 99.9681 71.716C99.9681 74.47 101.804 76.198 104.144 76.198C106.232 76.198 108.482 74.794 108.482 71.572C108.482 68.926 106.79 67.108 104.288 67.108ZM104.252 68.296C106.124 68.296 106.862 70.15 106.862 71.626C106.862 73.588 105.728 75.01 104.216 75.01C102.668 75.01 101.588 73.57 101.588 71.662C101.588 70.024 102.398 68.296 104.252 68.296ZM124.533 73.57C123.939 73.822 123.093 73.966 122.229 73.966C120.105 73.966 119.007 72.67 119.007 70.744C119.007 69.052 119.673 67.684 120.681 66.838C121.419 66.226 122.409 65.902 123.453 65.902C124.497 65.902 125.307 66.136 125.649 66.298L126.369 64.192C126.009 63.994 125.019 63.688 123.705 63.688C121.995 63.688 120.519 64.102 119.259 64.966C117.423 66.19 116.199 68.314 116.199 71.032C116.199 74.218 118.341 76.18 121.563 76.18C123.021 76.18 124.101 75.946 124.749 75.658L124.533 73.57ZM132.672 66.982C129.54 66.982 127.416 69.502 127.416 72.544C127.416 74.74 128.91 76.198 131.142 76.198C134.184 76.198 136.398 73.84 136.398 70.618C136.398 68.602 135.03 66.982 132.672 66.982ZM132.33 68.962C133.356 68.962 133.716 69.826 133.716 70.636C133.716 72.13 132.906 74.218 131.52 74.218C130.602 74.218 130.098 73.534 130.098 72.508C130.098 71.14 130.836 68.962 132.33 68.962ZM146.181 63.22L145.407 67.198C145.029 67.054 144.561 66.982 144.201 66.982C140.871 66.982 138.657 69.808 138.657 72.868C138.657 75.01 139.881 76.198 141.375 76.198C142.419 76.198 143.499 75.748 144.273 74.578H144.309L144.183 76H146.559C146.595 74.956 146.757 73.696 146.973 72.58L148.755 63.22H146.181ZM144.579 71.626C144.237 73.318 143.319 74.11 142.563 74.11C141.825 74.11 141.357 73.516 141.357 72.454C141.357 70.762 142.455 68.962 144.021 68.962C144.435 68.962 144.831 69.088 145.047 69.268L144.579 71.626ZM156.847 73.624C156.145 73.966 155.335 74.182 154.381 74.182C153.625 74.182 153.031 73.948 152.689 73.498C152.509 73.246 152.419 72.85 152.401 72.598C155.947 72.688 158.125 71.878 158.125 69.646C158.125 68.008 156.847 67 155.065 67C151.879 67 149.935 69.79 149.935 72.472C149.935 74.776 151.231 76.198 153.733 76.198C154.723 76.198 156.001 76.018 157.027 75.496L156.847 73.624ZM155.695 69.628C155.695 70.456 154.687 70.726 152.653 70.708C152.833 69.898 153.535 68.89 154.741 68.89C155.335 68.89 155.695 69.196 155.695 69.628ZM159.547 75.496C160.069 75.874 161.113 76.162 162.229 76.18C164.569 76.198 166.279 75.1 166.279 73.084C166.279 71.86 165.271 71.158 164.299 70.672C163.597 70.33 163.237 70.024 163.237 69.664C163.237 69.178 163.687 68.89 164.389 68.89C165.145 68.89 165.775 69.106 166.135 69.268L166.765 67.432C166.333 67.198 165.523 66.982 164.497 66.982C162.229 66.982 160.627 68.188 160.627 70.024C160.627 71.122 161.473 71.86 162.481 72.364C163.291 72.76 163.579 73.066 163.579 73.498C163.579 73.93 163.201 74.29 162.463 74.29C161.617 74.29 160.681 73.93 160.177 73.678L159.547 75.496ZM173.093 76H175.685L176.603 71.104H180.815L181.247 68.926H177.017L177.575 66.082H182.075L182.507 63.868H175.397L173.093 76ZM188.471 66.982C185.339 66.982 183.215 69.502 183.215 72.544C183.215 74.74 184.709 76.198 186.941 76.198C189.983 76.198 192.197 73.84 192.197 70.618C192.197 68.602 190.829 66.982 188.471 66.982ZM188.129 68.962C189.155 68.962 189.515 69.826 189.515 70.636C189.515 72.13 188.705 74.218 187.319 74.218C186.401 74.218 185.897 73.534 185.897 72.508C185.897 71.14 186.635 68.962 188.129 68.962ZM196.726 76L197.338 72.724C197.662 70.996 198.436 69.52 200.092 69.52C200.236 69.52 200.38 69.52 200.506 69.538L201.01 67.018C200.848 67 200.686 67 200.524 67C199.318 67 198.346 67.828 197.716 68.998H197.662C197.734 68.386 197.77 67.792 197.824 67.198H195.574C195.484 67.954 195.376 69.43 195.124 70.762L194.134 76H196.726ZM213.389 72.85L213.623 76H216.359L214.937 63.868H211.607L205.703 76H208.475L209.897 72.85H213.389ZM210.653 70.87L211.859 68.26C212.183 67.558 212.525 66.622 212.831 65.884H212.867C212.921 66.622 212.993 67.594 213.029 68.26L213.281 70.87H210.653ZM225.024 73.75C224.574 73.93 224.034 74.11 223.278 74.11C222.324 74.11 221.55 73.498 221.55 72.292C221.55 70.636 222.702 69.07 224.538 69.07C225.06 69.07 225.42 69.16 225.726 69.286L226.374 67.288C225.978 67.144 225.33 67 224.574 67C221.226 67 218.832 69.448 218.832 72.58C218.832 74.848 220.362 76.18 222.54 76.18C223.584 76.18 224.484 75.982 225.042 75.712L225.024 73.75ZM233.841 73.75C233.391 73.93 232.851 74.11 232.095 74.11C231.141 74.11 230.367 73.498 230.367 72.292C230.367 70.636 231.519 69.07 233.355 69.07C233.877 69.07 234.237 69.16 234.543 69.286L235.191 67.288C234.795 67.144 234.147 67 233.391 67C230.043 67 227.649 69.448 227.649 72.58C227.649 74.848 229.179 76.18 231.357 76.18C232.401 76.18 233.301 75.982 233.859 75.712L233.841 73.75ZM243.359 73.624C242.657 73.966 241.847 74.182 240.893 74.182C240.137 74.182 239.543 73.948 239.201 73.498C239.021 73.246 238.931 72.85 238.913 72.598C242.459 72.688 244.637 71.878 244.637 69.646C244.637 68.008 243.359 67 241.577 67C238.391 67 236.447 69.79 236.447 72.472C236.447 74.776 237.743 76.198 240.245 76.198C241.235 76.198 242.513 76.018 243.539 75.496L243.359 73.624ZM242.207 69.628C242.207 70.456 241.199 70.726 239.165 70.708C239.345 69.898 240.047 68.89 241.253 68.89C241.847 68.89 242.207 69.196 242.207 69.628ZM246.059 75.496C246.581 75.874 247.625 76.162 248.741 76.18C251.081 76.198 252.791 75.1 252.791 73.084C252.791 71.86 251.783 71.158 250.811 70.672C250.109 70.33 249.749 70.024 249.749 69.664C249.749 69.178 250.199 68.89 250.901 68.89C251.657 68.89 252.287 69.106 252.647 69.268L253.277 67.432C252.845 67.198 252.035 66.982 251.009 66.982C248.741 66.982 247.139 68.188 247.139 70.024C247.139 71.122 247.985 71.86 248.993 72.364C249.803 72.76 250.091 73.066 250.091 73.498C250.091 73.93 249.713 74.29 248.975 74.29C248.129 74.29 247.193 73.93 246.689 73.678L246.059 75.496ZM254.717 75.496C255.239 75.874 256.283 76.162 257.399 76.18C259.739 76.198 261.449 75.1 261.449 73.084C261.449 71.86 260.441 71.158 259.469 70.672C258.767 70.33 258.407 70.024 258.407 69.664C258.407 69.178 258.857 68.89 259.559 68.89C260.315 68.89 260.945 69.106 261.305 69.268L261.935 67.432C261.503 67.198 260.693 66.982 259.667 66.982C257.399 66.982 255.797 68.188 255.797 70.024C255.797 71.122 256.643 71.86 257.651 72.364C258.461 72.76 258.749 73.066 258.749 73.498C258.749 73.93 258.371 74.29 257.633 74.29C256.787 74.29 255.851 73.93 255.347 73.678L254.717 75.496ZM266.274 76L267.948 67.198H265.356L263.682 76H266.274ZM266.994 66.1C267.822 66.1 268.524 65.56 268.524 64.642C268.524 63.868 267.984 63.364 267.21 63.364C266.418 63.364 265.716 63.958 265.716 64.84C265.716 65.596 266.238 66.1 266.958 66.1H266.994ZM272.009 63.22L270.227 72.13C270.119 72.652 270.029 73.192 270.029 73.732C270.029 75.298 271.073 76.198 273.161 76.198C277.121 76.198 278.993 72.922 278.993 70.078C278.993 68.512 278.165 67 276.329 67C275.249 67 274.259 67.486 273.611 68.26H273.575L274.619 63.22H272.009ZM272.963 71.572C273.269 70.042 274.187 69.106 275.123 69.106C275.915 69.106 276.275 69.754 276.275 70.618C276.275 72.148 275.213 74.236 273.701 74.236C273.089 74.236 272.729 73.894 272.711 73.264C272.693 72.904 272.747 72.58 272.801 72.292L272.963 71.572ZM283.45 76L285.124 67.198H282.532L280.858 76H283.45ZM284.17 66.1C284.998 66.1 285.7 65.56 285.7 64.642C285.7 63.868 285.16 63.364 284.386 63.364C283.594 63.364 282.892 63.958 282.892 64.84C282.892 65.596 283.414 66.1 284.134 66.1H284.17ZM289.383 76L291.831 63.22H289.239L286.791 76H289.383ZM295.317 76L296.991 67.198H294.399L292.725 76H295.317ZM296.037 66.1C296.865 66.1 297.567 65.56 297.567 64.642C297.567 63.868 297.027 63.364 296.253 63.364C295.461 63.364 294.759 63.958 294.759 64.84C294.759 65.596 295.281 66.1 296.001 66.1H296.037ZM300.963 65.524L300.639 67.18H299.505L299.145 69.16H300.261L299.595 72.652C299.451 73.336 299.397 73.822 299.397 74.29C299.397 75.406 300.135 76.198 301.701 76.198C302.241 76.198 302.889 76.126 303.231 76L303.519 73.966C303.303 74.002 303.033 74.002 302.817 74.002C302.241 74.002 302.061 73.696 302.061 73.264C302.061 72.958 302.133 72.49 302.205 72.148L302.799 69.16H304.671L305.067 67.18H303.177L303.627 64.804L300.963 65.524ZM306.803 67.198L308.531 75.19C308.567 75.37 308.567 75.478 308.495 75.622C308.153 76.216 307.649 76.738 307.055 77.152C306.551 77.494 305.975 77.71 305.561 77.836L306.137 80.068C306.713 79.978 307.937 79.528 308.963 78.556C310.133 77.458 311.177 75.874 312.347 73.534L315.497 67.198H312.761L311.159 71.086C310.781 72.04 310.583 72.598 310.385 73.138H310.349C310.277 72.58 310.187 71.95 310.061 71.032L309.521 67.198H306.803ZM320.963 75.856C321.575 75.964 322.835 76.09 324.293 76.09C326.921 76.09 328.703 75.604 330.107 74.47C331.601 73.264 332.591 71.248 332.591 68.89C332.591 67.09 331.979 65.902 330.989 65.092C329.963 64.21 328.469 63.778 326.579 63.778C325.391 63.778 324.257 63.868 323.213 64.048L320.963 75.856ZM325.481 65.938C325.751 65.884 326.129 65.848 326.579 65.848C328.721 65.848 329.783 66.982 329.783 68.908C329.783 70.366 329.351 71.644 328.523 72.58C327.731 73.498 326.489 73.984 325.085 73.984C324.635 73.984 324.257 73.966 323.951 73.93L325.481 65.938ZM341.581 73.624C340.879 73.966 340.069 74.182 339.115 74.182C338.359 74.182 337.765 73.948 337.423 73.498C337.243 73.246 337.153 72.85 337.135 72.598C340.681 72.688 342.859 71.878 342.859 69.646C342.859 68.008 341.581 67 339.799 67C336.613 67 334.669 69.79 334.669 72.472C334.669 74.776 335.965 76.198 338.467 76.198C339.457 76.198 340.735 76.018 341.761 75.496L341.581 73.624ZM340.429 69.628C340.429 70.456 339.421 70.726 337.387 70.708C337.567 69.898 338.269 68.89 339.475 68.89C340.069 68.89 340.429 69.196 340.429 69.628ZM344.281 75.496C344.803 75.874 345.847 76.162 346.963 76.18C349.303 76.198 351.013 75.1 351.013 73.084C351.013 71.86 350.005 71.158 349.033 70.672C348.331 70.33 347.971 70.024 347.971 69.664C347.971 69.178 348.421 68.89 349.123 68.89C349.879 68.89 350.509 69.106 350.869 69.268L351.499 67.432C351.067 67.198 350.257 66.982 349.231 66.982C346.963 66.982 345.361 68.188 345.361 70.024C345.361 71.122 346.207 71.86 347.215 72.364C348.025 72.76 348.313 73.066 348.313 73.498C348.313 73.93 347.935 74.29 347.197 74.29C346.351 74.29 345.415 73.93 344.911 73.678L344.281 75.496ZM355.837 76L357.511 67.198H354.919L353.245 76H355.837ZM356.557 66.1C357.385 66.1 358.087 65.56 358.087 64.642C358.087 63.868 357.547 63.364 356.773 63.364C355.981 63.364 355.279 63.958 355.279 64.84C355.279 65.596 355.801 66.1 356.521 66.1H356.557ZM359.143 79.204C359.755 79.546 360.835 79.762 362.023 79.762C363.193 79.762 364.471 79.528 365.425 78.772C366.469 77.926 366.973 76.486 367.279 74.866L368.611 67.612C367.675 67.234 366.595 67 365.353 67C361.519 67 359.431 69.88 359.449 72.778C359.467 74.506 360.529 75.928 362.275 75.928C363.319 75.928 364.111 75.514 364.795 74.614H364.831L364.687 75.37C364.309 77.134 363.355 77.71 362.059 77.71C361.303 77.71 360.241 77.512 359.755 77.224L359.143 79.204ZM365.353 71.5C365.065 72.976 364.219 73.93 363.373 73.93C362.581 73.93 362.185 73.282 362.185 72.382C362.185 70.726 363.301 68.98 364.867 68.98C365.227 68.98 365.605 69.052 365.803 69.142L365.353 71.5ZM372.96 76L373.698 72.094C374.058 70.15 375.048 69.088 375.894 69.088C376.56 69.088 376.776 69.52 376.776 70.15C376.776 70.474 376.74 70.816 376.686 71.122L375.75 76H378.36L379.332 70.888C379.404 70.456 379.476 69.808 379.476 69.412C379.476 67.882 378.648 67 377.208 67C376.038 67 374.958 67.522 374.13 68.656H374.094L374.256 67.198H371.97C371.844 67.99 371.718 68.944 371.484 70.06L370.368 76H372.96ZM390.637 63.58C388.621 65.74 387.037 69.088 387.037 73.264C387.037 75.01 387.397 76.684 388.027 78.088H389.863C389.269 76.342 389.125 74.92 389.125 73.174C389.125 69.304 390.709 65.884 392.563 63.58H390.637ZM404.079 69.088H399.669L399.255 71.158H401.145L400.659 73.714C400.353 73.84 399.939 73.93 399.327 73.93C397.419 73.93 396.213 72.904 396.213 70.87C396.213 69.214 396.915 67.774 397.977 66.946C398.787 66.316 399.849 65.974 401.055 65.974C402.135 65.974 403.089 66.208 403.629 66.46L404.403 64.282C403.935 64.048 402.765 63.742 401.199 63.742C399.093 63.742 397.203 64.372 395.835 65.506C394.287 66.82 393.369 68.782 393.369 71.05C393.369 72.598 393.927 73.948 394.899 74.794C395.889 75.694 397.275 76.126 398.931 76.126C400.461 76.126 401.937 75.748 402.855 75.442L404.079 69.088ZM406.147 75.874C406.741 76 407.839 76.09 409.207 76.09C411.223 76.09 412.753 75.802 413.779 75.1C414.733 74.47 415.435 73.534 415.435 72.22C415.435 70.888 414.697 69.934 413.527 69.574V69.52C414.859 69.142 415.975 68.17 415.975 66.64C415.975 65.614 415.381 64.822 414.571 64.408C413.761 63.94 412.843 63.778 411.565 63.778C410.377 63.778 409.243 63.886 408.379 64.066L406.147 75.874ZM410.611 65.866C410.809 65.83 411.187 65.794 411.637 65.794C412.627 65.794 413.329 66.172 413.329 67.036C413.329 68.08 412.357 68.692 410.935 68.692H410.071L410.611 65.866ZM409.675 70.582H410.485C411.691 70.582 412.699 70.942 412.699 72.148C412.699 73.498 411.421 74.056 410.017 74.056C409.639 74.056 409.333 74.056 409.027 74.02L409.675 70.582ZM431.502 64.3H425.22L423.546 70.348C424.014 70.312 424.428 70.276 424.986 70.276C427.236 70.276 427.884 71.032 427.884 72.076C427.884 73.336 426.48 74.02 425.202 74.02C424.212 74.02 423.276 73.732 422.808 73.444L422.142 75.514C422.592 75.874 423.762 76.198 425.166 76.198C428.118 76.198 430.584 74.542 430.584 71.608C430.584 70.51 430.116 69.574 429.288 69.016C428.568 68.494 427.542 68.296 426.876 68.296C426.678 68.296 426.57 68.314 426.372 68.332L426.93 66.514H431.052L431.502 64.3ZM439.008 64.102C435.408 64.102 433.518 68.296 433.518 71.986C433.518 74.344 434.472 76.198 436.92 76.198C440.61 76.198 442.374 71.77 442.374 68.116C442.374 66.028 441.51 64.102 439.008 64.102ZM438.702 66.154C439.692 66.154 439.818 67.342 439.818 68.134C439.818 69.682 439.008 74.146 437.226 74.146C436.2 74.146 436.074 72.958 436.074 72.076C436.074 70.366 436.974 66.154 438.702 66.154ZM445.903 64.3L445.471 66.514H450.565V66.55C448.459 69.7 446.335 72.85 444.211 76H447.091C449.233 72.67 451.375 69.34 453.517 66.028L453.841 64.3H445.903ZM463.867 64.138C463.615 64.12 463.345 64.102 462.895 64.138C461.149 64.228 459.421 64.804 458.107 65.848C456.487 67.126 455.209 69.43 455.209 72.094C455.209 74.398 456.487 76.198 459.115 76.198C461.869 76.198 463.795 73.93 463.795 71.428C463.795 69.484 462.535 68.152 460.807 68.152C459.871 68.152 459.043 68.476 458.395 69.052L458.359 69.034C458.953 67.648 460.357 66.478 462.499 66.28C462.895 66.244 463.183 66.226 463.471 66.244L463.867 64.138ZM459.205 74.2C458.269 74.2 457.747 73.39 457.747 72.382C457.747 72.184 457.747 71.986 457.783 71.752C457.801 71.572 457.873 71.338 457.981 71.158C458.341 70.528 458.953 70.078 459.673 70.078C460.537 70.078 461.113 70.672 461.113 71.698C461.113 72.796 460.447 74.2 459.205 74.2ZM465.685 75.406C466.207 75.838 467.503 76.198 468.997 76.198C471.553 76.198 474.055 74.794 474.055 72.346C474.055 70.996 473.227 70.024 472.021 69.772L472.039 69.736C473.479 69.376 474.631 68.296 474.631 66.838C474.631 65.002 472.939 64.102 470.977 64.102C469.789 64.102 468.547 64.426 467.683 64.894L468.043 66.838C468.583 66.532 469.465 66.262 470.455 66.262C471.463 66.262 471.895 66.694 471.895 67.27C471.895 68.332 470.509 68.818 469.303 68.818H468.889L468.511 70.798H468.961C470.491 70.798 471.355 71.302 471.355 72.364C471.355 73.3 470.491 74.02 469.033 74.02C467.881 74.02 466.945 73.624 466.477 73.372L465.685 75.406ZM481.716 70.366L481.356 72.184H486.018L486.378 70.366H481.716ZM500.326 76L500.722 73.786H496.528V73.75L497.698 72.922C499.75 71.338 501.658 69.682 501.658 67.288C501.658 65.488 500.38 64.102 498.022 64.102C496.672 64.102 495.322 64.534 494.386 65.11L494.908 66.964C495.52 66.586 496.348 66.28 497.392 66.28C498.418 66.28 498.994 66.874 498.994 67.702C498.994 69.106 497.5 70.474 495.16 72.382L492.64 74.326L492.316 76H500.326ZM509.47 64.102C505.87 64.102 503.98 68.296 503.98 71.986C503.98 74.344 504.934 76.198 507.382 76.198C511.072 76.198 512.836 71.77 512.836 68.116C512.836 66.028 511.972 64.102 509.47 64.102ZM509.164 66.154C510.154 66.154 510.28 67.342 510.28 68.134C510.28 69.682 509.47 74.146 507.688 74.146C506.662 74.146 506.536 72.958 506.536 72.076C506.536 70.366 507.436 66.154 509.164 66.154ZM517.48 76H519.964L522.178 64.3H520.054L516.814 65.722L516.904 67.738L519.19 66.73H519.226L517.48 76ZM533.05 76L533.446 73.786H529.252V73.75L530.422 72.922C532.474 71.338 534.382 69.682 534.382 67.288C534.382 65.488 533.104 64.102 530.746 64.102C529.396 64.102 528.046 64.534 527.11 65.11L527.632 66.964C528.244 66.586 529.072 66.28 530.116 66.28C531.142 66.28 531.718 66.874 531.718 67.702C531.718 69.106 530.224 70.474 527.884 72.382L525.364 74.326L525.04 76H533.05ZM537.281 78.088C539.279 75.91 540.863 72.562 540.863 68.386C540.863 66.658 540.521 64.984 539.891 63.58H538.037C538.631 65.326 538.775 66.73 538.775 68.476C538.775 72.346 537.173 75.784 535.337 78.088H537.281ZM544.237 78.106C544.741 77.26 545.533 75.262 545.965 73.732L544.201 73.912C544.003 75.226 543.517 77.152 543.121 78.232L544.237 78.106ZM1.674 87.668V89.288H0.324V90.494H1.674V95.246C1.674 96.272 1.854 97.046 2.286 97.532C2.664 97.946 3.258 98.198 3.996 98.198C4.608 98.198 5.094 98.09 5.4 97.982L5.328 96.776C5.094 96.848 4.842 96.884 4.41 96.884C3.528 96.884 3.222 96.272 3.222 95.192V90.494H5.49V89.288H3.222V87.2L1.674 87.668ZM8.44298 98H10.027V92.744C10.027 92.456 10.045 92.222 10.135 91.988C10.441 91.142 11.233 90.422 12.259 90.422C13.753 90.422 14.275 91.592 14.275 92.996V98H15.859V92.816C15.859 89.828 13.987 89.108 12.817 89.108C12.223 89.108 11.665 89.27 11.197 89.54C10.711 89.81 10.315 90.224 10.063 90.674H10.027V85.22H8.44298V98ZM26.5994 93.932C26.6354 93.752 26.6534 93.518 26.6534 93.194C26.6534 91.592 25.9154 89.108 23.0534 89.108C20.5154 89.108 18.9674 91.16 18.9674 93.788C18.9674 96.416 20.5694 98.198 23.2514 98.198C24.6374 98.198 25.6094 97.892 26.1674 97.64L25.8794 96.506C25.3034 96.758 24.6014 96.956 23.4674 96.956C21.8654 96.956 20.5154 96.074 20.4794 93.932H26.5994ZM20.4974 92.798C20.6234 91.7 21.3074 90.242 22.9274 90.242C24.7094 90.242 25.1414 91.808 25.1234 92.798H20.4974ZM29.7849 98H31.3689V93.356C31.3689 93.104 31.3869 92.834 31.4229 92.618C31.6389 91.43 32.4309 90.602 33.5469 90.602C33.7629 90.602 33.9249 90.602 34.0869 90.638V89.144C33.9429 89.126 33.8169 89.108 33.6549 89.108C32.5929 89.108 31.6209 89.846 31.2249 91.016H31.1709L31.0989 89.288H29.7129C29.7669 90.098 29.7849 90.98 29.7849 92.006V98ZM43.6698 93.932C43.7058 93.752 43.7238 93.518 43.7238 93.194C43.7238 91.592 42.9858 89.108 40.1238 89.108C37.5858 89.108 36.0378 91.16 36.0378 93.788C36.0378 96.416 37.6398 98.198 40.3218 98.198C41.7078 98.198 42.6798 97.892 43.2378 97.64L42.9498 96.506C42.3738 96.758 41.6718 96.956 40.5378 96.956C38.9358 96.956 37.5858 96.074 37.5498 93.932H43.6698ZM37.5678 92.798C37.6938 91.7 38.3778 90.242 39.9978 90.242C41.7798 90.242 42.2118 91.808 42.1938 92.798H37.5678ZM57.9599 92.654C57.9599 90.926 57.3119 89.108 54.6479 89.108C53.5499 89.108 52.4879 89.414 51.7679 89.864L52.1279 90.926C52.7399 90.512 53.5859 90.278 54.4139 90.278C56.1959 90.26 56.3939 91.574 56.3939 92.276V92.456C53.0279 92.438 51.1559 93.59 51.1559 95.696C51.1559 96.956 52.0559 98.198 53.8199 98.198C55.0619 98.198 55.9979 97.586 56.4839 96.902H56.5379L56.6639 98H58.0859C57.9959 97.406 57.9599 96.668 57.9599 95.912V92.654ZM56.4299 95.066C56.4299 95.21 56.4119 95.39 56.3579 95.57C56.1059 96.308 55.3679 97.028 54.2159 97.028C53.4239 97.028 52.7399 96.56 52.7399 95.516C52.7399 93.824 54.7019 93.518 56.4299 93.554V95.066ZM61.6935 98H63.2775V93.356C63.2775 93.104 63.2955 92.834 63.3315 92.618C63.5475 91.43 64.3395 90.602 65.4555 90.602C65.6715 90.602 65.8335 90.602 65.9955 90.638V89.144C65.8515 89.126 65.7255 89.108 65.5635 89.108C64.5015 89.108 63.5295 89.846 63.1335 91.016H63.0795L63.0075 89.288H61.6215C61.6755 90.098 61.6935 90.98 61.6935 92.006V98ZM75.5783 93.932C75.6143 93.752 75.6323 93.518 75.6323 93.194C75.6323 91.592 74.8943 89.108 72.0323 89.108C69.4943 89.108 67.9463 91.16 67.9463 93.788C67.9463 96.416 69.5483 98.198 72.2303 98.198C73.6163 98.198 74.5883 97.892 75.1463 97.64L74.8583 96.506C74.2823 96.758 73.5803 96.956 72.4463 96.956C70.8443 96.956 69.4943 96.074 69.4583 93.932H75.5783ZM69.4763 92.798C69.6023 91.7 70.2863 90.242 71.9063 90.242C73.6883 90.242 74.1203 91.808 74.1023 92.798H69.4763ZM84.1084 87.668V89.288H82.7584V90.494H84.1084V95.246C84.1084 96.272 84.2884 97.046 84.7204 97.532C85.0984 97.946 85.6924 98.198 86.4304 98.198C87.0424 98.198 87.5284 98.09 87.8344 97.982L87.7624 96.776C87.5284 96.848 87.2764 96.884 86.8444 96.884C85.9624 96.884 85.6564 96.272 85.6564 95.192V90.494H87.9244V89.288H85.6564V87.2L84.1084 87.668ZM90.0456 89.288L92.6736 98H94.1136L95.5176 93.86C95.8236 92.924 96.0936 92.024 96.3096 90.98H96.3456C96.5616 92.006 96.8136 92.87 97.1196 93.842L98.4516 98H99.8916L102.7 89.288H101.134L99.8916 93.662C99.6036 94.688 99.3696 95.606 99.2256 96.488H99.1716C98.9736 95.606 98.7216 94.688 98.3976 93.644L97.0476 89.288H95.7156L94.2936 93.734C94.0056 94.67 93.7176 95.606 93.5196 96.488H93.4656C93.3036 95.588 93.0696 94.688 92.8356 93.716L91.6656 89.288H90.0456ZM108.974 89.108C106.58 89.108 104.654 90.818 104.654 93.716C104.654 96.47 106.49 98.198 108.83 98.198C110.918 98.198 113.168 96.794 113.168 93.572C113.168 90.926 111.476 89.108 108.974 89.108ZM108.938 90.296C110.81 90.296 111.548 92.15 111.548 93.626C111.548 95.588 110.414 97.01 108.902 97.01C107.354 97.01 106.274 95.57 106.274 93.662C106.274 92.024 107.084 90.296 108.938 90.296ZM121.677 87.668V89.288H120.327V90.494H121.677V95.246C121.677 96.272 121.857 97.046 122.289 97.532C122.667 97.946 123.261 98.198 123.999 98.198C124.611 98.198 125.097 98.09 125.403 97.982L125.331 96.776C125.097 96.848 124.845 96.884 124.413 96.884C123.531 96.884 123.225 96.272 123.225 95.192V90.494H125.493V89.288H123.225V87.2L121.677 87.668ZM127.452 89.288L130.656 97.316C130.746 97.514 130.782 97.64 130.782 97.73C130.782 97.82 130.728 97.946 130.656 98.108C130.278 98.918 129.756 99.53 129.324 99.872C128.856 100.268 128.334 100.52 127.938 100.646L128.334 101.96C128.73 101.888 129.486 101.618 130.278 100.952C131.358 99.998 132.132 98.486 133.266 95.498L135.642 89.288H133.968L132.24 94.4C132.024 95.03 131.844 95.696 131.682 96.218H131.646C131.502 95.696 131.286 95.012 131.07 94.436L129.18 89.288H127.452ZM138.247 101.564H139.813V96.83H139.849C140.371 97.694 141.379 98.198 142.531 98.198C144.583 98.198 146.509 96.65 146.509 93.518C146.509 90.89 144.925 89.108 142.801 89.108C141.379 89.108 140.335 89.72 139.705 90.782H139.669L139.579 89.288H138.175C138.211 90.116 138.247 91.016 138.247 92.132V101.564ZM139.813 92.942C139.813 92.744 139.867 92.51 139.921 92.312C140.209 91.124 141.235 90.368 142.315 90.368C143.989 90.368 144.907 91.862 144.907 93.59C144.907 95.588 143.935 96.956 142.261 96.956C141.127 96.956 140.173 96.2 139.885 95.102C139.831 94.904 139.813 94.688 139.813 94.454V92.942ZM156.667 93.932C156.703 93.752 156.721 93.518 156.721 93.194C156.721 91.592 155.983 89.108 153.121 89.108C150.583 89.108 149.035 91.16 149.035 93.788C149.035 96.416 150.637 98.198 153.319 98.198C154.705 98.198 155.677 97.892 156.235 97.64L155.947 96.506C155.371 96.758 154.669 96.956 153.535 96.956C151.933 96.956 150.583 96.074 150.547 93.932H156.667ZM150.565 92.798C150.691 91.7 151.375 90.242 152.995 90.242C154.777 90.242 155.209 91.808 155.191 92.798H150.565ZM159.259 97.586C159.871 97.946 160.753 98.198 161.707 98.198C163.741 98.198 164.947 97.118 164.947 95.57C164.947 94.274 164.155 93.518 162.661 92.96C161.527 92.51 161.023 92.186 161.023 91.466C161.023 90.818 161.527 90.278 162.463 90.278C163.273 90.278 163.903 90.584 164.245 90.8L164.623 89.648C164.155 89.342 163.381 89.108 162.499 89.108C160.645 89.108 159.493 90.26 159.493 91.664C159.493 92.708 160.231 93.554 161.815 94.13C162.967 94.562 163.417 94.958 163.417 95.714C163.417 96.452 162.877 97.01 161.743 97.01C160.951 97.01 160.123 96.686 159.637 96.398L159.259 97.586ZM176.834 89.108C174.44 89.108 172.514 90.818 172.514 93.716C172.514 96.47 174.35 98.198 176.69 98.198C178.778 98.198 181.028 96.794 181.028 93.572C181.028 90.926 179.336 89.108 176.834 89.108ZM176.798 90.296C178.67 90.296 179.408 92.15 179.408 93.626C179.408 95.588 178.274 97.01 176.762 97.01C175.214 97.01 174.134 95.57 174.134 93.662C174.134 92.024 174.944 90.296 176.798 90.296ZM185.921 98V90.494H188.027V89.288H185.921V88.82C185.921 87.47 186.263 86.3 187.613 86.3C188.081 86.3 188.387 86.39 188.621 86.498L188.837 85.274C188.531 85.148 188.063 85.022 187.487 85.022C186.749 85.022 185.957 85.256 185.363 85.832C184.643 86.534 184.355 87.65 184.355 88.874V89.288H183.149V90.494H184.355V98H185.921ZM195.963 87.668V89.288H194.613V90.494H195.963V95.246C195.963 96.272 196.143 97.046 196.575 97.532C196.953 97.946 197.547 98.198 198.285 98.198C198.897 98.198 199.383 98.09 199.689 97.982L199.617 96.776C199.383 96.848 199.131 96.884 198.699 96.884C197.817 96.884 197.511 96.272 197.511 95.192V90.494H199.779V89.288H197.511V87.2L195.963 87.668ZM204.316 98V89.288H202.732V98H204.316ZM203.524 85.85C202.93 85.85 202.534 86.3 202.534 86.84C202.534 87.38 202.912 87.812 203.488 87.812C204.118 87.812 204.496 87.38 204.496 86.84C204.496 86.282 204.1 85.85 203.524 85.85ZM208.121 98H209.705V85.22H208.121V98ZM220.547 93.932C220.583 93.752 220.601 93.518 220.601 93.194C220.601 91.592 219.863 89.108 217.001 89.108C214.463 89.108 212.915 91.16 212.915 93.788C212.915 96.416 214.517 98.198 217.199 98.198C218.585 98.198 219.557 97.892 220.115 97.64L219.827 96.506C219.251 96.758 218.549 96.956 217.415 96.956C215.813 96.956 214.463 96.074 214.427 93.932H220.547ZM214.445 92.798C214.571 91.7 215.255 90.242 216.875 90.242C218.657 90.242 219.089 91.808 219.071 92.798H214.445ZM223.138 97.586C223.75 97.946 224.632 98.198 225.586 98.198C227.62 98.198 228.826 97.118 228.826 95.57C228.826 94.274 228.034 93.518 226.54 92.96C225.406 92.51 224.902 92.186 224.902 91.466C224.902 90.818 225.406 90.278 226.342 90.278C227.152 90.278 227.782 90.584 228.124 90.8L228.502 89.648C228.034 89.342 227.26 89.108 226.378 89.108C224.524 89.108 223.372 90.26 223.372 91.664C223.372 92.708 224.11 93.554 225.694 94.13C226.846 94.562 227.296 94.958 227.296 95.714C227.296 96.452 226.756 97.01 225.622 97.01C224.83 97.01 224.002 96.686 223.516 96.398L223.138 97.586ZM244.313 89.288H242.729V94.616C242.729 94.922 242.675 95.21 242.585 95.426C242.297 96.146 241.559 96.884 240.497 96.884C239.075 96.884 238.553 95.75 238.553 94.094V89.288H236.969V94.382C236.969 97.424 238.607 98.198 239.975 98.198C241.523 98.198 242.459 97.28 242.855 96.578H242.891L242.981 98H244.385C244.331 97.316 244.313 96.524 244.313 95.606V89.288ZM247.513 97.586C248.125 97.946 249.007 98.198 249.961 98.198C251.995 98.198 253.201 97.118 253.201 95.57C253.201 94.274 252.409 93.518 250.915 92.96C249.781 92.51 249.277 92.186 249.277 91.466C249.277 90.818 249.781 90.278 250.717 90.278C251.527 90.278 252.157 90.584 252.499 90.8L252.877 89.648C252.409 89.342 251.635 89.108 250.753 89.108C248.899 89.108 247.747 90.26 247.747 91.664C247.747 92.708 248.485 93.554 250.069 94.13C251.221 94.562 251.671 94.958 251.671 95.714C251.671 96.452 251.131 97.01 249.997 97.01C249.205 97.01 248.377 96.686 247.891 96.398L247.513 97.586ZM263.416 93.932C263.452 93.752 263.47 93.518 263.47 93.194C263.47 91.592 262.732 89.108 259.87 89.108C257.332 89.108 255.784 91.16 255.784 93.788C255.784 96.416 257.386 98.198 260.068 98.198C261.454 98.198 262.426 97.892 262.984 97.64L262.696 96.506C262.12 96.758 261.418 96.956 260.284 96.956C258.682 96.956 257.332 96.074 257.296 93.932H263.416ZM257.314 92.798C257.44 91.7 258.124 90.242 259.744 90.242C261.526 90.242 261.958 91.808 261.94 92.798H257.314ZM272.542 85.22V90.422H272.506C272.11 89.738 271.228 89.108 269.878 89.108C267.772 89.108 265.954 90.872 265.972 93.77C265.972 96.416 267.61 98.198 269.716 98.198C271.138 98.198 272.182 97.46 272.65 96.488H272.704L272.776 98H274.18C274.144 97.406 274.108 96.524 274.108 95.75V85.22H272.542ZM272.542 94.346C272.542 94.598 272.524 94.814 272.47 95.03C272.182 96.2 271.21 96.92 270.148 96.92C268.456 96.92 267.574 95.462 267.574 93.698C267.574 91.79 268.546 90.35 270.184 90.35C271.372 90.35 272.236 91.178 272.47 92.168C272.524 92.366 272.542 92.636 272.542 92.834V94.346ZM284.644 98V90.494H286.75V89.288H284.644V88.82C284.644 87.47 284.986 86.3 286.336 86.3C286.804 86.3 287.11 86.39 287.344 86.498L287.56 85.274C287.254 85.148 286.786 85.022 286.21 85.022C285.472 85.022 284.68 85.256 284.086 85.832C283.366 86.534 283.078 87.65 283.078 88.874V89.288H281.872V90.494H283.078V98H284.644ZM292.804 89.108C290.41 89.108 288.484 90.818 288.484 93.716C288.484 96.47 290.32 98.198 292.66 98.198C294.748 98.198 296.998 96.794 296.998 93.572C296.998 90.926 295.306 89.108 292.804 89.108ZM292.768 90.296C294.64 90.296 295.378 92.15 295.378 93.626C295.378 95.588 294.244 97.01 292.732 97.01C291.184 97.01 290.104 95.57 290.104 93.662C290.104 92.024 290.914 90.296 292.768 90.296ZM300.163 98H301.747V93.356C301.747 93.104 301.765 92.834 301.801 92.618C302.017 91.43 302.809 90.602 303.925 90.602C304.141 90.602 304.303 90.602 304.465 90.638V89.144C304.321 89.126 304.195 89.108 304.033 89.108C302.971 89.108 301.999 89.846 301.603 91.016H301.549L301.477 89.288H300.091C300.145 90.098 300.163 90.98 300.163 92.006V98ZM312.566 87.668V89.288H311.216V90.494H312.566V95.246C312.566 96.272 312.746 97.046 313.178 97.532C313.556 97.946 314.15 98.198 314.888 98.198C315.5 98.198 315.986 98.09 316.292 97.982L316.22 96.776C315.986 96.848 315.734 96.884 315.302 96.884C314.42 96.884 314.114 96.272 314.114 95.192V90.494H316.382V89.288H314.114V87.2L312.566 87.668ZM325.455 92.654C325.455 90.926 324.807 89.108 322.143 89.108C321.045 89.108 319.983 89.414 319.263 89.864L319.623 90.926C320.235 90.512 321.081 90.278 321.909 90.278C323.691 90.26 323.889 91.574 323.889 92.276V92.456C320.523 92.438 318.651 93.59 318.651 95.696C318.651 96.956 319.551 98.198 321.315 98.198C322.557 98.198 323.493 97.586 323.979 96.902H324.033L324.159 98H325.581C325.491 97.406 325.455 96.668 325.455 95.912V92.654ZM323.925 95.066C323.925 95.21 323.907 95.39 323.853 95.57C323.601 96.308 322.863 97.028 321.711 97.028C320.919 97.028 320.235 96.56 320.235 95.516C320.235 93.824 322.197 93.518 323.925 93.554V95.066ZM335.128 96.506C334.678 96.704 334.084 96.92 333.184 96.92C331.456 96.92 330.16 95.678 330.16 93.662C330.16 91.862 331.24 90.368 333.238 90.368C334.102 90.368 334.696 90.584 335.074 90.782L335.434 89.576C335.002 89.342 334.174 89.108 333.238 89.108C330.394 89.108 328.558 91.07 328.558 93.752C328.558 96.416 330.268 98.198 332.896 98.198C334.066 98.198 334.984 97.892 335.398 97.694L335.128 96.506ZM339.015 87.668V89.288H337.665V90.494H339.015V95.246C339.015 96.272 339.195 97.046 339.627 97.532C340.005 97.946 340.599 98.198 341.337 98.198C341.949 98.198 342.435 98.09 342.741 97.982L342.669 96.776C342.435 96.848 342.183 96.884 341.751 96.884C340.869 96.884 340.563 96.272 340.563 95.192V90.494H342.831V89.288H340.563V87.2L339.015 87.668ZM347.368 98V89.288H345.784V98H347.368ZM346.576 85.85C345.982 85.85 345.586 86.3 345.586 86.84C345.586 87.38 345.964 87.812 346.54 87.812C347.17 87.812 347.548 87.38 347.548 86.84C347.548 86.282 347.152 85.85 346.576 85.85ZM351.173 98H352.757V85.22H351.173V98ZM363.599 93.932C363.635 93.752 363.653 93.518 363.653 93.194C363.653 91.592 362.915 89.108 360.053 89.108C357.515 89.108 355.967 91.16 355.967 93.788C355.967 96.416 357.569 98.198 360.251 98.198C361.637 98.198 362.609 97.892 363.167 97.64L362.879 96.506C362.303 96.758 361.601 96.956 360.467 96.956C358.865 96.956 357.515 96.074 357.479 93.932H363.599ZM357.497 92.798C357.623 91.7 358.307 90.242 359.927 90.242C361.709 90.242 362.141 91.808 362.123 92.798H357.497ZM371.769 101.564H373.335V96.83H373.371C373.893 97.694 374.901 98.198 376.053 98.198C378.105 98.198 380.031 96.65 380.031 93.518C380.031 90.89 378.447 89.108 376.323 89.108C374.901 89.108 373.857 89.72 373.227 90.782H373.191L373.101 89.288H371.697C371.733 90.116 371.769 91.016 371.769 92.132V101.564ZM373.335 92.942C373.335 92.744 373.389 92.51 373.443 92.312C373.731 91.124 374.757 90.368 375.837 90.368C377.511 90.368 378.429 91.862 378.429 93.59C378.429 95.588 377.457 96.956 375.783 96.956C374.649 96.956 373.695 96.2 373.407 95.102C373.353 94.904 373.335 94.688 373.335 94.454V92.942ZM389.307 92.654C389.307 90.926 388.659 89.108 385.995 89.108C384.897 89.108 383.835 89.414 383.115 89.864L383.475 90.926C384.087 90.512 384.933 90.278 385.761 90.278C387.543 90.26 387.741 91.574 387.741 92.276V92.456C384.375 92.438 382.503 93.59 382.503 95.696C382.503 96.956 383.403 98.198 385.167 98.198C386.409 98.198 387.345 97.586 387.831 96.902H387.885L388.011 98H389.433C389.343 97.406 389.307 96.668 389.307 95.912V92.654ZM387.777 95.066C387.777 95.21 387.759 95.39 387.705 95.57C387.453 96.308 386.715 97.028 385.563 97.028C384.771 97.028 384.087 96.56 384.087 95.516C384.087 93.824 386.049 93.518 387.777 93.554V95.066ZM391.82 89.288L395.132 98H396.644L400.064 89.288H398.408L396.716 94.166C396.428 94.976 396.176 95.696 395.978 96.416H395.924C395.744 95.696 395.51 94.976 395.222 94.166L393.512 89.288H391.82ZM404.32 98V89.288H402.736V98H404.32ZM403.528 85.85C402.934 85.85 402.538 86.3 402.538 86.84C402.538 87.38 402.916 87.812 403.492 87.812C404.122 87.812 404.5 87.38 404.5 86.84C404.5 86.282 404.104 85.85 403.528 85.85ZM408.125 98H409.709V92.762C409.709 92.492 409.745 92.222 409.817 92.024C410.105 91.142 410.915 90.404 411.941 90.404C413.435 90.404 413.957 91.574 413.957 92.978V98H415.541V92.816C415.541 89.828 413.669 89.108 412.463 89.108C411.023 89.108 410.015 89.918 409.583 90.728H409.547L409.457 89.288H408.053C408.107 90.008 408.125 90.728 408.125 91.646V98ZM426.731 91.664C426.731 90.62 426.749 89.9 426.803 89.288H425.399L425.345 90.602H425.309C424.913 89.882 424.103 89.108 422.591 89.108C420.575 89.108 418.649 90.764 418.649 93.716C418.649 96.128 420.197 97.964 422.357 97.964C423.707 97.964 424.661 97.316 425.129 96.506H425.165V97.46C425.165 99.674 423.977 100.52 422.357 100.52C421.277 100.52 420.377 100.196 419.801 99.818L419.405 101.042C420.107 101.51 421.259 101.762 422.303 101.762C423.401 101.762 424.625 101.492 425.489 100.718C426.317 99.944 426.731 98.738 426.731 96.722V91.664ZM425.147 94.292C425.147 94.562 425.111 94.868 425.021 95.138C424.697 96.146 423.815 96.758 422.825 96.758C421.133 96.758 420.251 95.336 420.251 93.626C420.251 91.61 421.331 90.332 422.843 90.332C424.013 90.332 424.769 91.088 425.057 92.024C425.129 92.222 425.147 92.456 425.147 92.726V94.292ZM430.906 98.198C431.572 98.198 432.004 97.712 432.004 97.064C432.004 96.398 431.572 95.93 430.942 95.93C430.312 95.93 429.862 96.416 429.862 97.064C429.862 97.712 430.294 98.198 430.906 98.198Z" fill="black"/>
</svg>
