<svg width="1044" height="126" viewBox="0 0 1044 126" fill="none" xmlns="http://www.w3.org/2000/svg">
<path d="M37.825 21L39.775 13.075C40.275 11.15 40.6 9.525 40.875 7.725H40.925C41.15 9.55 41.45 11.15 41.875 13.075L43.625 21H46.9L51.45 4.15H48.325L46.575 11.75C46.125 13.825 45.725 15.75 45.425 17.6H45.375C45.125 15.775 44.75 13.9 44.35 11.9L42.675 4.15H39.45L37.625 11.775C37.15 13.9 36.675 15.9 36.4 17.675H36.35C36.075 16 35.675 13.85 35.25 11.8L33.65 4.15H30.375L34.5 21H37.825ZM54.8326 21H57.9076V13.7C57.9076 13.375 57.9326 13.05 58.0326 12.775C58.3826 11.85 59.2326 11.05 60.4326 11.05C62.1326 11.05 62.7826 12.4 62.7826 14.15V21H65.8576V13.825C65.8576 9.925 63.6826 8.55 61.6076 8.55C60.8326 8.55 60.1076 8.75 59.4826 9.1C58.8576 9.425 58.3326 9.9 57.9576 10.475H57.9076V3.25H54.8326V21ZM68.9236 8.825L73.3986 20C73.5236 20.3 73.5486 20.475 73.5486 20.6C73.5486 20.75 73.4986 20.925 73.3736 21.15C72.9486 21.975 72.2736 22.7 71.6736 23.075C71.0486 23.525 70.4236 23.8 69.8986 23.925L70.5986 26.5C71.3486 26.4 72.5986 26 73.8236 24.95C75.2486 23.7 76.3736 21.675 78.0486 17.125L81.0986 8.825H77.8236L75.9236 15.325C75.6736 16.1 75.4486 17.025 75.2736 17.7H75.1986C75.0236 17.025 74.7486 16.1 74.4986 15.35L72.3236 8.825H68.9236ZM91.4244 4.15V21H94.4994V4.15H91.4244ZM100.285 6.55V8.825H98.5598V11.125H100.285V16.85C100.285 18.45 100.585 19.575 101.26 20.275C101.835 20.9 102.76 21.275 103.91 21.275C104.86 21.275 105.685 21.125 106.135 20.95L106.085 18.625C105.735 18.725 105.435 18.75 104.885 18.75C103.71 18.75 103.31 18 103.31 16.5V11.125H106.235V8.825H103.31V5.7L100.285 6.55ZM116.35 20.2C117.275 20.775 119.125 21.275 120.925 21.275C125.25 21.275 127.3 18.925 127.3 16.2C127.3 13.775 125.9 12.3 122.975 11.2C120.725 10.325 119.75 9.725 119.75 8.425C119.75 7.425 120.575 6.4 122.525 6.4C124.1 6.4 125.275 6.875 125.9 7.2L126.625 4.725C125.75 4.275 124.425 3.875 122.6 3.875C118.925 3.875 116.625 5.95 116.625 8.725C116.625 11.15 118.4 12.625 121.2 13.625C123.325 14.4 124.175 15.15 124.175 16.425C124.175 17.8 123.075 18.725 121.125 18.725C119.55 18.725 118.025 18.225 117.05 17.65L116.35 20.2ZM131.491 21H134.566V13.7C134.566 13.375 134.591 13.05 134.691 12.775C135.041 11.85 135.891 11.05 137.091 11.05C138.791 11.05 139.441 12.4 139.441 14.15V21H142.516V13.825C142.516 9.925 140.341 8.55 138.266 8.55C137.491 8.55 136.766 8.75 136.141 9.1C135.516 9.425 134.991 9.9 134.616 10.475H134.566V3.25H131.491V21ZM152.947 8.55C149.272 8.55 146.647 11 146.647 15C146.647 18.925 149.322 21.275 152.747 21.275C155.847 21.275 158.997 19.275 158.997 14.8C158.997 11.1 156.572 8.55 152.947 8.55ZM152.872 10.775C154.972 10.775 155.822 12.975 155.822 14.875C155.822 17.35 154.597 19.05 152.847 19.05C150.997 19.05 149.822 17.275 149.822 14.925C149.822 12.9 150.697 10.775 152.872 10.775ZM174.059 8.825H170.984V16.175C170.984 16.525 170.934 16.875 170.809 17.125C170.509 17.925 169.709 18.775 168.459 18.775C166.834 18.775 166.184 17.475 166.184 15.45V8.825H163.109V15.975C163.109 19.95 165.134 21.275 167.334 21.275C169.534 21.275 170.734 20.025 171.259 19.175H171.334L171.484 21H174.159C174.109 20 174.059 18.8 174.059 17.35V8.825ZM179.017 21H182.092V3.25H179.017V21ZM195.213 3.25V10.125H195.163C194.613 9.225 193.413 8.55 191.738 8.55C188.813 8.55 186.263 10.975 186.288 15.05C186.288 18.8 188.588 21.275 191.513 21.275C193.263 21.275 194.738 20.425 195.463 19.075H195.513L195.663 21H198.388C198.338 20.175 198.288 18.825 198.288 17.575V3.25H195.213ZM195.213 15.725C195.213 16.05 195.188 16.35 195.113 16.625C194.813 17.95 193.713 18.8 192.463 18.8C190.513 18.8 189.413 17.175 189.413 14.925C189.413 12.675 190.513 10.925 192.488 10.925C193.888 10.925 194.863 11.9 195.138 13.075C195.188 13.325 195.213 13.65 195.213 13.9V15.725ZM210.14 20.95C210.94 21.05 212.215 21.175 213.915 21.175C217.015 21.175 218.99 20.65 220.19 19.625C221.14 18.8 221.79 17.625 221.79 16.125C221.79 13.825 220.165 12.425 218.39 11.975V11.9C220.215 11.225 221.19 9.825 221.19 8.275C221.19 6.825 220.49 5.725 219.44 5.1C218.315 4.325 216.89 4.025 214.64 4.025C212.89 4.025 211.115 4.2 210.14 4.4V20.95ZM213.19 6.425C213.515 6.35 214.04 6.3 214.94 6.3C216.89 6.3 218.09 7.025 218.09 8.625C218.09 10.05 216.915 11.05 214.765 11.05H213.19V6.425ZM213.19 13.275H214.715C216.84 13.275 218.565 14.075 218.565 16.05C218.565 18.125 216.79 18.85 214.815 18.85C214.115 18.85 213.59 18.85 213.19 18.775V13.275ZM236.492 15.775C236.542 15.5 236.592 15.05 236.592 14.475C236.592 11.8 235.292 8.55 231.342 8.55C227.442 8.55 225.392 11.725 225.392 15.1C225.392 18.825 227.717 21.25 231.667 21.25C233.417 21.25 234.867 20.925 235.917 20.475L235.467 18.375C234.517 18.7 233.517 18.925 232.092 18.925C230.117 18.925 228.417 17.975 228.342 15.775H236.492ZM228.342 13.625C228.467 12.375 229.267 10.65 231.167 10.65C233.217 10.65 233.717 12.5 233.692 13.625H228.342ZM253.434 21V13.9L259.034 4.15H255.559L253.534 8.475C252.959 9.7 252.484 10.75 252.084 11.825H252.034C251.559 10.675 251.134 9.725 250.559 8.475L248.559 4.15H245.034L250.359 13.975V21H253.434ZM270.395 15.775C270.445 15.5 270.495 15.05 270.495 14.475C270.495 11.8 269.195 8.55 265.245 8.55C261.345 8.55 259.295 11.725 259.295 15.1C259.295 18.825 261.62 21.25 265.57 21.25C267.32 21.25 268.77 20.925 269.82 20.475L269.37 18.375C268.42 18.7 267.42 18.925 265.995 18.925C264.02 18.925 262.32 17.975 262.245 15.775H270.395ZM262.245 13.625C262.37 12.375 263.17 10.65 265.07 10.65C267.12 10.65 267.62 12.5 267.595 13.625H262.245ZM274.586 21H277.661V3.25H274.586V21ZM282.631 21H285.706V3.25H282.631V21ZM296.202 8.55C292.527 8.55 289.902 11 289.902 15C289.902 18.925 292.577 21.275 296.002 21.275C299.102 21.275 302.252 19.275 302.252 14.8C302.252 11.1 299.827 8.55 296.202 8.55ZM296.127 10.775C298.227 10.775 299.077 12.975 299.077 14.875C299.077 17.35 297.852 19.05 296.102 19.05C294.252 19.05 293.077 17.275 293.077 14.925C293.077 12.9 293.952 10.775 296.127 10.775ZM304.918 8.825L308.518 21H311.393L312.943 16.05C313.293 14.85 313.593 13.65 313.868 12.15H313.918C314.193 13.625 314.468 14.775 314.843 16.05L316.293 21H319.143L322.968 8.825H319.943L318.593 14.225C318.268 15.65 317.968 16.975 317.793 18.3H317.743C317.468 16.975 317.143 15.65 316.768 14.225L315.243 8.825H312.743L311.143 14.375C310.818 15.625 310.418 16.975 310.168 18.3H310.118C309.893 16.975 309.618 15.65 309.318 14.35L308.068 8.825H304.918Z" fill="black"/>
<circle cx="9" cy="13" r="8" fill="#FF863D"/>
<path d="M4.672 76H6.256V65.2H9.964V63.868H0.982V65.2H4.672V76ZM12.3082 76H13.8922V70.744C13.8922 70.456 13.9102 70.222 14.0002 69.988C14.3062 69.142 15.0982 68.422 16.1242 68.422C17.6182 68.422 18.1402 69.592 18.1402 70.996V76H19.7242V70.816C19.7242 67.828 17.8522 67.108 16.6822 67.108C16.0882 67.108 15.5302 67.27 15.0622 67.54C14.5762 67.81 14.1802 68.224 13.9282 68.674H13.8922V63.22H12.3082V76ZM30.4646 71.932C30.5006 71.752 30.5186 71.518 30.5186 71.194C30.5186 69.592 29.7806 67.108 26.9186 67.108C24.3806 67.108 22.8326 69.16 22.8326 71.788C22.8326 74.416 24.4346 76.198 27.1166 76.198C28.5026 76.198 29.4746 75.892 30.0326 75.64L29.7446 74.506C29.1686 74.758 28.4666 74.956 27.3326 74.956C25.7306 74.956 24.3806 74.074 24.3446 71.932H30.4646ZM24.3626 70.798C24.4886 69.7 25.1726 68.242 26.7926 68.242C28.5746 68.242 29.0066 69.808 28.9886 70.798H24.3626ZM44.5746 74.506C44.1246 74.704 43.5306 74.92 42.6306 74.92C40.9026 74.92 39.6066 73.678 39.6066 71.662C39.6066 69.862 40.6866 68.368 42.6846 68.368C43.5486 68.368 44.1426 68.584 44.5206 68.782L44.8806 67.576C44.4486 67.342 43.6206 67.108 42.6846 67.108C39.8406 67.108 38.0046 69.07 38.0046 71.752C38.0046 74.416 39.7146 76.198 42.3426 76.198C43.5126 76.198 44.4306 75.892 44.8446 75.694L44.5746 74.506ZM51.4575 67.108C49.0635 67.108 47.1375 68.818 47.1375 71.716C47.1375 74.47 48.9735 76.198 51.3135 76.198C53.4015 76.198 55.6515 74.794 55.6515 71.572C55.6515 68.926 53.9595 67.108 51.4575 67.108ZM51.4215 68.296C53.2935 68.296 54.0315 70.15 54.0315 71.626C54.0315 73.588 52.8975 75.01 51.3855 75.01C49.8375 75.01 48.7575 73.57 48.7575 71.662C48.7575 70.024 49.5675 68.296 51.4215 68.296ZM58.8164 76H60.4004V63.22H58.8164V76ZM67.9303 67.108C65.5363 67.108 63.6103 68.818 63.6103 71.716C63.6103 74.47 65.4463 76.198 67.7863 76.198C69.8743 76.198 72.1243 74.794 72.1243 71.572C72.1243 68.926 70.4323 67.108 67.9303 67.108ZM67.8943 68.296C69.7663 68.296 70.5043 70.15 70.5043 71.626C70.5043 73.588 69.3703 75.01 67.8583 75.01C66.3103 75.01 65.2303 73.57 65.2303 71.662C65.2303 70.024 66.0403 68.296 67.8943 68.296ZM75.2892 76H76.8732V71.356C76.8732 71.104 76.8912 70.834 76.9272 70.618C77.1432 69.43 77.9352 68.602 79.0512 68.602C79.2672 68.602 79.4292 68.602 79.5912 68.638V67.144C79.4472 67.126 79.3212 67.108 79.1592 67.108C78.0972 67.108 77.1252 67.846 76.7292 69.016H76.6752L76.6032 67.288H75.2172C75.2712 68.098 75.2892 68.98 75.2892 70.006V76ZM91.0224 67.108C88.6284 67.108 86.7024 68.818 86.7024 71.716C86.7024 74.47 88.5384 76.198 90.8784 76.198C92.9664 76.198 95.2164 74.794 95.2164 71.572C95.2164 68.926 93.5244 67.108 91.0224 67.108ZM90.9864 68.296C92.8584 68.296 93.5964 70.15 93.5964 71.626C93.5964 73.588 92.4624 75.01 90.9504 75.01C89.4024 75.01 88.3224 73.57 88.3224 71.662C88.3224 70.024 89.1324 68.296 90.9864 68.296ZM100.109 76V68.494H102.215V67.288H100.109V66.82C100.109 65.47 100.451 64.3 101.801 64.3C102.269 64.3 102.575 64.39 102.809 64.498L103.025 63.274C102.719 63.148 102.251 63.022 101.675 63.022C100.937 63.022 100.145 63.256 99.5513 63.832C98.8313 64.534 98.5433 65.65 98.5433 66.874V67.288H97.3373V68.494H98.5433V76H100.109ZM110.152 65.668V67.288H108.802V68.494H110.152V73.246C110.152 74.272 110.332 75.046 110.764 75.532C111.142 75.946 111.736 76.198 112.474 76.198C113.086 76.198 113.572 76.09 113.878 75.982L113.806 74.776C113.572 74.848 113.32 74.884 112.888 74.884C112.006 74.884 111.7 74.272 111.7 73.192V68.494H113.968V67.288H111.7V65.2L110.152 65.668ZM116.921 76H118.505V70.744C118.505 70.456 118.523 70.222 118.613 69.988C118.919 69.142 119.711 68.422 120.737 68.422C122.231 68.422 122.753 69.592 122.753 70.996V76H124.337V70.816C124.337 67.828 122.465 67.108 121.295 67.108C120.701 67.108 120.143 67.27 119.675 67.54C119.189 67.81 118.793 68.224 118.541 68.674H118.505V63.22H116.921V76ZM135.077 71.932C135.113 71.752 135.131 71.518 135.131 71.194C135.131 69.592 134.393 67.108 131.531 67.108C128.993 67.108 127.445 69.16 127.445 71.788C127.445 74.416 129.047 76.198 131.729 76.198C133.115 76.198 134.087 75.892 134.645 75.64L134.357 74.506C133.781 74.758 133.079 74.956 131.945 74.956C130.343 74.956 128.993 74.074 128.957 71.932H135.077ZM128.975 70.798C129.101 69.7 129.785 68.242 131.405 68.242C133.187 68.242 133.619 69.808 133.601 70.798H128.975ZM143.607 65.668V67.288H142.257V68.494H143.607V73.246C143.607 74.272 143.787 75.046 144.219 75.532C144.597 75.946 145.191 76.198 145.929 76.198C146.541 76.198 147.027 76.09 147.333 75.982L147.261 74.776C147.027 74.848 146.775 74.884 146.343 74.884C145.461 74.884 145.155 74.272 145.155 73.192V68.494H147.423V67.288H145.155V65.2L143.607 65.668ZM156.496 70.654C156.496 68.926 155.848 67.108 153.184 67.108C152.086 67.108 151.024 67.414 150.304 67.864L150.664 68.926C151.276 68.512 152.122 68.278 152.95 68.278C154.732 68.26 154.93 69.574 154.93 70.276V70.456C151.564 70.438 149.692 71.59 149.692 73.696C149.692 74.956 150.592 76.198 152.356 76.198C153.598 76.198 154.534 75.586 155.02 74.902H155.074L155.2 76H156.622C156.532 75.406 156.496 74.668 156.496 73.912V70.654ZM154.966 73.066C154.966 73.21 154.948 73.39 154.894 73.57C154.642 74.308 153.904 75.028 152.752 75.028C151.96 75.028 151.276 74.56 151.276 73.516C151.276 71.824 153.238 71.518 154.966 71.554V73.066ZM166.17 74.506C165.72 74.704 165.126 74.92 164.226 74.92C162.498 74.92 161.202 73.678 161.202 71.662C161.202 69.862 162.282 68.368 164.28 68.368C165.144 68.368 165.738 68.584 166.116 68.782L166.476 67.576C166.044 67.342 165.216 67.108 164.28 67.108C161.436 67.108 159.6 69.07 159.6 71.752C159.6 74.416 161.31 76.198 163.938 76.198C165.108 76.198 166.026 75.892 166.44 75.694L166.17 74.506ZM170.056 65.668V67.288H168.706V68.494H170.056V73.246C170.056 74.272 170.236 75.046 170.668 75.532C171.046 75.946 171.64 76.198 172.378 76.198C172.99 76.198 173.476 76.09 173.782 75.982L173.71 74.776C173.476 74.848 173.224 74.884 172.792 74.884C171.91 74.884 171.604 74.272 171.604 73.192V68.494H173.872V67.288H171.604V65.2L170.056 65.668ZM178.409 76V67.288H176.825V76H178.409ZM177.617 63.85C177.023 63.85 176.627 64.3 176.627 64.84C176.627 65.38 177.005 65.812 177.581 65.812C178.211 65.812 178.589 65.38 178.589 64.84C178.589 64.282 178.193 63.85 177.617 63.85ZM182.214 76H183.798V63.22H182.214V76ZM194.64 71.932C194.676 71.752 194.694 71.518 194.694 71.194C194.694 69.592 193.956 67.108 191.094 67.108C188.556 67.108 187.008 69.16 187.008 71.788C187.008 74.416 188.61 76.198 191.292 76.198C192.678 76.198 193.65 75.892 194.208 75.64L193.92 74.506C193.344 74.758 192.642 74.956 191.508 74.956C189.906 74.956 188.556 74.074 188.52 71.932H194.64ZM188.538 70.798C188.664 69.7 189.348 68.242 190.968 68.242C192.75 68.242 193.182 69.808 193.164 70.798H188.538ZM202.81 79.564H204.376V74.83H204.412C204.934 75.694 205.942 76.198 207.094 76.198C209.146 76.198 211.072 74.65 211.072 71.518C211.072 68.89 209.488 67.108 207.364 67.108C205.942 67.108 204.898 67.72 204.268 68.782H204.232L204.142 67.288H202.738C202.774 68.116 202.81 69.016 202.81 70.132V79.564ZM204.376 70.942C204.376 70.744 204.43 70.51 204.484 70.312C204.772 69.124 205.798 68.368 206.878 68.368C208.552 68.368 209.47 69.862 209.47 71.59C209.47 73.588 208.498 74.956 206.824 74.956C205.69 74.956 204.736 74.2 204.448 73.102C204.394 72.904 204.376 72.688 204.376 72.454V70.942ZM220.348 70.654C220.348 68.926 219.7 67.108 217.036 67.108C215.938 67.108 214.876 67.414 214.156 67.864L214.516 68.926C215.128 68.512 215.974 68.278 216.802 68.278C218.584 68.26 218.782 69.574 218.782 70.276V70.456C215.416 70.438 213.544 71.59 213.544 73.696C213.544 74.956 214.444 76.198 216.208 76.198C217.45 76.198 218.386 75.586 218.872 74.902H218.926L219.052 76H220.474C220.384 75.406 220.348 74.668 220.348 73.912V70.654ZM218.818 73.066C218.818 73.21 218.8 73.39 218.746 73.57C218.494 74.308 217.756 75.028 216.604 75.028C215.812 75.028 215.128 74.56 215.128 73.516C215.128 71.824 217.09 71.518 218.818 71.554V73.066ZM222.861 67.288L226.173 76H227.685L231.105 67.288H229.449L227.757 72.166C227.469 72.976 227.217 73.696 227.019 74.416H226.965C226.785 73.696 226.551 72.976 226.263 72.166L224.553 67.288H222.861ZM235.361 76V67.288H233.777V76H235.361ZM234.569 63.85C233.975 63.85 233.579 64.3 233.579 64.84C233.579 65.38 233.957 65.812 234.533 65.812C235.163 65.812 235.541 65.38 235.541 64.84C235.541 64.282 235.145 63.85 234.569 63.85ZM239.166 76H240.75V70.762C240.75 70.492 240.786 70.222 240.858 70.024C241.146 69.142 241.956 68.404 242.982 68.404C244.476 68.404 244.998 69.574 244.998 70.978V76H246.582V70.816C246.582 67.828 244.71 67.108 243.504 67.108C242.064 67.108 241.056 67.918 240.624 68.728H240.588L240.498 67.288H239.094C239.148 68.008 239.166 68.728 239.166 69.646V76ZM257.772 69.664C257.772 68.62 257.79 67.9 257.844 67.288H256.44L256.386 68.602H256.35C255.954 67.882 255.144 67.108 253.632 67.108C251.616 67.108 249.69 68.764 249.69 71.716C249.69 74.128 251.238 75.964 253.398 75.964C254.748 75.964 255.702 75.316 256.17 74.506H256.206V75.46C256.206 77.674 255.018 78.52 253.398 78.52C252.318 78.52 251.418 78.196 250.842 77.818L250.446 79.042C251.148 79.51 252.3 79.762 253.344 79.762C254.442 79.762 255.666 79.492 256.53 78.718C257.358 77.944 257.772 76.738 257.772 74.722V69.664ZM256.188 72.292C256.188 72.562 256.152 72.868 256.062 73.138C255.738 74.146 254.856 74.758 253.866 74.758C252.174 74.758 251.292 73.336 251.292 71.626C251.292 69.61 252.372 68.332 253.884 68.332C255.054 68.332 255.81 69.088 256.098 70.024C256.17 70.222 256.188 70.456 256.188 70.726V72.292ZM265.935 75.586C266.547 75.946 267.429 76.198 268.383 76.198C270.417 76.198 271.623 75.118 271.623 73.57C271.623 72.274 270.831 71.518 269.337 70.96C268.203 70.51 267.699 70.186 267.699 69.466C267.699 68.818 268.203 68.278 269.139 68.278C269.949 68.278 270.579 68.584 270.921 68.8L271.299 67.648C270.831 67.342 270.057 67.108 269.175 67.108C267.321 67.108 266.169 68.26 266.169 69.664C266.169 70.708 266.907 71.554 268.491 72.13C269.643 72.562 270.093 72.958 270.093 73.714C270.093 74.452 269.553 75.01 268.419 75.01C267.627 75.01 266.799 74.686 266.313 74.398L265.935 75.586ZM274.836 76H276.42V70.744C276.42 70.456 276.438 70.222 276.528 69.988C276.834 69.142 277.626 68.422 278.652 68.422C280.146 68.422 280.668 69.592 280.668 70.996V76H282.252V70.816C282.252 67.828 280.38 67.108 279.21 67.108C278.616 67.108 278.058 67.27 277.59 67.54C277.104 67.81 276.708 68.224 276.456 68.674H276.42V63.22H274.836V76ZM289.68 67.108C287.286 67.108 285.36 68.818 285.36 71.716C285.36 74.47 287.196 76.198 289.536 76.198C291.624 76.198 293.874 74.794 293.874 71.572C293.874 68.926 292.182 67.108 289.68 67.108ZM289.644 68.296C291.516 68.296 292.254 70.15 292.254 71.626C292.254 73.588 291.12 75.01 289.608 75.01C288.06 75.01 286.98 73.57 286.98 71.662C286.98 70.024 287.79 68.296 289.644 68.296ZM304.329 67.288H302.745V72.616C302.745 72.922 302.691 73.21 302.601 73.426C302.313 74.146 301.575 74.884 300.513 74.884C299.091 74.884 298.569 73.75 298.569 72.094V67.288H296.985V72.382C296.985 75.424 298.623 76.198 299.991 76.198C301.539 76.198 302.475 75.28 302.871 74.578H302.907L302.997 76H304.401C304.347 75.316 304.329 74.524 304.329 73.606V67.288ZM308.123 76H309.707V63.22H308.123V76ZM319.487 63.22V68.422H319.451C319.055 67.738 318.173 67.108 316.823 67.108C314.717 67.108 312.899 68.872 312.917 71.77C312.917 74.416 314.555 76.198 316.661 76.198C318.083 76.198 319.127 75.46 319.595 74.488H319.649L319.721 76H321.125C321.089 75.406 321.053 74.524 321.053 73.75V63.22H319.487ZM319.487 72.346C319.487 72.598 319.469 72.814 319.415 73.03C319.127 74.2 318.155 74.92 317.093 74.92C315.401 74.92 314.519 73.462 314.519 71.698C314.519 69.79 315.491 68.35 317.129 68.35C318.317 68.35 319.181 69.178 319.415 70.168C319.469 70.366 319.487 70.636 319.487 70.834V72.346ZM329.862 73.75C329.862 74.524 329.826 75.406 329.79 76H331.14L331.23 74.578H331.266C331.932 75.712 332.94 76.198 334.2 76.198C336.144 76.198 338.124 74.65 338.124 71.536C338.124 68.908 336.612 67.108 334.434 67.108C333.03 67.108 332.022 67.72 331.464 68.692H331.428V63.22H329.862V73.75ZM331.428 70.96C331.428 70.708 331.464 70.492 331.518 70.294C331.842 69.106 332.85 68.35 333.912 68.35C335.622 68.35 336.522 69.844 336.522 71.59C336.522 73.588 335.55 74.938 333.876 74.938C332.724 74.938 331.788 74.182 331.5 73.084C331.446 72.904 331.428 72.706 331.428 72.508V70.96ZM348.282 71.932C348.318 71.752 348.336 71.518 348.336 71.194C348.336 69.592 347.598 67.108 344.736 67.108C342.198 67.108 340.65 69.16 340.65 71.788C340.65 74.416 342.252 76.198 344.934 76.198C346.32 76.198 347.292 75.892 347.85 75.64L347.562 74.506C346.986 74.758 346.284 74.956 345.15 74.956C343.548 74.956 342.198 74.074 342.162 71.932H348.282ZM342.18 70.798C342.306 69.7 342.99 68.242 344.61 68.242C346.392 68.242 346.824 69.808 346.806 70.798H342.18ZM358.036 76V67.288H356.452V76H358.036ZM357.244 63.85C356.65 63.85 356.254 64.3 356.254 64.84C356.254 65.38 356.632 65.812 357.208 65.812C357.838 65.812 358.216 65.38 358.216 64.84C358.216 64.282 357.82 63.85 357.244 63.85ZM361.841 76H363.425V70.762C363.425 70.492 363.461 70.222 363.533 70.024C363.821 69.142 364.631 68.404 365.657 68.404C367.151 68.404 367.673 69.574 367.673 70.978V76H369.257V70.816C369.257 67.828 367.385 67.108 366.179 67.108C364.739 67.108 363.731 67.918 363.299 68.728H363.263L363.173 67.288H361.769C361.823 68.008 361.841 68.728 361.841 69.646V76ZM383.92 74.506C383.47 74.704 382.876 74.92 381.976 74.92C380.248 74.92 378.952 73.678 378.952 71.662C378.952 69.862 380.032 68.368 382.03 68.368C382.894 68.368 383.488 68.584 383.866 68.782L384.226 67.576C383.794 67.342 382.966 67.108 382.03 67.108C379.186 67.108 377.35 69.07 377.35 71.752C377.35 74.416 379.06 76.198 381.688 76.198C382.858 76.198 383.776 75.892 384.19 75.694L383.92 74.506ZM390.803 67.108C388.409 67.108 386.483 68.818 386.483 71.716C386.483 74.47 388.319 76.198 390.659 76.198C392.747 76.198 394.997 74.794 394.997 71.572C394.997 68.926 393.305 67.108 390.803 67.108ZM390.767 68.296C392.639 68.296 393.377 70.15 393.377 71.626C393.377 73.588 392.243 75.01 390.731 75.01C389.183 75.01 388.103 73.57 388.103 71.662C388.103 70.024 388.913 68.296 390.767 68.296ZM398.161 76H399.745V70.762C399.745 70.492 399.781 70.222 399.853 70.024C400.141 69.142 400.951 68.404 401.977 68.404C403.471 68.404 403.993 69.574 403.993 70.978V76H405.577V70.816C405.577 67.828 403.705 67.108 402.499 67.108C401.059 67.108 400.051 67.918 399.619 68.728H399.583L399.493 67.288H398.089C398.143 68.008 398.161 68.728 398.161 69.646V76ZM409.605 65.668V67.288H408.255V68.494H409.605V73.246C409.605 74.272 409.785 75.046 410.217 75.532C410.595 75.946 411.189 76.198 411.927 76.198C412.539 76.198 413.025 76.09 413.331 75.982L413.259 74.776C413.025 74.848 412.773 74.884 412.341 74.884C411.459 74.884 411.153 74.272 411.153 73.192V68.494H413.421V67.288H411.153V65.2L409.605 65.668ZM416.374 76H417.958V71.356C417.958 71.104 417.976 70.834 418.012 70.618C418.228 69.43 419.02 68.602 420.136 68.602C420.352 68.602 420.514 68.602 420.676 68.638V67.144C420.532 67.126 420.406 67.108 420.244 67.108C419.182 67.108 418.21 67.846 417.814 69.016H417.76L417.688 67.288H416.302C416.356 68.098 416.374 68.98 416.374 70.006V76ZM429.465 70.654C429.465 68.926 428.817 67.108 426.153 67.108C425.055 67.108 423.993 67.414 423.273 67.864L423.633 68.926C424.245 68.512 425.091 68.278 425.919 68.278C427.701 68.26 427.899 69.574 427.899 70.276V70.456C424.533 70.438 422.661 71.59 422.661 73.696C422.661 74.956 423.561 76.198 425.325 76.198C426.567 76.198 427.503 75.586 427.989 74.902H428.043L428.169 76H429.591C429.501 75.406 429.465 74.668 429.465 73.912V70.654ZM427.935 73.066C427.935 73.21 427.917 73.39 427.863 73.57C427.611 74.308 426.873 75.028 425.721 75.028C424.929 75.028 424.245 74.56 424.245 73.516C424.245 71.824 426.207 71.518 427.935 71.554V73.066ZM432.605 75.586C433.217 75.946 434.099 76.198 435.053 76.198C437.087 76.198 438.293 75.118 438.293 73.57C438.293 72.274 437.501 71.518 436.007 70.96C434.873 70.51 434.369 70.186 434.369 69.466C434.369 68.818 434.873 68.278 435.809 68.278C436.619 68.278 437.249 68.584 437.591 68.8L437.969 67.648C437.501 67.342 436.727 67.108 435.845 67.108C433.991 67.108 432.839 68.26 432.839 69.664C432.839 70.708 433.577 71.554 435.161 72.13C436.313 72.562 436.763 72.958 436.763 73.714C436.763 74.452 436.223 75.01 435.089 75.01C434.297 75.01 433.469 74.686 432.983 74.398L432.605 75.586ZM441.866 65.668V67.288H440.516V68.494H441.866V73.246C441.866 74.272 442.046 75.046 442.478 75.532C442.856 75.946 443.45 76.198 444.188 76.198C444.8 76.198 445.286 76.09 445.592 75.982L445.52 74.776C445.286 74.848 445.034 74.884 444.602 74.884C443.72 74.884 443.414 74.272 443.414 73.192V68.494H445.682V67.288H443.414V65.2L441.866 65.668ZM452.629 67.288L455.257 76H456.697L458.101 71.86C458.407 70.924 458.677 70.024 458.893 68.98H458.929C459.145 70.006 459.397 70.87 459.703 71.842L461.035 76H462.475L465.283 67.288H463.717L462.475 71.662C462.187 72.688 461.953 73.606 461.809 74.488H461.755C461.557 73.606 461.305 72.688 460.981 71.644L459.631 67.288H458.299L456.877 71.734C456.589 72.67 456.301 73.606 456.103 74.488H456.049C455.887 73.588 455.653 72.688 455.419 71.716L454.249 67.288H452.629ZM469.627 76V67.288H468.043V76H469.627ZM468.835 63.85C468.241 63.85 467.845 64.3 467.845 64.84C467.845 65.38 468.223 65.812 468.799 65.812C469.429 65.812 469.807 65.38 469.807 64.84C469.807 64.282 469.411 63.85 468.835 63.85ZM473.792 65.668V67.288H472.442V68.494H473.792V73.246C473.792 74.272 473.972 75.046 474.404 75.532C474.782 75.946 475.376 76.198 476.114 76.198C476.726 76.198 477.212 76.09 477.518 75.982L477.446 74.776C477.212 74.848 476.96 74.884 476.528 74.884C475.646 74.884 475.34 74.272 475.34 73.192V68.494H477.608V67.288H475.34V65.2L473.792 65.668ZM480.561 76H482.145V70.744C482.145 70.456 482.163 70.222 482.253 69.988C482.559 69.142 483.351 68.422 484.377 68.422C485.871 68.422 486.393 69.592 486.393 70.996V76H487.977V70.816C487.977 67.828 486.105 67.108 484.935 67.108C484.341 67.108 483.783 67.27 483.315 67.54C482.829 67.81 482.433 68.224 482.181 68.674H482.145V63.22H480.561V76ZM497.059 65.668V67.288H495.709V68.494H497.059V73.246C497.059 74.272 497.239 75.046 497.671 75.532C498.049 75.946 498.643 76.198 499.381 76.198C499.993 76.198 500.479 76.09 500.785 75.982L500.713 74.776C500.479 74.848 500.227 74.884 499.795 74.884C498.913 74.884 498.607 74.272 498.607 73.192V68.494H500.875V67.288H498.607V65.2L497.059 65.668ZM503.828 76H505.412V70.744C505.412 70.456 505.43 70.222 505.52 69.988C505.826 69.142 506.618 68.422 507.644 68.422C509.138 68.422 509.66 69.592 509.66 70.996V76H511.244V70.816C511.244 67.828 509.372 67.108 508.202 67.108C507.608 67.108 507.05 67.27 506.582 67.54C506.096 67.81 505.7 68.224 505.448 68.674H505.412V63.22H503.828V76ZM521.985 71.932C522.021 71.752 522.039 71.518 522.039 71.194C522.039 69.592 521.301 67.108 518.439 67.108C515.901 67.108 514.353 69.16 514.353 71.788C514.353 74.416 515.955 76.198 518.637 76.198C520.023 76.198 520.995 75.892 521.553 75.64L521.265 74.506C520.689 74.758 519.987 74.956 518.853 74.956C517.251 74.956 515.901 74.074 515.865 71.932H521.985ZM515.883 70.798C516.009 69.7 516.693 68.242 518.313 68.242C520.095 68.242 520.527 69.808 520.509 70.798H515.883ZM536.095 74.506C535.645 74.704 535.051 74.92 534.151 74.92C532.423 74.92 531.127 73.678 531.127 71.662C531.127 69.862 532.207 68.368 534.205 68.368C535.069 68.368 535.663 68.584 536.041 68.782L536.401 67.576C535.969 67.342 535.141 67.108 534.205 67.108C531.361 67.108 529.525 69.07 529.525 71.752C529.525 74.416 531.235 76.198 533.863 76.198C535.033 76.198 535.951 75.892 536.365 75.694L536.095 74.506ZM542.978 67.108C540.584 67.108 538.658 68.818 538.658 71.716C538.658 74.47 540.494 76.198 542.834 76.198C544.922 76.198 547.172 74.794 547.172 71.572C547.172 68.926 545.48 67.108 542.978 67.108ZM542.942 68.296C544.814 68.296 545.552 70.15 545.552 71.626C545.552 73.588 544.418 75.01 542.906 75.01C541.358 75.01 540.278 73.57 540.278 71.662C540.278 70.024 541.088 68.296 542.942 68.296ZM550.337 76H551.921V63.22H550.337V76ZM559.451 67.108C557.057 67.108 555.131 68.818 555.131 71.716C555.131 74.47 556.967 76.198 559.307 76.198C561.395 76.198 563.645 74.794 563.645 71.572C563.645 68.926 561.953 67.108 559.451 67.108ZM559.415 68.296C561.287 68.296 562.025 70.15 562.025 71.626C562.025 73.588 560.891 75.01 559.379 75.01C557.831 75.01 556.751 73.57 556.751 71.662C556.751 70.024 557.561 68.296 559.415 68.296ZM566.809 76H568.393V71.356C568.393 71.104 568.411 70.834 568.447 70.618C568.663 69.43 569.455 68.602 570.571 68.602C570.787 68.602 570.949 68.602 571.111 68.638V67.144C570.967 67.126 570.841 67.108 570.679 67.108C569.617 67.108 568.645 67.846 568.249 69.016H568.195L568.123 67.288H566.737C566.791 68.098 566.809 68.98 566.809 70.006V76ZM6.004 89.108C3.61 89.108 1.684 90.818 1.684 93.716C1.684 96.47 3.52 98.198 5.86 98.198C7.948 98.198 10.198 96.794 10.198 93.572C10.198 90.926 8.506 89.108 6.004 89.108ZM5.968 90.296C7.84 90.296 8.578 92.15 8.578 93.626C8.578 95.588 7.444 97.01 5.932 97.01C4.384 97.01 3.304 95.57 3.304 93.662C3.304 92.024 4.114 90.296 5.968 90.296ZM15.0909 98V90.494H17.1969V89.288H15.0909V88.82C15.0909 87.47 15.4329 86.3 16.7829 86.3C17.2509 86.3 17.5569 86.39 17.7909 86.498L18.0069 85.274C17.7009 85.148 17.2329 85.022 16.6569 85.022C15.9189 85.022 15.1269 85.256 14.5329 85.832C13.8129 86.534 13.5249 87.65 13.5249 88.874V89.288H12.3189V90.494H13.5249V98H15.0909ZM25.1332 87.668V89.288H23.7832V90.494H25.1332V95.246C25.1332 96.272 25.3132 97.046 25.7452 97.532C26.1232 97.946 26.7172 98.198 27.4552 98.198C28.0672 98.198 28.5532 98.09 28.8592 97.982L28.7872 96.776C28.5532 96.848 28.3012 96.884 27.8692 96.884C26.9872 96.884 26.6812 96.272 26.6812 95.192V90.494H28.9492V89.288H26.6812V87.2L25.1332 87.668ZM31.9022 98H33.4862V92.744C33.4862 92.456 33.5042 92.222 33.5942 91.988C33.9002 91.142 34.6922 90.422 35.7182 90.422C37.2122 90.422 37.7342 91.592 37.7342 92.996V98H39.3182V92.816C39.3182 89.828 37.4462 89.108 36.2762 89.108C35.6822 89.108 35.1242 89.27 34.6562 89.54C34.1702 89.81 33.7742 90.224 33.5222 90.674H33.4862V85.22H31.9022V98ZM50.0586 93.932C50.0946 93.752 50.1126 93.518 50.1126 93.194C50.1126 91.592 49.3746 89.108 46.5126 89.108C43.9746 89.108 42.4266 91.16 42.4266 93.788C42.4266 96.416 44.0286 98.198 46.7106 98.198C48.0966 98.198 49.0686 97.892 49.6266 97.64L49.3386 96.506C48.7626 96.758 48.0606 96.956 46.9266 96.956C45.3246 96.956 43.9746 96.074 43.9386 93.932H50.0586ZM43.9566 92.798C44.0826 91.7 44.7666 90.242 46.3866 90.242C48.1686 90.242 48.6006 91.808 48.5826 92.798H43.9566ZM64.3486 92.654C64.3486 90.926 63.7006 89.108 61.0366 89.108C59.9386 89.108 58.8766 89.414 58.1566 89.864L58.5166 90.926C59.1286 90.512 59.9746 90.278 60.8026 90.278C62.5846 90.26 62.7826 91.574 62.7826 92.276V92.456C59.4166 92.438 57.5446 93.59 57.5446 95.696C57.5446 96.956 58.4446 98.198 60.2086 98.198C61.4506 98.198 62.3866 97.586 62.8726 96.902H62.9266L63.0526 98H64.4746C64.3846 97.406 64.3486 96.668 64.3486 95.912V92.654ZM62.8186 95.066C62.8186 95.21 62.8006 95.39 62.7466 95.57C62.4946 96.308 61.7566 97.028 60.6046 97.028C59.8126 97.028 59.1286 96.56 59.1286 95.516C59.1286 93.824 61.0906 93.518 62.8186 93.554V95.066ZM74.0222 85.22V90.422H73.9862C73.5902 89.738 72.7082 89.108 71.3582 89.108C69.2522 89.108 67.4342 90.872 67.4522 93.77C67.4522 96.416 69.0902 98.198 71.1962 98.198C72.6182 98.198 73.6622 97.46 74.1302 96.488H74.1842L74.2562 98H75.6602C75.6242 97.406 75.5882 96.524 75.5882 95.75V85.22H74.0222ZM74.0222 94.346C74.0222 94.598 74.0042 94.814 73.9502 95.03C73.6622 96.2 72.6902 96.92 71.6282 96.92C69.9362 96.92 69.0542 95.462 69.0542 93.698C69.0542 91.79 70.0262 90.35 71.6642 90.35C72.8522 90.35 73.7162 91.178 73.9502 92.168C74.0042 92.366 74.0222 92.636 74.0222 92.834V94.346ZM77.4504 101.798C78.2964 101.798 79.4484 101.51 80.1504 100.808C80.9244 100.016 81.1944 98.918 81.1944 97.226V89.288H79.6104V96.614C79.6104 98.702 79.4304 99.386 78.9984 99.872C78.6204 100.304 78.0084 100.502 77.2704 100.556L77.4504 101.798ZM80.4024 85.85C79.8084 85.85 79.4124 86.3 79.4124 86.84C79.4124 87.362 79.7904 87.812 80.3664 87.812C81.0144 87.812 81.3744 87.362 81.3744 86.84C81.3744 86.3 80.9964 85.85 80.4024 85.85ZM91.0793 92.654C91.0793 90.926 90.4313 89.108 87.7673 89.108C86.6693 89.108 85.6073 89.414 84.8873 89.864L85.2473 90.926C85.8593 90.512 86.7053 90.278 87.5333 90.278C89.3153 90.26 89.5133 91.574 89.5133 92.276V92.456C86.1473 92.438 84.2753 93.59 84.2753 95.696C84.2753 96.956 85.1753 98.198 86.9393 98.198C88.1813 98.198 89.1173 97.586 89.6033 96.902H89.6573L89.7833 98H91.2053C91.1153 97.406 91.0793 96.668 91.0793 95.912V92.654ZM89.5493 95.066C89.5493 95.21 89.5313 95.39 89.4773 95.57C89.2253 96.308 88.4873 97.028 87.3353 97.028C86.5433 97.028 85.8593 96.56 85.8593 95.516C85.8593 93.824 87.8213 93.518 89.5493 93.554V95.066ZM100.753 96.506C100.303 96.704 99.7089 96.92 98.8089 96.92C97.0809 96.92 95.7849 95.678 95.7849 93.662C95.7849 91.862 96.8649 90.368 98.8629 90.368C99.7269 90.368 100.321 90.584 100.699 90.782L101.059 89.576C100.627 89.342 99.7989 89.108 98.8629 89.108C96.0189 89.108 94.1829 91.07 94.1829 93.752C94.1829 96.416 95.8929 98.198 98.5209 98.198C99.6909 98.198 100.609 97.892 101.023 97.694L100.753 96.506ZM110.948 93.932C110.984 93.752 111.002 93.518 111.002 93.194C111.002 91.592 110.264 89.108 107.402 89.108C104.864 89.108 103.316 91.16 103.316 93.788C103.316 96.416 104.918 98.198 107.6 98.198C108.986 98.198 109.958 97.892 110.516 97.64L110.228 96.506C109.652 96.758 108.95 96.956 107.816 96.956C106.214 96.956 104.864 96.074 104.828 93.932H110.948ZM104.846 92.798C104.972 91.7 105.656 90.242 107.276 90.242C109.058 90.242 109.49 91.808 109.472 92.798H104.846ZM114.133 98H115.717V92.762C115.717 92.492 115.753 92.222 115.825 92.024C116.113 91.142 116.923 90.404 117.949 90.404C119.443 90.404 119.965 91.574 119.965 92.978V98H121.549V92.816C121.549 89.828 119.677 89.108 118.471 89.108C117.031 89.108 116.023 89.918 115.591 90.728H115.555L115.465 89.288H114.061C114.115 90.008 114.133 90.728 114.133 91.646V98ZM125.577 87.668V89.288H124.227V90.494H125.577V95.246C125.577 96.272 125.757 97.046 126.189 97.532C126.567 97.946 127.161 98.198 127.899 98.198C128.511 98.198 128.997 98.09 129.303 97.982L129.231 96.776C128.997 96.848 128.745 96.884 128.313 96.884C127.431 96.884 127.125 96.272 127.125 95.192V90.494H129.393V89.288H127.125V87.2L125.577 87.668ZM136.737 97.586C137.349 97.946 138.231 98.198 139.185 98.198C141.219 98.198 142.425 97.118 142.425 95.57C142.425 94.274 141.633 93.518 140.139 92.96C139.005 92.51 138.501 92.186 138.501 91.466C138.501 90.818 139.005 90.278 139.941 90.278C140.751 90.278 141.381 90.584 141.723 90.8L142.101 89.648C141.633 89.342 140.859 89.108 139.977 89.108C138.123 89.108 136.971 90.26 136.971 91.664C136.971 92.708 137.709 93.554 139.293 94.13C140.445 94.562 140.895 94.958 140.895 95.714C140.895 96.452 140.355 97.01 139.221 97.01C138.429 97.01 137.601 96.686 137.115 96.398L136.737 97.586ZM147.222 98V89.288H145.638V98H147.222ZM146.43 85.85C145.836 85.85 145.44 86.3 145.44 86.84C145.44 87.38 145.818 87.812 146.394 87.812C147.024 87.812 147.402 87.38 147.402 86.84C147.402 86.282 147.006 85.85 146.43 85.85ZM156.966 85.22V90.422H156.93C156.534 89.738 155.652 89.108 154.302 89.108C152.196 89.108 150.378 90.872 150.396 93.77C150.396 96.416 152.034 98.198 154.14 98.198C155.562 98.198 156.606 97.46 157.074 96.488H157.128L157.2 98H158.604C158.568 97.406 158.532 96.524 158.532 95.75V85.22H156.966ZM156.966 94.346C156.966 94.598 156.948 94.814 156.894 95.03C156.606 96.2 155.634 96.92 154.572 96.92C152.88 96.92 151.998 95.462 151.998 93.698C151.998 91.79 152.97 90.35 154.608 90.35C155.796 90.35 156.66 91.178 156.894 92.168C156.948 92.366 156.966 92.636 156.966 92.834V94.346ZM169.358 93.932C169.394 93.752 169.412 93.518 169.412 93.194C169.412 91.592 168.674 89.108 165.812 89.108C163.274 89.108 161.726 91.16 161.726 93.788C161.726 96.416 163.328 98.198 166.01 98.198C167.396 98.198 168.368 97.892 168.926 97.64L168.638 96.506C168.062 96.758 167.36 96.956 166.226 96.956C164.624 96.956 163.274 96.074 163.238 93.932H169.358ZM163.256 92.798C163.382 91.7 164.066 90.242 165.686 90.242C167.468 90.242 167.9 91.808 167.882 92.798H163.256ZM171.554 89.288L174.182 98H175.622L177.026 93.86C177.332 92.924 177.602 92.024 177.818 90.98H177.854C178.07 92.006 178.322 92.87 178.628 93.842L179.96 98H181.4L184.208 89.288H182.642L181.4 93.662C181.112 94.688 180.878 95.606 180.734 96.488H180.68C180.482 95.606 180.23 94.688 179.906 93.644L178.556 89.288H177.224L175.802 93.734C175.514 94.67 175.226 95.606 175.028 96.488H174.974C174.812 95.588 174.578 94.688 174.344 93.716L173.174 89.288H171.554ZM193.018 92.654C193.018 90.926 192.37 89.108 189.706 89.108C188.608 89.108 187.546 89.414 186.826 89.864L187.186 90.926C187.798 90.512 188.644 90.278 189.472 90.278C191.254 90.26 191.452 91.574 191.452 92.276V92.456C188.086 92.438 186.214 93.59 186.214 95.696C186.214 96.956 187.114 98.198 188.878 98.198C190.12 98.198 191.056 97.586 191.542 96.902H191.596L191.722 98H193.144C193.054 97.406 193.018 96.668 193.018 95.912V92.654ZM191.488 95.066C191.488 95.21 191.47 95.39 191.416 95.57C191.164 96.308 190.426 97.028 189.274 97.028C188.482 97.028 187.798 96.56 187.798 95.516C187.798 93.824 189.76 93.518 191.488 93.554V95.066ZM196.751 98H198.335V85.22H196.751V98ZM203.741 85.22H202.175V98H203.741V94.724L204.551 93.824L207.539 98H209.483L205.649 92.87L208.997 89.288H207.107L204.533 92.294C204.281 92.6 203.993 92.978 203.777 93.284H203.741V85.22ZM216.767 101.564H218.333V96.83H218.369C218.891 97.694 219.899 98.198 221.051 98.198C223.103 98.198 225.029 96.65 225.029 93.518C225.029 90.89 223.445 89.108 221.321 89.108C219.899 89.108 218.855 89.72 218.225 90.782H218.189L218.099 89.288H216.695C216.731 90.116 216.767 91.016 216.767 92.132V101.564ZM218.333 92.942C218.333 92.744 218.387 92.51 218.441 92.312C218.729 91.124 219.755 90.368 220.835 90.368C222.509 90.368 223.427 91.862 223.427 93.59C223.427 95.588 222.455 96.956 220.781 96.956C219.647 96.956 218.693 96.2 218.405 95.102C218.351 94.904 218.333 94.688 218.333 94.454V92.942ZM234.305 92.654C234.305 90.926 233.657 89.108 230.993 89.108C229.895 89.108 228.833 89.414 228.113 89.864L228.473 90.926C229.085 90.512 229.931 90.278 230.759 90.278C232.541 90.26 232.739 91.574 232.739 92.276V92.456C229.373 92.438 227.501 93.59 227.501 95.696C227.501 96.956 228.401 98.198 230.165 98.198C231.407 98.198 232.343 97.586 232.829 96.902H232.883L233.009 98H234.431C234.341 97.406 234.305 96.668 234.305 95.912V92.654ZM232.775 95.066C232.775 95.21 232.757 95.39 232.703 95.57C232.451 96.308 231.713 97.028 230.561 97.028C229.769 97.028 229.085 96.56 229.085 95.516C229.085 93.824 231.047 93.518 232.775 93.554V95.066ZM236.818 89.288L240.13 98H241.642L245.062 89.288H243.406L241.714 94.166C241.426 94.976 241.174 95.696 240.976 96.416H240.922C240.742 95.696 240.508 94.976 240.22 94.166L238.51 89.288H236.818ZM254.56 93.932C254.596 93.752 254.614 93.518 254.614 93.194C254.614 91.592 253.876 89.108 251.014 89.108C248.476 89.108 246.928 91.16 246.928 93.788C246.928 96.416 248.53 98.198 251.212 98.198C252.598 98.198 253.57 97.892 254.128 97.64L253.84 96.506C253.264 96.758 252.562 96.956 251.428 96.956C249.826 96.956 248.476 96.074 248.44 93.932H254.56ZM248.458 92.798C248.584 91.7 249.268 90.242 250.888 90.242C252.67 90.242 253.102 91.808 253.084 92.798H248.458ZM257.746 98H259.294V92.762C259.294 92.492 259.33 92.204 259.42 91.988C259.672 91.196 260.41 90.404 261.382 90.404C262.588 90.404 263.2 91.394 263.2 92.78V98H264.748V92.618C264.748 92.33 264.802 92.06 264.874 91.826C265.162 91.07 265.846 90.404 266.764 90.404C268.024 90.404 268.654 91.394 268.654 93.086V98H270.202V92.888C270.202 89.864 268.492 89.108 267.322 89.108C266.494 89.108 265.936 89.324 265.414 89.72C265.054 89.99 264.694 90.35 264.424 90.854H264.388C264.01 89.828 263.11 89.108 261.94 89.108C260.482 89.108 259.672 89.882 259.186 90.71H259.132L259.06 89.288H257.674C257.71 90.008 257.746 90.728 257.746 91.646V98ZM280.93 93.932C280.966 93.752 280.984 93.518 280.984 93.194C280.984 91.592 280.246 89.108 277.384 89.108C274.846 89.108 273.298 91.16 273.298 93.788C273.298 96.416 274.9 98.198 277.582 98.198C278.968 98.198 279.94 97.892 280.498 97.64L280.21 96.506C279.634 96.758 278.932 96.956 277.798 96.956C276.196 96.956 274.846 96.074 274.81 93.932H280.93ZM274.828 92.798C274.954 91.7 275.638 90.242 277.258 90.242C279.04 90.242 279.472 91.808 279.454 92.798H274.828ZM284.115 98H285.699V92.762C285.699 92.492 285.735 92.222 285.807 92.024C286.095 91.142 286.905 90.404 287.931 90.404C289.425 90.404 289.947 91.574 289.947 92.978V98H291.531V92.816C291.531 89.828 289.659 89.108 288.453 89.108C287.013 89.108 286.005 89.918 285.573 90.728H285.537L285.447 89.288H284.043C284.097 90.008 284.115 90.728 284.115 91.646V98ZM295.559 87.668V89.288H294.209V90.494H295.559V95.246C295.559 96.272 295.739 97.046 296.171 97.532C296.549 97.946 297.143 98.198 297.881 98.198C298.493 98.198 298.979 98.09 299.285 97.982L299.213 96.776C298.979 96.848 298.727 96.884 298.295 96.884C297.413 96.884 297.107 96.272 297.107 95.192V90.494H299.375V89.288H297.107V87.2L295.559 87.668ZM302.942 98.198C303.608 98.198 304.04 97.712 304.04 97.064C304.04 96.398 303.608 95.93 302.978 95.93C302.348 95.93 301.898 96.416 301.898 97.064C301.898 97.712 302.33 98.198 302.942 98.198ZM312.211 97.964C312.733 98.036 313.561 98.108 314.641 98.108C316.621 98.108 317.989 97.748 318.817 96.974C319.447 96.398 319.861 95.588 319.861 94.544C319.861 92.744 318.511 91.79 317.359 91.52V91.466C318.619 91.016 319.411 89.99 319.411 88.802C319.411 87.848 319.015 87.128 318.385 86.66C317.647 86.048 316.639 85.778 315.073 85.778C313.993 85.778 312.895 85.886 312.211 86.048V97.964ZM313.777 87.092C314.029 87.038 314.443 86.984 315.163 86.984C316.747 86.984 317.809 87.56 317.809 88.964C317.809 90.134 316.837 91.016 315.199 91.016H313.777V87.092ZM313.777 92.186H315.073C316.783 92.186 318.205 92.888 318.205 94.526C318.205 96.29 316.711 96.884 315.091 96.884C314.533 96.884 314.101 96.866 313.777 96.812V92.186ZM330.155 93.932C330.191 93.752 330.209 93.518 330.209 93.194C330.209 91.592 329.471 89.108 326.609 89.108C324.071 89.108 322.523 91.16 322.523 93.788C322.523 96.416 324.125 98.198 326.807 98.198C328.193 98.198 329.165 97.892 329.723 97.64L329.435 96.506C328.859 96.758 328.157 96.956 327.023 96.956C325.421 96.956 324.071 96.074 324.035 93.932H330.155ZM324.053 92.798C324.179 91.7 324.863 90.242 326.483 90.242C328.265 90.242 328.697 91.808 328.679 92.798H324.053ZM339.28 96.506C338.83 96.704 338.236 96.92 337.336 96.92C335.608 96.92 334.312 95.678 334.312 93.662C334.312 91.862 335.392 90.368 337.39 90.368C338.254 90.368 338.848 90.584 339.226 90.782L339.586 89.576C339.154 89.342 338.326 89.108 337.39 89.108C334.546 89.108 332.71 91.07 332.71 93.752C332.71 96.416 334.42 98.198 337.048 98.198C338.218 98.198 339.136 97.892 339.55 97.694L339.28 96.506ZM348.699 92.654C348.699 90.926 348.051 89.108 345.387 89.108C344.289 89.108 343.227 89.414 342.507 89.864L342.867 90.926C343.479 90.512 344.325 90.278 345.153 90.278C346.935 90.26 347.133 91.574 347.133 92.276V92.456C343.767 92.438 341.895 93.59 341.895 95.696C341.895 96.956 342.795 98.198 344.559 98.198C345.801 98.198 346.737 97.586 347.223 96.902H347.277L347.403 98H348.825C348.735 97.406 348.699 96.668 348.699 95.912V92.654ZM347.169 95.066C347.169 95.21 347.151 95.39 347.097 95.57C346.845 96.308 346.107 97.028 344.955 97.028C344.163 97.028 343.479 96.56 343.479 95.516C343.479 93.824 345.441 93.518 347.169 93.554V95.066ZM359.722 89.288H358.138V94.616C358.138 94.922 358.084 95.21 357.994 95.426C357.706 96.146 356.968 96.884 355.906 96.884C354.484 96.884 353.962 95.75 353.962 94.094V89.288H352.378V94.382C352.378 97.424 354.016 98.198 355.384 98.198C356.932 98.198 357.868 97.28 358.264 96.578H358.3L358.39 98H359.794C359.74 97.316 359.722 96.524 359.722 95.606V89.288ZM362.922 97.586C363.534 97.946 364.416 98.198 365.37 98.198C367.404 98.198 368.61 97.118 368.61 95.57C368.61 94.274 367.818 93.518 366.324 92.96C365.19 92.51 364.686 92.186 364.686 91.466C364.686 90.818 365.19 90.278 366.126 90.278C366.936 90.278 367.566 90.584 367.908 90.8L368.286 89.648C367.818 89.342 367.044 89.108 366.162 89.108C364.308 89.108 363.156 90.26 363.156 91.664C363.156 92.708 363.894 93.554 365.478 94.13C366.63 94.562 367.08 94.958 367.08 95.714C367.08 96.452 366.54 97.01 365.406 97.01C364.614 97.01 363.786 96.686 363.3 96.398L362.922 97.586ZM378.825 93.932C378.861 93.752 378.879 93.518 378.879 93.194C378.879 91.592 378.141 89.108 375.279 89.108C372.741 89.108 371.193 91.16 371.193 93.788C371.193 96.416 372.795 98.198 375.477 98.198C376.863 98.198 377.835 97.892 378.393 97.64L378.105 96.506C377.529 96.758 376.827 96.956 375.693 96.956C374.091 96.956 372.741 96.074 372.705 93.932H378.825ZM372.723 92.798C372.849 91.7 373.533 90.242 375.153 90.242C376.935 90.242 377.367 91.808 377.349 92.798H372.723ZM385.843 89.288L389.047 97.316C389.137 97.514 389.173 97.64 389.173 97.73C389.173 97.82 389.119 97.946 389.047 98.108C388.669 98.918 388.147 99.53 387.715 99.872C387.247 100.268 386.725 100.52 386.329 100.646L386.725 101.96C387.121 101.888 387.877 101.618 388.669 100.952C389.749 99.998 390.523 98.486 391.657 95.498L394.033 89.288H392.359L390.631 94.4C390.415 95.03 390.235 95.696 390.073 96.218H390.037C389.893 95.696 389.677 95.012 389.461 94.436L387.571 89.288H385.843ZM403.464 93.932C403.5 93.752 403.518 93.518 403.518 93.194C403.518 91.592 402.78 89.108 399.918 89.108C397.38 89.108 395.832 91.16 395.832 93.788C395.832 96.416 397.434 98.198 400.116 98.198C401.502 98.198 402.474 97.892 403.032 97.64L402.744 96.506C402.168 96.758 401.466 96.956 400.332 96.956C398.73 96.956 397.38 96.074 397.344 93.932H403.464ZM397.362 92.798C397.488 91.7 398.172 90.242 399.792 90.242C401.574 90.242 402.006 91.808 401.988 92.798H397.362ZM406.65 98H408.234V85.22H406.65V98ZM412.073 98H413.657V85.22H412.073V98ZM421.187 89.108C418.793 89.108 416.867 90.818 416.867 93.716C416.867 96.47 418.703 98.198 421.043 98.198C423.131 98.198 425.381 96.794 425.381 93.572C425.381 90.926 423.689 89.108 421.187 89.108ZM421.151 90.296C423.023 90.296 423.761 92.15 423.761 93.626C423.761 95.588 422.627 97.01 421.115 97.01C419.567 97.01 418.487 95.57 418.487 93.662C418.487 92.024 419.297 90.296 421.151 90.296ZM427.433 89.288L430.061 98H431.501L432.905 93.86C433.211 92.924 433.481 92.024 433.697 90.98H433.733C433.949 92.006 434.201 92.87 434.507 93.842L435.839 98H437.279L440.087 89.288H438.521L437.279 93.662C436.991 94.688 436.757 95.606 436.613 96.488H436.559C436.361 95.606 436.109 94.688 435.785 93.644L434.435 89.288H433.103L431.681 93.734C431.393 94.67 431.105 95.606 430.907 96.488H430.853C430.691 95.588 430.457 94.688 430.223 93.716L429.053 89.288H427.433ZM449.416 98V89.288H447.832V98H449.416ZM448.624 85.85C448.03 85.85 447.634 86.3 447.634 86.84C447.634 87.38 448.012 87.812 448.588 87.812C449.218 87.812 449.596 87.38 449.596 86.84C449.596 86.282 449.2 85.85 448.624 85.85ZM452.626 97.586C453.238 97.946 454.12 98.198 455.074 98.198C457.108 98.198 458.314 97.118 458.314 95.57C458.314 94.274 457.522 93.518 456.028 92.96C454.894 92.51 454.39 92.186 454.39 91.466C454.39 90.818 454.894 90.278 455.83 90.278C456.64 90.278 457.27 90.584 457.612 90.8L457.99 89.648C457.522 89.342 456.748 89.108 455.866 89.108C454.012 89.108 452.86 90.26 452.86 91.664C452.86 92.708 453.598 93.554 455.182 94.13C456.334 94.562 456.784 94.958 456.784 95.714C456.784 96.452 456.244 97.01 455.11 97.01C454.318 97.01 453.49 96.686 453.004 96.398L452.626 97.586ZM466.512 95.75C466.512 96.524 466.476 97.406 466.44 98H467.79L467.88 96.578H467.916C468.582 97.712 469.59 98.198 470.85 98.198C472.794 98.198 474.774 96.65 474.774 93.536C474.774 90.908 473.262 89.108 471.084 89.108C469.68 89.108 468.672 89.72 468.114 90.692H468.078V85.22H466.512V95.75ZM468.078 92.96C468.078 92.708 468.114 92.492 468.168 92.294C468.492 91.106 469.5 90.35 470.562 90.35C472.272 90.35 473.172 91.844 473.172 93.59C473.172 95.588 472.2 96.938 470.526 96.938C469.374 96.938 468.438 96.182 468.15 95.084C468.096 94.904 468.078 94.706 468.078 94.508V92.96ZM477.93 98H479.514V93.356C479.514 93.104 479.532 92.834 479.568 92.618C479.784 91.43 480.576 90.602 481.692 90.602C481.908 90.602 482.07 90.602 482.232 90.638V89.144C482.088 89.126 481.962 89.108 481.8 89.108C480.738 89.108 479.766 89.846 479.37 91.016H479.316L479.244 89.288H477.858C477.912 90.098 477.93 90.98 477.93 92.006V98ZM486.643 98V89.288H485.059V98H486.643ZM485.851 85.85C485.257 85.85 484.861 86.3 484.861 86.84C484.861 87.38 485.239 87.812 485.815 87.812C486.445 87.812 486.823 87.38 486.823 86.84C486.823 86.282 486.427 85.85 485.851 85.85ZM497.899 91.664C497.899 90.62 497.917 89.9 497.971 89.288H496.567L496.513 90.602H496.477C496.081 89.882 495.271 89.108 493.759 89.108C491.743 89.108 489.817 90.764 489.817 93.716C489.817 96.128 491.365 97.964 493.525 97.964C494.875 97.964 495.829 97.316 496.297 96.506H496.333V97.46C496.333 99.674 495.145 100.52 493.525 100.52C492.445 100.52 491.545 100.196 490.969 99.818L490.573 101.042C491.275 101.51 492.427 101.762 493.471 101.762C494.569 101.762 495.793 101.492 496.657 100.718C497.485 99.944 497.899 98.738 497.899 96.722V91.664ZM496.315 94.292C496.315 94.562 496.279 94.868 496.189 95.138C495.865 96.146 494.983 96.758 493.993 96.758C492.301 96.758 491.419 95.336 491.419 93.626C491.419 91.61 492.499 90.332 494.011 90.332C495.181 90.332 495.937 91.088 496.225 92.024C496.297 92.222 496.315 92.456 496.315 92.726V94.292ZM501.672 98H503.256V92.744C503.256 92.456 503.274 92.222 503.364 91.988C503.67 91.142 504.462 90.422 505.488 90.422C506.982 90.422 507.504 91.592 507.504 92.996V98H509.088V92.816C509.088 89.828 507.216 89.108 506.046 89.108C505.452 89.108 504.894 89.27 504.426 89.54C503.94 89.81 503.544 90.224 503.292 90.674H503.256V85.22H501.672V98ZM513.116 87.668V89.288H511.766V90.494H513.116V95.246C513.116 96.272 513.296 97.046 513.728 97.532C514.106 97.946 514.7 98.198 515.438 98.198C516.05 98.198 516.536 98.09 516.842 97.982L516.77 96.776C516.536 96.848 516.284 96.884 515.852 96.884C514.97 96.884 514.664 96.272 514.664 95.192V90.494H516.932V89.288H514.664V87.2L513.116 87.668ZM526.782 93.932C526.818 93.752 526.836 93.518 526.836 93.194C526.836 91.592 526.098 89.108 523.236 89.108C520.698 89.108 519.15 91.16 519.15 93.788C519.15 96.416 520.752 98.198 523.434 98.198C524.82 98.198 525.792 97.892 526.35 97.64L526.062 96.506C525.486 96.758 524.784 96.956 523.65 96.956C522.048 96.956 520.698 96.074 520.662 93.932H526.782ZM520.68 92.798C520.806 91.7 521.49 90.242 523.11 90.242C524.892 90.242 525.324 91.808 525.306 92.798H520.68ZM529.967 98H531.551V93.356C531.551 93.104 531.569 92.834 531.605 92.618C531.821 91.43 532.613 90.602 533.729 90.602C533.945 90.602 534.107 90.602 534.269 90.638V89.144C534.125 89.126 533.999 89.108 533.837 89.108C532.775 89.108 531.803 89.846 531.407 91.016H531.353L531.281 89.288H529.895C529.949 90.098 529.967 90.98 529.967 92.006V98ZM548.13 92.654C548.13 90.926 547.482 89.108 544.818 89.108C543.72 89.108 542.658 89.414 541.938 89.864L542.298 90.926C542.91 90.512 543.756 90.278 544.584 90.278C546.366 90.26 546.564 91.574 546.564 92.276V92.456C543.198 92.438 541.326 93.59 541.326 95.696C541.326 96.956 542.226 98.198 543.99 98.198C545.232 98.198 546.168 97.586 546.654 96.902H546.708L546.834 98H548.256C548.166 97.406 548.13 96.668 548.13 95.912V92.654ZM546.6 95.066C546.6 95.21 546.582 95.39 546.528 95.57C546.276 96.308 545.538 97.028 544.386 97.028C543.594 97.028 542.91 96.56 542.91 95.516C542.91 93.824 544.872 93.518 546.6 93.554V95.066ZM551.864 98H553.448V92.762C553.448 92.492 553.484 92.222 553.556 92.024C553.844 91.142 554.654 90.404 555.68 90.404C557.174 90.404 557.696 91.574 557.696 92.978V98H559.28V92.816C559.28 89.828 557.408 89.108 556.202 89.108C554.762 89.108 553.754 89.918 553.322 90.728H553.286L553.196 89.288H551.792C551.846 90.008 551.864 90.728 551.864 91.646V98ZM568.958 85.22V90.422H568.922C568.526 89.738 567.644 89.108 566.294 89.108C564.188 89.108 562.37 90.872 562.388 93.77C562.388 96.416 564.026 98.198 566.132 98.198C567.554 98.198 568.598 97.46 569.066 96.488H569.12L569.192 98H570.596C570.56 97.406 570.524 96.524 570.524 95.75V85.22H568.958ZM568.958 94.346C568.958 94.598 568.94 94.814 568.886 95.03C568.598 96.2 567.626 96.92 566.564 96.92C564.872 96.92 563.99 95.462 563.99 93.698C563.99 91.79 564.962 90.35 566.6 90.35C567.788 90.35 568.652 91.178 568.886 92.168C568.94 92.366 568.958 92.636 568.958 92.834V94.346ZM9.316 115.932C9.352 115.752 9.37 115.518 9.37 115.194C9.37 113.592 8.632 111.108 5.77 111.108C3.232 111.108 1.684 113.16 1.684 115.788C1.684 118.416 3.286 120.198 5.968 120.198C7.354 120.198 8.326 119.892 8.884 119.64L8.596 118.506C8.02 118.758 7.318 118.956 6.184 118.956C4.582 118.956 3.232 118.074 3.196 115.932H9.316ZM3.214 114.798C3.34 113.7 4.024 112.242 5.644 112.242C7.426 112.242 7.858 113.808 7.84 114.798H3.214ZM18.6216 114.654C18.6216 112.926 17.9736 111.108 15.3096 111.108C14.2116 111.108 13.1496 111.414 12.4296 111.864L12.7896 112.926C13.4016 112.512 14.2476 112.278 15.0756 112.278C16.8576 112.26 17.0556 113.574 17.0556 114.276V114.456C13.6896 114.438 11.8176 115.59 11.8176 117.696C11.8176 118.956 12.7176 120.198 14.4816 120.198C15.7236 120.198 16.6596 119.586 17.1456 118.902H17.1996L17.3256 120H18.7476C18.6576 119.406 18.6216 118.668 18.6216 117.912V114.654ZM17.0916 117.066C17.0916 117.21 17.0736 117.39 17.0196 117.57C16.7676 118.308 16.0296 119.028 14.8776 119.028C14.0856 119.028 13.4016 118.56 13.4016 117.516C13.4016 115.824 15.3636 115.518 17.0916 115.554V117.066ZM21.7612 119.586C22.3732 119.946 23.2552 120.198 24.2092 120.198C26.2432 120.198 27.4492 119.118 27.4492 117.57C27.4492 116.274 26.6572 115.518 25.1632 114.96C24.0292 114.51 23.5252 114.186 23.5252 113.466C23.5252 112.818 24.0292 112.278 24.9652 112.278C25.7752 112.278 26.4052 112.584 26.7472 112.8L27.1252 111.648C26.6572 111.342 25.8832 111.108 25.0012 111.108C23.1472 111.108 21.9952 112.26 21.9952 113.664C21.9952 114.708 22.7332 115.554 24.3172 116.13C25.4692 116.562 25.9192 116.958 25.9192 117.714C25.9192 118.452 25.3792 119.01 24.2452 119.01C23.4532 119.01 22.6252 118.686 22.1392 118.398L21.7612 119.586ZM32.2459 120V111.288H30.6619V120H32.2459ZM31.4539 107.85C30.8599 107.85 30.4639 108.3 30.4639 108.84C30.4639 109.38 30.8419 109.812 31.4179 109.812C32.0479 109.812 32.4259 109.38 32.4259 108.84C32.4259 108.282 32.0299 107.85 31.4539 107.85ZM43.0526 115.932C43.0886 115.752 43.1066 115.518 43.1066 115.194C43.1066 113.592 42.3686 111.108 39.5066 111.108C36.9686 111.108 35.4206 113.16 35.4206 115.788C35.4206 118.416 37.0226 120.198 39.7046 120.198C41.0906 120.198 42.0626 119.892 42.6206 119.64L42.3326 118.506C41.7566 118.758 41.0546 118.956 39.9206 118.956C38.3186 118.956 36.9686 118.074 36.9326 115.932H43.0526ZM36.9506 114.798C37.0766 113.7 37.7606 112.242 39.3806 112.242C41.1626 112.242 41.5946 113.808 41.5766 114.798H36.9506ZM46.2382 120H47.8222V115.356C47.8222 115.104 47.8402 114.834 47.8762 114.618C48.0922 113.43 48.8842 112.602 50.0002 112.602C50.2162 112.602 50.3782 112.602 50.5402 112.638V111.144C50.3962 111.126 50.2702 111.108 50.1082 111.108C49.0462 111.108 48.0742 111.846 47.6782 113.016H47.6242L47.5522 111.288H46.1662C46.2202 112.098 46.2382 112.98 46.2382 114.006V120ZM58.6413 109.668V111.288H57.2913V112.494H58.6413V117.246C58.6413 118.272 58.8213 119.046 59.2533 119.532C59.6313 119.946 60.2253 120.198 60.9633 120.198C61.5753 120.198 62.0613 120.09 62.3673 119.982L62.2953 118.776C62.0613 118.848 61.8093 118.884 61.3773 118.884C60.4953 118.884 60.1893 118.272 60.1893 117.192V112.494H62.4573V111.288H60.1893V109.2L58.6413 109.668ZM68.9949 111.108C66.6009 111.108 64.6749 112.818 64.6749 115.716C64.6749 118.47 66.5109 120.198 68.8509 120.198C70.9389 120.198 73.1889 118.794 73.1889 115.572C73.1889 112.926 71.4969 111.108 68.9949 111.108ZM68.9589 112.296C70.8309 112.296 71.5689 114.15 71.5689 115.626C71.5689 117.588 70.4349 119.01 68.9229 119.01C67.3749 119.01 66.2949 117.57 66.2949 115.662C66.2949 114.024 67.1049 112.296 68.9589 112.296ZM81.3382 117.75C81.3382 118.524 81.3022 119.406 81.2662 120H82.6162L82.7062 118.578H82.7422C83.4082 119.712 84.4162 120.198 85.6762 120.198C87.6202 120.198 89.6002 118.65 89.6002 115.536C89.6002 112.908 88.0882 111.108 85.9102 111.108C84.5062 111.108 83.4982 111.72 82.9402 112.692H82.9042V107.22H81.3382V117.75ZM82.9042 114.96C82.9042 114.708 82.9402 114.492 82.9942 114.294C83.3182 113.106 84.3262 112.35 85.3882 112.35C87.0982 112.35 87.9982 113.844 87.9982 115.59C87.9982 117.588 87.0262 118.938 85.3522 118.938C84.2002 118.938 83.2642 118.182 82.9762 117.084C82.9222 116.904 82.9042 116.706 82.9042 116.508V114.96ZM99.7583 115.932C99.7943 115.752 99.8123 115.518 99.8123 115.194C99.8123 113.592 99.0743 111.108 96.2123 111.108C93.6743 111.108 92.1263 113.16 92.1263 115.788C92.1263 118.416 93.7283 120.198 96.4103 120.198C97.7963 120.198 98.7683 119.892 99.3263 119.64L99.0383 118.506C98.4623 118.758 97.7603 118.956 96.6263 118.956C95.0243 118.956 93.6743 118.074 93.6383 115.932H99.7583ZM93.6563 114.798C93.7823 113.7 94.4663 112.242 96.0863 112.242C97.8683 112.242 98.3003 113.808 98.2823 114.798H93.6563ZM113.868 107.22V112.422H113.832C113.436 111.738 112.554 111.108 111.204 111.108C109.098 111.108 107.28 112.872 107.298 115.77C107.298 118.416 108.936 120.198 111.042 120.198C112.464 120.198 113.508 119.46 113.976 118.488H114.03L114.102 120H115.506C115.47 119.406 115.434 118.524 115.434 117.75V107.22H113.868ZM113.868 116.346C113.868 116.598 113.85 116.814 113.796 117.03C113.508 118.2 112.536 118.92 111.474 118.92C109.782 118.92 108.9 117.462 108.9 115.698C108.9 113.79 109.872 112.35 111.51 112.35C112.698 112.35 113.562 113.178 113.796 114.168C113.85 114.366 113.868 114.636 113.868 114.834V116.346ZM120.842 120V111.288H119.258V120H120.842ZM120.05 107.85C119.456 107.85 119.06 108.3 119.06 108.84C119.06 109.38 119.438 109.812 120.014 109.812C120.644 109.812 121.022 109.38 121.022 108.84C121.022 108.282 120.626 107.85 120.05 107.85ZM124.053 119.586C124.665 119.946 125.547 120.198 126.501 120.198C128.535 120.198 129.741 119.118 129.741 117.57C129.741 116.274 128.949 115.518 127.455 114.96C126.321 114.51 125.817 114.186 125.817 113.466C125.817 112.818 126.321 112.278 127.257 112.278C128.067 112.278 128.697 112.584 129.039 112.8L129.417 111.648C128.949 111.342 128.175 111.108 127.293 111.108C125.439 111.108 124.287 112.26 124.287 113.664C124.287 114.708 125.025 115.554 126.609 116.13C127.761 116.562 128.211 116.958 128.211 117.714C128.211 118.452 127.671 119.01 126.537 119.01C125.745 119.01 124.917 118.686 124.431 118.398L124.053 119.586ZM133.314 109.668V111.288H131.964V112.494H133.314V117.246C133.314 118.272 133.494 119.046 133.926 119.532C134.304 119.946 134.898 120.198 135.636 120.198C136.248 120.198 136.734 120.09 137.04 119.982L136.968 118.776C136.734 118.848 136.482 118.884 136.05 118.884C135.168 118.884 134.862 118.272 134.862 117.192V112.494H137.13V111.288H134.862V109.2L133.314 109.668ZM141.667 120V111.288H140.083V120H141.667ZM140.875 107.85C140.281 107.85 139.885 108.3 139.885 108.84C139.885 109.38 140.263 109.812 140.839 109.812C141.469 109.812 141.847 109.38 141.847 108.84C141.847 108.282 141.451 107.85 140.875 107.85ZM145.472 120H147.056V114.762C147.056 114.492 147.092 114.222 147.164 114.024C147.452 113.142 148.262 112.404 149.288 112.404C150.782 112.404 151.304 113.574 151.304 114.978V120H152.888V114.816C152.888 111.828 151.016 111.108 149.81 111.108C148.37 111.108 147.362 111.918 146.93 112.728H146.894L146.804 111.288H145.4C145.454 112.008 145.472 112.728 145.472 113.646V120ZM164.078 113.664C164.078 112.62 164.096 111.9 164.15 111.288H162.746L162.692 112.602H162.656C162.26 111.882 161.45 111.108 159.938 111.108C157.922 111.108 155.996 112.764 155.996 115.716C155.996 118.128 157.544 119.964 159.704 119.964C161.054 119.964 162.008 119.316 162.476 118.506H162.512V119.46C162.512 121.674 161.324 122.52 159.704 122.52C158.624 122.52 157.724 122.196 157.148 121.818L156.752 123.042C157.454 123.51 158.606 123.762 159.65 123.762C160.748 123.762 161.972 123.492 162.836 122.718C163.664 121.944 164.078 120.738 164.078 118.722V113.664ZM162.494 116.292C162.494 116.562 162.458 116.868 162.368 117.138C162.044 118.146 161.162 118.758 160.172 118.758C158.48 118.758 157.598 117.336 157.598 115.626C157.598 113.61 158.678 112.332 160.19 112.332C161.36 112.332 162.116 113.088 162.404 114.024C162.476 114.222 162.494 114.456 162.494 114.726V116.292ZM175.141 111.288H173.557V116.616C173.557 116.922 173.503 117.21 173.413 117.426C173.125 118.146 172.387 118.884 171.325 118.884C169.903 118.884 169.381 117.75 169.381 116.094V111.288H167.797V116.382C167.797 119.424 169.435 120.198 170.803 120.198C172.351 120.198 173.287 119.28 173.683 118.578H173.719L173.809 120H175.213C175.159 119.316 175.141 118.524 175.141 117.606V111.288ZM180.519 120V111.288H178.935V120H180.519ZM179.727 107.85C179.133 107.85 178.737 108.3 178.737 108.84C178.737 109.38 179.115 109.812 179.691 109.812C180.321 109.812 180.699 109.38 180.699 108.84C180.699 108.282 180.303 107.85 179.727 107.85ZM183.73 119.586C184.342 119.946 185.224 120.198 186.178 120.198C188.212 120.198 189.418 119.118 189.418 117.57C189.418 116.274 188.626 115.518 187.132 114.96C185.998 114.51 185.494 114.186 185.494 113.466C185.494 112.818 185.998 112.278 186.934 112.278C187.744 112.278 188.374 112.584 188.716 112.8L189.094 111.648C188.626 111.342 187.852 111.108 186.97 111.108C185.116 111.108 183.964 112.26 183.964 113.664C183.964 114.708 184.702 115.554 186.286 116.13C187.438 116.562 187.888 116.958 187.888 117.714C187.888 118.452 187.348 119.01 186.214 119.01C185.422 119.01 184.594 118.686 184.108 118.398L183.73 119.586ZM192.63 120H194.214V114.744C194.214 114.456 194.232 114.222 194.322 113.988C194.628 113.142 195.42 112.422 196.446 112.422C197.94 112.422 198.462 113.592 198.462 114.996V120H200.046V114.816C200.046 111.828 198.174 111.108 197.004 111.108C196.41 111.108 195.852 111.27 195.384 111.54C194.898 111.81 194.502 112.224 194.25 112.674H194.214V107.22H192.63V120ZM210.787 115.932C210.823 115.752 210.841 115.518 210.841 115.194C210.841 113.592 210.103 111.108 207.241 111.108C204.703 111.108 203.155 113.16 203.155 115.788C203.155 118.416 204.757 120.198 207.439 120.198C208.825 120.198 209.797 119.892 210.355 119.64L210.067 118.506C209.491 118.758 208.789 118.956 207.655 118.956C206.053 118.956 204.703 118.074 204.667 115.932H210.787ZM204.685 114.798C204.811 113.7 205.495 112.242 207.115 112.242C208.897 112.242 209.329 113.808 209.311 114.798H204.685ZM219.912 107.22V112.422H219.876C219.48 111.738 218.598 111.108 217.248 111.108C215.142 111.108 213.324 112.872 213.342 115.77C213.342 118.416 214.98 120.198 217.086 120.198C218.508 120.198 219.552 119.46 220.02 118.488H220.074L220.146 120H221.55C221.514 119.406 221.478 118.524 221.478 117.75V107.22H219.912ZM219.912 116.346C219.912 116.598 219.894 116.814 219.84 117.03C219.552 118.2 218.58 118.92 217.518 118.92C215.826 118.92 214.944 117.462 214.944 115.698C214.944 113.79 215.916 112.35 217.554 112.35C218.742 112.35 219.606 113.178 219.84 114.168C219.894 114.366 219.912 114.636 219.912 114.834V116.346ZM225.217 122.106C225.721 121.26 226.513 119.262 226.945 117.732L225.181 117.912C224.983 119.226 224.497 121.152 224.101 122.232L225.217 122.106ZM234.414 119.586C235.026 119.946 235.908 120.198 236.862 120.198C238.896 120.198 240.102 119.118 240.102 117.57C240.102 116.274 239.31 115.518 237.816 114.96C236.682 114.51 236.178 114.186 236.178 113.466C236.178 112.818 236.682 112.278 237.618 112.278C238.428 112.278 239.058 112.584 239.4 112.8L239.778 111.648C239.31 111.342 238.536 111.108 237.654 111.108C235.8 111.108 234.648 112.26 234.648 113.664C234.648 114.708 235.386 115.554 236.97 116.13C238.122 116.562 238.572 116.958 238.572 117.714C238.572 118.452 238.032 119.01 236.898 119.01C236.106 119.01 235.278 118.686 234.792 118.398L234.414 119.586ZM243.674 109.668V111.288H242.324V112.494H243.674V117.246C243.674 118.272 243.854 119.046 244.286 119.532C244.664 119.946 245.258 120.198 245.996 120.198C246.608 120.198 247.094 120.09 247.4 119.982L247.328 118.776C247.094 118.848 246.842 118.884 246.41 118.884C245.528 118.884 245.222 118.272 245.222 117.192V112.494H247.49V111.288H245.222V109.2L243.674 109.668ZM256.563 114.654C256.563 112.926 255.915 111.108 253.251 111.108C252.153 111.108 251.091 111.414 250.371 111.864L250.731 112.926C251.343 112.512 252.189 112.278 253.017 112.278C254.799 112.26 254.997 113.574 254.997 114.276V114.456C251.631 114.438 249.759 115.59 249.759 117.696C249.759 118.956 250.659 120.198 252.423 120.198C253.665 120.198 254.601 119.586 255.087 118.902H255.141L255.267 120H256.689C256.599 119.406 256.563 118.668 256.563 117.912V114.654ZM255.033 117.066C255.033 117.21 255.015 117.39 254.961 117.57C254.709 118.308 253.971 119.028 252.819 119.028C252.027 119.028 251.343 118.56 251.343 117.516C251.343 115.824 253.305 115.518 255.033 115.554V117.066ZM260.297 120H261.881V114.762C261.881 114.492 261.917 114.222 261.989 114.024C262.277 113.142 263.087 112.404 264.113 112.404C265.607 112.404 266.129 113.574 266.129 114.978V120H267.713V114.816C267.713 111.828 265.841 111.108 264.635 111.108C263.195 111.108 262.187 111.918 261.755 112.728H261.719L261.629 111.288H260.225C260.279 112.008 260.297 112.728 260.297 113.646V120ZM277.391 107.22V112.422H277.355C276.959 111.738 276.077 111.108 274.727 111.108C272.621 111.108 270.803 112.872 270.821 115.77C270.821 118.416 272.459 120.198 274.565 120.198C275.987 120.198 277.031 119.46 277.499 118.488H277.553L277.625 120H279.029C278.993 119.406 278.957 118.524 278.957 117.75V107.22H277.391ZM277.391 116.346C277.391 116.598 277.373 116.814 277.319 117.03C277.031 118.2 276.059 118.92 274.997 118.92C273.305 118.92 272.423 117.462 272.423 115.698C272.423 113.79 273.395 112.35 275.033 112.35C276.221 112.35 277.085 113.178 277.319 114.168C277.373 114.366 277.391 114.636 277.391 114.834V116.346ZM288.901 114.654C288.901 112.926 288.253 111.108 285.589 111.108C284.491 111.108 283.429 111.414 282.709 111.864L283.069 112.926C283.681 112.512 284.527 112.278 285.355 112.278C287.137 112.26 287.335 113.574 287.335 114.276V114.456C283.969 114.438 282.097 115.59 282.097 117.696C282.097 118.956 282.997 120.198 284.761 120.198C286.003 120.198 286.939 119.586 287.425 118.902H287.479L287.605 120H289.027C288.937 119.406 288.901 118.668 288.901 117.912V114.654ZM287.371 117.066C287.371 117.21 287.353 117.39 287.299 117.57C287.047 118.308 286.309 119.028 285.157 119.028C284.365 119.028 283.681 118.56 283.681 117.516C283.681 115.824 285.643 115.518 287.371 115.554V117.066ZM292.635 120H294.219V115.356C294.219 115.104 294.237 114.834 294.273 114.618C294.489 113.43 295.281 112.602 296.397 112.602C296.613 112.602 296.775 112.602 296.937 112.638V111.144C296.793 111.126 296.667 111.108 296.505 111.108C295.443 111.108 294.471 111.846 294.075 113.016H294.021L293.949 111.288H292.563C292.617 112.098 292.635 112.98 292.635 114.006V120ZM305.458 107.22V112.422H305.422C305.026 111.738 304.144 111.108 302.794 111.108C300.688 111.108 298.87 112.872 298.888 115.77C298.888 118.416 300.526 120.198 302.632 120.198C304.054 120.198 305.098 119.46 305.566 118.488H305.62L305.692 120H307.096C307.06 119.406 307.024 118.524 307.024 117.75V107.22H305.458ZM305.458 116.346C305.458 116.598 305.44 116.814 305.386 117.03C305.098 118.2 304.126 118.92 303.064 118.92C301.372 118.92 300.49 117.462 300.49 115.698C300.49 113.79 301.462 112.35 303.1 112.35C304.288 112.35 305.152 113.178 305.386 114.168C305.44 114.366 305.458 114.636 305.458 114.834V116.346ZM316.193 109.668V111.288H314.843V112.494H316.193V117.246C316.193 118.272 316.373 119.046 316.805 119.532C317.183 119.946 317.777 120.198 318.515 120.198C319.127 120.198 319.613 120.09 319.919 119.982L319.847 118.776C319.613 118.848 319.361 118.884 318.929 118.884C318.047 118.884 317.741 118.272 317.741 117.192V112.494H320.009V111.288H317.741V109.2L316.193 109.668ZM329.081 114.654C329.081 112.926 328.433 111.108 325.769 111.108C324.671 111.108 323.609 111.414 322.889 111.864L323.249 112.926C323.861 112.512 324.707 112.278 325.535 112.278C327.317 112.26 327.515 113.574 327.515 114.276V114.456C324.149 114.438 322.277 115.59 322.277 117.696C322.277 118.956 323.177 120.198 324.941 120.198C326.183 120.198 327.119 119.586 327.605 118.902H327.659L327.785 120H329.207C329.117 119.406 329.081 118.668 329.081 117.912V114.654ZM327.551 117.066C327.551 117.21 327.533 117.39 327.479 117.57C327.227 118.308 326.489 119.028 325.337 119.028C324.545 119.028 323.861 118.56 323.861 117.516C323.861 115.824 325.823 115.518 327.551 115.554V117.066ZM338.755 118.506C338.305 118.704 337.711 118.92 336.811 118.92C335.083 118.92 333.787 117.678 333.787 115.662C333.787 113.862 334.867 112.368 336.865 112.368C337.729 112.368 338.323 112.584 338.701 112.782L339.061 111.576C338.629 111.342 337.801 111.108 336.865 111.108C334.021 111.108 332.185 113.07 332.185 115.752C332.185 118.416 333.895 120.198 336.523 120.198C337.693 120.198 338.611 119.892 339.025 119.694L338.755 118.506ZM342.642 109.668V111.288H341.292V112.494H342.642V117.246C342.642 118.272 342.822 119.046 343.254 119.532C343.632 119.946 344.226 120.198 344.964 120.198C345.576 120.198 346.062 120.09 346.368 119.982L346.296 118.776C346.062 118.848 345.81 118.884 345.378 118.884C344.496 118.884 344.19 118.272 344.19 117.192V112.494H346.458V111.288H344.19V109.2L342.642 109.668ZM350.995 120V111.288H349.411V120H350.995ZM350.203 107.85C349.609 107.85 349.213 108.3 349.213 108.84C349.213 109.38 349.591 109.812 350.167 109.812C350.797 109.812 351.175 109.38 351.175 108.84C351.175 108.282 350.779 107.85 350.203 107.85ZM354.8 120H356.384V107.22H354.8V120ZM367.226 115.932C367.262 115.752 367.28 115.518 367.28 115.194C367.28 113.592 366.542 111.108 363.68 111.108C361.142 111.108 359.594 113.16 359.594 115.788C359.594 118.416 361.196 120.198 363.878 120.198C365.264 120.198 366.236 119.892 366.794 119.64L366.506 118.506C365.93 118.758 365.228 118.956 364.094 118.956C362.492 118.956 361.142 118.074 361.106 115.932H367.226ZM361.124 114.798C361.25 113.7 361.934 112.242 363.554 112.242C365.336 112.242 365.768 113.808 365.75 114.798H361.124ZM375.396 123.564H376.962V118.83H376.998C377.52 119.694 378.528 120.198 379.68 120.198C381.732 120.198 383.658 118.65 383.658 115.518C383.658 112.89 382.074 111.108 379.95 111.108C378.528 111.108 377.484 111.72 376.854 112.782H376.818L376.728 111.288H375.324C375.36 112.116 375.396 113.016 375.396 114.132V123.564ZM376.962 114.942C376.962 114.744 377.016 114.51 377.07 114.312C377.358 113.124 378.384 112.368 379.464 112.368C381.138 112.368 382.056 113.862 382.056 115.59C382.056 117.588 381.084 118.956 379.41 118.956C378.276 118.956 377.322 118.2 377.034 117.102C376.98 116.904 376.962 116.688 376.962 116.454V114.942ZM392.934 114.654C392.934 112.926 392.286 111.108 389.622 111.108C388.524 111.108 387.462 111.414 386.742 111.864L387.102 112.926C387.714 112.512 388.56 112.278 389.388 112.278C391.17 112.26 391.368 113.574 391.368 114.276V114.456C388.002 114.438 386.13 115.59 386.13 117.696C386.13 118.956 387.03 120.198 388.794 120.198C390.036 120.198 390.972 119.586 391.458 118.902H391.512L391.638 120H393.06C392.97 119.406 392.934 118.668 392.934 117.912V114.654ZM391.404 117.066C391.404 117.21 391.386 117.39 391.332 117.57C391.08 118.308 390.342 119.028 389.19 119.028C388.398 119.028 387.714 118.56 387.714 117.516C387.714 115.824 389.676 115.518 391.404 115.554V117.066ZM395.447 111.288L398.759 120H400.271L403.691 111.288H402.035L400.343 116.166C400.055 116.976 399.803 117.696 399.605 118.416H399.551C399.371 117.696 399.137 116.976 398.849 116.166L397.139 111.288H395.447ZM407.947 120V111.288H406.363V120H407.947ZM407.155 107.85C406.561 107.85 406.165 108.3 406.165 108.84C406.165 109.38 406.543 109.812 407.119 109.812C407.749 109.812 408.127 109.38 408.127 108.84C408.127 108.282 407.731 107.85 407.155 107.85ZM411.751 120H413.335V114.762C413.335 114.492 413.371 114.222 413.443 114.024C413.731 113.142 414.541 112.404 415.567 112.404C417.061 112.404 417.583 113.574 417.583 114.978V120H419.167V114.816C419.167 111.828 417.295 111.108 416.089 111.108C414.649 111.108 413.641 111.918 413.209 112.728H413.173L413.083 111.288H411.679C411.733 112.008 411.751 112.728 411.751 113.646V120ZM430.358 113.664C430.358 112.62 430.376 111.9 430.43 111.288H429.026L428.972 112.602H428.936C428.54 111.882 427.73 111.108 426.218 111.108C424.202 111.108 422.276 112.764 422.276 115.716C422.276 118.128 423.824 119.964 425.984 119.964C427.334 119.964 428.288 119.316 428.756 118.506H428.792V119.46C428.792 121.674 427.604 122.52 425.984 122.52C424.904 122.52 424.004 122.196 423.428 121.818L423.032 123.042C423.734 123.51 424.886 123.762 425.93 123.762C427.028 123.762 428.252 123.492 429.116 122.718C429.944 121.944 430.358 120.738 430.358 118.722V113.664ZM428.774 116.292C428.774 116.562 428.738 116.868 428.648 117.138C428.324 118.146 427.442 118.758 426.452 118.758C424.76 118.758 423.878 117.336 423.878 115.626C423.878 113.61 424.958 112.332 426.47 112.332C427.64 112.332 428.396 113.088 428.684 114.024C428.756 114.222 428.774 114.456 428.774 114.726V116.292ZM440.699 120V111.288H439.115V120H440.699ZM439.907 107.85C439.313 107.85 438.917 108.3 438.917 108.84C438.917 109.38 439.295 109.812 439.871 109.812C440.501 109.812 440.879 109.38 440.879 108.84C440.879 108.282 440.483 107.85 439.907 107.85ZM444.504 120H446.088V114.762C446.088 114.492 446.124 114.222 446.196 114.024C446.484 113.142 447.294 112.404 448.32 112.404C449.814 112.404 450.336 113.574 450.336 114.978V120H451.92V114.816C451.92 111.828 450.048 111.108 448.842 111.108C447.402 111.108 446.394 111.918 445.962 112.728H445.926L445.836 111.288H444.432C444.486 112.008 444.504 112.728 444.504 113.646V120ZM468.851 118.362C468.221 118.668 467.249 118.866 466.277 118.866C463.343 118.866 461.633 116.976 461.633 113.988C461.633 110.802 463.523 108.984 466.367 108.984C467.375 108.984 468.221 109.2 468.797 109.488L469.193 108.21C468.779 107.994 467.807 107.67 466.313 107.67C462.551 107.67 459.977 110.226 459.977 114.042C459.977 118.038 462.533 120.198 465.953 120.198C467.429 120.198 468.599 119.91 469.157 119.622L468.851 118.362ZM472.254 120H473.838V114.744C473.838 114.456 473.856 114.222 473.946 113.988C474.252 113.142 475.044 112.422 476.07 112.422C477.564 112.422 478.086 113.592 478.086 114.996V120H479.67V114.816C479.67 111.828 477.798 111.108 476.628 111.108C476.034 111.108 475.476 111.27 475.008 111.54C474.522 111.81 474.126 112.224 473.874 112.674H473.838V107.22H472.254V120ZM484.992 120V111.288H483.408V120H484.992ZM484.2 107.85C483.606 107.85 483.21 108.3 483.21 108.84C483.21 109.38 483.588 109.812 484.164 109.812C484.794 109.812 485.172 109.38 485.172 108.84C485.172 108.282 484.776 107.85 484.2 107.85ZM488.797 120H490.381V114.762C490.381 114.492 490.417 114.222 490.489 114.024C490.777 113.142 491.587 112.404 492.613 112.404C494.107 112.404 494.629 113.574 494.629 114.978V120H496.213V114.816C496.213 111.828 494.341 111.108 493.135 111.108C491.695 111.108 490.687 111.918 490.255 112.728H490.219L490.129 111.288H488.725C488.779 112.008 488.797 112.728 488.797 113.646V120ZM506.071 114.654C506.071 112.926 505.423 111.108 502.759 111.108C501.661 111.108 500.599 111.414 499.879 111.864L500.239 112.926C500.851 112.512 501.697 112.278 502.525 112.278C504.307 112.26 504.505 113.574 504.505 114.276V114.456C501.139 114.438 499.267 115.59 499.267 117.696C499.267 118.956 500.167 120.198 501.931 120.198C503.173 120.198 504.109 119.586 504.595 118.902H504.649L504.775 120H506.197C506.107 119.406 506.071 118.668 506.071 117.912V114.654ZM504.541 117.066C504.541 117.21 504.523 117.39 504.469 117.57C504.217 118.308 503.479 119.028 502.327 119.028C501.535 119.028 500.851 118.56 500.851 117.516C500.851 115.824 502.813 115.518 504.541 115.554V117.066ZM516.373 120V111.288H514.789V120H516.373ZM515.581 107.85C514.987 107.85 514.591 108.3 514.591 108.84C514.591 109.38 514.969 109.812 515.545 109.812C516.175 109.812 516.553 109.38 516.553 108.84C516.553 108.282 516.157 107.85 515.581 107.85ZM519.584 119.586C520.196 119.946 521.078 120.198 522.032 120.198C524.066 120.198 525.272 119.118 525.272 117.57C525.272 116.274 524.48 115.518 522.986 114.96C521.852 114.51 521.348 114.186 521.348 113.466C521.348 112.818 521.852 112.278 522.788 112.278C523.598 112.278 524.228 112.584 524.57 112.8L524.948 111.648C524.48 111.342 523.706 111.108 522.824 111.108C520.97 111.108 519.818 112.26 519.818 113.664C519.818 114.708 520.556 115.554 522.14 116.13C523.292 116.562 523.742 116.958 523.742 117.714C523.742 118.452 523.202 119.01 522.068 119.01C521.276 119.01 520.448 118.686 519.962 118.398L519.584 119.586ZM532.317 111.288L535.521 119.316C535.611 119.514 535.647 119.64 535.647 119.73C535.647 119.82 535.593 119.946 535.521 120.108C535.143 120.918 534.621 121.53 534.189 121.872C533.721 122.268 533.199 122.52 532.803 122.646L533.199 123.96C533.595 123.888 534.351 123.618 535.143 122.952C536.223 121.998 536.997 120.486 538.131 117.498L540.507 111.288H538.833L537.105 116.4C536.889 117.03 536.709 117.696 536.547 118.218H536.511C536.367 117.696 536.151 117.012 535.935 116.436L534.045 111.288H532.317ZM549.938 115.932C549.974 115.752 549.992 115.518 549.992 115.194C549.992 113.592 549.254 111.108 546.392 111.108C543.854 111.108 542.306 113.16 542.306 115.788C542.306 118.416 543.908 120.198 546.59 120.198C547.976 120.198 548.948 119.892 549.506 119.64L549.218 118.506C548.642 118.758 547.94 118.956 546.806 118.956C545.204 118.956 543.854 118.074 543.818 115.932H549.938ZM543.836 114.798C543.962 113.7 544.646 112.242 546.266 112.242C548.048 112.242 548.48 113.808 548.462 114.798H543.836ZM553.124 120H554.708V107.22H553.124V120ZM558.548 120H560.132V107.22H558.548V120ZM567.662 111.108C565.268 111.108 563.342 112.818 563.342 115.716C563.342 118.47 565.178 120.198 567.518 120.198C569.606 120.198 571.856 118.794 571.856 115.572C571.856 112.926 570.164 111.108 567.662 111.108ZM567.626 112.296C569.498 112.296 570.236 114.15 570.236 115.626C570.236 117.588 569.102 119.01 567.59 119.01C566.042 119.01 564.962 117.57 564.962 115.662C564.962 114.024 565.772 112.296 567.626 112.296ZM573.907 111.288L576.535 120H577.975L579.379 115.86C579.685 114.924 579.955 114.024 580.171 112.98H580.207C580.423 114.006 580.675 114.87 580.981 115.842L582.313 120H583.753L586.561 111.288H584.995L583.753 115.662C583.465 116.688 583.231 117.606 583.087 118.488H583.033C582.835 117.606 582.583 116.688 582.259 115.644L580.909 111.288H579.577L578.155 115.734C577.867 116.67 577.579 117.606 577.381 118.488H577.327C577.165 117.588 576.931 116.688 576.697 115.716L575.527 111.288H573.907ZM589.284 120.198C589.95 120.198 590.382 119.712 590.382 119.064C590.382 118.398 589.95 117.93 589.32 117.93C588.69 117.93 588.24 118.416 588.24 119.064C588.24 119.712 588.672 120.198 589.284 120.198Z" fill="black"/>
</svg>
